<?xml version="1.0" encoding="utf-8"?>
<!-- Generator: Adobe Illustrator 23.0.6, SVG Export Plug-In . SVG Version: 6.00 Build 0)  -->
<svg version="1.1" id="Layer_1" xmlns="http://www.w3.org/2000/svg" xmlns:xlink="http://www.w3.org/1999/xlink" x="0px" y="0px"
	 viewBox="0 0 180.1 177.9" style="enable-background:new 0 0 180.1 177.9;" xml:space="preserve">
<style type="text/css">
	.st0{fill:url(#SVGID_1_);}
	.st1{fill:url(#SVGID_2_);}
	.st2{fill:url(#SVGID_3_);}
	.st3{fill-rule:evenodd;clip-rule:evenodd;fill:url(#SVGID_4_);}
	.st4{fill-rule:evenodd;clip-rule:evenodd;fill:url(#SVGID_5_);}
	.st5{fill-rule:evenodd;clip-rule:evenodd;fill:url(#SVGID_6_);}
	.st6{fill:url(#SVGID_7_);}
	.st7{fill:url(#SVGID_8_);}
	.st8{fill:url(#SVGID_9_);}
	.st9{fill:url(#SVGID_10_);}
	.st10{fill:#BA2026;}
	.st11{fill-rule:evenodd;clip-rule:evenodd;fill:url(#SVGID_11_);}
	.st12{fill-rule:evenodd;clip-rule:evenodd;fill:url(#SVGID_12_);}
	.st13{fill-rule:evenodd;clip-rule:evenodd;fill:url(#SVGID_13_);}
	.st14{fill:url(#SVGID_14_);}
	.st15{fill:none;stroke:url(#SVGID_15_);stroke-width:3;stroke-miterlimit:10;}
	.st16{fill:none;stroke:url(#SVGID_16_);stroke-width:3;stroke-miterlimit:10;}
	.st17{fill:none;stroke:url(#SVGID_17_);stroke-width:3;stroke-miterlimit:10;}
	.st18{fill:none;stroke:url(#SVGID_18_);stroke-width:3;stroke-miterlimit:10;}
	.st19{fill:none;stroke:url(#SVGID_19_);stroke-width:3;stroke-miterlimit:10;}
	.st20{fill:url(#SVGID_20_);}
	.st21{fill:url(#SVGID_21_);}
	.st22{fill:url(#SVGID_22_);}
</style>
<linearGradient id="SVGID_1_" gradientUnits="userSpaceOnUse" x1="31.9523" y1="-5.6352" x2="138.4358" y2="142.201">
	<stop  offset="0" style="stop-color:#E25A27"/>
	<stop  offset="0.1515" style="stop-color:#DF5627"/>
	<stop  offset="0.3067" style="stop-color:#D74A27"/>
	<stop  offset="0.463" style="stop-color:#C93526"/>
	<stop  offset="0.5838" style="stop-color:#BA2026"/>
	<stop  offset="0.7614" style="stop-color:#9D1F1F"/>
	<stop  offset="1" style="stop-color:#711D15"/>
</linearGradient>
<path class="st0" d="M130.8,92.4c4.9-5.2,9.7-10.4,14.6-15.6l6-6.4h-25.5l-30.2,31.4v-7.2v-6.7H93c0-3.5-0.2-10.8,2.2-10.8
	c1,0,1.9-0.6,2.2-1.6c0.3-0.9,1.2-1.6,2.2-1.6h1.1c0.9,0,1.7,0.5,2.1,1.3c0.6,1.2,1.8,1.9,3.1,1.9l3.8,0c1.3,0,2.4-1.1,2.4-2.4
	l0-10.1c0-1.3-1.1-2.4-2.4-2.4l-3.8,0c-1.3,0-2.5,0.7-3.1,1.9c-0.4,0.7-1.2,1.3-2.1,1.3l-1.1,0c-1,0-1.9-0.7-2.2-1.6
	c-0.3-1-1.2-1.6-2.2-1.6c-17.8,0-29.3-0.9-36.4,26.5c0,0.1,0,0.3,0.1,0.4c0.1,0.1,0.2,0.2,0.3,0.2c0.2,0,1,0.3,1.2,0.4
	c0.3,0.1,0.5-0.1,0.6-0.3c2.8-8.2,5.6-12.5,15.2-12.4c4.8,0,5.7,4.1,6,10.9h-2.1v6.7V135v15.9v0h15.4v-1.6v-19.8
	C107.5,117.3,119.3,104.7,130.8,92.4z"/>
<linearGradient id="SVGID_2_" gradientUnits="userSpaceOnUse" x1="22.0829" y1="1.4735" x2="128.5664" y2="149.3098">
	<stop  offset="0" style="stop-color:#E25A27"/>
	<stop  offset="0.1515" style="stop-color:#DF5627"/>
	<stop  offset="0.3067" style="stop-color:#D74A27"/>
	<stop  offset="0.463" style="stop-color:#C93526"/>
	<stop  offset="0.5838" style="stop-color:#BA2026"/>
	<stop  offset="0.7614" style="stop-color:#9D1F1F"/>
	<stop  offset="1" style="stop-color:#711D15"/>
</linearGradient>
<path class="st1" d="M42.7,65.8c15-12.8,30.1-25.5,45.5-38.5c16.7,13.3,33.2,26.5,50.2,40c3.2-4.1,6.2-7.8,10.1-12.7
	c-1.3-0.7-2.5-1.2-3.5-1.9c-18-14.3-36-28.7-53.8-43.1c-2.3-1.9-3.9-2.1-6.2-0.1C66.1,25.6,47.1,41.5,28.3,57.6
	c-1.6,1.3-2.7,4-2.8,6.1c-0.2,18-0.2,35.9-0.1,53.9c0.1,18.5,13.8,32.6,32.4,33.2c6.2,0.2,12.3,0.2,18.5,0.1V135
	c-7,0.1-13.5,0.4-20-0.2c-9.1-0.8-15.2-7.9-15.3-17.7c-0.2-15.7-0.1-31.4,0.1-47.1C41.1,68.6,41.7,66.7,42.7,65.8z"/>
<linearGradient id="SVGID_3_" gradientUnits="userSpaceOnUse" x1="26.8678" y1="-1.973" x2="133.3513" y2="145.8633">
	<stop  offset="0" style="stop-color:#E25A27"/>
	<stop  offset="0.1515" style="stop-color:#DF5627"/>
	<stop  offset="0.3067" style="stop-color:#D74A27"/>
	<stop  offset="0.463" style="stop-color:#C93526"/>
	<stop  offset="0.5838" style="stop-color:#BA2026"/>
	<stop  offset="0.7614" style="stop-color:#9D1F1F"/>
	<stop  offset="1" style="stop-color:#711D15"/>
</linearGradient>
<path class="st2" d="M139.9,144.9c-1.3-1.5-3.7-2.9-6.1-4.2c-6.3-3.5-2.1-8.7-1-11.3c0.6-1.4-0.1-2.7-0.9-3.7l-1.2-1.3
	c-4.9-4.9-10-9-8.7-16.4l-1.1,1.1c0,0,0,0,0,0l-0.4,0.4c0,0,0,0,0,0l0.1-0.1c0,0,0,0,0,0l-0.7,0.6c0,0,0,0,0,0l-1.7,1.7c0,0,0,0,0,0
	l-0.1,0.1l-12,11.7v0l-0.5,0.5c-0.9,3.1,0.4,6,2,8.5c2,3.1,4.4,5.3,6.9,7.8l0,0l1.3,1.3c1,0.8,2.3,1.4,3.6,0.8
	c2.6-1.1,7.9-5.2,11.3,1.1c1.3,2.5,2.7,4.8,4.2,6.1c1.7,1.5,3.5,1.8,5,0.3C141.7,148.4,141.4,146.6,139.9,144.9z M105.8,124.2
	L105.8,124.2L105.8,124.2L105.8,124.2z M136.4,146.2c0.1-0.1,0.2-0.2,0.3-0.2C136.6,146,136.5,146.1,136.4,146.2
	c-0.1,0.1-0.2,0.2-0.2,0.3C136.2,146.3,136.3,146.2,136.4,146.2z M136.4,148.7c-0.2-0.2-0.3-0.4-0.4-0.6
	C136.1,148.4,136.2,148.6,136.4,148.7c0.2,0.2,0.4,0.3,0.6,0.4C136.8,149.1,136.6,148.9,136.4,148.7z"/>
</svg>
