<?xml version="1.0" encoding="utf-8"?>
<!-- Generator: Adobe Illustrator 23.0.6, SVG Export Plug-In . SVG Version: 6.00 Build 0)  -->
<svg version="1.1" id="Layer_1" xmlns="http://www.w3.org/2000/svg" xmlns:xlink="http://www.w3.org/1999/xlink" x="0px" y="0px"
	 viewBox="0 0 180.1 177.9" style="enable-background:new 0 0 180.1 177.9;" xml:space="preserve">
<style type="text/css">
	.st0{fill:url(#SVGID_1_);}
	.st1{fill:url(#SVGID_2_);}
	.st2{fill:url(#SVGID_3_);}
	.st3{fill-rule:evenodd;clip-rule:evenodd;fill:url(#SVGID_4_);}
	.st4{fill-rule:evenodd;clip-rule:evenodd;fill:url(#SVGID_5_);}
	.st5{fill-rule:evenodd;clip-rule:evenodd;fill:url(#SVGID_6_);}
	.st6{fill:url(#SVGID_7_);}
	.st7{fill:url(#SVGID_8_);}
	.st8{fill:url(#SVGID_9_);}
	.st9{fill:url(#SVGID_10_);}
	.st10{fill:#BA2026;}
	.st11{fill-rule:evenodd;clip-rule:evenodd;fill:url(#SVGID_11_);}
	.st12{fill-rule:evenodd;clip-rule:evenodd;fill:url(#SVGID_12_);}
	.st13{fill-rule:evenodd;clip-rule:evenodd;fill:url(#SVGID_13_);}
	.st14{fill:url(#SVGID_14_);}
	.st15{fill:none;stroke:url(#SVGID_15_);stroke-width:3;stroke-miterlimit:10;}
	.st16{fill:none;stroke:url(#SVGID_16_);stroke-width:3;stroke-miterlimit:10;}
	.st17{fill:none;stroke:url(#SVGID_17_);stroke-width:3;stroke-miterlimit:10;}
	.st18{fill:none;stroke:url(#SVGID_18_);stroke-width:3;stroke-miterlimit:10;}
	.st19{fill:none;stroke:url(#SVGID_19_);stroke-width:3;stroke-miterlimit:10;}
	.st20{fill:url(#SVGID_20_);}
	.st21{fill:url(#SVGID_21_);}
	.st22{fill:url(#SVGID_22_);}
</style>
<linearGradient id="SVGID_1_" gradientUnits="userSpaceOnUse" x1="28.625" y1="39.3901" x2="157.238" y2="179.1545">
	<stop  offset="0" style="stop-color:#E25A27"/>
	<stop  offset="0.2193" style="stop-color:#D44627"/>
	<stop  offset="0.5615" style="stop-color:#BA2026"/>
	<stop  offset="0.7486" style="stop-color:#9D1F1F"/>
	<stop  offset="1" style="stop-color:#711D15"/>
</linearGradient>
<path class="st0" d="M93.7,36.9c0.1,0.2,0.2,0.3,0.4,0.5c9,9,17.9,17.9,26.9,26.9c8.2,8.2,16.5,16.5,24.7,24.7
	c0.1,0.1,0.3,0.2,0.4,0.3c-0.1,0.2-0.2,0.4-0.3,0.5c-2.9,4.3-5.9,8.7-8.8,13c-0.2,0.3-0.3,0.6-0.3,0.9c0,12.2,0,24.4,0,36.6
	c0,0.2,0,0.4,0,0.6c-28.7,0-57.4,0-86.2,0c0-0.2,0-0.4,0-0.6c0-12.2,0-24.4,0-36.6c0-0.4-0.1-0.7-0.3-1c-2.9-4.3-5.8-8.6-8.7-12.9
	c-0.1-0.2-0.2-0.3-0.4-0.6c0.2-0.1,0.3-0.2,0.5-0.3c4.9-4.9,9.8-9.8,14.7-14.7c0.3-0.3,0.4-0.5,0.4-0.9c0-6.5,0-12.9,0-19.4
	c0-0.2,0-0.4,0-0.6c1.4,0,2.9,0,4.3,0c0,0.1,0,0.3,0,0.4c0,7.1,0,14.3,0,21.4c0,0.3-0.1,0.5-0.3,0.8c-4.5,4.5-9,9-13.5,13.4
	c-0.3,0.3-0.4,0.5-0.1,0.9c2.5,3.6,4.9,7.3,7.4,10.9c0.3,0.4,0.4,0.8,0.4,1.3c0,11.1,0,22.2,0,33.4c0,0.2,0,0.4,0,0.7
	c25.8,0,51.6,0,77.4,0c0-0.2,0-0.4,0-0.6c0-11.2,0-22.4,0-33.6c0-0.4,0.1-0.7,0.3-1c2.5-3.7,5-7.4,7.5-11c0.2-0.4,0.3-0.6-0.1-0.9
	c-12.4-12.4-24.7-24.7-37.1-37.1c-3-3-5.9-5.9-8.9-8.9c-0.1-0.1-0.2-0.3-0.3-0.4c-3.2,3.2-6.3,6.3-9.4,9.4c-1.1-1.1-2.1-2.1-3.2-3.2
	c0.1-0.1,0.3-0.1,0.4-0.3c3.9-3.9,7.8-7.8,11.7-11.7c0.1-0.1,0.2-0.3,0.3-0.4C93.6,36.9,93.7,36.9,93.7,36.9z"/>
<linearGradient id="SVGID_2_" gradientUnits="userSpaceOnUse" x1="31.3876" y1="36.848" x2="160.0005" y2="176.6124">
	<stop  offset="0" style="stop-color:#E25A27"/>
	<stop  offset="0.2193" style="stop-color:#D44627"/>
	<stop  offset="0.5615" style="stop-color:#BA2026"/>
	<stop  offset="0.7486" style="stop-color:#9D1F1F"/>
	<stop  offset="1" style="stop-color:#711D15"/>
</linearGradient>
<path class="st1" d="M64.6,133.8c0-27,0-54,0-81c0.2,0,0.4,0,0.6,0c4.8,0,9.5,0,14.3,0c0.6,0,0.6,0,0.6,0.6c0,15.2,0,30.5,0,45.7
	c0,0.2,0,0.4,0,0.7c0.2-0.2,0.3-0.3,0.4-0.3c7.9-7.5,15.7-15.1,23.6-22.6c0.4-0.4,0.8-0.5,1.3-0.5c5.9,0,11.8,0,17.7,0
	c0.2,0,0.3,0,0.6,0c-0.2,0.2-0.3,0.3-0.4,0.4c-8.5,8.4-16.9,16.9-25.4,25.3c-5.8,5.8-11.6,11.6-17.4,17.4c-0.3,0.3-0.4,0.7-0.4,1.1
	c0,4.3,0,8.5,0,12.8c0,0.2,0,0.3,0,0.6C74.9,133.8,69.8,133.8,64.6,133.8z"/>
<linearGradient id="SVGID_3_" gradientUnits="userSpaceOnUse" x1="27.1754" y1="40.7241" x2="155.8061" y2="180.5077">
	<stop  offset="0" style="stop-color:#E25A27"/>
	<stop  offset="0.2193" style="stop-color:#D44627"/>
	<stop  offset="0.5615" style="stop-color:#BA2026"/>
	<stop  offset="0.7486" style="stop-color:#9D1F1F"/>
	<stop  offset="1" style="stop-color:#711D15"/>
</linearGradient>
<path class="st2" d="M122.7,133.8c-0.2,0-0.3,0-0.5,0c-6,0-11.9,0-17.9,0c-0.3,0-0.6-0.1-0.8-0.3c-3.9-3.9-7.7-7.7-11.6-11.6
	c-0.3-0.3-0.3-0.5-0.2-0.8c1.3-4.5,2.6-9.1,3.9-13.6c0-0.2,0.1-0.3,0.2-0.5c9,8.9,18,17.9,27,26.8
	C122.7,133.7,122.7,133.8,122.7,133.8z"/>
</svg>
