<?xml version="1.0" encoding="utf-8"?>
<!-- Generator: Adobe Illustrator 23.0.6, SVG Export Plug-In . SVG Version: 6.00 Build 0)  -->
<svg version="1.1" id="Layer_1" xmlns="http://www.w3.org/2000/svg" xmlns:xlink="http://www.w3.org/1999/xlink" x="0px" y="0px"
	 viewBox="0 0 180.1 177.9" style="enable-background:new 0 0 180.1 177.9;" xml:space="preserve">
<style type="text/css">
	.st0{fill:#FF9600;}
</style>
<path class="st0" d="M95.7,31.1c13.5,0,27,0,40.5,0c7,0,9,2,8.6,9c-0.4,6.8-1,13.6-1.5,20.4c-0.2,2.4-0.7,4.2-3.4,5.3
	c-3.9,1.5-5.7,4.9-6.1,9c-0.1,1.3-0.1,2.7-0.1,4c0,12.2,0,12.2-12,12.2c-19.8,0-39.7-0.1-59.5,0.1c-3.4,0-4.9-0.8-4.5-4.4
	c0.3-3.1,0-6.3,0.1-9.5c0.1-5.5-1.8-9.9-7.2-11.9c-2.3-0.9-2.5-2.5-2.6-4.3c-0.5-7.1-1-14.3-1.3-21.4c-0.3-6.3,1.7-8.5,8.1-8.5
	C68.4,31.1,82.1,31.1,95.7,31.1z M85.8,50.1c-0.4-2-1.9-2.4-3.7-2.3c-1.7,0.1-3.1,0.9-3,2.7c0.1,2.3,2,2.9,4,2.7
	C84.7,52.9,85.8,52.1,85.8,50.1z M112.6,50.2c-0.5-1.9-1.9-2.6-3.7-2.5c-1.6,0.1-3.1,0.6-3.1,2.6c0,2.2,1.5,2.8,3.3,2.8
	C111,53.1,112.3,52.3,112.6,50.2z M112.6,71.6c-0.4-2-1.7-2.7-3.6-2.7c-1.9,0.1-3.3,0.8-3.2,2.9c0.1,1.9,1.6,2.4,3.2,2.4
	C110.9,74.4,112.2,73.6,112.6,71.6z M82.5,74.3c1.8-0.1,3.4-0.7,3.2-2.9c-0.1-1.9-1.5-2.4-3.1-2.5c-1.9-0.1-3.5,0.6-3.6,2.6
	C79,73.6,80.6,74.3,82.5,74.3z"/>
<path class="st0" d="M95.8,96.9c13.2,0,26.3,0,39.5,0c6.6,0,7.8,1.2,7.9,7.9c0,3.2,0.1,6.3,0,9.5c-0.1,5.8-1.7,7.5-7.4,7.5
	c-11.7,0.1-23.3,0-35,0c-14.7,0-29.3,0-44,0c-6.8,0-8.3-1.4-8.4-8.1c0-3.3-0.1-6.7,0-10c0.2-5.4,1.5-6.8,6.9-6.8
	C68.8,96.9,82.3,96.9,95.8,96.9z"/>
<path class="st0" d="M148.2,70.2c2.9,0,4.6-0.2,6.2,0c3.5,0.4,5.5,2.4,5.2,6c-1.2,13.4-2.6,26.8-4,40.2c-0.2,1.9-1,3.6-2.7,4.5
	c-1.3,0.7-2.9,1.4-4.3,0.5c-1.3-0.8,0-2.1,0-3.2c0-5.5,0.2-11,0-16.5c-0.1-4.3-2.3-7.6-6.2-9.5c-1-0.5-2.7-0.5-2.8-1.8
	c-0.3-5.9-1.6-12.1,0.7-17.7C142,69.1,146.3,70.4,148.2,70.2z"/>
<path class="st0" d="M52.1,82.2c0,1.8-0.1,3.7,0,5.5c0.1,2.2-0.3,3.6-2.8,4.6c-4.5,1.7-6.5,5.5-6.6,10.2c0,5.6-0.1,11.3,0.4,16.9
	c0.2,2.5-0.7,2.5-2.4,2.3c-3.1-0.5-4.6-2.4-4.9-5.4c-1.3-13.2-2.7-26.5-3.9-39.7c-0.1-1-0.1-2.1,0.3-2.9c3.6-6.1,9.6-3,14.5-3.3
	c3.8-0.2,5.4,2.7,5.3,6.4C52,78.6,52.1,80.4,52.1,82.2z"/>
<path class="st0" d="M40.4,142.5c1-4,2.1-8.7,3.5-13.3c0.8-2.6,3.3-2.2,5-1.8c1.8,0.4,0.8,2.2,0.5,3.3c-1.1,4.5-2.3,8.9-3.6,13.4
	c-0.5,1.7-1.5,3.1-3.5,2.6C40.6,146.2,40.3,144.7,40.4,142.5z"/>
<path class="st0" d="M151.1,142.5c0.2,2.3-0.2,3.7-1.9,4.2c-2.1,0.5-3-0.9-3.5-2.6c-1.3-4.4-2.5-8.9-3.6-13.4
	c-0.3-1.1-1.4-3,0.5-3.3c1.7-0.3,4.3-0.8,5,1.8C148.9,133.8,150.1,138.5,151.1,142.5z"/>
</svg>
