<?xml version="1.0" encoding="utf-8"?>
<!-- Generator: Adobe Illustrator 23.0.6, SVG Export Plug-In . SVG Version: 6.00 Build 0)  -->
<svg version="1.1" id="Layer_1" xmlns="http://www.w3.org/2000/svg" xmlns:xlink="http://www.w3.org/1999/xlink" x="0px" y="0px"
	 viewBox="0 0 180.1 177.9" style="enable-background:new 0 0 180.1 177.9;" xml:space="preserve">
<style type="text/css">
	.st0{fill:#FF9600;}
</style>
<g>
	<path class="st0" d="M96.5,97.6c-2.2,0-4.3,0-6.5,0c-1.4,0-2.1,0.6-1.9,2c0,0.5,0,1,0.1,1.4c1.3,6.2-1.9,10.4-6.5,13.5
		c-5.1,3.4-10.8,3.8-16.4,1.1c-4-1.9-6.7-5.1-8.4-9.2c-0.7-1.6-0.4-2.6,1.5-3.1c1.2-0.3,3.6-0.6,3.1-2.1c-0.6-1.8-2.3,0-3.4,0.4
		c-8.6,3-17.8-0.6-21.5-8.5c-3.7-7.9-0.7-17.1,6.9-21.6c3-1.8,3.3-1.7,5.2,1.2c3,4.4,7,7.2,12.4,7.7c0.6,0.1,1.6,0.6,1.7-0.5
		c0.2-1.1-0.8-1.2-1.6-1.2c-1.2-0.1-2.4-0.4-3.5-0.9c-5-2-10.2-6.7-9.1-14.9c0.8-6.2,6.4-12.7,12.8-13.6c3.5-0.5,5.5-1.8,7.2-5.1
		c4.2-8.2,14.4-10.7,22.3-6.3c1.6,0.9,2.1,1.7,1.1,3.5c-4.4,8.1-2.3,17.7,4.8,22.9c0.6,0.4,1.3,1.3,2,0.4c0.8-0.9-0.3-1.4-0.8-1.9
		c-5.9-5-8-12-5.4-18.4c2.6-6.5,8.9-10.8,15.7-10.5c7.2,0.2,13.6,5.1,15.6,12c0.6,1.9,1.4,2.6,3.4,2.8c9,1.1,14.8,7.8,15,17
		c0,1.4,0.5,2.4,1.4,3.4c5.7,5.9,6.5,14.3,2.3,20.9c-4.3,6.6-12.8,9.4-20.5,6.9c-0.9-0.3-2.4-2-3-0.1c-0.4,1.4,1.5,1.5,2.5,1.9
		c3.1,1.1,6.2,1.4,9.4,0.7c2-0.4,2.7,0.3,2.5,2.4c-1,7.2-6.8,13-14.2,14.2c-7,1.1-14.3-2.8-17.4-9.2c-1.1-2.3-0.7-4.7-0.5-7.1
		c0.2-1.7-0.4-2.2-1.9-2.1C100.8,97.6,98.7,97.6,96.5,97.6C96.5,97.6,96.5,97.6,96.5,97.6z"/>
	<path class="st0" d="M94,144.1c-18.2,0-36.4,0-54.6,0c-0.8,0-1.6,0-2.4,0c-0.9,0-1.6-0.4-1.6-1.4c-0.1-0.9,0.3-1.6,1.3-1.6
		c1.6,0,1.8-0.9,1.8-2.2c0-0.9-0.1-1.8,0-2.6c0.2-2.5-0.1-4.4-2.7-5.9c-2.9-1.7-3.9-5-3.8-8.4c0.1-4.1,1.1-8.1,3.1-11.7
		c2.7-4.8,6.8-4.9,9.5-0.1c2.3,4,3.5,8.4,3.1,13.1c-0.3,3.4-1.7,6.3-5,8c-0.9,0.5-1.3,1.1-1.3,2.1c0,1.9,0,3.8,0,5.7
		c0,1.3,0.5,1.9,1.8,1.9c4.2,0,8.3,0,12.5,0c0.7,0,1.7,0,1.7-0.9c0.1-1.7,0.8-3.6-0.7-5c-5.3-5.1-5.7-13.3-0.9-18.8
		c1.9-2.2,4.7-2.3,6.4,0c2.8,3.8,4,8.1,3.3,12.9c-0.3,2.3-1.6,4.1-3.5,5.5c-1.3,0.9-2,4.2-1.3,5.6c0.4,0.7,1,0.7,1.6,0.7
		c6.9,0,13.9,0,20.8,0c1.3,0,1.8-0.6,2.1-1.8c2-7.8,3.4-15.7,4.2-23.8c0.5-4.7,0.7-9.4,0.3-14.1c-0.1-1.5,0.6-2,1.9-2
		c2.8,0,5.6,0.1,8.4,0c2-0.1,2.7,0.7,2.6,2.7c-0.2,7.2-0.2,14.4,1,21.5c0.8,5.2,1.9,10.4,3.4,15.4c0.5,1.6,1.3,2.1,2.9,2.1
		c9.8-0.1,19.6-0.1,29.5,0c1.8,0,2.3-0.7,2.3-2.4c0-2.3,0-4.3-2.6-5.8c-3-1.7-4.1-4.9-4-8.3c0.1-4.4,1.1-8.7,3.6-12.5
		c2.6-3.9,6-4.1,8.6-0.2c3,4.4,4.2,9.5,3.5,14.8c-0.4,3-2,5.3-4.6,6.9c-1.4,0.8-2.1,5.8-1.1,6.9c0.5,0.5,1.2,0.4,1.8,0.4
		c1.4,0,2.7,0,4.1,0.1c0.9,0,1.3,0.6,1.3,1.4c0,0.8-0.3,1.4-1.2,1.5c-0.9,0.1-1.8,0.1-2.6,0.1C130.6,144.1,112.3,144.1,94,144.1z"/>
	<path class="st0" d="M122.6,26.3c0.5,0.1,0.9,0,1.1,0.2c2.8,2.3,5.5,1.8,8.4,0c0.7-0.4,2-0.8,2.3,0.6c0.3,1.2-0.3,1.9-1.5,2.2
		c-1.8,0.4-2.9,1.6-3.3,3.3c-0.2,0.9-0.6,1.6-1.7,1.6c-1.1,0-1.5-0.6-1.7-1.6c-0.5-2-1.8-3.1-3.8-3.5c-1.1-0.2-1.4-1-1.2-2
		C121.3,26.4,122,26.3,122.6,26.3z"/>
	<path class="st0" d="M57.9,26.4c1.6,0.2,2.9,2,4.5,2.3c1.5,0.2,2.7-2.2,4.7-2.2c0.7,0,1.5-0.3,1.8,0.6c0.2,0.9,0.3,1.8-0.9,2.1
		c-2.1,0.6-3.5,1.8-3.9,4c-0.1,0.8-0.7,1.2-1.6,1.2c-0.8,0-1.4-0.3-1.6-1.1c-0.5-2.3-1.9-3.5-4.2-4.1c-1-0.3-1-1.1-0.9-1.9
		C56.1,26.2,56.8,26.2,57.9,26.4z"/>
	<path class="st0" d="M41.9,36.7c2.1,2.5,4.7,1.2,7.4,0c0.7-0.3,1.6-0.1,1.8,1c0.1,0.9-0.1,1.6-1,1.9c-1.8,0.4-2.7,1.5-3.2,3.2
		c-0.2,0.8-0.8,1.1-1.6,1.1c-0.8,0-1.4-0.3-1.6-1.2c-0.5-1.7-1.4-2.8-3.2-3.2c-1-0.2-1.1-1-0.9-1.9C39.8,36.5,40.6,36.6,41.9,36.7z"
		/>
	<path class="st0" d="M141.4,36.6c2.1,2.7,4.8,1.3,7.5,0c0.6-0.3,1.5-0.1,1.7,0.8c0.2,0.8,0.1,1.7-0.8,2c-1.8,0.5-2.9,1.5-3.3,3.4
		c-0.2,0.7-0.7,1-1.4,1c-0.8,0-1.4-0.2-1.7-1c-0.5-1.7-1.5-2.9-3.3-3.4c-1-0.2-1-1.1-0.9-1.9C139.4,36.6,140.2,36.6,141.4,36.6z"/>
</g>
</svg>
