<?xml version="1.0" encoding="utf-8"?>
<!-- Generator: Adobe Illustrator 23.0.6, SVG Export Plug-In . SVG Version: 6.00 Build 0)  -->
<svg version="1.1" id="Layer_1" xmlns="http://www.w3.org/2000/svg" xmlns:xlink="http://www.w3.org/1999/xlink" x="0px" y="0px"
	 viewBox="0 0 180.1 177.9" style="enable-background:new 0 0 180.1 177.9;" xml:space="preserve">
<style type="text/css">
	.st0{fill:#FF9600;}
</style>
<path class="st0" d="M110.6,113.8c0,13.2,0,26.5,0,39.7c0,5.4-1.1,6.6-6.4,6.6c-17.8,0-35.7,0-53.5,0c-5.2,0-6.7-1.3-6.7-6.5
	c0-26.9,0-53.8-0.1-80.8c0-3,1.1-3.6,3.8-3.5c19.7,0.1,39.4,0.1,59.1,0c3.1,0,3.9,0.9,3.9,3.9C110.5,86.8,110.6,100.3,110.6,113.8z
	 M56.5,85.1C56.5,85.1,56.5,85.1,56.5,85.1c0-2.4,0-4.9,0-7.3c-0.1-1.6-0.9-2.6-2.6-2.6c-1.5,0-2.2,1.1-2.2,2.4
	c-0.1,5-0.1,10.1,0,15.1c0,1.5,0.8,2.7,2.5,2.6c1.7-0.1,2.3-1.3,2.3-2.9C56.5,90,56.5,87.6,56.5,85.1z"/>
<path class="st0" d="M77.1,65.1c-9.7,0-19.4-0.1-29,0.1c-3.1,0.1-4.3-0.7-4.3-4.1c0.2-9.8,0-19.7,0.1-29.5c0-5.2,1.4-6.6,6.6-6.6
	c17.8,0,35.6,0,53.4,0c5.6,0,6.6,1.1,6.6,6.8c0,9.5-0.2,19,0.1,28.6c0.1,4-1.3,4.8-5,4.7C96.2,65,86.6,65.1,77.1,65.1z M56.5,45.6
	c0-2,0-4,0-6c0-1.6-0.9-2.6-2.5-2.6c-1.5,0-2.3,1-2.3,2.3c-0.1,4.1-0.1,8.3,0,12.4c0,1.4,0.7,2.4,2.2,2.4c1.6,0,2.6-0.9,2.6-2.5
	C56.6,49.6,56.5,47.6,56.5,45.6z"/>
<path class="st0" d="M144.9,125c0,7.4-0.1,14.7,0,22.1c0.1,3.8-1.1,5.6-5.3,5.5c-7.2-0.2-14.4-0.2-21.7,0c-2.7,0.1-3.9-1-3.2-3.4
	c0.7-2.3-2.6-6.1,2.7-6.7c9.4-1,15.6-7.5,15.6-16.1c0-8.6-6.3-15.3-15.6-16.2c-2.2-0.2-2.7-0.8-2.8-3c-0.4-8.9-0.4-8.9,8.5-8.9
	c5.7,0,11.4,0.2,17-0.1c3.5-0.2,4.9,0.8,4.8,4.6C144.7,110.3,144.9,117.6,144.9,125z"/>
<path class="st0" d="M129.9,94.4c-3.5,0-7,0-10.6,0c-0.8,0-1.6,0.2-2.3,0c-5.1-2.2-1.3-6.5-2.2-9.8c-0.4-1.6-1-4.1,2.5-4.1
	c8,0.1,15.9,0.1,23.9,0c2.3,0,3.4,1.1,3.6,3.3c0,0.2,0,0.3,0,0.5c1.2,9.9,1,10.2-9,10.2C133.9,94.4,131.9,94.4,129.9,94.4z"/>
</svg>
