<?xml version="1.0" encoding="utf-8"?>
<!-- Generator: Adobe Illustrator 23.0.6, SVG Export Plug-In . SVG Version: 6.00 Build 0)  -->
<svg version="1.1" id="Layer_1" xmlns="http://www.w3.org/2000/svg" xmlns:xlink="http://www.w3.org/1999/xlink" x="0px" y="0px"
	 viewBox="0 0 180.1 177.9" style="enable-background:new 0 0 180.1 177.9;" xml:space="preserve">
<style type="text/css">
	.st0{fill:#FF9600;}
</style>
<path class="st0" d="M48.3,64.7c-3.5,0-7.1-0.4-10.6,0c-9.3,1.1-13.5-1.4-13.5-12.1c0-10.5,3.8-13.3,13.3-12.4
	c6,0.6,12.2-0.1,18.2,0.2c8.3,0.4,18.1-3.9,18.2,12c0.1,15.9-9.6,11.8-18,12.2C53.4,64.8,50.9,64.7,48.3,64.7z"/>
<path class="st0" d="M103.6,64.6c-4.1,0-8.2-0.4-12.3,0.1c-9.7,1.3-12.1-3-12-12.2c0.1-9,2.1-13.4,12-12.4
	c7.1,0.7,14.3,0.2,21.5,0.2c8.1,0,15.9-2,16.1,11.4c0.2,13.4-6.5,13.8-16.1,13C109.7,64.5,106.7,64.7,103.6,64.6
	C103.6,64.7,103.6,64.7,103.6,64.6z"/>
<path class="st0" d="M76,94.8c-3.5,0-7.1-0.3-10.6,0.1c-9.6,1.2-13.2-2.1-13.2-12.5c-0.1-10.7,4.1-13,13.4-12.2
	c6.5,0.5,13.2,0.1,19.7,0.1c8.5,0,16.6-2,16.5,12.2c-0.1,14.1-8.1,12.4-16.7,12.3C82,94.7,79,94.7,76,94.8z"/>
<path class="st0" d="M50.1,99c3.5,0,7.1,0.4,10.6-0.1c9.8-1.2,13.2,2.5,13.1,12.7c-0.1,9.4-2.9,12.8-12.2,11.9
	c-7-0.6-14.2-0.2-21.3-0.1c-8.7,0.2-16.5,1.6-16.2-12.5C24.3,96.8,32.6,99,41,99C44,98.9,47.1,99,50.1,99C50.1,99,50.1,99,50.1,99z"
	/>
<path class="st0" d="M104.3,123.5c-4,0-8.1-0.4-12.1,0.1c-9.7,1.1-12.9-2.4-13-12.5c-0.1-11,4.9-12.7,13.8-12.1
	c6,0.4,12.1,0,18.2,0.1c8.8,0,17.9-2.6,17.7,12.7c-0.2,14.6-8.8,11.6-17,11.7C109.4,123.5,106.9,123.5,104.3,123.5z"/>
<path class="st0" d="M76.1,153.5c-3.6,0-7.2-0.4-10.7,0.1c-9.5,1.2-13.2-1.8-13.3-12.3c-0.1-10.7,4.1-13.1,13.4-12.2
	c6.5,0.6,13.2,0.2,19.8,0.1c8.6-0.1,16.4-1.9,16.4,12.3c0,14.3-8,12.2-16.5,12.2C82.2,153.5,79.1,153.6,76.1,153.5z"/>
<path class="st0" d="M131.5,153.6c-3.5,0-7.1-0.3-10.6,0.1c-8.7,0.8-13.8-0.5-13.9-11.7c-0.1-11.5,4.4-13.9,14.3-12.8
	c5.5,0.6,11.2-0.3,16.7,0.1c8,0.6,18.4-4.6,18.6,11.6c0.3,16.7-10.3,12.3-19.1,12.8C135.6,153.6,133.5,153.6,131.5,153.6z"/>
<path class="st0" d="M46,82.4c1.7,9.3-1.7,12.5-11.4,12.6c-10.9,0.2-10.9-5.6-11.2-13.4c-0.3-8.5,2.4-11.5,11.2-11.6
	C44.4,69.8,47.9,73.2,46,82.4z"/>
<path class="st0" d="M46,141.9c2.1,9.7-2.7,11.6-11.6,12c-10.8,0.4-10.5-5.3-10.9-13.1c-0.5-9.5,2.8-11.8,11.9-12
	C45.9,128.6,47.3,133.6,46,141.9z"/>
</svg>
