<?xml version="1.0" encoding="utf-8"?>
<!-- Generator: Adobe Illustrator 23.0.6, SVG Export Plug-In . SVG Version: 6.00 Build 0)  -->
<svg version="1.1" id="Layer_1" xmlns="http://www.w3.org/2000/svg" xmlns:xlink="http://www.w3.org/1999/xlink" x="0px" y="0px"
	 viewBox="0 0 180.1 177.9" style="enable-background:new 0 0 180.1 177.9;" xml:space="preserve">
<style type="text/css">
	.st0{fill:#FF9600;}
</style>
<path class="st0" d="M50.8,74.9C64,82,77,88.9,90.4,96c-3.5,3.9-6.9,7.7-10.4,11.5c-2,2.2-4.1,4.3-6,6.6c-1,1.1-1.8,1.3-3.1,0.5
	C57.5,106.7,44,98.9,30.5,91.2c-1.9-1.1-1.3-1.8-0.3-3c4.3-4.6,8.4-9.4,12.8-13.9c1.6-1.6,1.3-2.5-0.2-3.8
	c-4.2-3.8-8.2-7.7-12.3-11.6c-1.3-1.2-1.9-1.8,0.2-2.9c14.2-7.2,28.3-14.6,42.5-22c1.7-0.9,2.9-0.7,4.3,0.4c4.4,3.4,8.9,6.6,13.3,10
	c1.4,1.1,2.3,1.1,3.7,0c4.7-3.5,9.5-6.8,14.2-10.2c1.4-1,2.4-1,3.9-0.2c14.2,7.5,28.4,14.9,42.6,22.3c1.8,0.9,2,1.5,0.4,2.9
	c-4.2,3.7-8.3,7.7-12.5,11.4c-1.4,1.3-1.6,2.1-0.2,3.6c4.4,4.9,8.6,10,13,14.9c1.3,1.4,1.1,2-0.5,2.9c-13.3,7.3-26.6,14.7-39.8,22.1
	c-1,0.6-1.8,1.2-3,0c-5.5-6-11.1-11.8-16.8-17.9c13.2-7,26.2-14,39.1-20.9c0-1.2-0.9-1.3-1.5-1.6c-12.9-7.1-25.7-14.2-38.6-21.3
	c-1-0.6-1.9-0.9-3.1-0.2c-13.3,7.4-26.6,14.7-39.8,22C51.5,74.1,51.3,74.5,50.8,74.9z"/>
<path class="st0" d="M141.4,105.9c0,6.6,0,12.7,0,18.9c0,1.5-0.5,2.2-1.8,2.9c-13.9,7.4-27.8,14.8-41.7,22.2c-1,0.6-2.3,1.7-2.3-0.9
	c0.1-14.6,0-29.2,0.1-43.8c0-0.1,0.2-0.3,0.4-0.7c3.2,3.4,6.4,6.7,9.6,10.1c2.2,2.3,4.2,6,6.9,6.6c2.7,0.6,5.7-2.5,8.5-4
	C127.9,113.5,134.4,109.8,141.4,105.9z"/>
<path class="st0" d="M44.7,105.7c3.4,1.9,6.4,3.6,9.5,5.4c5.9,3.4,11.8,6.7,17.6,10.2c1.5,0.9,2.4,0.8,3.6-0.6
	c4.1-4.7,8.4-9.4,12.7-14c0.6-0.7,1-1.6,2.4-1.8c0,1.9,0,3.8,0,5.7c0,12.6,0,25.2,0,37.8c0,2.3-0.4,2.6-2.5,1.5
	c-13.8-7.4-27.6-14.8-41.4-22.1c-0.9-0.5-1.9-0.8-1.9-2.2C44.7,119.1,44.7,112.6,44.7,105.7z"/>
</svg>
