<?xml version="1.0" encoding="utf-8"?>
<!-- Generator: Adobe Illustrator 23.0.6, SVG Export Plug-In . SVG Version: 6.00 Build 0)  -->
<svg version="1.1" id="Layer_1" xmlns="http://www.w3.org/2000/svg" xmlns:xlink="http://www.w3.org/1999/xlink" x="0px" y="0px"
	 viewBox="0 0 180.1 177.9" style="enable-background:new 0 0 180.1 177.9;" xml:space="preserve">
<style type="text/css">
	.st0{fill:#FF9600;}
</style>
<path class="st0" d="M82.8,155c-12.3,0-24.6,0.1-37,0c-13.9-0.1-21.5-7.5-21.5-21.2c-0.1-25.9-0.1-51.7,0-77.6
	c0-14.1,7.5-21.4,21.8-21.5c13.8-0.1,27.5-0.1,41.3,0c3.7,0,8.8-1.2,8.9,4.7c0.1,5.8-4.8,5.1-8.7,5.1c-13.8,0.1-27.5,0-41.3,0
	c-9.2,0-12.2,3-12.2,12.2c0,25.5,0,50.9,0,76.4c0,8.8,3.1,12,11.7,12c24.8,0.1,49.7,0.1,74.5,0c8.7,0,11.8-3.2,11.8-11.9
	c0.1-14.4,0-28.7,0-43.1c0-1.6-0.1-3.3,0.1-4.9c0.4-3.1,2-4.9,5.3-4.7c3,0.2,4.3,2.2,4.3,5c0,17.7,0.3,35.3-0.3,53
	c-0.3,9.6-8.7,16.4-18.9,16.6C109.5,155.1,96.2,155,82.8,155C82.8,155,82.8,155,82.8,155z"/>
<path class="st0" d="M68.2,122.5c-13.4,1.5-15,1.5-14.2-12.4c0.5-8.7,3-15.3,9.5-21.4c13.2-12.3,25.7-25.3,38.3-38.2
	c3.9-3.9,6.9-4.2,10.8-0.1c4.7,5.1,9.8,9.9,14.7,14.8c2.9,2.8,3,5.6,0.1,8.5c-15.4,15.3-30.7,30.7-46.1,46.1
	C77.2,124.1,71.6,121.6,68.2,122.5z"/>
<path class="st0" d="M141.5,57.9c-1.7-0.1-3.1-0.9-4.3-2.1c-5.3-5.4-11.1-10.3-15.9-16.1c-6.6-7.9,3.2-10,6.2-14.4
	c2.4-3.6,5.9-6.9,10.5-2.2c5.2,5.2,10.4,10.4,15.6,15.6c3,3,3,6-0.1,9c-2.6,2.6-5.2,5.2-7.8,7.8C144.5,56.8,143.2,57.7,141.5,57.9z"
	/>
</svg>
