<?xml version="1.0" encoding="utf-8"?>
<!-- Generator: Adobe Illustrator 23.0.6, SVG Export Plug-In . SVG Version: 6.00 Build 0)  -->
<svg version="1.1" id="Layer_1" xmlns="http://www.w3.org/2000/svg" xmlns:xlink="http://www.w3.org/1999/xlink" x="0px" y="0px"
	 viewBox="0 0 180.1 177.9" style="enable-background:new 0 0 180.1 177.9;" xml:space="preserve">
<style type="text/css">
	.st0{fill:#FF9600;}
</style>
<g>
	<path class="st0" d="M56.9,132.6c0.2-3.6-0.4-8.1,0.5-12.5c2.3-11.5,12.3-19.9,23.9-20.2c5.9-0.1,11.7-0.1,17.6,0
		c13.3,0.3,24.1,11.1,24.5,24.3c0.1,5.7-0.2,11.5,0.1,17.2c0.2,3.4-1.3,4.9-4.2,6c-6.2,2.3-12.6,3.2-19.1,3.7
		c-13.1,1-26-0.5-38.7-3.8c-3.4-0.9-5.3-2.3-4.8-6.2C57.2,138.6,56.9,136,56.9,132.6z"/>
	<path class="st0" d="M75.4,97.1c-1.7,0.5-2.8,0.7-3.9,1.1c-10.4,3.2-17.6,12.6-17.8,23.6c-0.1,4.4-0.1,8.9,0,13.3
		c0,1.5-0.4,2.1-2,2.1c-8-0.4-16-1.2-23.6-4c-2.7-1-4.2-2.5-4-5.8c0.3-5.4,0-10.8,0.1-16.3c0.2-14.7,11-25.3,25.7-25.5
		c5-0.1,10,0,15,0c1.7,0,2.8,0.3,3.4,2.1C69.5,91.4,71.9,94.3,75.4,97.1z"/>
	<path class="st0" d="M104.9,97.7c3.4-3,6-6.1,7.5-10.1c0.3-0.9,1-1.3,2-1.3c6.8,0.2,13.7-0.6,20.5,0.4c11.7,1.8,20.5,11.3,21.1,23
		c0.4,6.6,0.1,13.2,0.2,19.8c0,1.8-0.9,2.9-2.4,3.5c-8.2,3.6-16.9,4.3-25.7,4.7c-1.7,0.1-1.5-1.2-1.5-2.2c0-3.8,0-7.6,0-11.4
		c0-13.2-7.2-22.5-19.9-25.8C106.2,98.2,105.8,98,104.9,97.7z"/>
	<path class="st0" d="M109.8,78c0,10.8-8.6,19.4-19.5,19.4c-10.8,0-19.5-8.7-19.4-19.5c0-10.8,8.7-19.4,19.5-19.4
		C101.2,58.5,109.8,67.2,109.8,78z"/>
	<path class="st0" d="M57.9,83.4c-10.7,0-18.9-7.4-20.2-17.5c-1.2-9.3,5.1-18.3,14.5-20.8c9.3-2.5,19.2,2.4,22.9,11.5
		c0.9,2.1,1,3.6-1.1,5.3c-4.9,4.1-7.6,9.6-7.6,15.9c0,3.4-1.5,4.4-4.2,4.9C60.5,83,58.8,83.2,57.9,83.4z"/>
	<path class="st0" d="M142.6,64.5c-0.1,13.5-13.8,23-26.3,18.3c-1.7-0.6-2.5-1.4-2.5-3.5c0-6.9-2.6-12.7-7.9-17.1
		c-1.8-1.5-1.7-2.9-1-4.8c3.4-8.7,12.7-13.8,21.8-12.1C135.9,47.1,142.7,55.3,142.6,64.5z"/>
</g>
</svg>
