<?xml version="1.0" encoding="utf-8"?>
<!-- Generator: Adobe Illustrator 23.0.6, SVG Export Plug-In . SVG Version: 6.00 Build 0)  -->
<svg version="1.1" id="Layer_1" xmlns="http://www.w3.org/2000/svg" xmlns:xlink="http://www.w3.org/1999/xlink" x="0px" y="0px"
	 viewBox="0 0 180.1 177.9" style="enable-background:new 0 0 180.1 177.9;" xml:space="preserve">
<style type="text/css">
	.st0{fill:#FF9600;}
</style>
<g>
	<path class="st0" d="M34.5,86.5c-1.7,1.6-3.6,1.8-5.5,1.2c-2.4-0.6-3.8-3.4-3-5.7c2.7-7.6,5.3-15.3,8-22.9c0.3-0.8,0.4-1.5,0.4-2.4
		c0-1.3,0-2.5,0-3.8c0-3.1,2.2-5.3,5.3-5.3c18.5,0,37,0,55.5,0c14.9,0,29.9,0,44.8,0c3.4,0,5.7,2.1,5.5,5.5c-0.1,3.1,0.5,6.1,1.5,9
		c2.4,6.6,4.7,13.2,7,19.8c0.9,2.7-0.9,5.6-3.7,6c-1.7,0.2-3.3,0-4.7-1.3c-0.2,0.3-0.1,0.7-0.1,0.9c0,18.6,0,37.1,0,55.7
		c0,2.7-1.6,4.7-4.1,5.2c-0.3,0.1-0.6,0.1-1,0.1c-3.1,0-6.2,0-9.3,0c-0.7,0-0.8-0.2-0.8-0.8c0-14.5,0-29,0-43.5
		c0-1.2,0.1-1.1-1.1-1.1c-7.7,0-15.4,0-23.1,0c-1.1,0-1.1,0-1.1,1c0,14.5,0,28.9,0,43.4c0,1.2,0.1,1-1,1c-21.4,0-42.9,0-64.3,0
		c-3.3,0-5.4-2.1-5.4-5.4c0-18.5,0-36.9,0-55.4C34.5,87.4,34.5,87,34.5,86.5z M69.8,133.3c6.5,0,12.9,0,19.4,0
		c0.7,0,0.8-0.2,0.8-0.8c0-9.5,0-19.1,0-28.6c0-0.7-0.1-0.9-0.8-0.9c-12.9,0-25.8,0-38.7,0c-0.7,0-0.9,0.2-0.9,0.9
		c0,9.5,0,19.1,0,28.6c0,0.7,0.2,0.8,0.8,0.8C56.9,133.3,63.3,133.3,69.8,133.3z M97,73.8c-0.1,0-0.1,0-0.2,0
		c-0.1-3.5-0.2-7-0.3-10.5c0-0.5-0.2-0.7-0.7-0.7c-3.8,0-7.7,0-11.5,0c-0.5,0-0.7,0.2-0.7,0.7c0,1.9-0.1,3.8-0.1,5.7
		c-0.1,4.8-0.3,9.6-0.3,14.4c0,4.5,4,7.7,8.4,6.8c3.1-0.7,5.4-3.4,5.4-6.6C97,80.4,97,77.1,97,73.8z M66.1,90.4
		c3.5,0,6.6-2.8,6.9-6.2c0.1-1.5,0.2-3.1,0.3-4.6c0.4-5.4,0.8-10.8,1.2-16.1c0-0.6,0-0.8-0.7-0.8c-3.4,0-6.9,0-10.3,0
		c-0.7,0-0.9,0.2-1,0.8c-1.1,6.3-2.2,12.6-3.3,18.9C58.5,86.6,61.8,90.5,66.1,90.4z M111.6,62.7c-1.4,0-2.8,0-4.3,0
		c-1.8,0-1.8,0-1.6,1.8c0.5,6.5,1.1,12.9,1.4,19.4c0.2,3.9,3.8,6.9,7.7,6.5c3.9-0.4,6.8-4.2,6.1-8c-1.1-6.4-2.2-12.7-3.3-19.1
		c-0.1-0.5-0.2-0.7-0.8-0.7C115.1,62.7,113.3,62.7,111.6,62.7z M132.4,62.7c-1.8,0-3.5,0-5.3,0c-0.5,0-0.7,0.1-0.5,0.7
		c1,4.8,1.9,9.6,2.9,14.4c0.4,1.9,1,3.9,1,5.8c0.1,5.4,5.9,8.6,10.5,5.9c2.4-1.4,4-4.6,3.3-7c-1.9-6.4-3.8-12.8-5.7-19.2
		c-0.1-0.5-0.4-0.6-0.8-0.6C135.9,62.7,134.1,62.7,132.4,62.7z M47.5,62.7c-1.8,0-3.6,0-5.4,0c-0.6,0-0.8,0.2-1,0.8
		c-1.7,6.3-3.5,12.6-5.3,18.8c-0.1,0.3-0.2,0.7-0.2,1c0.2,3.4,2.9,6.2,6.2,6.5c3.6,0.3,6.7-1.9,7.5-5.3c0.2-0.8,0.2-1.6,0.4-2.5
		c1.2-6.2,2.5-12.4,3.7-18.6c0.1-0.6-0.1-0.7-0.6-0.7C51.1,62.7,49.3,62.7,47.5,62.7z"/>
	<path class="st0" d="M90.1,27.4c16.6,0,33.2,0,49.9,0c3.4,0,5.9,2.5,5.7,5.7c-0.1,1.4,0,2.9,0,4.3c0,2.9-2.2,5.1-5.1,5.2
		c-0.1,0-0.2,0-0.3,0c-33.4,0-66.9,0-100.3,0c-2.6,0-4.6-1.4-5.2-3.7c-0.2-0.5-0.2-1.1-0.2-1.7c0-1.5,0-3,0-4.4
		c0-3.2,2.1-5.3,5.4-5.3C56.6,27.4,73.3,27.4,90.1,27.4z"/>
</g>
</svg>
