<?xml version="1.0" encoding="utf-8"?>
<!-- Generator: Adobe Illustrator 23.0.6, SVG Export Plug-In . SVG Version: 6.00 Build 0)  -->
<svg version="1.1" id="Layer_1" xmlns="http://www.w3.org/2000/svg" xmlns:xlink="http://www.w3.org/1999/xlink" x="0px" y="0px"
	 viewBox="0 0 180.1 177.9" style="enable-background:new 0 0 180.1 177.9;" xml:space="preserve">
<style type="text/css">
	.st0{fill:#FF9600;}
</style>
<path class="st0" d="M40.2,99.2c0-3.3-0.1-6.6,0-9.9c0-1.3-0.4-1.9-1.6-2.3c-3.8-1.4-7.5-2.9-11.2-4.5c-5.9-2.5-8.8-8.2-7-13.8
	c1.1-3.5,3.5-5.9,6.9-7.3c16.5-6.7,33-13.2,49.4-20c4.9-2,9.5-2,14.4,0.1c16.2,6.7,32.6,13.2,48.8,19.7c5.2,2.1,8.2,6.3,7.9,11.4
	c-0.2,3-1.5,5.4-3.6,7.3c-0.8,0.7-1.1,1.4-1.1,2.4c0,16.6,0,33.2,0,49.8c0,0.9,0.2,1.7,0.6,2.5c1.2,2.6,2.2,5.3,2.2,8.2
	c0,4.6-3.9,8-8.7,7.6c-4.4-0.4-7.6-4.4-7-8.8c0.3-2.4,1-4.7,2.1-6.9c0.5-1,0.7-1.9,0.7-3c0-14.8,0-29.5,0-44.3c0-2,0-2-1.8-1.3
	c-3.5,1.4-3.5,1.4-3.5,5.2c0,5.6,0,11.2,0,16.9c0,5.3-2.7,9.3-7.6,11.3c-10.6,4.3-21.1,8.5-31.7,12.7c-3,1.2-6,1.2-9,0
	c-10.7-4.3-21.4-8.5-32-12.9c-4.7-1.9-7.2-5.7-7.3-10.8C40.1,105.5,40.2,102.3,40.2,99.2z M84.1,94c0.5,0,1.2-0.1,1.8-0.4
	c16.8-6.8,33.7-13.6,50.5-20.4c0.6-0.3,1.4-0.5,1.3-1.3c0-0.8-0.8-1-1.4-1.3c-0.2-0.1-0.4-0.2-0.6-0.3c-16.5-6.7-33.1-13.3-49.6-20
	c-1.5-0.6-2.9-0.6-4.5,0c-16.4,6.7-32.9,13.3-49.3,19.9c-0.9,0.4-2.2,0.4-2.2,1.6c0,1.2,1.3,1.3,2.2,1.7
	c16.4,6.6,32.8,13.2,49.2,19.8C82.3,93.7,83.1,94,84.1,94z M50.3,100.7c0,2.3,0.1,4.5,0,6.8c-0.1,1.6,0.5,2.5,2,3.1
	c10.1,4,20.1,8.1,30.2,12.1c1,0.4,1.9,0.5,2.9,0c10.2-4.1,20.4-8.2,30.6-12.3c1.2-0.5,1.7-1.2,1.7-2.5c-0.1-4.9-0.1-9.7,0-14.6
	c0-1.4-0.4-1.5-1.6-1c-8.6,3.5-17.2,6.9-25.7,10.4c-4.4,1.8-8.6,1.7-13-0.1c-8.5-3.5-17.2-6.9-25.7-10.4c-1.1-0.5-1.4-0.2-1.4,1
	C50.3,95.7,50.3,98.2,50.3,100.7z"/>
</svg>
