<?xml version="1.0" encoding="utf-8"?>
<!-- Generator: Adobe Illustrator 23.0.6, SVG Export Plug-In . SVG Version: 6.00 Build 0)  -->
<svg version="1.1" id="Layer_1" xmlns="http://www.w3.org/2000/svg" xmlns:xlink="http://www.w3.org/1999/xlink" x="0px" y="0px"
	 viewBox="0 0 180.1 177.9" style="enable-background:new 0 0 180.1 177.9;" xml:space="preserve">
<style type="text/css">
	.st0{fill:#FF9600;}
</style>
<g>
	<path class="st0" d="M124.2,161.9c-7-0.2-14.9-1.4-22.8-2.5c-14.9-2.1-29.6-0.3-44.3,2c-7.7,1.2-15.5,2.7-23.3,1.3
		c-6.9-1.1-9.8-4.6-10-11.5c-0.4-18.3,8.8-30.2,24.7-37.9c5.3-2.6,9.9-3.6,15.9-1.1c14.3,6,28.8,4.7,42.9-1.4
		c0.6-0.3,1.2-0.6,1.8-0.8c1.4-0.5,3-0.1,3.7,1c0.7,1-0.8,1.8-1.5,2.5c-3.5,3.5-7.6,6.1-12.3,7.6c-2.8,0.9-5.2,1.5-8.2-0.7
		c-3.2-2.3-7.6-1.6-11.3-0.4c-2.6,0.9-3.7,3.6-3.4,6.3c0.3,2.7,1.6,5.2,4.6,5.5c4,0.4,8.4,1.6,11.9-1.9c0.7-0.8,1.7-0.6,2.7-0.8
		c9.4-1.6,17.3-6,23.4-13.4c1.2-1.5,2.1-1.9,4-0.8c13.6,7.6,21.2,18.8,21.4,34.7c0.1,6.4-2.5,9.7-8.6,11.4
		C131.9,162,128.6,161.9,124.2,161.9z"/>
	<path class="st0" d="M116.4,76.7c0,18.1-14.6,33-32.5,33.1c-18,0.1-32.8-14.9-32.7-33.2c0-18.2,14.5-33,32.5-33
		C101.8,43.5,116.4,58.2,116.4,76.7z"/>
	<path class="st0" d="M37.3,77.8c0-3.5,0-7,0-10.5c0-3.3,0-6.5,3.3-8.6c0.5-0.3,0.7-1.1,0.9-1.7C44.9,39.6,56.9,30.8,72.9,27
		c15.8-3.7,30.3-0.4,42.7,10.5c5.7,5,9.8,11.1,11.2,18.8c0.1,0.4,0,0.9,0.2,1.2c5.7,6,2.9,13.5,3.4,20.4c0.3,3.9,0,7.8,0.1,11.7
		c0,3-0.6,5.7-3.3,7.4c-1.3,0.8-1.5,2.2-1.9,3.4c-5.7,14.6-15.3,24.4-31.4,27.3c-3.6,0.6-6.8,3.2-10.9,2.8c-3.1-0.3-4.9-1.5-4.9-4.6
		c0-3.2,1.9-4.7,5-4.5c3.1,0.2,6.6-1.1,8.8,2.5c0.8,1.3,2.2,0.5,3.4,0.3c13.6-2.9,22.2-11.6,27-24.3c0.2-0.6,0.6-1.5,0.4-1.9
		c-3.7-5.7-1.5-12.1-1.9-18.2c-0.3-4.7-0.1-9.4,0-14.2c0-1.5-0.2-3.2,0.5-4.4c2.7-4.5,0.7-8.4-1.6-12c-8.4-13.3-21-19.1-36.3-18.8
		c-14.9,0.3-26.8,6.7-34.6,19.7c-2.2,3.6-2.8,7.4-1.7,11.9c1.1,4.7,0.4,9.9,0.5,14.9c0,5,0.1,10-0.1,15c-0.1,2.5,0.1,5.4-3.5,5.8
		c-2.9,0.3-5.9-2.3-6.1-5.8c-0.3-4.7-0.1-9.4-0.1-14.2C37.4,77.8,37.4,77.8,37.3,77.8z"/>
	<path class="st0" d="M36,64.9c0,8,0,15.5,0,23c0,0.6,0.2,1.5-0.6,1.7c-1,0.3-1.7-0.6-2.4-1.1C25.5,82.6,26.9,69.8,36,64.9z"/>
	<path class="st0" d="M131.6,65c9.1,4.7,10.5,17.7,3.1,23.5c-0.7,0.6-1.5,1.5-2.4,1.1c-1.2-0.4-0.6-1.6-0.6-2.5
		C131.6,79.9,131.6,72.7,131.6,65z"/>
</g>
</svg>
