<?xml version="1.0" encoding="utf-8"?>
<!-- Generator: Adobe Illustrator 23.0.6, SVG Export Plug-In . SVG Version: 6.00 Build 0)  -->
<svg version="1.1" id="Layer_1" xmlns="http://www.w3.org/2000/svg" xmlns:xlink="http://www.w3.org/1999/xlink" x="0px" y="0px"
	 viewBox="0 0 180.1 177.9" style="enable-background:new 0 0 180.1 177.9;" xml:space="preserve">
<style type="text/css">
	.st0{fill:#FF9600;}
</style>
<path class="st0" d="M90.1,160.8c-13.3,0-26.7,0-40,0c-14.5-0.1-23.1-8.6-23-23c0-8-0.7-16,0.5-24c2.6-17.7,16.6-31.2,34.3-33.1
	c2.3-0.3,4,0.5,5.7,1.9c14.4,11.8,31.1,11.8,45.2-0.1c1.7-1.5,3.5-2.1,5.8-1.8c18.7,2.3,32.8,16.7,34.2,35.4
	c0.6,8.1,0.6,16.3,0.2,24.4c-0.6,12.1-9.3,20.1-21.5,20.2C117.6,161,103.9,160.8,90.1,160.8z M90.1,150.4c13.6,0,27.2,0,40.8,0
	c7.3,0,11.5-4.2,11.5-11.5c0.1-7.3,0.2-14.6-0.1-21.9c-0.5-11.6-9.9-22.3-21.2-24.9c-1.7-0.4-2.8-0.1-4.2,0.9
	c-17.4,12.5-36.4,12.5-53.4,0.2c-1.7-1.2-3.1-1.4-5-0.9C47.3,95,38.4,105.5,37.9,117c-0.3,7-0.2,14-0.1,21.1c0,8.4,4,12.3,12.4,12.3
	C63.5,150.4,76.8,150.4,90.1,150.4z"/>
<path class="st0" d="M89.9,82.3c-18.1-0.1-32.7-14.8-32.6-32.8C57.4,31.6,72.1,17,90.2,17c18.3,0,33,14.8,32.8,33
	C122.8,68,108,82.4,89.9,82.3z M67.9,49.9c0.1,12.3,10,22.2,22.2,22.2c12.2,0,22.2-9.9,22.2-22.2c0.1-12.4-10-22.5-22.4-22.4
	C77.7,27.6,67.8,37.6,67.9,49.9z"/>
<path class="st0" d="M80.7,143.4c0-0.1,0-0.3,0-0.4c3.5-12.4,6.8-24.8,10.5-37.2c0.8-2.5,3.5-3.2,6.1-2.4c2.8,0.9,4.3,3.2,3.5,5.9
	c-3.2,11.9-6.6,23.8-10,35.6c-0.8,2.7-3.1,4.1-5.9,3.5C82.3,148,80.7,146.3,80.7,143.4z"/>
<path class="st0" d="M107.7,139.7c-2.7,0-4.3-1.1-5.2-3c-1-2-0.5-3.8,0.7-5.5c1.6-2.1,5.1-3.4,4.8-5.8c-0.2-2-3.3-3.6-4.9-5.5
	c-1.8-2.3-1.6-4.7,0.4-6.8c2.1-2.1,4.7-2.3,6.8-0.4c3.5,3,6.7,6.4,9.8,9.7c1.6,1.7,1.8,3.9,0.4,5.8c-3.1,4-6.8,7.4-10.6,10.7
	C109.2,139.5,108.1,139.6,107.7,139.7z"/>
<path class="st0" d="M72.5,111.5c2.8,0,4.3,1,5.3,2.9c1,2,0.7,3.9-0.7,5.5c-1.7,2-4.9,3.9-4.9,5.8c0,2,3.2,3.8,4.9,5.9
	c1.7,2.2,1.5,4.5-0.3,6.5c-2,2.2-4.6,2.6-6.8,0.7c-3.6-3.1-6.9-6.6-10.1-10c-1.6-1.7-1.7-4.1-0.2-5.8c3.4-3.7,7-7.2,10.6-10.7
	C70.9,111.8,72.1,111.7,72.5,111.5z"/>
</svg>
