<?xml version="1.0" encoding="utf-8"?>
<!-- Generator: Adobe Illustrator 23.0.6, SVG Export Plug-In . SVG Version: 6.00 Build 0)  -->
<svg version="1.1" id="Layer_1" xmlns="http://www.w3.org/2000/svg" xmlns:xlink="http://www.w3.org/1999/xlink" x="0px" y="0px"
	 viewBox="0 0 180.1 177.9" style="enable-background:new 0 0 180.1 177.9;" xml:space="preserve">
<style type="text/css">
	.st0{fill:#FF9600;}
</style>
<path class="st0" d="M81.7,31.1c4.6,0,7.8,0.3,10.8,1.7c1.7,0.8,3.5,1.5,5,2.6c2.2,1.6,3.7,3.7,4.6,6.3c0.5,1.5,1.4,2.8,1.7,4.4
	c0.8,3.7,0.4,7.3-0.6,10.9c-0.1,0.4-0.2,0.8,0.1,1.2c0.4,0.6,0.4,1.3,0.3,2c-0.5,2.3-0.9,4.7-2.1,6.8c-2.1,3.6-3.4,7.6-6.3,10.7
	c-0.3,0.3-0.2,0.7-0.2,1.1c0.1,0.7-0.1,1.4-0.4,2c-2.1,4.6-5,8.4-9.6,10.8c-1.4,0.8-2.7,0.8-4.1,0c-4.8-2.6-7.9-6.6-9.9-11.5
	C71,79.8,71,79.5,71,79.4c0.3-1.1-0.2-1.9-0.9-2.7c-0.6-0.7-1.2-1.4-1.6-2.2c-1.8-3.5-4-6.8-5.1-10.6c-0.3-1.1-0.6-2.1-0.9-3.2
	c-0.2-0.9-0.3-1.9,0.3-2.7c0.2-0.3,0-0.6,0-0.9c-1.1-3.9-1.5-7.8-0.3-11.7c0.6-2.1,1.6-4.1,2.6-6.1c1-1.8,2.4-3.2,4.2-4.3
	C73.5,32.4,78,30.9,81.7,31.1z"/>
<path class="st0" d="M114.5,131.4c0.1-6.9,5.6-12.4,12.3-12.3c0.7,0,1-0.2,1.4-0.9c9.5-19.7,19-39.3,28.6-59
	c0.9-1.8,2.5-2.8,4.3-2.7c1.9,0.1,3.5,1.3,4.1,3.1c0.4,1.3,0.2,2.4-0.4,3.6c-4.2,8.6-8.4,17.3-12.6,25.9
	c-5.4,11-10.7,22.1-16.1,33.1c-0.3,0.6-0.2,0.9,0.2,1.4c3.2,3.9,3.7,9.5,1.1,13.9c-2.6,4.4-7.7,6.8-12.7,5.9
	c-5.1-0.9-9.1-4.9-10-9.9C114.6,132.8,114.6,132.1,114.5,131.4z"/>
<path class="st0" d="M85.2,132.7c0-4.7,0-9.4,0-14.1c0-0.5,0-1.1,0.3-1.5c0.3-0.6,0.7-0.9,1.4-0.9c8.1-0.8,16.2-1.6,24.4-2.3
	c0.2,0,0.5-0.1,0.7-0.1c1.4-0.2,2.2,0.5,2.3,1.9c0,1.5,0,2.9,0,4.4c0,0.4-0.2,0.7-0.4,1c-5,6.4-5,14.7,0.1,21
	c0.3,0.4,0.3,0.7,0.4,1.1c0.1,4.1-0.8,3.6-3.4,3.8c-7.9,0.8-15.8,1.5-23.7,2.3c-0.9,0.1-1.4-0.4-1.7-1.1c-0.2-0.4-0.2-0.9-0.2-1.4
	C85.2,142.1,85.2,137.4,85.2,132.7z"/>
<path class="st0" d="M80.8,132.7c0,4.7,0,9.5,0,14.2c0,0.6,0,1.1-0.3,1.6c-0.4,0.6-0.8,0.8-1.5,0.8c-8.4-0.8-16.9-1.6-25.3-2.5
	c-1-0.1-1.6-0.7-1.7-1.7c-0.1-0.8,0-1.6,0-2.4c0-0.4,0.2-0.5,0.4-0.8c5-6.3,5-14.7,0-21c-0.3-0.3-0.4-0.6-0.4-1c0-1.4,0-2.8,0-4.1
	c0-1.6,0.8-2.2,2.4-2.1c5.4,0.5,10.9,1.1,16.3,1.6c2.9,0.3,5.8,0.6,8.8,0.8c0.9,0.1,1.3,0.7,1.5,1.5c0.1,0.3,0.1,0.7,0.1,1
	C80.8,123.3,80.8,128,80.8,132.7z"/>
<path class="st0" d="M88.9,97.1c1.1,1.1,1.9,2.1,2.8,3.3c0.8,1.1,1.6,2.3,2.5,3.6c1.4-6.9,2.7-13.6,3.6-20.5c3.3,3.5,7.6,5,11.8,6.7
	c1.6,0.7,3.3,1.2,5,1.8c1.9,0.6,3.6,1.5,5.1,2.7c1.2,0.9,2.2,1.9,3,3.2c3.2,5.1,5.4,10.5,6.6,16.4c0.1,0.6,0.1,0.8-0.6,0.7
	c-3.1-0.4-6.2,0.1-9,1.5c-0.2,0.1-0.5,0.2-0.7,0.4c0,0-0.1,0-0.1,0c0-0.6,0-1.2-0.1-1.8c-0.4-4.1-4.1-6-6.9-5.6
	c-7.5,0.9-15,1.5-22.4,2.2c-0.7,0.1-0.8-0.2-0.9-0.8c-0.3-2.7-0.8-5.4-1.5-8c-0.1-0.3-0.2-0.5,0-0.8C87.8,100.4,88.3,98.8,88.9,97.1
	z"/>
<path class="st0" d="M47.4,116.8c-1.4-0.7-2.7-1.3-4.2-1.6c-2-0.5-3.9-0.6-5.9-0.3c-0.6,0.1-0.7-0.1-0.6-0.6
	c1.3-6.3,3.7-12.2,7.4-17.5c1.7-2.4,4.4-3.8,7.2-4.7c3.1-1.1,6.3-2.1,9.3-3.5c2.8-1.3,5.6-2.6,7.7-5.1c0.9,6.9,2.2,13.7,3.6,20.6
	c1.6-2.5,3.2-4.9,5.2-7c0.6,1.7,1.1,3.4,2,4.9c0.1,0.2,0.1,0.4,0,0.6c-0.7,2.7-1.2,5.5-1.5,8.3c-0.1,0.6-0.3,0.7-0.8,0.6
	c-7.6-0.8-15.2-1.5-22.9-2.3c-3.3-0.3-6.4,2.5-6.6,6.1C47.3,115.8,47.4,116.2,47.4,116.8z"/>
<path class="st0" d="M39.3,119.2c6.8,0,12.2,5.6,12.2,12.4c0,6.7-5.6,12.1-12.4,12.1c-6.7,0-12.2-5.6-12.2-12.3
	C27,124.6,32.6,119.2,39.3,119.2z"/>
</svg>
