<?xml version="1.0" encoding="utf-8"?>
<!-- Generator: Adobe Illustrator 23.0.6, SVG Export Plug-In . SVG Version: 6.00 Build 0)  -->
<svg version="1.1" id="Layer_1" xmlns="http://www.w3.org/2000/svg" xmlns:xlink="http://www.w3.org/1999/xlink" x="0px" y="0px"
	 viewBox="0 0 180.1 177.9" style="enable-background:new 0 0 180.1 177.9;" xml:space="preserve">
<style type="text/css">
	.st0{fill:#FF9600;}
</style>
<g>
	<path class="st0" d="M15,131.8c8.7-6.9,17.4-13.8,26-20.8c6.2-5.1,12.4-10.1,20.8-11.3c4.5-0.6,8.9-0.8,13.3,0.5
		c7.3,2.2,14.5,4.4,21.7,6.7c4.7,1.5,7.4,5.9,6.6,10.4c-0.9,5-4.1,7.3-9.7,7.1c-1.7-0.1-3.3-0.5-4.9-1c-5.3-1.6-10.5-3.2-15.8-4.9
		c-1.7-0.5-3-0.4-3.5,1.3c-0.5,1.7,0.9,2.3,2.3,2.7c6.2,1.9,12.3,4,18.5,5.5c8.3,2.1,13.7-0.7,16.9-8.6c0.5-1.3,1.5-1.9,2.5-2.5
		c9.2-5.2,18.4-10.4,27.7-15.6c8.6-4.8,14.3-2.9,18.1,6.1c0,1.5,0,2.9,0,4.4c-1.4,3.9-4.2,6.4-7.8,8.4c-15.3,8.4-30.5,17-45.6,25.7
		c-3.4,1.9-6.7,2.4-10.5,1.5c-10.7-2.6-21.4-5.1-32.1-7.7c-1.7-0.4-2.9-0.2-4.3,0.9c-6.3,4.9-12.8,9.7-19,14.7
		c-2.4,1.9-3.7,1.6-5.4-0.8c-5.2-7-10.6-13.9-15.9-20.8C15,133,15,132.4,15,131.8z"/>
	<path class="st0" d="M102.6,26.2c10.2,0,20.4,0,30.6,0c3.8,0,5,1.2,5.1,5c0.1,5,0,10,0,15c0,2.4-0.7,4.4-3.6,4.5
		c-2.3,0.1-1.6,1.7-1.6,3c0,10.7,0,21.4,0,32.2c0,4.2-1.1,5.3-5.4,5.3c-16.9,0-33.7,0-50.6,0c-4,0-5.3-1.3-5.3-5.2
		c0-10.8,0-21.7,0-32.5c0-1.6,0-2.8-2.1-2.9c-1.9-0.1-2.9-1.5-2.9-3.4c0-5.7-0.1-11.5,0-17.2c0.1-3.2,2.2-3.8,4.9-3.8
		C82,26.2,92.3,26.2,102.6,26.2z M102.7,43.5c7.2,0,14.3,0,21.5,0c6.8,0,6.6,0,6.8-6.7c0.1-2.7-0.9-3.2-3.4-3.2
		c-15.5,0.1-31,0.1-46.5,0.1c-7.1,0-7.1,0-7,7.2c0,2.1,0.7,2.6,2.7,2.6C85.5,43.4,94.1,43.5,102.7,43.5z M102.6,59.9
		c2.4,0,4.8,0,7.2,0c2.2,0,3.8-0.9,3.7-3.2c-0.1-2-1.6-3-3.7-3c-4.9,0-9.7,0-14.6,0c-2.1,0-3.5,0.9-3.5,3c0,2.2,1.4,3.1,3.5,3.1
		C97.6,59.9,100.1,59.9,102.6,59.9z"/>
</g>
</svg>
