<?xml version="1.0" encoding="utf-8"?>
<!-- Generator: Adobe Illustrator 23.0.6, SVG Export Plug-In . SVG Version: 6.00 Build 0)  -->
<svg version="1.1" id="Layer_1" xmlns="http://www.w3.org/2000/svg" xmlns:xlink="http://www.w3.org/1999/xlink" x="0px" y="0px"
	 viewBox="0 0 180.1 177.9" style="enable-background:new 0 0 180.1 177.9;" xml:space="preserve">
<style type="text/css">
	.st0{fill:#FF9600;}
</style>
<g>
	<path class="st0" d="M163.4,128.8c-1.3,3.7-2.4,7.4-5,10.6c-6.7,8-17.5,10.5-26.8,5.6c-2.1-1.1-3-0.6-4.4,0.8
		c-5.7,5.8-11.6,11.5-17.2,17.4c-1.5,1.6-2.3,1.3-3.7-0.1c-4.4-4.4-4.4-4.4-0.1-8.6c5.1-5.1,10.2-10.2,15.3-15.3
		c1-0.9,1.5-1.6,0.7-3.2c-4.3-8.4-3.8-16.6,1.9-24.1c5.5-7.1,13-9.8,21.7-8c9.6,2.1,15.4,8.3,17.3,18c0,0.2,0.2,0.3,0.4,0.5
		C163.4,124.6,163.4,126.7,163.4,128.8z M154.6,125.5c0-7.4-6-13.3-13.3-13.3c-7.3,0.1-13.2,5.9-13.2,13.1c0,7.5,5.8,13.4,13.2,13.5
		C148.6,138.8,154.6,132.8,154.6,125.5z"/>
	<path class="st0" d="M154.6,97.1c-0.5,0.1-0.6,0.2-0.7,0.1c-2.6-0.9-6.3-1-7.6-2.9c-1.4-1.9-0.4-5.4-0.4-8.2c0-7.1,0-14.2,0-21.3
		c0-3.9-1.6-5.6-5.5-5.6c-31.7,0-63.3,0-95,0c-3.9,0-5.4,1.7-5.4,5.6c0,11.9,0.1,23.8-0.1,35.7c0,2.7,1,3,3.2,3
		c24.1-0.1,48.3,0,72.4,0c1.1,0,2.2,0,4,0c-2.3,2.7-4.1,5-5.4,7.6c-0.9,1.6-2.4,1-3.6,1c-22.1,0-44.1,0-66.2,0
		c-5.2,0-4.3-0.4-4.4,4.3c-0.1,5.1,0,10.2,0,15.4c0,5.8,1.1,7,6.9,7c19.4,0,38.9,0,58.3,0c1.1,0,2.2,0,4.4,0
		c-3.2,3.1-5.8,5.6-8.3,8.1c-0.8,0.8-1.7,0.6-2.7,0.6c-17.8,0-35.5,0-53.3,0c-8.5,0-14.1-5.6-14.1-14.2c0-22.9,0-45.8,0-68.7
		c0-8.4,5.5-14,13.9-14.1c6.2-0.1,12.3-0.1,18.5,0c2.2,0.1,3-0.5,3-2.9c0-9.7,5.3-14.8,15-14.8c7.7,0,15.5,0,23.2,0
		c9,0,14.5,5.3,14.5,14.4c0,2.9,0.9,3.5,3.5,3.4c5.8-0.2,11.7-0.1,17.6-0.1c8.8,0.1,14.3,5.6,14.4,14.3
		C154.7,75.6,154.6,86.3,154.6,97.1z M92.7,50.5c5.2,0,10.4,0,15.6,0c0.8,0,1.9,0.4,2.3-1c1.4-4.1-1.3-7.9-5.7-7.9
		c-7.9,0-15.8,0-23.8,0c-4.6,0-6,1.6-6.1,6.3c0,2,0.5,2.7,2.6,2.7C82.7,50.4,87.7,50.5,92.7,50.5z"/>
	<path class="st0" d="M92.8,94.4c-2,0-4-0.1-5.9,0c-1.9,0.1-2.7-0.4-2.8-2.5c0-6-0.1-6,5.8-6c3,0,6,0.1,9.1,0
		c1.8-0.1,2.6,0.4,2.6,2.4c0.1,6.2,0.2,6.2-6,6.2C94.7,94.4,93.7,94.4,92.8,94.4z"/>
</g>
</svg>
