<?xml version="1.0" encoding="utf-8"?>
<!-- Generator: Adobe Illustrator 23.0.6, SVG Export Plug-In . SVG Version: 6.00 Build 0)  -->
<svg version="1.1" id="Layer_1" xmlns="http://www.w3.org/2000/svg" xmlns:xlink="http://www.w3.org/1999/xlink" x="0px" y="0px"
	 viewBox="0 0 180.1 177.9" style="enable-background:new 0 0 180.1 177.9;" xml:space="preserve">
<style type="text/css">
	.st0{fill:#FF9600;}
</style>
<path class="st0" d="M119,80.2c-5.2-2-6.4-5.4-6.2-10.2c0.4-11.1-0.1-22.2,0.2-33.2c0.1-4.5-1.1-6.3-6-6.3
	c-19.3,0.3-38.6,0.2-57.9,0c-4.3,0-5.5,1.4-5.5,5.6c0.1,26.3,0.1,52.6,0,78.8c0,4.3,1.6,5.7,5.7,5.5c4.8-0.2,9.6-0.1,14.5,0
	c1.8,0,4.2,0.5,4.4,2.2c0.3,2-1.9,3.8-3.7,3.9c-7.1,0.3-14.4,1.3-21.3-0.5c-4.9-1.2-5.8-5.7-5.8-10.3c0.1-24.1,0-48.3,0-72.4
	c0-3.2-0.1-6.4,0-9.7c0.3-6,3.5-9.3,9.5-9.3c20.9-0.1,41.8-0.1,62.7,0c5.4,0,9.2,2.8,9.3,7.6C119.2,47.9,119,63.9,119,80.2z"/>
<path class="st0" d="M107.3,128.3c-3.8-2.2-7.1-0.3-10.5,3.1c-2.5,2.5-5.1,0.9-6.8-1.4c-2.1-2.8-4.4-3.7-7.8-3
	c-4.1,0.8-6.6-1-6.6-5.4c0-3.2-1.2-5.3-4.3-6.6c-3.8-1.6-5.1-4.6-2.6-8.2c2-2.8,2.1-5.3,0.4-8.4c-2.2-3.8-0.9-6.6,3.2-7.9
	c3.1-1,4.5-2.9,4.9-6.2c0.5-4.5,3.2-6.3,7.5-4.8c3,1,5.1,0.3,7.1-1.9c3.3-3.7,6.5-3.2,9.3,0.6c1.7,2.2,3.5,3.2,6.4,2.5
	c4.6-1.2,7.4,0.8,7.5,5.6c0,3.4,1.6,5.2,4.4,6.5c4,1.8,4.5,4.9,2.2,8.3c-1.9,2.7-2.1,5-0.3,7.8c2.1,3.6,1.4,6.7-2.8,8
	c-3.6,1.2-5,3.5-5.4,7.1C112.9,126.7,111.3,128.5,107.3,128.3z M115.6,103.8c-0.1-11.1-9-20-20-20.1c-11.2-0.1-20.3,9.1-20.3,20.4
	c0.1,11.1,9,20,20.1,20C106.7,124.2,115.7,115.2,115.6,103.8z"/>
<path class="st0" d="M108.1,132c5.3-0.9,7.7-3.7,8.3-8.1c0.2-1.7,0.7-3.1,2.5-3.7c4.2-1.5,7-4.2,6.9-10.1c8.8,7,16.7,13.2,24.5,19.5
	c2.3,1.8,1.1,3.1-1.1,3.6c-3.5,0.7-7,1.3-10.6,1.6c-2.7,0.3-3.7,1.4-3.3,4.1c0.4,3.2,0.5,6.4,0.6,9.6c0.1,1.2,0.6,2.6-0.7,3.5
	c-1.3,0.8-2.3-0.3-3.3-1C124.2,144.8,116.5,138.7,108.1,132z"/>
<path class="st0" d="M72.2,125.2c2.7,5,6.2,6,10.4,5.3c1.9-0.4,3.4,0.1,4.7,1.7c2.7,3.4,6.1,4.6,11.2,2.6
	C95,145,91.7,154.5,88.2,164c-1,2.8-2.6,2.7-4,0.2c-1.6-2.8-3.2-5.6-4.5-8.5c-1.3-3-2.8-4.1-6-2.3c-2.6,1.5-5.5,2.5-8.3,3.6
	c-1.1,0.4-2.3,1.4-3.5,0.2c-1.1-1.1-0.3-2.4,0.1-3.5C65.2,144.6,68.5,135.6,72.2,125.2z"/>
<path class="st0" d="M78.3,44.8c6.8,0,13.5,0,20.3,0c2.3,0,5.1-0.4,5.1,3c0,3-2.6,2.9-4.8,2.9c-13.9,0-27.8,0-41.7,0
	c-2.2,0-4.8,0-4.9-2.8c-0.1-3.3,2.7-3.1,5.1-3.1C64.4,44.8,71.4,44.8,78.3,44.8z"/>
<path class="st0" d="M78.4,66c-7.1,0-14.2,0-21.4,0c-2.3,0-4.6-0.2-4.6-3.1c0.1-2.5,2.2-2.9,4.3-2.9c14.2,0,28.5,0,42.7,0
	c2,0,4.2,0.3,4.3,2.9c0,3-2.4,3.1-4.6,3.1C92.2,66,85.3,66,78.4,66z"/>
<path class="st0" d="M62,80.9c-2.3,0-4.6,0-6.9,0C53,81,52.2,80,52.2,78c0-1.9,1.1-2.4,2.7-2.4c5,0,10,0,14.9,0
	c1.7,0,2.6,0.7,2.6,2.5c0,2.1-1,2.9-2.9,2.8C67,80.9,64.5,80.9,62,80.9z"/>
</svg>
