<?xml version="1.0" encoding="utf-8"?>
<!-- Generator: Adobe Illustrator 23.0.6, SVG Export Plug-In . SVG Version: 6.00 Build 0)  -->
<svg version="1.1" id="Layer_1" xmlns="http://www.w3.org/2000/svg" xmlns:xlink="http://www.w3.org/1999/xlink" x="0px" y="0px"
	 viewBox="0 0 180.1 177.9" style="enable-background:new 0 0 180.1 177.9;" xml:space="preserve">
<style type="text/css">
	.st0{fill:#FF9600;}
</style>
<path class="st0" d="M47.7,76.2c14,7.5,27.8,14.8,41.9,22.3c-3.7,4.1-7.3,8.2-11,12.2c-2.1,2.3-4.3,4.6-6.3,7
	c-1,1.2-1.9,1.4-3.3,0.6c-14.2-8.3-28.5-16.6-42.8-24.8c-2-1.1-1.4-1.9-0.3-3.1c4.5-4.9,8.9-9.9,13.6-14.7c1.7-1.7,1.4-2.6-0.2-4
	c-4.4-4-8.7-8.2-13.1-12.2c-1.4-1.3-2-1.9,0.3-3.1c15-7.7,30-15.4,45-23.3c1.8-1,3.1-0.7,4.6,0.5c4.6,3.6,9.4,7,14.1,10.5
	c1.5,1.1,2.5,1.1,4,0c4.9-3.7,10-7.2,15-10.8c1.4-1.1,2.6-1.1,4.1-0.2c15,7.9,30.1,15.8,45.2,23.6c1.9,1,2.1,1.6,0.4,3.1
	c-4.5,4-8.7,8.1-13.2,12.1c-1.5,1.4-1.7,2.2-0.3,3.8c4.7,5.2,9.2,10.6,13.8,15.7c1.4,1.5,1.2,2.1-0.6,3
	c-14.1,7.8-28.1,15.6-42.2,23.4c-1.1,0.6-1.9,1.3-3.1,0c-5.8-6.3-11.8-12.5-17.9-19c13.9-7.5,27.7-14.8,41.4-22.2
	c0-1.3-1-1.4-1.6-1.7c-13.6-7.5-27.3-15.1-40.9-22.6c-1.1-0.6-2-1-3.3-0.3C77,59.7,62.9,67.4,48.8,75.2
	C48.5,75.4,48.2,75.7,47.7,76.2z"/>
<path class="st0" d="M143.7,109.1c0,7-0.1,13.5,0,20c0,1.6-0.6,2.3-1.9,3c-14.7,7.8-29.4,15.7-44.2,23.6c-1.1,0.6-2.4,1.8-2.4-0.9
	c0.1-15.5,0-31,0.1-46.5c0-0.2,0.2-0.3,0.5-0.8c3.4,3.6,6.8,7.1,10.2,10.7c2.4,2.5,4.5,6.3,7.3,7c2.9,0.7,6-2.7,9-4.3
	C129.4,117,136.3,113.2,143.7,109.1z"/>
<path class="st0" d="M41.2,108.8c3.6,2,6.8,3.9,10,5.7c6.2,3.6,12.5,7.1,18.6,10.8c1.6,1,2.5,0.8,3.8-0.6c4.4-5,8.9-9.9,13.4-14.9
	c0.6-0.7,1.1-1.7,2.5-1.9c0,2.1,0,4,0,6c0,13.4,0,26.7,0,40.1c0,2.4-0.4,2.8-2.6,1.6c-14.6-7.9-29.2-15.6-43.8-23.5
	c-0.9-0.5-2-0.8-2-2.3C41.3,122.9,41.2,116.1,41.2,108.8z"/>
</svg>
