<?xml version="1.0" encoding="utf-8"?>
<!-- Generator: Adobe Illustrator 23.0.6, SVG Export Plug-In . SVG Version: 6.00 Build 0)  -->
<svg version="1.1" id="Layer_1" xmlns="http://www.w3.org/2000/svg" xmlns:xlink="http://www.w3.org/1999/xlink" x="0px" y="0px"
	 viewBox="0 0 180.1 177.9" style="enable-background:new 0 0 180.1 177.9;" xml:space="preserve">
<style type="text/css">
	.st0{fill:#FF9600;}
</style>
<g>
	<path class="st0" d="M150.2,33.1c0,41.1,0,82.2,0,123.3c-0.3,0.2-0.2,0.6-0.3,0.9c-0.9,2.5-2.6,4.2-5.1,5.1
		c-0.3,0.1-0.6,0.1-0.9,0.3c-33.4,0-66.9,0-100.3,0c-0.2-0.2-0.5-0.2-0.7-0.3c-3.1-1-4.9-3.1-5.6-6.3c0-0.2,0-0.5-0.2-0.6
		c0-40.5,0-81,0-121.6c0.2-0.2,0.1-0.4,0.2-0.6c0.6-3.1,2.4-5.2,5.3-6.2c0.6-0.2,1.2-0.3,1.8-0.5c32.9,0,65.7,0,98.6,0
		c0.2,0.2,0.5,0.2,0.7,0.2c2,0.4,3.6,1.4,4.9,3C149.4,30.8,149.7,32,150.2,33.1z M145.1,94.8c0-19.7,0-39.4,0-59.2c0-0.3,0-0.7,0-1
		c-0.1-1.6-1.1-2.7-2.7-2.8c-0.4,0-0.8,0-1.3,0c-31.7,0-63.5,0-95.2,0c-0.3,0-0.7,0-1,0c-1.5,0.1-2.5,1.2-2.6,2.6c0,0.3,0,0.7,0,1
		c0,39.4,0,78.9,0,118.3c0,0.4,0,0.9,0,1.3c0.1,1.4,1.2,2.4,2.6,2.5c0.5,0,0.9,0,1.4,0c31.6,0,63.2,0,94.9,0c0.5,0,1,0,1.4,0
		c1.4-0.1,2.4-1.2,2.5-2.5c0-0.4,0-0.8,0-1.3C145.1,134.1,145.1,114.4,145.1,94.8z"/>
	<path class="st0" d="M118.5,150.4c-3,0-6-0.6-8.8-1.8c-0.6-0.2-0.7-0.4-0.4-1c3-6.1,5.9-12.3,8.9-18.5c0.3-0.6,0.4-1.1,0.4-1.7
		c0-6.7,0-13.4,0-20.1c0-0.8,0.1-1.1,1-1.1c10.1,0.4,19.2,8.3,20.7,18.3c1.9,12.4-5.9,23.4-18.3,25.6
		C120.8,150.3,119.7,150.4,118.5,150.4z"/>
	<path class="st0" d="M104.2,129.2c3.4,0,6.7,0,10.1,0c0.7,0,0.9,0,0.6,0.8c-3,6.1-5.9,12.2-8.8,18.4c-0.3,0.6-0.5,0.8-1.2,0.4
		c-7.2-4.1-11.1-10.2-11.8-18.5c-0.1-0.8,0.1-1.1,1-1.1C97.5,129.2,100.9,129.2,104.2,129.2z"/>
	<path class="st0" d="M69,110.4c-5.3,0-10.7,0-16,0c-1.3,0-2.4-0.5-3-1.7c-0.6-1.1-0.6-2.2,0.1-3.3c0.7-1.1,1.7-1.5,3-1.5
		c3.5,0,7.1,0,10.6,0c7.1,0,14.1,0,21.2,0c2.3,0,3.9,1.8,3.4,3.9c-0.3,1.3-1.3,2.3-2.6,2.5c-0.4,0.1-0.9,0.1-1.4,0.1
		C79.2,110.4,74.1,110.4,69,110.4C69,110.4,69,110.4,69,110.4z"/>
	<path class="st0" d="M119.7,82.1c5.3,0,10.6,0,15.9,0c2.4,0,3.9,2,3.3,4.1c-0.4,1.3-1.2,2-2.5,2.3c-0.5,0.1-1,0.1-1.4,0.1
		c-9.7,0-19.3,0-29,0c-0.8,0-1.6,0-2.4,0c-2-0.1-3.4-1.4-3.3-3.3c0-1.9,1.4-3.2,3.5-3.2C109.1,82.1,114.4,82.1,119.7,82.1z"/>
	<path class="st0" d="M69,150.4c-5.3,0-10.7,0-16,0c-2.3,0-3.8-1.8-3.3-3.9c0.3-1.4,1.4-2.4,2.8-2.6c0.2,0,0.4,0,0.6,0
		c10.6,0,21.2,0,31.8,0c1.8,0,3.1,1,3.4,2.5c0.5,2.1-1,4-3.3,4c-4.1,0-8.2,0-12.3,0C71.4,150.4,70.2,150.4,69,150.4z"/>
	<path class="st0" d="M119.7,48.6c-5.4,0-10.8,0-16.2,0c-1.6,0-3-1.2-3.2-2.7c-0.2-1.7,0.7-3.2,2.4-3.6c0.3-0.1,0.6-0.1,0.8-0.1
		c10.7,0,21.5,0,32.2,0c1.8,0,3.1,1.2,3.3,2.9c0.2,1.5-0.8,3-2.3,3.4c-0.4,0.1-0.8,0.1-1.3,0.1C130.2,48.6,125,48.6,119.7,48.6z"/>
	<path class="st0" d="M119.7,68.6c-5.3,0-10.6,0-15.9,0c-2.2,0-3.6-1.5-3.5-3.5c0.1-1.5,1.2-2.7,2.6-2.9c0.3-0.1,0.6-0.1,0.9-0.1
		c10.5,0,21,0,31.5,0c1.8,0,3.1,0.9,3.5,2.4c0.6,2.1-0.9,4.1-3.1,4.2c-2.4,0-4.9,0-7.3,0C125.5,68.6,122.6,68.6,119.7,68.6z"/>
	<path class="st0" d="M69.1,123.9c5.3,0,10.7,0,16,0c1.4,0,2.5,0.6,3,1.9c0.5,1.2,0.4,2.4-0.5,3.4c-0.6,0.7-1.4,1.1-2.4,1.1
		c-1.5,0-3,0-4.5,0c-9.2,0-18.4,0-27.6,0c-1.8,0-3.1-0.9-3.4-2.5c-0.5-2.1,1-4,3.2-4C58.3,123.9,63.7,123.9,69.1,123.9z"/>
	<path class="st0" d="M71.7,86.7c-6.5,0-13,0-19.5,0c-1.5,0-1.9-0.4-1.9-1.8c0-13,0-26,0-39c0-0.2,0-0.4,0-0.6
		c0.1-0.8,0.5-1.2,1.3-1.2c0.8,0,1.2,0.4,1.4,1.1c0.1,0.3,0,0.6,0,0.9c0,12.2,0,24.4,0,36.6c0,1.3,0,1.3,1.2,1.3
		c12.2,0,24.4,0,36.6,0c1.4,0,2,0.4,2.1,1.3c0,0.9-0.6,1.4-2,1.4C84.5,86.7,78.1,86.7,71.7,86.7z"/>
	<path class="st0" d="M53.8,83.2c0-1.6,0-3,0-4.4c0-0.3,0.2-0.5,0.3-0.8c1.3-2.7,2.7-5.3,4-8c0.5-1.1,1-1.2,2-0.8
		c2.1,0.9,4.2,1.8,6.2,2.7c0.6,0.3,0.9,0.2,1.1-0.4c1.2-2.6,2.5-5.2,3.7-7.8c0.6-1.3,0.9-1.4,2.2-1c1.7,0.5,3.4,1.1,5.1,1.6
		c0.4,0.1,0.6,0.1,0.9-0.3c2.9-4.9,5.7-9.8,8.6-14.7c0.1-0.1,0.1-0.2,0.1-0.4c-0.3,0-0.6-0.1-1.1-0.2c1.6-1.2,3-2.3,4.7-3.6
		c-0.3,2-0.6,3.8-0.8,5.7c-0.4-0.1-0.4-0.6-0.7-0.8c-0.2,0.3-0.4,0.6-0.6,1c-2.9,4.9-5.8,9.9-8.7,14.8c-0.6,1.1-0.9,1.2-2.1,0.8
		c-1.6-0.5-3.2-0.9-4.7-1.5c-0.8-0.3-1.1-0.1-1.4,0.7c-1.2,2.6-2.5,5.2-3.7,7.8c-0.6,1.2-0.9,1.3-2.1,0.8c-2.1-0.9-4.2-1.7-6.2-2.7
		c-0.6-0.3-0.8-0.1-1.1,0.4c-1.6,3.3-3.3,6.6-5,10C54.3,82.5,54.2,82.9,53.8,83.2z"/>
	<path class="st0" d="M90,52.7c0.4,0.3,0.3,0.7,0.3,1c0,9.5,0,19,0,28.5c0,0.6-0.1,0.8-0.8,0.8c-1.2,0-2.4-0.1-3.6,0
		c-0.7,0-0.9-0.2-0.9-0.9c0-6.4,0-12.8,0-19.2c0-1.3,0.3-2.5,1-3.6C87.5,57.2,88.7,55,90,52.7z"/>
	<path class="st0" d="M116.2,114.9c0,3.4,0,6.8,0,10.2c0,0.6-0.2,0.8-0.8,0.8c-6.8,0-13.6,0-20.5,0c-0.7,0-0.8-0.2-0.8-0.9
		c0.4-11.4,9.7-20.8,21.1-21.2c0.9,0,1,0.2,1,1C116.2,108.2,116.2,111.6,116.2,114.9z M114.8,114.9c0-3,0-5.9,0-8.9
		c0-0.5-0.1-0.8-0.7-0.7c-1,0.1-2,0.3-3,0.5c-8.3,2.1-14.5,9.3-15.5,17.7c-0.1,1-0.1,1,0.9,1c5.8,0,11.6,0,17.4,0
		c0.7,0,0.9-0.2,0.9-0.9C114.8,120.8,114.8,117.8,114.8,114.9z"/>
	<path class="st0" d="M82.7,65.2c0.2,0.3,0.1,0.6,0.1,0.8c0,5.4,0,10.8,0,16.1c0,0.7-0.2,0.9-0.9,0.9c-1.2-0.1-2.4,0-3.7,0
		c-0.5,0-0.7-0.2-0.7-0.7c0-4.6,0-9.2,0-13.9c0-0.6,0.1-0.7,0.7-0.5c1.9,0.6,2.6,0.3,3.6-1.4C82.2,66.1,82.4,65.7,82.7,65.2z"/>
	<path class="st0" d="M75.4,75c0,2.4,0,4.8,0,7.2c0,0.6-0.2,0.8-0.8,0.8c-1.2,0-2.5,0-3.7,0c-0.5,0-0.8-0.1-0.7-0.7
		c0-2.6,0-5.2,0-7.8c0-0.3,0.1-0.6,0.2-0.9c1-2.1,2-4.3,3.1-6.4c0.1-0.3,0.2-0.8,0.8-0.5c0.5,0.2,1.2,0,1.2,1
		C75.3,70.1,75.4,72.6,75.4,75z"/>
	<path class="st0" d="M62.6,78.5c0-1.2,0-2.5,0-3.7c0-0.4,0-0.6,0.5-0.4c1.5,0.6,2.9,1.4,4.5,1.7c0.3,0.1,0.2,0.3,0.2,0.5
		c0,2,0,3.9,0,5.9c0,0.4-0.1,0.5-0.5,0.5c-1.4,0-2.7,0-4.1,0c-0.5,0-0.6-0.2-0.6-0.7C62.7,81.1,62.6,79.8,62.6,78.5z"/>
	<path class="st0" d="M60.4,73.6c0,3,0,5.9,0,8.9c0,0.4-0.1,0.5-0.5,0.5c-1.3,0-2.5,0-3.8,0c-0.5,0-0.5-0.2-0.3-0.6
		c1.5-2.9,3-5.9,4.4-8.9C60.3,73.6,60.3,73.6,60.4,73.6z"/>
</g>
</svg>
