<?xml version="1.0" encoding="utf-8"?>
<!-- Generator: Adobe Illustrator 23.0.6, SVG Export Plug-In . SVG Version: 6.00 Build 0)  -->
<svg version="1.1" id="Layer_1" xmlns="http://www.w3.org/2000/svg" xmlns:xlink="http://www.w3.org/1999/xlink" x="0px" y="0px"
	 viewBox="0 0 180.1 177.9" style="enable-background:new 0 0 180.1 177.9;" xml:space="preserve">
<style type="text/css">
	.st0{fill:#FF9600;}
</style>
<path class="st0" d="M156.3,118.4c-1.9,0.1-3.3-0.9-4.7-2.1C137.7,105.1,123.9,94,110,82.8c-1.5-1.2-2.7-2.9-5.1-1.3
	c-1,0.7-2.2-0.2-3.2-0.8c-2.7-1.6-5.4-3.2-8-5c-1.7-1.2-2.7-0.9-4,0.7c-4.5,5.5-4.5,5.4-10.1,1c-5.2-4.2-10.3-8.4-15.5-12.5
	c-1.6-1.2-2.1-2-0.6-3.8c7.5-9.1,14.8-18.3,22.1-27.5c1.3-1.6,2.1-1.6,3.6-0.3c6.4,5.3,12.8,10.5,19.3,15.6c1.6,1.3,1.9,2,0.5,3.8
	c-4.5,5.6-4.4,5.6,0.5,10.8c2.3,2.4,5.8,4.3,4.7,8.7c-0.1,0.5,1.3,1.5,2.1,2.1c14.1,11.4,28.3,22.8,42.4,34.2c3,2.5,3.6,5.3,1.7,7.9
	C159.4,117.7,158,118.4,156.3,118.4z"/>
<path class="st0" d="M72.9,135.9c11.9,0,23.8,0,35.6,0c3,0,4.9,2.7,5,7.1c0.1,3.3-2,4.1-4.8,4.1c-24,0-48,0-72,0
	c-4.4,0-5.6-1.8-4.4-6c1.4-5.1,1.4-5.1,6.6-5.1C50.3,135.9,61.6,135.9,72.9,135.9z"/>
<path class="st0" d="M72.6,131.5c-10.7,0-21.4,0-32.1,0c-1,0-2.7,0.8-3-0.7c-0.3-1.3,1-2.3,2.4-2.6c1.3-0.3,1.6-1,1.6-2.2
	c0-3.5,2.1-4.6,5.2-4.6c8.5,0,17,0,25.5,0c8.7,0,17.5,0,26.2,0c3.4,0,5.8,1,5.7,4.9c-0.1,1.9,1.5,1.7,2.5,2.4
	c0.8,0.5,1.6,1.3,1.5,2.2c-0.2,1.4-1.5,0.7-2.3,0.7C94.7,131.5,83.6,131.5,72.6,131.5z"/>
<path class="st0" d="M76.6,95.7c-3.2-0.4-6.1-1.6-8.8-3.2c-6.4-3.7-12.1-8.4-16-14.8c-2.7-4.4-2.5-5.6,1.3-8.9c1.4-1.2,2-4.1,4-3.7
	c1.7,0.3,3.1,2.3,4.7,3.5C69,74.3,76,80,83.1,85.7c1.5,1.2,1.9,2,0.5,3.5c-1.2,1.2-2.2,2.6-2.7,4.4C80.4,95.7,78.4,95.7,76.6,95.7z"
	/>
<path class="st0" d="M96.2,18.1c0.7,0.2,2,0.3,3.1,0.8c8.9,3.4,16,9,21.1,16.9c2.9,4.5,2.6,5.6-1.3,9.2c-1.3,1.2-2.3,3.6-3.5,3.6
	c-2,0.1-3.4-2.1-5-3.4C103.8,39.7,97,34,90,28.6c-2.4-1.9-2.4-3.1-0.4-5c0.7-0.7,1.5-1.5,1.7-2.6C91.6,18.4,93.5,18,96.2,18.1z"/>
</svg>
