<?xml version="1.0" encoding="utf-8"?>
<!-- Generator: Adobe Illustrator 23.0.6, SVG Export Plug-In . SVG Version: 6.00 Build 0)  -->
<svg version="1.1" id="Layer_1" xmlns="http://www.w3.org/2000/svg" xmlns:xlink="http://www.w3.org/1999/xlink" x="0px" y="0px"
	 viewBox="0 0 180.1 177.9" style="enable-background:new 0 0 180.1 177.9;" xml:space="preserve">
<style type="text/css">
	.st0{fill:#FF9600;}
</style>
<g>
	<path class="st0" d="M89.3,37.7c18.3,0,36.7,0.1,55-0.1c3.5,0,4,1.1,4,4.2c-0.1,27.5-0.1,55-0.1,82.5c0,4.6,1.4,6.9,4.1,7
		c2.9,0.1,4.3-2.3,4.3-7.1c0-24.7,0-49.3,0-74c0-2-0.2-3.5,2.8-3.5c2.7,0,3.2,0.9,3.2,3.4c-0.1,24.3-0.1,48.7-0.1,73
		c0,2.6,0.1,5.2,0,7.9c-0.3,6.7-5.1,11.3-11.9,11.4c-36.1,0-72.2,0-108.3,0c-6.9,0-11.8-4.8-11.8-11.7c-0.1-30.1,0-60.2-0.1-90.3
		c0-2.8,1.5-2.6,3.3-2.6C52.2,37.7,70.8,37.7,89.3,37.7C89.3,37.7,89.3,37.7,89.3,37.7z M90,85.1c16.8,0,33.6-0.1,50.4,0.1
		c2.8,0,4-0.5,3.9-3.7c-0.2-11.9-0.2-23.8,0-35.7c0-2.9-0.9-3.7-3.7-3.6c-34,0.1-68,0.1-102.1,0c-2.8,0-3.4,1-3.4,3.6
		c0.1,12,0.1,24,0,36c0,2.8,0.9,3.5,3.5,3.5C55.7,85,72.9,85.1,90,85.1z M62.4,131.5c8.2,0,16.4-0.1,24.5,0c2.3,0,3-0.7,3-3
		c-0.1-10.3-0.1-20.5,0-30.8c0-2.2-0.5-3.1-2.9-3.1c-16.4,0.1-32.7,0.1-49.1,0c-2.1,0-2.8,0.7-2.8,2.8c0.1,10.4,0.1,20.7,0,31.1
		c0,2.4,0.9,2.9,3.1,2.9C46.2,131.4,54.3,131.5,62.4,131.5z M121.5,102.5c5.1,0,10.2,0,15.4,0c4.9,0,4.9,0,4.8-5
		c0-1.9-0.5-2.8-2.5-2.8c-11.8,0.1-23.5,0.1-35.3,0c-3.6,0-2.5,2.5-2.6,4.3c-0.1,1.9-0.3,3.7,2.7,3.6
		C109.8,102.4,115.7,102.5,121.5,102.5z M121.2,117c5.9,0,11.8-0.2,17.6,0.1c3.1,0.1,3-1.7,2.9-3.7c-0.1-2,0.7-4.1-2.8-4.1
		c-11.6,0.2-23.3,0.1-34.9,0c-3.3,0-2.7,2-2.7,3.9c0,1.8-0.7,4,2.6,3.9C109.6,116.9,115.4,117,121.2,117z M121.3,131.5
		c5.8,0,11.6-0.2,17.3,0.1c3,0.1,3.1-1.5,3-3.6c-0.1-1.9,0.8-4.2-2.8-4.1c-11.7,0.2-23.4,0.1-35,0c-3.4,0-2.6,2.1-2.6,3.9
		c-0.1,1.9-0.5,3.9,2.8,3.8C109.8,131.3,115.5,131.5,121.3,131.5z"/>
	<path class="st0" d="M90,77.9c-14.5,0-29,0-43.5,0c-1.4,0-3.2,0.6-3.2-2c0-2.6,1.8-2,3.2-2c28.9,0,57.8,0,86.7,0
		c1.6,0,3.1-0.2,3,2.2c-0.1,2.5-1.8,1.7-3,1.8C118.8,77.9,104.4,77.9,90,77.9z"/>
	<path class="st0" d="M101.1,55.9c-0.9,3.3-2,6.6-2.7,10c-0.6,2.7-2.5,2.1-4.2,2.3c-1.8,0.2-2.8-0.4-3.2-2.3
		c-1.1-5.3-2.4-10.6-3.4-16c-0.2-0.8-1.4-2.5,0.7-2.4c1.7,0.1,4.2-1.5,4.9,1.5c0.7,2.9,1.2,5.9,1.9,9.6c1.7-3.3,2.2-6.2,2.8-9
		c0.6-2.5,2.2-2.2,3.9-2.3c1.9-0.1,3,0.3,3.4,2.4c0.5,2.7,1.5,5.3,3,7.9c0.5-2.6,1.2-5.2,1.5-7.8c0.4-3.7,3.1-2.4,4.9-2.3
		c2.4,0.2,0.8,2.1,0.7,3c-0.9,5-2.2,10-3.2,15c-0.4,1.8-1,2.9-3.2,2.7c-1.9-0.2-3.8,0.4-4.4-2.5c-0.6-3.3-1.8-6.5-2.7-9.7
		C101.6,56,101.3,55.9,101.1,55.9z"/>
	<path class="st0" d="M49.1,57.8c0,2.7-0.1,5.4,0,8c0.1,2.2-1,2.4-2.8,2.4c-1.8,0-3.2,0-3.1-2.5c0.1-5,0-10,0.1-15
		c0-1.1-0.8-3.1,1.2-3.2c1.9-0.1,4.1-1.1,5.6,1.2c2.1,3.2,4.2,6.2,7.2,9.2c0-2.5,0.1-5.1,0-7.6c-0.1-2.2,0.5-3.1,2.9-3
		c2.2,0,3.1,0.5,3,2.9c-0.2,4.8,0,9.6-0.1,14.4c0,1.2,1,3.3-1.2,3.5c-2,0.2-4.3,1-5.8-1.5c-1.9-3.1-4-5.9-6-8.9
		C49.7,57.7,49.4,57.7,49.1,57.8z"/>
	<path class="st0" d="M67.8,57.8c0-2.7,0.1-5.5,0-8.2c-0.1-1.7,0.6-2.3,2.3-2.3c4.1,0.1,8.3,0.1,12.4,0c1.5,0,2.5,0.2,2.4,2.1
		c0,2-1.2,2-2.6,2c-2.1,0-4.1,0-6.2,0c-1.2,0-2.1,0.3-2.1,1.8c0,1.5,0.7,1.9,2,1.9c2,0,3.9,0.1,5.9,0c1.5-0.1,2.1,0.4,2.1,2
		c0,1.7-0.9,2-2.2,1.9c-1.7-0.1-3.5,0.1-5.2,0c-1.7-0.1-2.6,0.3-2.6,2.3c0,2,1,2.3,2.7,2.3c2.1-0.1,4.1,0.1,6.2,0
		c1.9-0.1,2.4,0.6,2.4,2.5c0,1.9-1,2.1-2.5,2.1c-4.1-0.1-8.3-0.1-12.4,0c-2.3,0.1-2.8-0.9-2.7-2.9C67.9,62.9,67.8,60.3,67.8,57.8z"
		/>
	<path class="st0" d="M127.3,68.4c-3.4,0-6.4-0.1-8.4-2.8c-0.8-1.2-2.4-3.1-0.8-3.9c1.5-0.8,4.2-1.8,5.6,1c0.8,1.6,2.2,2.1,3.8,1.9
		c1.2-0.1,2.1-0.6,2.4-1.9c0.3-1.3-0.6-2.1-1.7-2.5c-1.7-0.6-3.6-1-5.3-1.6c-2.8-1-5.2-2.6-4.8-6.1c0.4-3.4,2.7-4.7,5.8-5.3
		c3.2-0.6,6.4-0.6,9.1,1.4c1.3,0.9,2.9,2.8,1.6,4c-1.1,1-3.6,1.3-5.4-0.1c-0.6-0.5-1-1.3-1.6-1.5c-1.4-0.6-3-0.7-3.6,1
		c-0.6,1.6,1,1.9,2.1,2.2c1.6,0.5,3.2,0.8,4.7,1.3c3.8,1.3,5.4,3.5,5.1,6.7c-0.3,3.2-2.7,5.6-6.2,6.2
		C128.8,68.4,127.8,68.4,127.3,68.4z"/>
</g>
</svg>
