<?xml version="1.0" encoding="utf-8"?>
<!-- Generator: Adobe Illustrator 23.0.6, SVG Export Plug-In . SVG Version: 6.00 Build 0)  -->
<svg version="1.1" id="Layer_1" xmlns="http://www.w3.org/2000/svg" xmlns:xlink="http://www.w3.org/1999/xlink" x="0px" y="0px"
	 viewBox="0 0 180.1 177.9" style="enable-background:new 0 0 180.1 177.9;" xml:space="preserve">
<style type="text/css">
	.st0{fill:#FF9600;}
</style>
<path class="st0" d="M93,66.6c-20.1,0-40.2,0-60.3,0c-1.1,0-1.4-0.3-1.5-1.4c-0.1-1.8,0.6-2.6,2.1-3.4
	c19.6-10.8,39.2-21.6,58.8-32.4c0.7-0.4,1.2-0.4,1.9,0c19.8,11,39.6,21.9,59.4,32.8c1.2,0.6,1.4,1.4,1.3,2.5c-0.1,2,0,2-2,2
	C132.9,66.6,113,66.6,93,66.6z"/>
<path class="st0" d="M92.9,155.5c-21.3,0-42.6,0-64,0c-1.1,0-1.6-0.2-1.5-1.5c0.1-1.6,0.1-3.1,0-4.7c0-0.7,0.2-1,0.9-0.9
	c2.1,0,4.2,0,6.4,0c38.9,0,77.8,0,116.7,0c2,0,4,0.1,6,0c0.7,0,1,0.2,1,0.9c0,1.8,0,3.5,0,5.3c0,0.7-0.2,0.9-0.9,0.9
	c-0.3,0-0.6,0-0.9,0C135.4,155.5,114.1,155.5,92.9,155.5z"/>
<path class="st0" d="M64.7,104.2c0,9.2,0,18.5,0,27.7c0,1-0.1,1.4-1.3,1.3c-4.2-0.1-8.3-0.1-12.5,0c-0.8,0-1.1-0.2-1.1-1.1
	c0-18.7,0-37.5,0-56.2c0-0.9,0.3-1.1,1.1-1.1c4.2,0,8.3,0.1,12.5,0c1,0,1.2,0.3,1.2,1.2C64.7,85.5,64.7,94.8,64.7,104.2z"/>
<path class="st0" d="M97.3,104.1c0-9.2,0-18.5,0-27.7c0-1.2,0.4-1.5,1.5-1.4c4.1,0.1,8.2,0,12.3,0c0.8,0,1.1,0.2,1.1,1.1
	c0,18.7,0,37.5,0,56.2c0,0.9-0.3,1.1-1.2,1.1c-4.2,0-8.3,0-12.5,0c-0.9,0-1.2-0.3-1.2-1.2C97.3,122.7,97.3,113.4,97.3,104.1z"/>
<path class="st0" d="M135.5,104.1c0,9.3,0,18.7,0,28c0,0.9-0.2,1.2-1.2,1.2c-4.2-0.1-8.3,0-12.5,0c-0.8,0-1.2-0.2-1.1-1.1
	c0-18.7,0-37.5,0-56.2c0-0.8,0.2-1.1,1.1-1.1c4.2,0,8.4,0.1,12.6,0c1,0,1.1,0.4,1.1,1.2C135.5,85.4,135.5,94.8,135.5,104.1z"/>
<path class="st0" d="M88.2,104.1c0,9.3,0,18.6,0,28c0,1-0.3,1.2-1.2,1.2c-4.2-0.1-8.3,0-12.5,0c-0.8,0-1-0.2-1-1.1
	c0-18.7,0-37.4,0-56.2c0-0.9,0.2-1.1,1.1-1.1c4.2,0,8.3,0.1,12.5,0c0.9,0,1.2,0.3,1.2,1.2C88.2,85.4,88.2,94.7,88.2,104.1z"/>
<path class="st0" d="M92.8,148.2c-19.4,0-38.9,0-58.3,0c-1.6,0-1.5,0.3-1.5-1.5c0-1.5,0-3.1,0-4.6c0-0.7,0.2-1,0.9-0.9
	c2.4,0,4.7,0,7.1,0c34.7,0,69.4,0,104.1,0c2.2,0,4.4,0,6.6-0.1c0.8,0,1.1,0.3,1.1,1.1c-0.1,1.6-0.1,3.2,0,4.8c0,0.9-0.3,1.2-1.2,1.2
	c-6.7,0-13.5,0-20.2,0C118.5,148.2,105.7,148.2,92.8,148.2z"/>
<path class="st0" d="M92.9,74.4c-17.4,0-34.9,0-52.3,0c-1.1,0-1.5-0.2-1.4-1.4c0.1-1.6,0.1-3.2,0-4.8c0-0.7,0.2-1,0.9-0.9
	c0.4,0,0.7,0,1.1,0c34.7,0,69.3,0,104,0c1.7,0,1.5-0.2,1.5,1.5c0,1.4-0.1,2.8,0,4.2c0.1,1.1-0.2,1.4-1.3,1.4c-8.8,0-17.6,0-26.3,0
	C110.3,74.4,101.6,74.4,92.9,74.4z"/>
<path class="st0" d="M93,133.9c17.4,0,34.8,0,52.2,0c1.1,0,1.6,0.2,1.5,1.5c-0.1,1.6-0.1,3.1,0,4.7c0,0.6-0.2,1-0.8,0.9
	c-0.4,0-0.9,0-1.3,0c-34.5,0-69.1,0-103.6,0c-2,0-1.7,0.2-1.7-1.7c0-1.3,0-2.5,0-3.8c0-1.8-0.3-1.6,1.5-1.6c8,0,16.1,0,24.1,0
	C74.2,133.9,83.6,133.9,93,133.9z"/>
</svg>
