<?xml version="1.0" encoding="utf-8"?>
<!-- Generator: Adobe Illustrator 23.0.6, SVG Export Plug-In . SVG Version: 6.00 Build 0)  -->
<svg version="1.1" id="Layer_1" xmlns="http://www.w3.org/2000/svg" xmlns:xlink="http://www.w3.org/1999/xlink" x="0px" y="0px"
	 viewBox="0 0 180.1 177.9" style="enable-background:new 0 0 180.1 177.9;" xml:space="preserve">
<style type="text/css">
	.st0{fill:#FF9600;}
</style>
<path class="st0" d="M97.8,98.2c12.5-12.5,24.7-24.7,37.1-37.1c-0.7-0.1-1.5-0.3-2.2-0.3c-5.3,0-10.6,0-15.9,0
	c-4.4-0.1-7.4-2.8-7.5-6.6c-0.1-3.9,3-6.7,7.6-6.7c11.4,0,22.7,0,34.1,0c5.1,0,7.4,2.3,7.4,7.4c0,11.5,0,22.9,0,34.4
	c0,4.4-2.7,7.4-6.6,7.4c-3.9,0-6.5-2.9-6.6-7.4c-0.1-6,0-12,0-18.8c-1.3,1.1-2,1.8-2.7,2.5c-12.6,12.6-25.2,25.2-37.8,37.8
	c-5.2,5.2-8,5.2-13.1,0.1c-5.2-5.2-10.4-10.5-15.9-16c-3.3,3.4-6.4,6.6-9.6,9.8c-8.5,8.6-17.1,17.1-25.7,25.7
	c-2.4,2.4-5.5,2.9-8.1,1.4c-2.7-1.5-3.9-3.9-3.3-6.9c0.3-1.5,1.2-3,2.2-4.1c13.1-13.2,26.2-26.3,39.4-39.4c3.4-3.3,7-3.3,10.3,0
	C86.6,86.8,92.2,92.5,97.8,98.2z"/>
</svg>
