<?xml version="1.0" encoding="utf-8"?>
<!-- Generator: Adobe Illustrator 23.0.6, SVG Export Plug-In . SVG Version: 6.00 Build 0)  -->
<svg version="1.1" id="Objects" xmlns="http://www.w3.org/2000/svg" xmlns:xlink="http://www.w3.org/1999/xlink" x="0px" y="0px"
	 viewBox="0 0 1870 1122" style="enable-background:new 0 0 1870 1122;" xml:space="preserve">
<style type="text/css">
	.st0{fill:#FF9600;}
	.st1{fill:#89BBE1;}
	.st2{fill:#8BC3B6;}
	.st3{fill:#B42B19;}
	.st4{fill:#3F6FA4;}
</style>
<path class="st0" d="M1401.8,969.3c-70.7,0-128.3-57.5-128.3-128.3c0-70.7,57.5-128.3,128.3-128.3c70.7,0,128.3,57.5,128.3,128.3
	C1530.1,911.7,1472.5,969.3,1401.8,969.3z M1401.8,737.9c-56.9,0-103.1,46.3-103.1,103.1s46.3,103.1,103.1,103.1
	c56.9,0,103.1-46.3,103.1-103.1S1458.6,737.9,1401.8,737.9z"/>
<path class="st1" d="M1583,470.4c-56.2,0-102-45.8-102-102c0-56.2,45.8-102,102-102c56.2,0,102,45.8,102,102
	C1685,424.6,1639.2,470.4,1583,470.4z M1583,291.5c-42.4,0-76.8,34.5-76.8,76.8c0,42.4,34.5,76.8,76.8,76.8
	c42.4,0,76.8-34.5,76.8-76.8C1659.9,326,1625.4,291.5,1583,291.5z"/>
<path class="st2" d="M302.9,543.3c-65,0-117.9-52.9-117.9-117.9c0-65,52.9-117.9,117.9-117.9c65,0,117.9,52.9,117.9,117.9
	C420.9,490.4,368,543.3,302.9,543.3z M302.9,332.6c-51.2,0-92.8,41.6-92.8,92.8c0,51.2,41.6,92.8,92.8,92.8s92.8-41.6,92.8-92.8
	C395.7,374.2,354.1,332.6,302.9,332.6z"/>
<path class="st3" d="M465.8,1000.4c-47.9,0-86.9-39-86.9-86.9c0-47.9,39-86.9,86.9-86.9s86.9,39,86.9,86.9
	C552.7,961.4,513.8,1000.4,465.8,1000.4z M465.8,851.7c-34.1,0-61.8,27.7-61.8,61.8c0,34.1,27.7,61.8,61.8,61.8
	c34.1,0,61.8-27.7,61.8-61.8C527.6,879.5,499.9,851.7,465.8,851.7z"/>
<path class="st0" d="M568.9,755.1c-23.6,0-42.8-19.2-42.8-42.8c0-23.6,19.2-42.8,42.8-42.8s42.8,19.2,42.8,42.8
	C611.6,735.9,592.4,755.1,568.9,755.1z M568.9,694.7c-9.7,0-17.6,7.9-17.6,17.6c0,9.7,7.9,17.6,17.6,17.6c9.7,0,17.6-7.9,17.6-17.6
	C586.5,702.6,578.6,694.7,568.9,694.7z"/>
<ellipse transform="matrix(0.9732 -0.2298 0.2298 0.9732 -137.112 70.3571)" class="st1" cx="233.6" cy="624" rx="23.9" ry="23.9"/>
<ellipse transform="matrix(0.9732 -0.2298 0.2298 0.9732 -185.9378 230.0788)" class="st3" cx="895.1" cy="913.5" rx="23.9" ry="23.9"/>
<ellipse transform="matrix(0.9732 -0.2298 0.2298 0.9732 -98.5877 361.9437)" class="st3" cx="1505" cy="604.3" rx="23.9" ry="23.9"/>
<ellipse transform="matrix(0.1891 -0.982 0.982 0.1891 919.5455 1404.4895)" class="st2" cx="1310.2" cy="145.5" rx="23.9" ry="23.9"/>
<ellipse transform="matrix(0.8507 -0.5257 0.5257 0.8507 -0.4049 289.5342)" class="st3" cx="509.4" cy="145.5" rx="23.9" ry="23.9"/>
<ellipse transform="matrix(0.7071 -0.7071 0.7071 0.7071 90.9839 729.4608)" class="st0" cx="926" cy="254.9" rx="23.9" ry="23.9"/>
<ellipse transform="matrix(0.7071 -0.7071 0.7071 0.7071 -396.0161 560.4765)" class="st2" cx="478.5" cy="758.3" rx="23.9" ry="23.9"/>
<path class="st2" d="M1077.8,976.3c-23.6,0-42.8-19.2-42.8-42.8c0-23.6,19.2-42.8,42.8-42.8c23.6,0,42.8,19.2,42.8,42.8
	C1120.5,957.1,1101.4,976.3,1077.8,976.3z M1077.8,915.9c-9.7,0-17.6,7.9-17.6,17.6c0,9.7,7.9,17.6,17.6,17.6
	c9.7,0,17.6-7.9,17.6-17.6C1095.4,923.8,1087.5,915.9,1077.8,915.9z"/>
<rect x="1217.5" y="650.9" transform="matrix(0.5051 -0.863 0.863 0.5051 -26.7138 1426.0001)" class="st0" width="25.1" height="170.8"/>
<rect x="1144.3" y="449.4" transform="matrix(0.9495 -0.3139 0.3139 0.9495 -78.1327 438.7215)" class="st1" width="358.3" height="25.1"/>
<rect x="528" y="350.2" transform="matrix(0.2874 -0.9578 0.9578 0.2874 -85.5732 868.0099)" class="st2" width="25.1" height="282.7"/>
<rect x="593.9" y="675.5" transform="matrix(0.9775 -0.2111 0.2111 0.9775 -130.9499 149.6576)" class="st0" width="83" height="25.1"/>
<rect x="516.8" y="810.7" transform="matrix(0.8757 -0.4829 0.4829 0.8757 -319.3958 405.9048)" class="st3" width="223.6" height="25.2"/>
<rect x="1037.2" y="827.2" transform="matrix(0.9079 -0.4192 0.4192 0.9079 -266.7788 519.8809)" class="st2" width="25.2" height="79.9"/>
<path class="st1" d="M749.3,231.6c23.5-1.8,44.1,15.9,45.9,39.4c1.8,23.5-15.9,44.1-39.4,45.9c-23.5,1.8-44.1-15.9-45.9-39.4
	C708.1,254,725.8,233.4,749.3,231.6z M753.9,291.8c9.7-0.7,17-9.2,16.2-18.9c-0.7-9.7-9.2-17-18.9-16.2c-9.7,0.7-17,9.2-16.2,18.9
	C735.7,285.3,744.2,292.5,753.9,291.8z"/>
<rect x="772.9" y="298.5" transform="matrix(0.8738 -0.4862 0.4862 0.8738 -65.4445 424.6129)" class="st1" width="25.2" height="79.9"/>
<path class="st3" d="M1168.3,173.7c13.2,19.6,7.9,46.2-11.6,59.3c-19.6,13.2-46.2,7.9-59.3-11.6c-13.2-19.6-7.9-46.2,11.6-59.3
	C1128.6,148.9,1155.2,154.2,1168.3,173.7z M1118.2,207.4c5.4,8.1,16.4,10.2,24.4,4.8c8.1-5.4,10.2-16.4,4.8-24.4
	c-5.4-8.1-16.4-10.2-24.4-4.8C1115,188.4,1112.8,199.3,1118.2,207.4z"/>
<polygon class="st3" points="1124.8,230.3 1038.9,377.9 1017.4,364.8 1103.3,217.2 "/>
<path class="st3" d="M1154.4,561.5l28.4-2c-12-70.6-51.7-131.8-107.4-172.1l-14.9,24.1C1108.8,447,1143.3,500.2,1154.4,561.5z"/>
<path class="st2" d="M919,365c52.9,0,101.8,17.3,141.5,46.4l14.9-24.1c-44-31.8-98-50.6-156.4-50.6c-57.5,0-110.8,18.2-154.5,49.2
	l18.2,21.8C821.4,380.8,868.4,365,919,365z"/>
<path class="st0" d="M782.7,407.7l-18.2-21.8c-28.5,20.2-52.9,45.9-71.6,75.4l24.5,14.2C734.5,448.9,756.7,425.8,782.7,407.7z"/>
<path class="st1" d="M1182.8,559.5l-28.4,2c2.5,13.9,3.9,28.2,3.9,42.9c0,132-107.4,239.3-239.3,239.3
	c-132,0-239.3-107.4-239.3-239.3c0-47.4,13.9-91.6,37.7-128.8l-24.5-14.2c-26.3,41.4-41.5,90.4-41.5,143
	c0,147.6,120,267.6,267.6,267.6c147.6,0,267.6-120,267.6-267.6C1186.6,589,1185.3,574.1,1182.8,559.5z"/>
<path class="st4" d="M509.4,904.9c0-1.2-0.8-2.3-2.1-2.6l-9.4-2.1l5.2-8.1c0.7-1.1,0.5-2.4-0.4-3.3l-12.2-12.2
	c-0.9-0.9-2.3-1-3.3-0.4l-8.1,5.2l-2.1-9.4c-0.3-1.2-1.3-2.1-2.6-2.1h-17.3c-1.2,0-2.3,0.9-2.6,2.1l-2.1,9.4l-8.1-5.2
	c-1-0.7-2.4-0.5-3.3,0.4l-12.2,12.2c-0.9,0.9-1,2.2-0.4,3.3l5.2,8.1l-9.4,2.1c-1.2,0.3-2.1,1.3-2.1,2.6l0,17.3
	c0,1.2,0.8,2.3,2.1,2.6l9.4,2.1l-5.2,8.1c-0.7,1.1-0.5,2.4,0.4,3.3l12.2,12.2c0.9,0.9,2.3,1,3.3,0.4l8.1-5.2l2.1,9.4
	c0.3,1.2,1.4,2.1,2.6,2.1h0l17.3,0c1.2,0,2.3-0.9,2.6-2.1l2.1-9.4l8.1,5.2c1,0.6,2.4,0.5,3.3-0.4l12.2-12.2c0.9-0.9,1-2.2,0.4-3.3
	l-5.2-8.1l9.4-2.1c1.2-0.3,2.1-1.3,2.1-2.6L509.4,904.9z M465.8,932.8C465.8,932.8,465.8,932.8,465.8,932.8l-0.3,0
	c-9.8-0.2-17.8-8.3-17.8-18.1c0-9.8,8-18,17.8-18.1c0.1,0,0.2,0,0.3,0l0.1,0c10,0,18.1,8.2,18.1,18.2
	C483.9,924.7,475.8,932.8,465.8,932.8z"/>
<path class="st4" d="M1583,315.4c-33.9,0-61.4,21.6-61.4,48.2c0,26.6,27.5,48.2,61.4,48.2c1.8,0,3.6-0.1,5.4-0.2l4.8,11.7
	c0.4,0.9,1.2,1.5,2.1,1.7c0.2,0,0.3,0,0.5,0c0.8,0,1.6-0.3,2.1-0.9l17.6-19.6c18.1-8.9,28.9-24.1,28.9-40.9
	C1644.4,337.1,1616.9,315.4,1583,315.4z M1560,376c-4,0-7.3-3.3-7.3-7.3c0-4,3.3-7.3,7.3-7.3c4,0,7.3,3.3,7.3,7.3
	C1567.3,372.7,1564,376,1560,376z M1583.2,376c-4,0-7.3-3.3-7.3-7.3c0-4,3.3-7.3,7.3-7.3c4,0,7.3,3.3,7.3,7.3
	C1590.5,372.7,1587.2,376,1583.2,376z M1605.3,376c-4,0-7.3-3.3-7.3-7.3c0-4,3.3-7.3,7.3-7.3c4,0,7.3,3.3,7.3,7.3
	C1612.6,372.7,1609.3,376,1605.3,376z"/>
<g>
	<path class="st3" d="M934.3,744.6l87.1-35.1c2.9-1.2,4.3-4.4,3.3-7.3l-1.2-3.4c-0.2-0.5-0.1-1.1,0.3-1.6
		c17.5-22.9,5.5-53.4,5.5-53.4l-17.5-44.8c0-0.1,0-0.1-0.1-0.2c-0.3-1.5-5.2-22.9-21.2-22.9c-9.2,0-14.3,4-17,7.6
		c-0.9,1.2-2.7,0.9-3.1-0.6c-1.1-4.6-4.7-10.4-15.9-11.7c-12.4-1.4-17.3,5.5-19.2,10.6c-0.5,1.3-2.4,1.5-3.1,0.2
		c-4-8.3-12.5-17.9-23.3-14.3c-7.4,2.5-10.8,7.2-12.3,10.8c-0.6,1.4-2.6,1.4-3.1,0l-17.9-46c0,0-8.6-27.6-26.6-20.8
		c-17.9,6.8-8.3,30.5-8.3,30.5l41.3,109.2c0.6,1.5-1.1,2.9-2.5,2.1L860,641.6c-0.1-0.1-0.1-0.1-0.2-0.1c-1.4-1.2-22.3-19-35.5-5.1
		c-13.1,13.8,1.3,28.9,2.4,30.1c0.1,0.1,0.1,0.1,0.2,0.1l97.9,71.1c0.2,0.2,0.4,0.4,0.5,0.7l1.6,3.5
		C928.3,744.5,931.5,745.8,934.3,744.6z"/>
	<path class="st3" d="M1056.2,762.1l-19.6-44.2c-1.4-3.2-5.1-4.7-8.3-3.4l-96.1,38.7c-3.4,1.4-5,5.3-3.5,8.7l20,43.3
		c1.4,3.1,5,4.6,8.2,3.3l95.7-37.9C1056.1,769.4,1057.7,765.5,1056.2,762.1z"/>
	<path class="st3" d="M819.9,472.1c1.8,4.6,6.1,7.4,10.7,7.4c1.4,0,2.8-0.3,4.1-0.8c5.9-2.3,8.9-8.9,6.6-14.8l-12-31.2
		c-2.3-5.9-8.9-8.9-14.8-6.6c-5.9,2.3-8.9,8.9-6.6,14.8L819.9,472.1z"/>
	<path class="st3" d="M767.8,491.3l30.5,13.5c1.5,0.7,3.1,1,4.7,1c4.4,0,8.6-2.5,10.5-6.8c2.6-5.8,0-12.6-5.8-15.2l-30.5-13.5
		c-5.8-2.6-12.6,0-15.2,5.8C759.4,481.9,762.1,488.7,767.8,491.3z"/>
	<path class="st3" d="M929.3,537.5L898.8,524c-5.8-2.6-12.6,0-15.2,5.8c-2.6,5.8,0,12.6,5.8,15.2l30.5,13.5c1.5,0.7,3.1,1,4.7,1
		c4.4,0,8.6-2.5,10.5-6.8C937.7,546.9,935.1,540.1,929.3,537.5z"/>
	<path class="st3" d="M812.9,528.3c-2.3-5.9-8.9-8.9-14.8-6.6l-31.2,12c-5.9,2.3-8.9,8.9-6.6,14.8c1.8,4.6,6.1,7.4,10.7,7.4
		c1.4,0,2.8-0.3,4.1-0.8l31.2-12C812.2,540.9,815.2,534.2,812.9,528.3z"/>
	<path class="st3" d="M884.3,500.5c1.8,4.6,6.1,7.4,10.7,7.4c1.4,0,2.8-0.3,4.1-0.8l31.2-12c5.9-2.3,8.9-8.9,6.6-14.8
		c-2.3-5.9-8.9-8.9-14.8-6.6l-31.2,12C885,487.9,882,494.6,884.3,500.5z"/>
	<path class="st3" d="M825.5,595.1l13.5-30.5c2.6-5.8,0-12.6-5.8-15.2c-5.8-2.6-12.6,0-15.2,5.8l-13.5,30.5
		c-2.6,5.8,0,12.6,5.8,15.2c1.5,0.7,3.1,1,4.7,1C819.4,602,823.6,599.4,825.5,595.1z"/>
	<path class="st3" d="M864,479.3c1.5,0.7,3.1,1,4.7,1c4.4,0,8.6-2.5,10.5-6.8l13.5-30.5c2.6-5.8,0-12.6-5.8-15.2
		c-5.8-2.6-12.6,0-15.2,5.8l-13.5,30.5C855.6,470,858.2,476.8,864,479.3z"/>
</g>
<path class="st0" d="M1430.5,769.2h-57.4c-6.6,0-12,5.5-12,12.3v119c0,6.8,5.4,12.3,12,12.3h57.4c6.6,0,12-5.5,12-12.3v-119
	C1442.5,774.7,1437.1,769.2,1430.5,769.2z M1409.3,902.7c0,1.6-1.3,2.9-2.9,2.9h-9.1c-1.6,0-2.9-1.3-2.9-2.9v-5
	c0-1.6,1.3-2.9,2.9-2.9h9.1c1.6,0,2.9,1.3,2.9,2.9V902.7z M1425.6,886.4H1378c-3.2,0-5.9-2.6-5.9-5.9v-91.7c0-3.2,2.6-5.9,5.9-5.9
	h47.6c3.2,0,5.9,2.6,5.9,5.9v91.7C1431.4,883.8,1428.8,886.4,1425.6,886.4z"/>
<g>
	<g>
		<path class="st4" d="M345,408.9c-1.3,0-2.6,0.1-3.9,0.3c0.1-1.2,0.2-2.4,0.2-3.6c0-19.8-16.1-35.9-35.9-35.9
			c-15.6,0-29.5,10.2-34.2,25c-1.1-0.1-2.1-0.1-3.1-0.1c-21,0-38.1,17.1-38.1,38.1c0,21,17.1,38.1,38.1,38.1h77
			c17.1,0,30.9-13.9,30.9-30.9C375.9,422.8,362,408.9,345,408.9z"/>
	</g>
</g>
</svg>
