<?xml version="1.0" encoding="utf-8"?>
<!-- Generator: Adobe Illustrator 23.0.6, SVG Export Plug-In . SVG Version: 6.00 Build 0)  -->
<svg version="1.1" id="Layer_1" xmlns="http://www.w3.org/2000/svg" xmlns:xlink="http://www.w3.org/1999/xlink" x="0px" y="0px"
	 viewBox="0 0 180.1 177.9" style="enable-background:new 0 0 180.1 177.9;" xml:space="preserve">
<style type="text/css">
	.st0{fill:#FF9600;}
</style>
<path class="st0" d="M101.1,145.2c-17.7,0-35.4,0-53.1,0c-7.4,0-13.6-4.4-15.2-10.7c-0.4-1.7-0.5-3.4-0.5-5.1c0-18.1,0-36.2,0-54.2
	c0-9.8,0-19.5,0-29.3c0-1.6,0.2-3.3,0.5-4.9c1.2-5.6,4.4-8.2,10.2-8.2c8.9,0,17.9,0,26.8,0c24.4,0,48.7,0,73.1,0
	c4.8,0,8.5,2.1,9.4,6.8c0.1,0.8,0.5,1.2,1.4,1.2c6-0.1,8.8,4.5,8.7,9.8c-0.1,25.8,0,51.7-0.1,77.5c0,3.2,0,6.5-0.7,9.7
	c-0.3,1.3-0.6,2.7-1.1,4c-1,2.5-2.9,3.7-5.6,3.7C137.1,145.2,119.1,145.2,101.1,145.2C101.1,145.2,101.1,145.2,101.1,145.2z
	 M92.8,39.7c-16,0-32,0-47.9,0c-6.5,0-7.1,0.6-7.1,7.2c0,27.5,0,55,0,82.4c0,4.1,1.3,6.1,5.1,7.6c2,0.8,4,1.2,6.2,1.2
	c15.2,0,30.4,0,45.6,0c17.1,0,34.3,0,51.4,0c1.5,0,2.1-0.2,1.7-1.9c-0.7-2.6-0.7-5.3-0.7-8c0-23.4,0-46.8,0-70.2
	c0-5,0-10.1-0.1-15.1c-0.1-2.4-0.7-3-3.2-3.2c-0.8-0.1-1.5,0-2.3,0C125.3,39.7,109,39.7,92.8,39.7z M152.6,91.2
	c0,12.4,0,24.8,0,37.2c0,2.7,0,5.5,0.8,8.2c0.2,0.7,0.4,1.4,1.3,1.3c0.7-0.1,1-0.7,1.1-1.3c0.5-2,0.7-3.9,0.7-5.9
	c0-26.9,0-53.7,0.1-80.6c0-2.1-1.4-2.4-2.9-2.5c-1.8-0.1-1.1,1.4-1.1,2.3C152.6,63.7,152.6,77.5,152.6,91.2z"/>
<path class="st0" d="M64.6,84.4c-4.3,0-8.5,0-12.8,0c-3.7,0-6.1-1.6-6.4-5.3c-0.8-9.8-0.9-19.6,0.1-29.4c0.3-3,2.3-4.5,5.2-4.9
	c0.7-0.1,1.4-0.2,2-0.2c8,0,16,0,23.9,0c5.2,0,7.7,2.2,7.8,7.4c0.2,8.3,0.2,16.6,0,25c-0.1,5.4-2.5,7.5-7.9,7.5
	C72.6,84.4,68.6,84.4,64.6,84.4z"/>
<path class="st0" d="M92.1,101.2c-14.6,0-29.2,0-43.8,0c-3.4,0-5.2-3-3.5-6.1c0.5-0.9,1.2-1.5,2.3-1.5c0.5,0,1,0,1.4,0
	c29.1,0,58.3,0,87.4,0c2.9,0,4.2,1.4,4.1,4.1c-0.1,2.4-1.4,3.5-3.9,3.5C121.4,101.2,106.7,101.2,92.1,101.2z"/>
<path class="st0" d="M119.1,69.1c-6.4,0-12.8,0-19.2,0c-2.4,0-3.6-1.2-3.6-3.7c0-2.6,1.2-4,3.6-4c12.7,0,25.4,0,38.2,0
	c2.3,0,3.6,1.5,3.6,3.8c0,2.5-1.2,3.8-3.5,3.8C131.8,69.1,125.4,69.1,119.1,69.1z"/>
<path class="st0" d="M118.9,85.5c-6.3,0-12.7,0-19,0c-2.5,0-3.7-1.3-3.6-3.9c0-2.5,1.2-3.6,3.7-3.6c12.7,0,25.3,0,38,0
	c2.5,0,3.7,1.4,3.6,3.9c-0.1,2.4-1.3,3.7-3.7,3.7C131.6,85.5,125.2,85.5,118.9,85.5z"/>
<path class="st0" d="M117,117.4c-6.2,0-12.4-0.1-18.6,0c-4,0.1-4.8-3.5-3.7-6c0.7-1.5,2-1.8,3.6-1.8c11,0.1,22,0,33,0.1
	c1.6,0,3.2,0,4.7,0c2.4,0,3.6,1.3,3.6,3.7c0,2.6-1.2,4-3.6,4C129.6,117.4,123.3,117.4,117,117.4z"/>
<path class="st0" d="M116.9,126c6.5,0,13,0,19.6,0c2.1,0,3.2,1.5,3.2,3.9c0,2.3-1.1,3.7-3.2,3.7c-12.9,0-25.7,0-38.6,0
	c-2.2,0-3.4-1.4-3.5-3.7c0-2.5,1.2-3.9,3.4-3.9C104.1,126,110.5,126,116.9,126z"/>
<path class="st0" d="M118.8,52.6c-6.3,0-12.7,0-19,0c-2.4,0-3.5-1.3-3.5-3.8c0-2.5,1.2-3.8,3.5-3.8c12.8,0,25.5,0,38.3,0
	c2.3,0,3.5,1.3,3.5,3.8c0,2.5-1.2,3.7-3.6,3.7C131.6,52.6,125.2,52.6,118.8,52.6z"/>
<path class="st0" d="M64.8,133.2c-5.6,0-11.1,0-16.7,0c-2.6,0-3.6-1.2-3.6-3.9c0-2.5,1.1-3.7,3.6-3.7c11.2,0,22.3,0,33.5,0
	c2.4,0,3.5,1.3,3.5,3.9c0,2.5-1.1,3.8-3.5,3.8C75.9,133.2,70.4,133.2,64.8,133.2C64.8,133.2,64.8,133.2,64.8,133.2z"/>
<path class="st0" d="M64.6,116.7c-5.6,0-11.1,0-16.7,0c-2.3,0-3.3-1-3.4-3.4c-0.1-2.6,0.9-4.1,3.2-4.1c4.6-0.1,9.2-0.1,13.8-0.1
	c6.6,0,13.2,0,19.8,0.1c2.8,0,3.9,1.1,3.8,3.9c0,2.6-1.1,3.7-3.8,3.7C75.7,116.8,70.1,116.8,64.6,116.7
	C64.6,116.8,64.6,116.7,64.6,116.7z"/>
</svg>
