<?xml version="1.0" encoding="utf-8"?>
<!-- Generator: Adobe Illustrator 23.0.6, SVG Export Plug-In . SVG Version: 6.00 Build 0)  -->
<svg version="1.1" id="Layer_1" xmlns="http://www.w3.org/2000/svg" xmlns:xlink="http://www.w3.org/1999/xlink" x="0px" y="0px"
	 viewBox="0 0 180.1 177.9" style="enable-background:new 0 0 180.1 177.9;" xml:space="preserve">
<style type="text/css">
	.st0{fill:#FF9600;}
</style>
<path class="st0" d="M92,120.1c8.2,1.4,14.5,5.3,19,12.1c4,6,4.9,12.6,4.2,19.6c-0.1,0.7-0.4,0.9-1,0.9c-0.3,0-0.5,0-0.8,0
	c-27.3,0-54.5,0-81.8,0c-1.5,0-1.8-0.4-1.7-1.9c0.3-3.3,0.1-6.7,0.9-10c2.6-10.9,11.2-18.9,22.3-20.7c0.2,0,0.4-0.1,0.9-0.2
	c-6.9-7.5-9.5-16.2-7.1-26c1.6-6.4,5.2-11.4,10.6-15.2c10.8-7.6,25.3-6.2,34.7,3.1C101.1,90.8,103.9,107.6,92,120.1z"/>
<path class="st0" d="M132.2,89.8c11.8,2.5,19.6,9.1,22.8,20.8c0.6,2.1,0.8,4.3,0.8,6.5c-0.1,11.4-0.2,22.8-0.2,34.2
	c0,1.2-0.4,1.5-1.6,1.5c-9.9,0-19.7-0.1-29.6,0c-1.3,0-1.5-0.4-1.4-1.6c1-12.1-2.9-22.3-12-30.4c-1.7-1.5-3.5-2.8-5.5-3.8
	c-1.2-0.6-1.3-1.1-0.8-2.3c7.2-16.6,0.6-35.7-15.4-44.3c-3.1-1.7-3.1-1.7-2.3-5.1c2.8-12.8,13.8-21.7,26.6-21.5
	c12.9,0.2,23.8,9.2,26.2,22c1.6,8.6-0.6,16.2-6.3,22.8C133,88.8,132.7,89.3,132.2,89.8z"/>
<path class="st0" d="M41.4,60.5c0-1.4,0-2.9,0-4.3c0-0.9-0.3-1.2-1.2-1.2c-2.6,0-5.2,0-7.8,0c-4.6,0-8.1-3.4-8.1-7.8
	c0-4.4,3.4-7.8,8-7.9c2.6,0,5.2,0,7.8,0c1,0,1.3-0.3,1.3-1.3c-0.1-2.6,0-5.2,0-7.8c0.1-4.6,3.5-8.1,7.9-8c4.4,0,7.7,3.5,7.8,8.1
	c0,2.5,0.1,5,0,7.5c0,1.2,0.4,1.5,1.5,1.5c2.5-0.1,5,0,7.5,0c4.8,0,8.2,3.3,8.2,7.9c0,4.5-3.5,7.8-8.2,7.8c-2.5,0-5.1,0.1-7.6,0
	c-1.1,0-1.4,0.3-1.3,1.4c0.1,2.6,0,5.2,0,7.8c0,4.6-3.4,8.1-7.8,8.1c-4.5,0-7.8-3.4-7.8-8.1C41.4,62.9,41.4,61.7,41.4,60.5z"/>
</svg>
