<?xml version="1.0" encoding="utf-8"?>
<!-- Generator: Adobe Illustrator 23.0.6, SVG Export Plug-In . SVG Version: 6.00 Build 0)  -->
<svg version="1.1" id="Layer_1" xmlns="http://www.w3.org/2000/svg" xmlns:xlink="http://www.w3.org/1999/xlink" x="0px" y="0px"
	 viewBox="0 0 180.1 177.9" style="enable-background:new 0 0 180.1 177.9;" xml:space="preserve">
<style type="text/css">
	.st0{fill:#FF9600;}
</style>
<path class="st0" d="M73.1,20.1c4.4,0,8.7,0,13.1,0c6.5,0.1,13.1,0.5,19.6,0.3c4.2-0.1,7.8,1.1,10.8,4c9.8,9.7,19.6,19.4,29.4,29.2
	c3.3,3.3,4.5,7.4,4.5,12.2c-0.2,24.5-0.2,49,0,73.5c0.1,7.7-6,17.8-16,20.2c-1.9,0.5-3.9,0.6-5.8,0.9c-21.6,0-43.2,0-64.8,0
	c-0.6-0.1-1.2-0.4-1.8-0.4C50.8,158.5,43,149.7,43,138.5c0-32.5,0-64.9,0-97.4c0-10.7,9.1-20.1,19.8-20.5
	C66.2,20.4,69.6,20.3,73.1,20.1z M53.7,90.1c0,15.9,0,31.8,0,47.7c0,6.9,4.3,11.5,11.2,11.5c21.2,0.1,42.4,0.1,63.6,0
	c6.7,0,11.2-4.5,11.2-11.2c0.1-22.6,0-45.3,0-67.9c0-4.7-1.8-6.4-6.4-6.4c-5.8-0.1-11.6-0.1-17.5-0.2c-6.9-0.1-8.2-1.3-8.3-8.2
	c-0.1-5.9-0.1-11.8-0.3-17.8c-0.2-5-1.7-6.4-6.7-6.4c-11.5,0-23.1,0-34.6,0.1c-7.9,0-12.2,4.3-12.2,12.1
	C53.7,58.9,53.7,74.5,53.7,90.1z"/>
<path class="st0" d="M96.5,47.2c0.3,5.5,0.5,10.6,0.8,16c0.1-0.1,0,0.1-0.2,0.1c-9.1,0-18.2,0.2-27.3,0c-3.5-0.1-5.1-2.2-5.2-5.7
	c-0.3-9.4,0.4-10.2,9.7-10.4C81.6,47.1,88.9,47.2,96.5,47.2z"/>
<path class="st0" d="M86.2,133.3c0-3.6,0-7,0-10.6c14.1,0,28.2,0,42.5,0c0,3.4,0,6.9,0,10.6C114.6,133.3,100.6,133.3,86.2,133.3z"/>
<path class="st0" d="M86.2,90.1c0-3.4,0-6.7,0-10.2c14.1,0,28.2,0,42.5,0c0,3.3,0,6.6,0,10.2C114.6,90.1,100.6,90.1,86.2,90.1z"/>
<path class="st0" d="M128.7,101.2c0,3.7,0,7.1,0,10.6c-14.2,0-28.2,0-42.4,0c0-3.5,0-6.9,0-10.6
	C100.4,101.2,114.4,101.2,128.7,101.2z"/>
<path class="st0" d="M64.6,122.6c3.5,0,6.8,0,10.2,0c0,3.6,0,7,0,10.7c-3.3,0-6.7,0-10.2,0C64.6,129.8,64.6,126.4,64.6,122.6z"/>
<path class="st0" d="M74.9,90.2c-3.5,0-6.7,0-10.3,0c0-3.5,0-6.8,0-10.4c3.4,0,6.8,0,10.3,0C74.9,83.3,74.9,86.7,74.9,90.2z"/>
<path class="st0" d="M74.9,101.2c0,3.5,0,6.9,0,10.5c-3.4,0-6.8,0-10.3,0c0-3.5,0-6.9,0-10.5C68.1,101.2,71.4,101.2,74.9,101.2z"/>
</svg>
