<?xml version="1.0" encoding="utf-8"?>
<!-- Generator: Adobe Illustrator 23.0.6, SVG Export Plug-In . SVG Version: 6.00 Build 0)  -->
<svg version="1.1" id="Layer_1" xmlns="http://www.w3.org/2000/svg" xmlns:xlink="http://www.w3.org/1999/xlink" x="0px" y="0px"
	 viewBox="0 0 180.1 177.9" style="enable-background:new 0 0 180.1 177.9;" xml:space="preserve">
<style type="text/css">
	.st0{fill:#FF9600;}
</style>
<path class="st0" d="M56.4,132.6c0.2-3.7-0.4-8.2,0.5-12.7c2.4-11.6,12.4-20.2,24.3-20.5c5.9-0.1,11.9-0.1,17.8,0
	c13.5,0.3,24.5,11.2,24.8,24.7c0.1,5.8-0.2,11.7,0.1,17.5c0.2,3.4-1.3,5-4.2,6.1c-6.3,2.3-12.8,3.3-19.4,3.8
	c-13.3,1-26.4-0.5-39.2-3.8c-3.4-0.9-5.4-2.3-4.8-6.3C56.7,138.7,56.4,136,56.4,132.6z"/>
<path class="st0" d="M75.1,96.6c-1.7,0.5-2.8,0.7-4,1.1c-10.6,3.3-17.8,12.8-18.1,23.9c-0.1,4.5-0.1,9,0,13.5c0,1.5-0.4,2.2-2.1,2.1
	c-8.2-0.4-16.2-1.2-24-4c-2.8-1-4.3-2.6-4.1-5.8c0.3-5.5,0-11,0.1-16.5c0.2-14.9,11.1-25.7,26-25.9c5.1-0.1,10.1,0,15.2,0
	c1.7,0,2.8,0.3,3.5,2.2C69.2,90.7,71.6,93.7,75.1,96.6z"/>
<path class="st0" d="M105.1,97.1c3.5-3,6.1-6.2,7.6-10.3c0.3-0.9,1-1.4,2-1.3c6.9,0.2,13.9-0.6,20.8,0.4
	c11.9,1.8,20.8,11.4,21.5,23.4c0.4,6.7,0.1,13.4,0.2,20.2c0,1.8-0.9,2.9-2.4,3.6c-8.3,3.7-17.2,4.4-26.1,4.8
	c-1.8,0.1-1.5-1.2-1.5-2.3c0-3.9,0-7.7,0-11.6c0-13.4-7.3-22.8-20.2-26.2C106.5,97.6,106,97.5,105.1,97.1z"/>
<path class="st0" d="M110.1,77.2c0,11-8.7,19.7-19.7,19.7c-10.9,0-19.8-8.8-19.7-19.8c0-11,8.8-19.7,19.8-19.7
	C101.3,57.4,110.1,66.2,110.1,77.2z"/>
<path class="st0" d="M57.4,82.6c-10.9,0-19.2-7.5-20.5-17.8c-1.2-9.5,5.1-18.6,14.7-21.2c9.5-2.5,19.5,2.5,23.3,11.6
	c0.9,2.1,1,3.6-1.1,5.4c-5,4.1-7.7,9.7-7.7,16.2c0,3.4-1.6,4.4-4.2,5C60,82.2,58.3,82.4,57.4,82.6z"/>
<path class="st0" d="M143.4,63.5c-0.1,13.7-14,23.3-26.7,18.5c-1.7-0.7-2.5-1.5-2.6-3.5c0-7-2.7-12.9-8-17.4c-1.9-1.5-1.8-2.9-1-4.8
	c3.5-8.8,12.9-14,22.1-12.2C136.6,45.7,143.5,54.1,143.4,63.5z"/>
</svg>
