<?xml version="1.0" encoding="utf-8"?>
<!-- Generator: Adobe Illustrator 23.0.6, SVG Export Plug-In . SVG Version: 6.00 Build 0)  -->
<svg version="1.1" id="Layer_1" xmlns="http://www.w3.org/2000/svg" xmlns:xlink="http://www.w3.org/1999/xlink" x="0px" y="0px"
	 viewBox="0 0 180.1 177.9" style="enable-background:new 0 0 180.1 177.9;" xml:space="preserve">
<style type="text/css">
	.st0{fill:#FF9600;}
</style>
<path class="st0" d="M150.5,57.1c0-2.7-0.2-5.4-1.2-8c-3.2-5.7-8.1-7.7-14.5-7.6c-26.3,0.2-52.6,0.1-78.9,0.1
	c-6.5,0-12.9-0.1-19.4,0c-6.8,0.1-12.6,5.8-12.7,12.4c-0.1,22.7,0,45.5,0,68.2c0,2.3,0.6,4.4,1.9,6.4c2.8,4.4,6.9,6.3,12,6.4
	c2.5,0,2.7,0.2,2.7,2.7c0,3.1,0.1,6.2,0,9.3c-0.2,3.2,0.9,5.7,3.6,7.4c3,0.9,5.6,0.5,8.1-1.5c7.1-5.5,14.3-10.7,21.5-16.2
	c1.6-1.2,3.3-1.7,5.3-1.7c19,0.1,37.9,0,56.9,0c9.2,0,14.6-5.5,14.6-14.6C150.5,99.3,150.4,78.2,150.5,57.1z M143.7,120
	c0,5.8-2.5,8.3-8.3,8.3c-19.6,0-39.3,0-58.9,0c-2,0-3.5,0.5-5.1,1.7c-7.3,5.6-14.6,11-22,16.5c-0.6,0.4-1.1,1.3-1.8,1
	c-0.8-0.3-0.4-1.3-0.4-2c0-4.9-0.1-9.8,0-14.6c0-1.9-0.7-2.6-2.5-2.5c-2.4,0.1-4.9,0.1-7.3,0c-3.9-0.1-6.4-2.4-6.8-6.3
	c-0.2-1.5-0.2-3-0.2-4.5c0-19.8,0-39.6,0-59.3c0-0.7,0-1.5,0-2.2c0.3-5.2,2.8-7.5,7.9-7.5c16.3,0,32.6,0,48.9,0
	c16.1,0,32.2,0,48.3,0c6,0,8.4,2.4,8.4,8.4C143.7,77.8,143.7,98.9,143.7,120z"/>
<path class="st0" d="M126.7,64.9c-26.5,0-53,0-79.5,0c-0.7,0-1.3,0-2,0c-0.5,0-1,0-1.2,0.5c-0.7,1.7-0.6,3.5-0.2,5.2
	c0.3,1.5,1.9,0.9,2.9,0.9c13.4,0,26.7,0,40.1,0c10.7,0,21.5,0,32.2,0c3,0,6.1,0,9.1,0c0.8,0,1.8,0.1,2-0.9c0.4-1.7,0.6-3.5-0.1-5.1
	C129.5,64.3,127.8,64.9,126.7,64.9z"/>
<path class="st0" d="M127.5,91.5c-13.5,0-27,0-40.5,0c-9.4,0-18.7,0-28.1,0c-4.3,0-8.6,0-12.8,0c-0.8,0-1.8-0.2-2.1,0.7
	c-0.6,1.7-0.6,3.6,0,5.2c0.4,1.3,2,0.8,3,0.8c26.7,0,53.4,0,80,0c0.6,0,1.2,0,1.8,0c0.5,0,1,0,1.2-0.5c0.8-1.7,0.6-3.5,0.2-5.2
	C129.9,91.1,128.4,91.5,127.5,91.5z"/>
<path class="st0" d="M46.4,85c9.6,0,19.2,0,28.9,0c9.7,0,19.4,0,29.1,0c0.9,0,2.1,0.3,2.5-0.7c0.7-1.7,0.7-3.7,0.1-5.4
	c-0.5-1.4-2.1-0.8-3.2-0.8c-18.7,0-37.3,0-56,0c-4.2,0-4.2,0-4.2,4.2C43.6,84.9,43.8,85,46.4,85z"/>
<path class="st0" d="M107,107.9c0-2.8-0.2-2.9-2.9-2.9c-9.6,0-19.2,0-28.9,0c-9.3,0-18.6,0-27.9,0c-3.8,0-3.8,0-3.8,3.8
	c0,2.9,0.1,2.9,3,2.9c12,0,24,0,36,0c7.3,0,14.6,0,21.9,0c1.8,0,2.6-0.6,2.4-2.4C107,108.8,107,108.3,107,107.9z"/>
</svg>
