<?xml version="1.0" encoding="utf-8"?>
<!-- Generator: Adobe Illustrator 23.0.6, SVG Export Plug-In . SVG Version: 6.00 Build 0)  -->
<svg version="1.1" id="Layer_1" xmlns="http://www.w3.org/2000/svg" xmlns:xlink="http://www.w3.org/1999/xlink" x="0px" y="0px"
	 viewBox="0 0 180.1 177.9" style="enable-background:new 0 0 180.1 177.9;" xml:space="preserve">
<style type="text/css">
	.st0{fill:#FF9600;}
</style>
<g>
	<path class="st0" d="M50.4,95.5c6.2,0.1,12.5,2.1,18.5,5c4.3,2,8.7,3.9,13,5.8c1.1,0.5,2.3,0.6,3.5,0.6c8.1-0.6,16.1,0,24,1.9
		c2.3,0.6,4.6,1.3,6,3.6c1.8,3,0.9,5.6-2.4,6.8c-3.4,1.2-6.9,1-10.4,0.7c-5.9-0.5-11.6-1.7-17.5-1.7c-2.3,0-4.6,0.3-6.8,1.2
		c-1.3,0.5-1.9,1.4-1.5,2.4c0.4,1.1,1.3,1.4,2.8,0.9c3.6-1.3,7.3-1,10.9-0.6c4.7,0.4,9.3,1.3,14.1,1.6c3.2,0.2,6.4,0,9.4-1
		c4.2-1.4,6.8-4.8,5.5-9.6c-0.3-1.3,0.2-2.1,1.5-2.5c1.4-0.4,2.9-0.9,4.3-1.2c3.4-0.7,6.5-2,9.5-3.8c3-1.8,6.2-3.4,9.2-5.1
		c1.4-0.8,2.9-1.2,4.6-1c2.5,0.3,3.8,2.1,3.2,4.5c-0.4,1.8-1.5,3.3-3,4.4c-7.6,5.8-15.1,11.6-22.7,17.3c-2.6,2-5.6,3.2-8.6,4.3
		c-8,3-16,5.9-24,8.9c-4,1.5-8,1.7-12.2,0.7c-12.7-3.1-25.6-5.4-38.5-7.7c-2-0.4-4.1,0.4-6.1,0.5c-1.1,0.1-2.1,0.3-3.2,0.4
		c-1.4,0.1-2.2-0.4-2.4-1.7c-1.7-9.1-3.4-18.3-5.1-27.4c-0.2-1.2,0.4-2.1,1.6-2.4c0.7-0.2,1.3-0.3,2-0.4c2.9-0.6,5.7-1.2,8.3-2.8
		C41.6,96,45.7,95.5,50.4,95.5z"/>
	<path class="st0" d="M83.5,29c0-0.2-0.1-0.5-0.1-0.8c-0.3-1.6,0.1-2.7,1.4-3.4c1.3-0.7,2.5-0.4,3.7,0.9c1.2,1.3,2.6,1.6,3.9,0.7
		c0.9-0.6,1.3-1.4,1.4-2.5c0.1-1.7,1-2.6,2.4-2.9c1.4-0.2,2.5,0.4,3.1,1.9c0.5,1.3,1.4,2.1,2.8,2.1c1.4,0,2.3-0.8,2.8-2.1
		c0.6-1.5,1.8-2.1,3.1-1.9c1.5,0.2,2.3,1.2,2.4,2.9c0.1,1.4,0.8,2.3,2.1,2.8c1.3,0.4,2.3-0.1,3.2-1c1.1-1.3,2.2-1.5,3.5-0.9
		c1.3,0.6,1.9,1.7,1.5,3.4c-0.3,1.3-0.1,2.5,1.1,3.3c1.1,0.8,2.3,0.7,3.5,0c1.4-0.8,2.6-0.7,3.6,0.3c1,1,1.2,2.3,0.4,3.6
		c-0.8,1.2-0.9,2.4,0,3.6c0.9,1.1,2,1.3,3.3,1c1.5-0.4,2.6,0.2,3.3,1.4c0.7,1.2,0.4,2.5-0.7,3.6c-1,0.9-1.6,2-1.1,3.4
		c0.5,1.4,1.5,1.9,3,2c1.5,0.1,2.4,0.9,2.6,2.4c0.2,1.3-0.3,2.5-1.6,3c-1.3,0.6-2.3,1.4-2.3,2.9c0,1.5,0.9,2.4,2.3,2.9
		c1.3,0.5,1.9,1.7,1.7,3c-0.2,1.4-1.1,2.4-2.6,2.4c-1.5,0.1-2.6,0.6-3,2.1c-0.5,1.4,0.2,2.5,1.2,3.4c1.1,0.9,1.3,2.3,0.7,3.5
		c-0.6,1.2-1.8,1.8-3.2,1.4c-1.4-0.3-2.6-0.2-3.4,1c-0.9,1.2-0.7,2.4,0.1,3.6c0.8,1.2,0.6,2.6-0.3,3.5c-1,1-2.3,1.2-3.6,0.3
		c-1.2-0.8-2.4-0.9-3.6,0c-1.1,0.8-1.3,2-1,3.3c0.4,1.6-0.1,2.7-1.4,3.3c-1.2,0.6-2.5,0.4-3.6-0.8c-0.9-1.1-2-1.5-3.3-1.1
		c-1.3,0.4-2,1.4-2.1,2.8c-0.1,1.6-0.9,2.5-2.4,2.8c-1.4,0.3-2.5-0.4-3.2-1.8c-0.5-1.3-1.4-2.1-2.9-2.1c-1.4,0-2.2,0.8-2.8,2.1
		c-0.6,1.5-1.7,2-3.2,1.8c-1.4-0.2-2.2-1.1-2.4-2.8c-0.1-1.4-0.7-2.4-2.1-2.8c-1.3-0.4-2.3,0-3.2,1c-1.1,1.3-2.4,1.6-3.6,0.9
		c-1.3-0.7-1.8-1.8-1.4-3.5c0.3-1.3,0-2.4-1.1-3.2c-1.1-0.8-2.2-0.8-3.4-0.1c-1.5,0.9-2.9,0.8-3.9-0.3c-1-1-1-2.2-0.1-3.8
		c0.7-1.2,0.7-2.3-0.1-3.4c-0.8-1-1.8-1.3-3.1-1.1c-1.8,0.4-3-0.1-3.6-1.4c-0.7-1.3-0.3-2.4,1-3.7c0.9-0.9,1.3-1.9,0.9-3.1
		c-0.4-1.3-1.3-1.9-2.7-2c-1.7-0.1-2.7-0.9-2.9-2.4c-0.3-1.4,0.4-2.6,1.9-3.2c1.3-0.5,2-1.5,2-2.8c0-1.3-0.7-2.2-2-2.7
		c-1.5-0.6-2.2-1.7-2-3.1c0.2-1.5,1.1-2.3,2.9-2.5c1.4-0.2,2.3-0.8,2.7-2.2c0.4-1.3-0.1-2.2-1-3.1c-1.3-1.2-1.6-2.4-0.9-3.8
		c0.7-1.3,1.7-1.7,3.5-1.3c1.2,0.2,2.3,0,3.1-1.1c0.8-1.1,0.8-2.2,0.1-3.4c-0.9-1.5-0.8-2.8,0.2-3.9c1-1,2.3-1,3.9-0.1
		C81,32.7,83.4,31.4,83.5,29z M74.8,58.5c-0.1,15,12,27.3,27,27.4c15,0.1,27.4-12.1,27.4-27.1c0.1-15-12-27.2-26.9-27.3
		C87.2,31.4,74.9,43.4,74.8,58.5z"/>
	<path class="st0" d="M121,49c0,1.4-0.4,2.6-1.4,3.6c-6.5,6.5-12.9,12.9-19.4,19.4c-2,1.9-5,2-7,0c-3-2.9-5.9-5.8-8.8-8.8
		c-1.9-2-1.8-5.2,0.1-7.1c1.9-1.9,5.1-2.1,7.1-0.2c1.5,1.4,2.9,2.8,4.3,4.3c0.6,0.7,1,0.6,1.6,0c4.7-4.8,9.4-9.5,14.2-14.2
		c2.2-2.2,4.9-2.6,7.1-1.1C120.2,45.8,120.9,47.2,121,49z"/>
</g>
</svg>
