<?xml version="1.0" encoding="utf-8"?>
<!-- Generator: Adobe Illustrator 23.0.6, SVG Export Plug-In . SVG Version: 6.00 Build 0)  -->
<svg version="1.1" id="Layer_1" xmlns="http://www.w3.org/2000/svg" xmlns:xlink="http://www.w3.org/1999/xlink" x="0px" y="0px"
	 viewBox="0 0 180.1 177.9" style="enable-background:new 0 0 180.1 177.9;" xml:space="preserve">
<style type="text/css">
	.st0{fill:#FF9600;}
</style>
<g>
	<path class="st0" d="M126.2,142.6c-2.8-0.1-5.6-0.2-8.4-0.4c-0.6,0-0.9,0.2-1.2,0.7c-2.4,4.7-4.9,9.4-7.3,14
		c-0.1,0.2-0.2,0.4-0.3,0.6c-1,1.8-2.5,2.2-4.2,1.1c-3.2-2-6.5-4.1-9.7-6.2c-1.3-0.8-2.7-1.7-4-2.5c-0.7-0.5-1.2-0.5-2,0
		c-4.4,2.8-8.8,5.6-13.1,8.4c-0.2,0.1-0.4,0.3-0.6,0.4c-1.7,1-3.2,0.6-4.2-1.2c-2.5-4.7-4.9-9.3-7.3-14c-0.5-1-1.1-1.4-2.3-1.3
		c-5,0.3-10.1,0.4-15.1,0.7c-0.4,0-0.7,0-1.1,0c-1.6,0-2.7-1.1-2.7-2.7c0.1-2.6,0.2-5.3,0.3-7.9c0.1-3,0.2-6,0.4-8.9
		c0-0.7-0.2-1-0.8-1.3c-4.8-2.5-9.6-5-14.4-7.5c-2-1-2.4-2.5-1.2-4.4c2.9-4.6,5.8-9.2,8.7-13.8c0.4-0.5,0.4-0.9,0-1.5
		c-2.8-4.4-5.6-8.9-8.4-13.3c-0.1-0.2-0.3-0.4-0.4-0.7c-1-1.7-0.6-3.3,1.2-4.2c4-2.1,8.1-4.2,12.1-6.3c0.8-0.4,1.6-0.9,2.4-1.2
		c0.7-0.3,0.9-0.7,0.8-1.4c-0.2-5.1-0.5-10.2-0.7-15.2c0-0.5,0-1,0-1.4c0-1.7,1.1-2.8,2.8-2.8c2.6,0.1,5.2,0.2,7.7,0.3
		c3,0.1,6,0.2,8.9,0.4c0.7,0,1.1-0.2,1.4-0.8c2.5-4.8,5-9.5,7.5-14.3c1.1-2.1,2.5-2.5,4.6-1.3c4.6,2.9,9.2,5.8,13.7,8.7
		c0.6,0.4,1,0.4,1.6,0c4.4-2.8,8.9-5.7,13.3-8.5c0.2-0.1,0.4-0.2,0.5-0.3c1.8-1.1,3.3-0.7,4.3,1.2c2.5,4.8,5.1,9.7,7.6,14.5
		c0.3,0.6,0.7,0.8,1.4,0.8c5.4-0.3,10.8-0.5,16.2-0.7c2.2-0.1,3.4,0.9,3.3,3.2c-0.2,5.3-0.4,10.7-0.7,16c0,0.9,0.2,1.3,1,1.7
		c4.6,2.4,9.2,4.8,13.8,7.2c0.2,0.1,0.4,0.2,0.6,0.3c1.7,1,2.2,2.5,1.1,4.2c-1.3,2.1-2.7,4.2-4,6.3c-1.6,2.5-3.2,5.1-4.8,7.6
		c-0.3,0.5-0.4,0.9,0,1.4c2.9,4.5,5.7,9,8.6,13.5c0.1,0.2,0.2,0.4,0.3,0.5c1,1.7,0.6,3.2-1.1,4.2c-3.6,1.9-7.1,3.7-10.7,5.6
		c-1.3,0.7-2.5,1.4-3.8,2c-0.7,0.3-0.9,0.8-0.9,1.6c0.3,5.2,0.5,10.5,0.7,15.7c0,0.4,0,0.7,0,1.1c-0.1,1.6-1.2,2.5-2.8,2.5
		C131.9,142.9,129,142.7,126.2,142.6C126.2,142.6,126.2,142.6,126.2,142.6z M85.4,75.4c0-10.6-8.5-19.1-19-19.1
		c-10.6,0-19.1,8.5-19.1,19c0,10.6,8.5,19.2,19,19.2C76.9,94.4,85.4,85.9,85.4,75.4z M132.8,113.4c0-10.6-8.6-19.1-19.1-19.1
		c-10.6,0.1-19.1,8.6-19,19.2c0,10.4,8.6,19,19.1,18.9C124.3,132.4,132.8,123.9,132.8,113.4z M113.9,63.8c0-0.3-0.3-0.4-0.5-0.5
		c-2.2-1.3-4.4-2.6-6.5-4c-0.6-0.4-0.8-0.2-1.1,0.3c-6.7,11.1-13.4,22.1-20.2,33.2c-7.4,12.2-14.8,24.4-22.3,36.6
		c-0.4,0.6-0.4,0.9,0.3,1.2c2.1,1.2,4.3,2.5,6.3,3.9c0.6,0.4,0.8,0.4,1.2-0.3c2.1-3.6,4.3-7.1,6.5-10.7c12-19.7,24-39.4,36-59.2
		C113.7,64.2,113.8,64,113.9,63.8z"/>
	<path class="st0" d="M56.4,75.4c0-5.6,4.5-10,10-10c5.5,0,9.9,4.5,9.9,10c0,5.5-4.5,10-10,9.9C60.8,85.3,56.4,80.9,56.4,75.4z"/>
	<path class="st0" d="M123.7,113.5c-0.1,5.6-4.6,10-10.1,9.9c-5.5-0.1-9.9-4.6-9.8-10.1c0.1-5.5,4.6-9.9,10.3-9.8
		C119.4,103.5,123.8,108.1,123.7,113.5z"/>
</g>
</svg>
