<?xml version="1.0" encoding="utf-8"?>
<!-- Generator: Adobe Illustrator 23.0.6, SVG Export Plug-In . SVG Version: 6.00 Build 0)  -->
<svg version="1.1" id="OBJECTS" xmlns="http://www.w3.org/2000/svg" xmlns:xlink="http://www.w3.org/1999/xlink" x="0px" y="0px"
	 viewBox="0 0 500 500" style="enable-background:new 0 0 500 500;" xml:space="preserve">
<style type="text/css">
	.st0{opacity:0.2;fill:#719DFC;}
	.st1{opacity:0.5;}
	.st2{fill:#719DFC;}
	.st3{fill:#01063D;}
	.st4{fill:#FFFFFF;}
	.st5{fill:#B42B19;}
	.st6{fill:#FDB2B6;}
	.st7{fill:#1D262D;}
	.st8{opacity:0.2;}
	.st9{opacity:0.5;fill:#561510;}
</style>
<ellipse id="XMLID_32_" transform="matrix(0.7071 -0.7071 0.7071 0.7071 -114.5706 255.1504)" class="st0" cx="250.7" cy="265.9" rx="146.1" ry="146.1"/>
<g id="XMLID_30_" class="st1">
	<path id="XMLID_163_" class="st2" d="M276.4,99c-0.2,0.8-0.7,1.4-1.5,1.8c-0.7,0.4-1.6,0.5-2.4,0.3L236,90.6
		c-0.9-0.3-1.5-0.8-1.9-1.5c-0.4-0.8-0.5-1.5-0.3-2.3c0.2-0.8,0.7-1.4,1.5-1.9l0.4-0.3c1.9-1.1,3.4-2.3,4.5-3.5
		c1.9-2.2,3.4-5.3,4.5-9.3c1.1-3.7,3.1-6.5,6.2-8.6c3.1-2.1,6.5-2.9,10.2-2.6l0.6-2c0.2-0.8,0.7-1.4,1.5-1.9
		c0.8-0.4,1.6-0.5,2.4-0.3c0.8,0.2,1.4,0.7,1.9,1.5c0.4,0.8,0.5,1.6,0.3,2.4l-0.6,2c3.3,1.7,5.8,4.3,7.3,7.6
		c1.5,3.4,1.7,6.9,0.7,10.6c-1.1,4-1.5,7.4-1.1,10.3c0.3,1.7,0.9,3.5,1.9,5.4c0.1,0.2,0.1,0.4,0.2,0.5
		C276.5,97.4,276.6,98.2,276.4,99z M270.4,95.6c-1.7-4.5-1.7-10,0.2-16.3l0-0.1c0.5-1.9,0.6-3.8,0.1-5.7c-0.5-1.9-1.4-3.6-2.8-5
		c-1.4-1.4-3-2.4-4.9-3c-1.9-0.5-3.8-0.6-5.7-0.1c-1.9,0.5-3.6,1.4-5,2.8c-1.4,1.4-2.4,3-3,4.9l0,0.1c-1.8,6.3-4.7,11-8.5,13.9
		L270.4,95.6z M247.9,102c-0.9-1.5-1.1-3.1-0.6-4.8l12.2,3.5c-0.5,1.7-1.5,3-3,3.8c-1.5,0.8-3.1,1-4.8,0.5
		C250,104.5,248.7,103.5,247.9,102z"/>
</g>
<g id="XMLID_34_" class="st1">
	<path id="XMLID_158_" class="st2" d="M400.2,186l1.9,6l1.9-0.6c0.3-0.1,0.6-0.1,0.9,0.1c0.3,0.2,0.5,0.4,0.6,0.7l1.2,3.8
		c0.1,0.3,0.1,0.6-0.1,0.9c-0.2,0.3-0.4,0.5-0.7,0.6l-1.9,0.6l1.9,6l1.9-0.6c0.3-0.1,0.6-0.1,0.9,0.1c0.3,0.2,0.5,0.4,0.6,0.7
		l1.2,3.8c0.1,0.3,0.1,0.6-0.1,0.9c-0.2,0.3-0.4,0.5-0.7,0.6l-1.9,0.6l1.4,4.5c0.4,1.3,0.3,2.5-0.3,3.6c-0.6,1.2-1.5,1.9-2.8,2.3
		l-30.2,9.3c-1.3,0.4-2.5,0.3-3.6-0.3c-1.2-0.6-1.9-1.5-2.3-2.8l-12-39.3c-0.4-1.3-0.3-2.5,0.3-3.6c0.6-1.2,1.5-1.9,2.8-2.3
		l30.2-9.3c1.3-0.4,2.5-0.3,3.6,0.3c1.2,0.6,1.9,1.5,2.3,2.8l1.4,4.5l1.9-0.6c0.3-0.1,0.6-0.1,0.9,0.1c0.3,0.2,0.5,0.4,0.6,0.7
		l1.2,3.8c0.1,0.3,0.1,0.6-0.1,0.9c-0.2,0.3-0.4,0.5-0.7,0.6L400.2,186z M392.5,176.8l-30.2,9.3l12,39.3l30.2-9.3L392.5,176.8z
		 M376.9,215.7c-0.5-0.2-0.9-0.6-1-1.1l-0.5-1.8c-0.5-1.5-0.2-3,0.7-4.4c0.9-1.4,2.2-2.4,4-3c0.3-0.1,0.8-0.1,1.3-0.1
		c1.1,0,2.2-0.1,3.2-0.5c1-0.3,2-0.8,2.9-1.4c0.5-0.4,0.9-0.6,1.1-0.7c1.8-0.5,3.4-0.5,5,0.2c1.6,0.7,2.6,1.8,3,3.3l0.5,1.8
		c0.2,0.5,0.1,1-0.2,1.5c-0.3,0.5-0.7,0.8-1.3,1l-17,5.2C378,216,377.4,216,376.9,215.7z M378.6,200.6c-1.6-0.8-2.6-2.1-3.1-3.7
		s-0.3-3.2,0.5-4.8c0.8-1.6,2.1-2.6,3.7-3.1c1.6-0.5,3.2-0.3,4.8,0.5c1.6,0.8,2.6,2.1,3.1,3.7c0.5,1.6,0.3,3.2-0.5,4.8
		c-0.8,1.6-2.1,2.6-3.7,3.1C381.7,201.6,380.1,201.4,378.6,200.6z"/>
</g>
<g id="XMLID_41_" class="st1">
	<path id="XMLID_44_" class="st2" d="M120.9,207.3c0.9,0.8,1.4,1.2,1.7,1.3c0.4,0.3,0.7,0.6,0.8,1.1c0.2,0.4,0.2,0.9,0,1.3
		c-0.1,0.4-0.3,0.8-0.6,1.1c-0.3,0.3-0.7,0.5-1.1,0.6c-4.2,0.8-8.5,0.3-12.9-1.5c-1.9,0.8-3.8,1.4-5.7,1.8c-4.1,0.8-8,0.6-11.7-0.5
		c-3.7-1.1-6.6-2.9-8.6-5.5c-1,0.1-2,0.1-2.9,0.1c-3.3,3.3-7.1,5.3-11.4,6.1c-0.5,0.1-0.9,0-1.3-0.2c-0.4-0.2-0.7-0.5-1-0.8
		c-0.3-0.4-0.4-0.8-0.4-1.2c0-0.5,0.1-0.9,0.4-1.2c0.2-0.3,0.6-1,1-1.9c0.7-1.5,1.2-2.9,1.6-4.2c-3.4-2.2-5.4-5.1-6.1-8.7
		c-0.5-2.8-0.1-5.5,1.2-8.3c1.4-2.7,3.4-5.1,6.2-7.1c2.8-2,6.1-3.3,9.7-4c4.1-0.8,8.1-0.6,11.8,0.5c3.7,1.1,6.6,2.9,8.7,5.5
		c3.2-0.2,6.3,0.1,9.2,1.1c2.9,1,5.3,2.4,7.2,4.3c1.9,1.9,3.1,4.1,3.6,6.7c0.7,3.6-0.1,7-2.4,10.3
		C118.7,205,119.8,206.1,120.9,207.3z M80,202.3c1.6,0.1,3.2,0,4.9-0.3c2.8-0.5,5.3-1.5,7.4-3c2.2-1.5,3.8-3.1,4.9-5.1
		c1.1-1.9,1.5-3.9,1.1-5.8c-0.4-1.9-1.4-3.6-3.2-5c-1.7-1.4-3.9-2.3-6.4-2.9c-2.6-0.5-5.2-0.6-8,0c-2.8,0.5-5.3,1.5-7.4,3
		c-2.2,1.5-3.8,3.1-4.9,5.1c-1.1,1.9-1.5,3.9-1.1,5.8c0.4,2.3,1.8,4.1,4.1,5.7l2.9,1.9l-1,3.4l-0.5,1.5c1.3-0.7,2.6-1.7,3.8-2.8
		l1.4-1.4L80,202.3z M115.6,194.4c-0.4-2.3-1.9-4.2-4.3-5.7c-2.4-1.5-5.3-2.3-8.6-2.4l0.3,1c0.5,2.6,0.2,5.1-0.9,7.6
		c-1.1,2.5-2.8,4.7-5.2,6.7c-2.4,2-5.1,3.4-8.3,4.4c1.7,1.2,3.8,2,6.2,2.5c2.4,0.4,4.9,0.4,7.5-0.1c1.6-0.3,3.2-0.8,4.6-1.5l1.9-0.8
		l1.9,0.8c1.5,0.6,3.1,1.1,4.6,1.2l-1.1-1.3l-2-2.7l1.9-2.8C115.5,199,116.1,196.7,115.6,194.4z"/>
</g>
<g id="XMLID_3_">
	
		<ellipse id="XMLID_1_" transform="matrix(0.2277 -0.9737 0.9737 0.2277 -7.5314 209.6123)" class="st3" cx="128.4" cy="109.6" rx="43.4" ry="43.4"/>
	<g id="XMLID_22_">
		<path id="XMLID_26_" class="st4" d="M149.4,116c0.1,1.1,0,2.2-0.2,3.4c-0.3,1.2-0.8,2.2-1.4,3.1c-0.1,2.8-1,5-2.7,6.6
			c-1.9,1.7-4.6,2.6-8.2,2.6h-2.1c-2.7,0-5.2-0.3-7.5-0.9c-1.3-0.3-2.9-0.9-4.8-1.6c-1.2-0.5-2-0.8-2.5-1c-0.8-0.3-1.6-0.4-2.4-0.4
			c-0.2,0.6-0.6,1.2-1.1,1.6c-0.5,0.5-1.2,0.7-1.9,0.7h-6.2c-0.8,0-1.6-0.3-2.2-0.9c-0.6-0.6-0.9-1.3-0.9-2.2v-23.2
			c0-0.8,0.3-1.6,0.9-2.2c0.6-0.6,1.3-0.9,2.2-0.9h9.6c0.6-0.6,1.7-1.9,3.3-3.9c1.5-2,2.7-3.4,3.4-4.1c0.3-0.3,0.5-1.2,0.9-2.8
			c0.6-2.3,1.2-4,1.7-5c1-1.8,2.5-2.7,4.3-2.7c2.9,0,5.2,0.8,6.8,2.4c1.7,1.7,2.5,4.3,2.5,7.7c0,1.5-0.3,3-0.9,4.5h3.5
			c2.3,0,4.3,0.8,5.9,2.5c1.6,1.7,2.4,3.6,2.4,5.8c0,1.7-0.5,3.3-1.4,4.8C150.7,112.1,150.4,114.1,149.4,116z M113,122.3
			c-0.5-0.5-1-0.7-1.6-0.7s-1.2,0.2-1.6,0.7c-0.5,0.5-0.7,1-0.7,1.6c0,0.6,0.2,1.2,0.7,1.6c0.5,0.5,1,0.7,1.6,0.7s1.2-0.2,1.6-0.7
			c0.5-0.5,0.7-1,0.7-1.6C113.7,123.3,113.4,122.8,113,122.3z M145.8,111.8c0-1.3-0.3-2.3-1-3c0.5,0,0.9-0.4,1.4-1.2
			c0.5-0.8,0.7-1.6,0.7-2.5c0-0.9-0.4-1.7-1.1-2.5c-0.7-0.8-1.6-1.2-2.6-1.2h-10.1c0-0.8,0.2-1.6,0.5-2.4c0.1-0.5,0.4-1.1,0.9-2
			c0.5-0.9,0.8-1.6,1-2.1c0.3-0.8,0.5-1.7,0.5-2.5c0-1.7-0.2-2.9-0.6-3.7c-0.7-1.2-2.1-1.8-4.1-1.8c-0.3,0.4-0.6,0.9-0.9,1.6
			c-0.1,0.4-0.3,1.1-0.5,2c-0.3,1.3-0.5,2.3-0.7,2.9c-0.4,1-0.9,1.9-1.6,2.6c-0.5,0.5-1.5,1.7-2.8,3.5c-1.4,1.9-2.5,3.3-3.2,4
			c-1.2,1.3-2.3,1.9-3.1,1.9h-1.1v18c1.1,0,2.3,0.2,3.6,0.5c0.8,0.2,1.9,0.6,3.5,1.2c1.9,0.6,3.4,1.1,4.5,1.4
			c1.7,0.5,3.5,0.7,5.1,0.7h3.6c1.9,0,3.3-0.5,4.2-1.5c1-1,1.4-2.7,1.1-4.9c0.8-0.5,1.3-1.2,1.6-2.4c0.3-1.1,0.2-2.2-0.3-3.1
			C145.3,114.2,145.8,113.1,145.8,111.8z"/>
	</g>
</g>
<g id="XMLID_5_">
	
		<ellipse id="XMLID_70_" transform="matrix(6.547258e-02 -0.9979 0.9979 6.547258e-02 243.5374 479.148)" class="st5" cx="377.6" cy="109.6" rx="43.4" ry="43.4"/>
	<g id="XMLID_18_">
		<path id="XMLID_53_" class="st4" d="M389.3,117.2l2.7-2.7c0.2-0.2,0.5-0.3,0.8-0.2c0.3,0.1,0.4,0.3,0.4,0.7v12.4
			c0,1.1-0.4,2.1-1.2,2.9c-0.8,0.8-1.8,1.2-2.9,1.2H359c-1.1,0-2.1-0.4-2.9-1.2c-0.8-0.8-1.2-1.8-1.2-2.9V97.2
			c0-1.1,0.4-2.1,1.2-2.9c0.8-0.8,1.8-1.2,2.9-1.2h23.5c0.3,0,0.5,0.1,0.6,0.4c0.1,0.3,0.1,0.5-0.2,0.8l-2.7,2.7
			c-0.1,0.1-0.3,0.2-0.4,0.2H359v30.1h30.1v-9.8C389.1,117.4,389.2,117.3,389.3,117.2z M402.8,99.9l-22.5,22.5l-7.7,0.9
			c-1.1,0.1-2.1-0.2-2.9-1c-0.8-0.8-1.1-1.8-1-2.9l0.9-7.7L392,89.1c1-1,2.2-1.5,3.6-1.5c1.4,0,2.6,0.5,3.6,1.5l3.7,3.7
			c1,1,1.5,2.2,1.5,3.6C404.2,97.7,403.7,98.9,402.8,99.9z M394.3,102.5l-5-5l-15.9,15.9l-0.6,5.6l5.6-0.6L394.3,102.5z M399.8,95.7
			l-3.7-3.7c-0.2-0.2-0.4-0.3-0.6-0.3c-0.3,0-0.5,0.1-0.6,0.3l-2.7,2.7l5,5l2.7-2.7c0.2-0.2,0.3-0.4,0.3-0.6
			C400.1,96.1,400,95.9,399.8,95.7z"/>
	</g>
</g>
<g id="XMLID_23_">
	<circle id="XMLID_4_" class="st5" cx="101.2" cy="314" r="43.4"/>
	<g id="XMLID_20_">
		<path id="XMLID_49_" class="st4" d="M114.3,291.3c4,2.4,7.2,5.6,9.6,9.6c2.4,4,3.6,8.4,3.6,13.2s-1.2,9.1-3.6,13.2
			c-2.4,4-5.6,7.2-9.6,9.6c-4,2.4-8.4,3.6-13.2,3.6c-4.7,0-9.1-1.2-13.2-3.6c-4-2.4-7.2-5.6-9.6-9.6c-2.4-4-3.6-8.4-3.6-13.2
			s1.2-9.1,3.6-13.2c2.4-4,5.6-7.2,9.6-9.6c4-2.4,8.4-3.6,13.2-3.6C105.9,287.7,110.3,288.9,114.3,291.3z M91,296.4
			c-3.1,1.8-5.6,4.3-7.4,7.4c-1.8,3.1-2.7,6.5-2.7,10.2c0,3.7,0.9,7,2.7,10.2c1.8,3.1,4.3,5.6,7.4,7.4c3.1,1.8,6.5,2.7,10.2,2.7
			c3.7,0,7-0.9,10.2-2.7c3.1-1.8,5.6-4.3,7.4-7.4c1.8-3.1,2.7-6.5,2.7-10.2c0-3.7-0.9-7-2.7-10.2c-1.8-3.1-4.3-5.6-7.4-7.4
			c-3.1-1.8-6.5-2.7-10.2-2.7C97.5,293.7,94.1,294.6,91,296.4z M115.8,307.8c0,0.3-0.1,0.6-0.4,0.8L97.9,326
			c-0.3,0.3-0.6,0.4-0.9,0.4c-0.3,0-0.6-0.1-0.8-0.4l-9.2-9.2c-0.3-0.3-0.4-0.6-0.4-0.9c0-0.3,0.1-0.6,0.4-0.8l2.3-2.3
			c0.2-0.2,0.5-0.3,0.8-0.3c0.3,0,0.6,0.1,0.9,0.3l6,6.2l14.4-14.3c0.2-0.2,0.5-0.3,0.8-0.3c0.3,0,0.6,0.1,0.9,0.4l2.2,2.2
			C115.7,307.2,115.8,307.5,115.8,307.8z"/>
	</g>
</g>
<g id="XMLID_48_">
	<path id="XMLID_46_" class="st6" d="M442,299.9c0,24-19.4,43.4-43.4,43.4c-24,0-43.4-19.4-43.4-43.4c0-24,19.4-43.4,43.4-43.4
		C422.5,256.4,442,275.9,442,299.9z"/>
	<g id="XMLID_17_">
		<path id="XMLID_58_" class="st4" d="M424.4,280.9c1,1,1.5,2.2,1.5,3.6v30.7c0,1.4-0.5,2.6-1.5,3.6s-2.2,1.5-3.6,1.5h-44.4
			c-1.4,0-2.6-0.5-3.6-1.5c-1-1-1.5-2.2-1.5-3.6v-30.7c0-1.4,0.5-2.6,1.5-3.6c1-1,2.2-1.5,3.6-1.5h44.4
			C422.1,279.4,423.4,279.9,424.4,280.9z M376.3,284.5v4.4c2.5,2,7.3,5.8,14.4,11.3l1,0.9c1.4,1.2,2.6,2.1,3.4,2.6
			c1.4,0.9,2.5,1.4,3.4,1.4s2.1-0.5,3.4-1.4c0.9-0.5,2-1.4,3.4-2.6l1-0.9c7.1-5.5,11.9-9.2,14.4-11.3v-4.4H376.3z M420.7,315.2
			v-19.8l-12.4,9.8c-1.8,1.5-3.2,2.6-4.4,3.2c-1.9,1.1-3.7,1.7-5.4,1.7s-3.6-0.6-5.5-1.7c-1.1-0.6-2.5-1.7-4.4-3.2l-12.3-9.8v19.8
			H420.7z"/>
	</g>
</g>
<g id="XMLID_35_">
	<path id="XMLID_42_" class="st2" d="M203.3,119.9h-15.4c-1,0-1.9-0.8-1.9-1.9v-15.4c0-1,0.8-1.9,1.9-1.9h15.4c1,0,1.9,0.8,1.9,1.9
		V118C205.2,119,204.3,119.9,203.3,119.9z M189.7,116.1h11.6v-11.6h-11.6V116.1z"/>
	<path id="XMLID_37_" class="st7" d="M210.4,102.2c0,0.2-0.1,0.4-0.3,0.5l-11.7,11.6c-0.2,0.2-0.4,0.3-0.6,0.3
		c-0.2,0-0.4-0.1-0.5-0.3l-6.2-6.2c-0.2-0.2-0.3-0.4-0.3-0.6c0-0.2,0.1-0.4,0.3-0.5l1.6-1.6c0.1-0.1,0.3-0.2,0.5-0.2
		c0.2,0,0.4,0.1,0.6,0.2l4,4.1l9.6-9.6c0.1-0.1,0.3-0.2,0.5-0.2c0.2,0,0.4,0.1,0.6,0.3l1.5,1.5C210.3,101.8,210.4,102,210.4,102.2z"
		/>
</g>
<g id="XMLID_62_">
	<path id="XMLID_64_" class="st2" d="M152.3,190.5h-15.4c-1,0-1.9-0.8-1.9-1.9v-15.4c0-1,0.8-1.9,1.9-1.9h15.4c1,0,1.9,0.8,1.9,1.9
		v15.4C154.2,189.7,153.3,190.5,152.3,190.5z M138.8,186.7h11.6v-11.6h-11.6V186.7z"/>
	<path id="XMLID_63_" class="st7" d="M159.4,172.8c0,0.2-0.1,0.4-0.3,0.5L147.5,185c-0.2,0.2-0.4,0.3-0.6,0.3
		c-0.2,0-0.4-0.1-0.5-0.3l-6.2-6.2c-0.2-0.2-0.3-0.4-0.3-0.6c0-0.2,0.1-0.4,0.3-0.5l1.6-1.6c0.1-0.1,0.3-0.2,0.5-0.2
		c0.2,0,0.4,0.1,0.6,0.2l4,4.1l9.6-9.6c0.1-0.1,0.3-0.2,0.5-0.2c0.2,0,0.4,0.1,0.6,0.3l1.5,1.5C159.3,172.4,159.4,172.6,159.4,172.8
		z"/>
</g>
<g id="XMLID_69_">
	<path id="XMLID_72_" class="st2" d="M353.4,259h-15.4c-1,0-1.9-0.8-1.9-1.9v-15.4c0-1,0.8-1.9,1.9-1.9h15.4c1,0,1.9,0.8,1.9,1.9
		v15.4C355.2,258.2,354.4,259,353.4,259z M339.8,255.2h11.6v-11.6h-11.6V255.2z"/>
	<path id="XMLID_71_" class="st7" d="M360.5,241.4c0,0.2-0.1,0.4-0.3,0.5l-11.7,11.6c-0.2,0.2-0.4,0.3-0.6,0.3
		c-0.2,0-0.4-0.1-0.5-0.3l-6.2-6.2c-0.2-0.2-0.3-0.4-0.3-0.6c0-0.2,0.1-0.4,0.3-0.5l1.6-1.6c0.1-0.1,0.3-0.2,0.5-0.2
		c0.2,0,0.4,0.1,0.6,0.2l4,4.1l9.6-9.6c0.1-0.1,0.3-0.2,0.5-0.2c0.2,0,0.4,0.1,0.6,0.3l1.5,1.5C360.4,240.9,360.5,241.1,360.5,241.4
		z"/>
</g>
<g id="XMLID_40_">
	<path id="XMLID_77_" class="st7" d="M298.6,154.4c-0.5-0.6-0.9-1.5-0.8-2.3c0.1-1.5-0.4-3-1.4-4.2c-1-1.2-2.4-1.8-4-1.9
		c-1.8-0.1-3.1-1.6-3-3.4c0.1-1.8,1.6-3.1,3.4-3c3.3,0.2,6.3,1.7,8.4,4.1c2.2,2.5,3.2,5.6,3,8.9c-0.1,1.8-1.7,3.1-3.4,3
		C300,155.5,299.2,155,298.6,154.4z"/>
	<path id="XMLID_76_" class="st7" d="M309,155.1c-0.5-0.6-0.9-1.5-0.8-2.3c0.3-4.3-1.2-8.5-4-11.7c-2.9-3.2-6.8-5.2-11.1-5.4
		c-1.8-0.1-3.1-1.6-3-3.4c0.1-1.8,1.6-3.1,3.4-3c6,0.4,11.6,3.1,15.6,7.6c4,4.5,6,10.4,5.6,16.4c-0.1,1.8-1.7,3.1-3.4,3
		C310.4,156.1,309.6,155.7,309,155.1z"/>
	<path id="XMLID_75_" class="st7" d="M319.5,155.7c-0.5-0.6-0.9-1.5-0.8-2.3c0.5-7.1-1.9-13.9-6.6-19.3c-4.7-5.3-11.2-8.5-18.3-9
		c-1.8-0.1-3.1-1.6-3-3.4c0.1-1.8,1.6-3.1,3.4-3c8.8,0.5,16.9,4.5,22.8,11.1c5.9,6.6,8.8,15.2,8.2,24c-0.1,1.8-1.7,3.1-3.4,3
		C320.8,156.8,320,156.3,319.5,155.7z"/>
</g>
<g id="XMLID_89_" class="st8">
	<path id="XMLID_92_" class="st2" d="M376.4,372c0.7-0.7,1.6-1.2,2.7-1.2c1.8-0.1,3.5-0.8,4.8-2.1c1.3-1.3,1.9-3.1,1.9-4.9
		c-0.1-2.1,1.6-3.9,3.7-4c2.1-0.1,3.9,1.6,4,3.7c0.1,3.9-1.3,7.6-4,10.4c-2.7,2.8-6.3,4.4-10.2,4.6c-2.1,0.1-3.9-1.6-4-3.7
		C375.3,373.7,375.7,372.7,376.4,372z"/>
	<path id="XMLID_91_" class="st2" d="M376.8,384.4c0.7-0.7,1.6-1.2,2.7-1.2c5.1-0.2,9.9-2.3,13.4-6c3.5-3.7,5.4-8.6,5.2-13.8
		c-0.1-2.1,1.6-3.9,3.7-4c2.1-0.1,3.9,1.6,4,3.7c0.2,7.2-2.4,14-7.3,19.3c-4.9,5.2-11.6,8.2-18.8,8.4c-2.1,0.1-3.9-1.6-4-3.7
		C375.7,386.1,376.1,385.1,376.8,384.4z"/>
	<path id="XMLID_90_" class="st2" d="M377.1,396.8c0.7-0.7,1.6-1.2,2.7-1.2c8.4-0.2,16.3-3.8,22.1-9.9c5.8-6.2,8.9-14.2,8.6-22.6
		c-0.1-2.1,1.6-3.9,3.7-4c2.1-0.1,3.9,1.6,4,3.7c0.3,10.5-3.5,20.5-10.7,28.2c-7.2,7.7-17,12-27.5,12.3c-2.1,0.1-3.9-1.6-4-3.7
		C376.1,398.5,376.5,397.5,377.1,396.8z"/>
</g>
<g id="XMLID_100_" class="st8">
	<path id="XMLID_103_" class="st2" d="M281.4,71c-0.3-0.7-0.3-1.5,0-2.2c0.5-1.3,0.5-2.7-0.1-4c-0.5-1.3-1.6-2.3-2.8-2.8
		c-1.5-0.6-2.2-2.3-1.6-3.8c0.6-1.5,2.3-2.2,3.8-1.6c2.7,1.1,4.9,3.2,6.1,5.9c1.2,2.7,1.2,5.7,0.1,8.4c-0.6,1.5-2.3,2.2-3.8,1.6
		C282.2,72.3,281.7,71.7,281.4,71z"/>
	<path id="XMLID_102_" class="st2" d="M290.1,74.5c-0.3-0.7-0.3-1.5,0-2.2c1.4-3.6,1.4-7.6-0.2-11.2c-1.5-3.6-4.4-6.3-8-7.8
		c-1.5-0.6-2.2-2.3-1.6-3.8c0.6-1.5,2.3-2.2,3.8-1.6c5.1,2,9.1,5.9,11.2,10.9c2.2,5,2.2,10.6,0.2,15.6c-0.6,1.5-2.3,2.2-3.8,1.6
		C291,75.8,290.4,75.2,290.1,74.5z"/>
	<path id="XMLID_101_" class="st2" d="M298.8,78c-0.3-0.7-0.3-1.5,0-2.2c2.4-5.9,2.3-12.5-0.3-18.4c-2.5-5.9-7.2-10.4-13.2-12.8
		c-1.5-0.6-2.2-2.3-1.6-3.8c0.6-1.5,2.3-2.2,3.8-1.6c7.4,2.9,13.2,8.6,16.4,15.9c3.2,7.3,3.3,15.4,0.3,22.8
		c-0.6,1.5-2.3,2.2-3.8,1.6C299.7,79.2,299.1,78.7,298.8,78z"/>
</g>
<g id="XMLID_93_" class="st8">
	<path id="XMLID_96_" class="st2" d="M95.2,363.4c1,0.2,1.8,0.8,2.4,1.7c1,1.5,2.5,2.6,4.3,3c1.8,0.4,3.6,0.1,5.2-0.9
		c1.8-1.1,4.2-0.6,5.3,1.2c1.1,1.8,0.6,4.2-1.2,5.3c-3.3,2.1-7.2,2.7-11,1.9c-3.8-0.9-7-3.2-9.1-6.4c-1.1-1.8-0.6-4.2,1.2-5.3
		C93.2,363.4,94.2,363.2,95.2,363.4z"/>
	<path id="XMLID_95_" class="st2" d="M84.6,370c1,0.2,1.8,0.8,2.4,1.7c2.7,4.4,7,7.4,12,8.5c5,1.1,10.2,0.3,14.5-2.5
		c1.8-1.1,4.2-0.6,5.3,1.2c1.1,1.8,0.6,4.2-1.2,5.3c-6.1,3.8-13.3,5.1-20.3,3.5c-7-1.6-13-5.8-16.8-11.9c-1.1-1.8-0.6-4.2,1.2-5.3
		C82.6,370,83.7,369.8,84.6,370z"/>
	<path id="XMLID_94_" class="st2" d="M74.1,376.6c1,0.2,1.8,0.8,2.4,1.7c4.5,7.2,11.5,12.1,19.8,14c8.3,1.9,16.7,0.4,23.9-4.1
		c1.8-1.1,4.2-0.6,5.3,1.2c1.1,1.8,0.6,4.2-1.2,5.3c-8.9,5.6-19.4,7.4-29.7,5c-10.3-2.3-19-8.5-24.6-17.5c-1.1-1.8-0.6-4.2,1.2-5.3
		C72.1,376.6,73.2,376.4,74.1,376.6z"/>
</g>
<path id="XMLID_87_" class="st2" d="M350.4,61.7c-0.9-0.3-1.4-1.2-1.2-2.1l0,0c0.2-0.9,1.2-1.4,2.1-1.2l0,0c0.9,0.2,1.4,1.2,1.2,2.1
	l0,0c-0.2,0.7-0.9,1.2-1.6,1.2l0,0C350.7,61.7,350.6,61.7,350.4,61.7z M343.9,59.8c-0.9-0.2-1.4-1.2-1.2-2.1l0,0
	c0.2-0.9,1.2-1.4,2.1-1.2l0,0c0.9,0.2,1.4,1.2,1.2,2.1l0,0c-0.2,0.7-0.9,1.2-1.6,1.2l0,0C344.2,59.9,344,59.9,343.9,59.8z
	 M149.9,58.3c-0.1-0.9,0.5-1.8,1.4-1.9l0,0c0.9-0.1,1.8,0.5,1.9,1.4l0,0c0.1,0.9-0.5,1.8-1.4,1.9l0,0c-0.1,0-0.2,0-0.3,0l0,0
	C150.8,59.7,150.1,59.1,149.9,58.3z M156.6,57.2c-0.1-0.9,0.5-1.8,1.4-1.9l0,0c0.9-0.1,1.8,0.5,1.9,1.4l0,0c0.1,0.9-0.5,1.8-1.4,1.9
	l0,0c-0.1,0-0.2,0-0.3,0l0,0C157.5,58.6,156.8,58,156.6,57.2z M337.3,58c-0.9-0.3-1.4-1.2-1.2-2.1l0,0c0.2-0.9,1.2-1.4,2.1-1.2v0
	c0.9,0.3,1.4,1.2,1.2,2.1l0,0c-0.2,0.8-0.9,1.2-1.6,1.2l0,0C337.6,58.1,337.5,58,337.3,58z M163.3,56.1c-0.1-0.9,0.5-1.8,1.4-2l0,0
	c0.9-0.1,1.8,0.5,1.9,1.4l0,0c0.2,0.9-0.5,1.8-1.4,1.9h0c-0.1,0-0.2,0-0.3,0l0,0C164.2,57.5,163.5,56.9,163.3,56.1z M170,55
	c-0.1-0.9,0.5-1.8,1.4-2l0,0c0.9-0.1,1.8,0.5,1.9,1.4l0,0c0.2,0.9-0.5,1.8-1.4,2l0,0c-0.1,0-0.2,0-0.3,0l0,0
	C170.9,56.4,170.2,55.8,170,55z M330.8,56.2c-0.9-0.2-1.4-1.2-1.2-2.1l0,0c0.3-0.9,1.2-1.4,2.1-1.2l0,0c0.9,0.2,1.4,1.2,1.2,2.1l0,0
	c-0.2,0.7-0.9,1.2-1.6,1.2l0,0C331.1,56.2,330.9,56.2,330.8,56.2z M176.8,53.9c-0.2-0.9,0.5-1.8,1.4-1.9l0,0c0.9-0.2,1.8,0.5,2,1.4
	l0,0c0.1,0.9-0.5,1.8-1.4,2l0,0c-0.1,0-0.2,0-0.3,0l0,0C177.6,55.3,176.9,54.7,176.8,53.9z M324.2,54.3c-0.9-0.2-1.4-1.2-1.2-2.1
	l0,0c0.3-0.9,1.2-1.4,2.1-1.2l0,0c0.9,0.2,1.4,1.2,1.2,2.1l0,0c-0.2,0.7-0.9,1.2-1.6,1.2l0,0C324.6,54.4,324.4,54.4,324.2,54.3z
	 M183.5,52.8c-0.2-0.9,0.5-1.8,1.4-1.9l0,0c0.9-0.2,1.8,0.5,1.9,1.4l0,0c0.1,0.9-0.5,1.8-1.4,1.9l0,0c-0.1,0-0.2,0-0.3,0l0,0
	C184.3,54.2,183.6,53.6,183.5,52.8z M190.2,51.7c-0.2-0.9,0.5-1.8,1.4-1.9l0,0c0.9-0.1,1.8,0.5,1.9,1.4l0,0c0.1,0.9-0.5,1.8-1.4,1.9
	l0,0c-0.1,0-0.2,0-0.3,0l0,0C191,53.1,190.3,52.5,190.2,51.7z M317.7,52.5c-0.9-0.2-1.4-1.2-1.2-2.1l0,0c0.2-0.9,1.2-1.4,2.1-1.2h0
	c0.9,0.2,1.4,1.2,1.2,2.1l0,0c-0.2,0.8-0.9,1.2-1.6,1.2l0,0C318,52.6,317.8,52.6,317.7,52.5z M196.9,50.6c-0.1-0.9,0.5-1.8,1.4-1.9
	l0,0c0.9-0.1,1.8,0.5,1.9,1.4l0,0c0.1,0.9-0.5,1.8-1.4,1.9l0,0c-0.1,0-0.2,0-0.3,0l0,0C197.7,52,197,51.4,196.9,50.6z M203.6,49.5
	c-0.1-0.9,0.5-1.8,1.4-1.9l0,0c0.9-0.1,1.8,0.5,1.9,1.4l0,0c0.1,0.9-0.5,1.8-1.4,1.9l0,0c-0.1,0-0.2,0-0.3,0l0,0
	C204.4,50.9,203.7,50.3,203.6,49.5z M311.2,50.7c-0.9-0.2-1.4-1.2-1.2-2.1l0,0c0.3-0.9,1.2-1.4,2.1-1.2l0,0c0.9,0.2,1.4,1.2,1.2,2.1
	l0,0c-0.2,0.7-0.9,1.2-1.6,1.2l0,0C311.5,50.7,311.3,50.7,311.2,50.7z M210.3,48.4c-0.1-0.9,0.5-1.8,1.4-2l0,0
	c0.9-0.1,1.8,0.5,1.9,1.4l0,0c0.2,0.9-0.5,1.8-1.4,1.9h0c-0.1,0-0.2,0-0.3,0l0,0C211.1,49.8,210.4,49.2,210.3,48.4z M304.6,48.8
	c-0.9-0.2-1.4-1.2-1.2-2.1l0,0c0.2-0.9,1.2-1.4,2.1-1.2l0,0c0.9,0.3,1.4,1.2,1.2,2.1l0,0c-0.2,0.7-0.9,1.2-1.6,1.2l0,0
	C304.9,48.9,304.8,48.9,304.6,48.8z M217,47.3c-0.1-0.9,0.5-1.8,1.4-2l0,0c0.9-0.1,1.8,0.5,1.9,1.4l0,0c0.2,0.9-0.5,1.8-1.4,2l0,0
	c-0.1,0-0.2,0-0.3,0l0,0C217.8,48.7,217.1,48.1,217,47.3z M223.7,46.2c-0.1-0.9,0.5-1.8,1.4-1.9l0,0c0.9-0.2,1.8,0.5,2,1.4l0,0
	c0.1,0.9-0.5,1.8-1.4,2l0,0c-0.1,0-0.2,0-0.3,0l0,0C224.6,47.6,223.8,47.1,223.7,46.2z M298.1,47c-0.9-0.3-1.4-1.2-1.2-2.1l0,0
	c0.3-0.9,1.2-1.4,2.1-1.2l0,0c0.9,0.2,1.4,1.2,1.2,2.1l0,0c-0.2,0.7-0.9,1.2-1.6,1.2l0,0C298.4,47.1,298.2,47.1,298.1,47z
	 M230.4,45.1c-0.2-0.9,0.5-1.8,1.4-1.9l0,0c0.9-0.2,1.8,0.5,2,1.4l0,0c0.1,0.9-0.5,1.8-1.4,1.9l0,0c-0.1,0-0.2,0-0.3,0l0,0
	C231.3,46.5,230.5,46,230.4,45.1z M237.1,44c-0.2-0.9,0.5-1.8,1.4-1.9l0,0c0.9-0.1,1.8,0.5,1.9,1.4l0,0c0.1,0.9-0.5,1.8-1.4,1.9l0,0
	c-0.1,0-0.2,0-0.3,0l0,0C238,45.5,237.3,44.9,237.1,44z M291.5,45.2c-0.9-0.2-1.4-1.2-1.2-2.1l0,0c0.3-0.9,1.2-1.4,2.1-1.2l0,0
	c0.9,0.2,1.4,1.2,1.2,2.1l0,0c-0.2,0.7-0.9,1.2-1.6,1.2l0,0C291.8,45.3,291.7,45.2,291.5,45.2z M243.8,42.9
	c-0.2-0.9,0.5-1.8,1.4-1.9l0,0c0.9-0.1,1.8,0.5,1.9,1.4l0,0c0.1,0.9-0.5,1.8-1.4,1.9l0,0c-0.1,0-0.2,0-0.3,0l0,0
	C244.7,44.4,244,43.8,243.8,42.9z M285,43.4c-0.9-0.2-1.4-1.2-1.2-2.1l0,0c0.3-0.9,1.2-1.4,2.1-1.2l0,0c0.9,0.2,1.4,1.2,1.2,2.1l0,0
	c-0.2,0.8-0.9,1.2-1.6,1.2l0,0C285.3,43.4,285.1,43.4,285,43.4z M250.5,41.8c-0.1-0.9,0.5-1.8,1.4-2l0,0c0.9-0.1,1.8,0.5,1.9,1.4
	l0,0c0.1,0.9-0.5,1.8-1.4,1.9l0,0c-0.1,0-0.2,0-0.3,0l0,0C251.4,43.3,250.7,42.7,250.5,41.8z M257.2,40.7c-0.1-0.9,0.5-1.8,1.4-1.9
	l0,0c0.9-0.2,1.8,0.5,1.9,1.4l0,0c0.1,0.9-0.5,1.8-1.4,2l0,0c-0.1,0-0.2,0-0.3,0l0,0C258.1,42.2,257.4,41.6,257.2,40.7z M278.4,41.5
	c-0.9-0.3-1.4-1.2-1.2-2.1l0,0c0.2-0.9,1.2-1.4,2.1-1.2l0,0c0.9,0.2,1.4,1.2,1.2,2.1l0,0c-0.2,0.7-0.9,1.2-1.6,1.2l0,0
	C278.7,41.6,278.6,41.6,278.4,41.5z M263.9,39.6c-0.1-0.9,0.5-1.8,1.4-1.9l0,0c0.9-0.2,1.8,0.5,1.9,1.4l0,0c0.1,0.9-0.5,1.8-1.4,2h0
	c-0.1,0-0.2,0-0.3,0l0,0C264.8,41.1,264.1,40.5,263.9,39.6z M270.6,38.5c-0.1-0.9,0.5-1.8,1.4-1.9l0,0c0.9-0.2,1.8,0.5,1.9,1.4l0,0
	c0.2,0.9-0.5,1.8-1.4,1.9h0c-0.1,0-0.2,0-0.3,0l0,0C271.5,40,270.8,39.4,270.6,38.5z"/>
<path id="XMLID_88_" class="st2" d="M69.2,266.3c-0.4-0.8,0-1.9,0.8-2.3l0,0c0.8-0.4,1.9,0,2.3,0.8l0,0c0.4,0.8,0,1.9-0.8,2.3l0,0
	c-0.2,0.1-0.5,0.2-0.7,0.2l0,0C70.1,267.3,69.5,266.9,69.2,266.3z M66.3,260.1L66.3,260.1c-0.4-0.8,0-1.9,0.8-2.3l0,0
	c0.9-0.4,1.9,0,2.3,0.8l0,0c0.4,0.8,0,1.9-0.8,2.3l0,0c-0.2,0.1-0.5,0.2-0.7,0.2l0,0C67.2,261.1,66.6,260.7,66.3,260.1z M63.5,253.9
	c-0.4-0.9,0-1.9,0.8-2.3l0,0c0.8-0.4,1.9,0,2.3,0.8l0,0c0.4,0.8,0,1.9-0.8,2.3l0,0c-0.2,0.1-0.5,0.2-0.7,0.2l0,0
	C64.4,254.9,63.8,254.6,63.5,253.9z M60.6,247.8c-0.4-0.8,0-1.9,0.8-2.3l0,0c0.8-0.4,1.9,0,2.3,0.8l0,0c0.4,0.8,0,1.9-0.8,2.3l0,0
	c-0.2,0.1-0.5,0.2-0.7,0.2l0,0C61.5,248.8,60.9,248.4,60.6,247.8z M57.8,241.6c-0.4-0.8,0-1.9,0.8-2.3l0,0c0.8-0.4,1.9,0,2.3,0.8
	l0,0c0.4,0.8,0,1.9-0.8,2.3l0,0c-0.2,0.1-0.5,0.2-0.7,0.2l0,0C58.7,242.6,58.1,242.2,57.8,241.6z M54.9,235.4
	c-0.4-0.8,0-1.9,0.8-2.3l0,0c0.8-0.4,1.9,0,2.3,0.8l0,0c0.4,0.9,0,1.9-0.8,2.3l0,0c-0.2,0.1-0.5,0.2-0.7,0.2l0,0
	C55.8,236.4,55.2,236.1,54.9,235.4z M52.1,229.3c-0.4-0.8,0-1.9,0.8-2.3l0,0c0.8-0.4,1.9,0,2.3,0.8l0,0c0.4,0.8,0,1.9-0.8,2.3l0,0
	c-0.2,0.1-0.5,0.2-0.7,0.2l0,0C53,230.3,52.4,229.9,52.1,229.3z M49.2,223.1c-0.4-0.9,0-1.9,0.8-2.3l0,0c0.9-0.4,1.9,0,2.3,0.8h0
	c0.4,0.9,0,1.9-0.8,2.3l0,0c-0.2,0.1-0.5,0.1-0.7,0.1l0,0C50.1,224.1,49.5,223.7,49.2,223.1z M46.3,216.9c-0.4-0.8,0-1.9,0.8-2.3
	l0,0c0.8-0.4,1.9,0,2.3,0.8l0,0c0.4,0.8,0,1.9-0.8,2.3l0,0c-0.2,0.1-0.5,0.2-0.7,0.2l0,0C47.3,217.9,46.6,217.6,46.3,216.9z
	 M43.5,210.8c-0.4-0.9,0-1.9,0.8-2.3l0,0c0.8-0.4,1.9,0,2.3,0.8l0,0c0.4,0.8,0,1.9-0.8,2.3l0,0c-0.2,0.1-0.5,0.2-0.7,0.2l0,0
	C44.4,211.8,43.8,211.4,43.5,210.8z M40.6,204.6c-0.4-0.8,0-1.9,0.8-2.3l0,0c0.8-0.4,1.9,0,2.3,0.8l0,0c0.4,0.8,0,1.9-0.8,2.3l0,0
	c-0.2,0.1-0.5,0.2-0.7,0.2l0,0C41.5,205.6,40.9,205.2,40.6,204.6z M37.8,198.4c-0.4-0.8,0-1.9,0.8-2.3l0,0c0.8-0.4,1.9,0,2.3,0.8
	l0,0c0.4,0.8,0,1.9-0.8,2.3l0,0c-0.2,0.1-0.5,0.2-0.7,0.2l0,0C38.7,199.4,38.1,199.1,37.8,198.4z M41.4,193.6
	c-0.7-0.6-0.9-1.6-0.3-2.4l0,0c0.6-0.7,1.6-0.9,2.4-0.3l0,0c0.7,0.6,0.9,1.6,0.3,2.4l0,0c-0.3,0.4-0.8,0.6-1.3,0.6l0,0
	C42.1,193.9,41.7,193.8,41.4,193.6z M45.6,188.2c-0.7-0.6-0.9-1.7-0.3-2.4l0,0c0.6-0.7,1.6-0.9,2.4-0.3l0,0c0.7,0.6,0.9,1.6,0.3,2.4
	l0,0c-0.3,0.4-0.8,0.7-1.3,0.7l0,0C46.2,188.6,45.9,188.5,45.6,188.2z M49.7,182.9c-0.7-0.6-0.9-1.6-0.3-2.4l0,0
	c0.6-0.7,1.7-0.9,2.4-0.3l0,0c0.7,0.6,0.9,1.6,0.3,2.4l0,0c-0.3,0.4-0.8,0.7-1.3,0.7l0,0C50.4,183.2,50,183.1,49.7,182.9z
	 M53.9,177.5c-0.7-0.6-0.9-1.6-0.3-2.4l0,0c0.6-0.7,1.6-0.9,2.4-0.3l0,0c0.7,0.6,0.9,1.6,0.3,2.4l0,0c-0.3,0.4-0.8,0.7-1.3,0.7l0,0
	C54.6,177.9,54.2,177.7,53.9,177.5z M58.1,172.1c-0.7-0.6-0.9-1.7-0.3-2.4l0,0c0.6-0.7,1.6-0.9,2.4-0.3l0,0c0.7,0.6,0.9,1.6,0.3,2.4
	l0,0c-0.3,0.4-0.8,0.6-1.3,0.6l0,0C58.8,172.5,58.4,172.4,58.1,172.1z M62.3,166.8c-0.7-0.6-0.9-1.6-0.3-2.4l0,0
	c0.6-0.7,1.6-0.9,2.4-0.3l0,0c0.7,0.6,0.9,1.6,0.3,2.4l0,0c-0.3,0.4-0.8,0.7-1.3,0.7l0,0C62.9,167.1,62.6,167,62.3,166.8z
	 M66.4,161.4c-0.7-0.6-0.9-1.6-0.3-2.4l0,0c0.6-0.7,1.6-0.9,2.4-0.3l0,0c0.7,0.6,0.9,1.7,0.3,2.4l0,0c-0.3,0.4-0.8,0.7-1.3,0.7l0,0
	C67.1,161.8,66.7,161.6,66.4,161.4z M70.6,156.1c-0.7-0.6-0.9-1.6-0.3-2.4l0,0c0.6-0.7,1.7-0.9,2.4-0.3l0,0c0.7,0.6,0.9,1.6,0.3,2.4
	l0,0c-0.3,0.4-0.8,0.6-1.3,0.6l0,0C71.3,156.4,70.9,156.3,70.6,156.1z M74.8,150.7c-0.7-0.6-0.9-1.7-0.3-2.4l0,0
	c0.6-0.7,1.6-0.9,2.4-0.3l0,0c0.7,0.6,0.9,1.6,0.3,2.4l0,0c-0.3,0.4-0.8,0.7-1.3,0.7l0,0C75.5,151,75.1,150.9,74.8,150.7z M79,145.3
	c-0.7-0.6-0.9-1.6-0.3-2.4l0,0c0.6-0.7,1.6-0.9,2.4-0.3l0,0c0.7,0.6,0.9,1.6,0.3,2.4l0,0c-0.3,0.4-0.8,0.7-1.3,0.7l0,0
	C79.7,145.7,79.3,145.6,79,145.3z M83.2,140c-0.7-0.6-0.9-1.6-0.3-2.4l0,0c0.6-0.7,1.6-0.9,2.4-0.3l0,0c0.7,0.6,0.9,1.7,0.3,2.4l0,0
	c-0.3,0.4-0.8,0.7-1.3,0.7l0,0C83.8,140.3,83.5,140.2,83.2,140z"/>
<path id="XMLID_97_" class="st2" d="M410.9,248c-0.8-0.6-0.9-1.6-0.4-2.4l0,0c0.6-0.8,1.6-0.9,2.4-0.4l0,0c0.7,0.6,0.9,1.6,0.4,2.4
	l0,0c-0.3,0.5-0.8,0.7-1.4,0.7l0,0C411.6,248.3,411.2,248.2,410.9,248z M415,242.5c-0.8-0.6-0.9-1.6-0.4-2.4l0,0
	c0.6-0.7,1.6-0.9,2.4-0.4l0,0c0.7,0.6,0.9,1.6,0.4,2.4l0,0c-0.3,0.5-0.8,0.7-1.4,0.7l0,0C415.6,242.9,415.3,242.8,415,242.5z
	 M419,237.1c-0.7-0.6-0.9-1.6-0.3-2.4h0c0.6-0.7,1.6-0.9,2.4-0.4l0,0c0.8,0.6,0.9,1.6,0.4,2.4l0,0c-0.3,0.5-0.8,0.7-1.4,0.7l0,0
	C419.7,237.4,419.3,237.3,419,237.1z M423.1,231.6c-0.7-0.6-0.9-1.6-0.4-2.4l0,0c0.6-0.8,1.6-0.9,2.4-0.4l0,0
	c0.8,0.6,0.9,1.6,0.4,2.4v0c-0.3,0.5-0.8,0.7-1.4,0.7l0,0C423.7,231.9,423.4,231.8,423.1,231.6z M427.1,226.2
	c-0.8-0.6-0.9-1.6-0.4-2.4l0,0c0.6-0.7,1.6-0.9,2.4-0.4l0,0c0.7,0.6,0.9,1.6,0.4,2.4l0,0c-0.3,0.5-0.8,0.7-1.4,0.7l0,0
	C427.8,226.5,427.4,226.4,427.1,226.2z M431.2,220.7c-0.8-0.6-0.9-1.6-0.4-2.4l0,0c0.6-0.7,1.6-0.9,2.4-0.4l0,0
	c0.7,0.6,0.9,1.6,0.4,2.4l0,0c-0.3,0.5-0.8,0.7-1.4,0.7l0,0C431.8,221,431.5,220.9,431.2,220.7z M435.2,215.3
	c-0.8-0.6-0.9-1.6-0.4-2.4l0,0c0.6-0.8,1.6-0.9,2.4-0.4l0,0c0.8,0.6,0.9,1.6,0.4,2.4l0,0c-0.3,0.4-0.8,0.7-1.4,0.7l0,0
	C435.9,215.6,435.6,215.5,435.2,215.3z M439.3,209.8c-0.7-0.6-0.9-1.6-0.3-2.4h0c0.6-0.7,1.6-0.9,2.4-0.4l0,0
	c0.8,0.6,0.9,1.6,0.4,2.4l0,0c-0.3,0.5-0.8,0.7-1.4,0.7l0,0C440,210.1,439.6,210,439.3,209.8z M443.3,204.3
	c-0.7-0.6-0.9-1.6-0.4-2.4l0,0c0.6-0.7,1.6-0.9,2.4-0.4l0,0c0.8,0.6,0.9,1.6,0.4,2.4l0,0c-0.3,0.5-0.8,0.7-1.4,0.7l0,0
	C444,204.7,443.7,204.6,443.3,204.3z M447.4,198.9c-0.7-0.6-0.9-1.6-0.4-2.4l0,0c0.6-0.8,1.6-0.9,2.4-0.4l0,0
	c0.7,0.6,0.9,1.6,0.4,2.4l0,0c-0.3,0.4-0.8,0.7-1.4,0.7l0,0C448.1,199.2,447.7,199.1,447.4,198.9z M448.6,193L448.6,193
	c-0.5-0.8-0.3-1.8,0.4-2.4l0,0c0.8-0.5,1.8-0.3,2.4,0.4l0,0c0.5,0.8,0.3,1.8-0.4,2.4l0,0c-0.3,0.2-0.6,0.3-1,0.3l0,0
	C449.5,193.7,448.9,193.5,448.6,193z M444.7,187.4L444.7,187.4c-0.5-0.8-0.4-1.8,0.4-2.4l0,0c0.8-0.5,1.8-0.4,2.4,0.4l0,0
	c0.5,0.8,0.3,1.8-0.4,2.4l0,0c-0.3,0.2-0.6,0.3-1,0.3l0,0C445.6,188.1,445.1,187.9,444.7,187.4z M440.9,181.8L440.9,181.8
	c-0.5-0.8-0.4-1.8,0.4-2.4l0,0c0.8-0.5,1.8-0.4,2.4,0.4l0,0c0.5,0.8,0.3,1.8-0.4,2.4l0,0c-0.3,0.2-0.6,0.3-1,0.3l0,0
	C441.7,182.5,441.2,182.3,440.9,181.8z M437,176.2L437,176.2c-0.5-0.8-0.4-1.8,0.4-2.4l0,0c0.8-0.5,1.8-0.4,2.4,0.4l0,0
	c0.5,0.8,0.3,1.8-0.4,2.4l0,0c-0.3,0.2-0.6,0.3-1,0.3l0,0C437.8,177,437.3,176.7,437,176.2z M433.1,170.6c-0.5-0.8-0.4-1.8,0.4-2.4
	l0,0c0.8-0.5,1.8-0.4,2.4,0.4l0,0c0.5,0.8,0.3,1.8-0.4,2.4l0,0c-0.3,0.2-0.6,0.3-1,0.3l0,0C434,171.4,433.4,171.1,433.1,170.6z
	 M429.2,165.1c-0.5-0.8-0.4-1.8,0.4-2.4l0,0c0.8-0.5,1.8-0.4,2.4,0.4l0,0c0.5,0.8,0.3,1.8-0.4,2.4l0,0c-0.3,0.2-0.6,0.3-1,0.3l0,0
	C430.1,165.8,429.6,165.5,429.2,165.1z M425.4,159.5c-0.5-0.8-0.3-1.8,0.4-2.4l0,0c0.8-0.5,1.8-0.4,2.4,0.4l0,0
	c0.5,0.8,0.4,1.8-0.4,2.4l0,0c-0.3,0.2-0.6,0.3-1,0.3l0,0C426.2,160.2,425.7,159.9,425.4,159.5z M421.5,153.9
	c-0.5-0.8-0.3-1.8,0.4-2.4l0,0c0.8-0.5,1.8-0.4,2.4,0.4l0,0c0.5,0.8,0.4,1.8-0.4,2.4l0,0c-0.3,0.2-0.6,0.3-1,0.3l0,0
	C422.4,154.6,421.8,154.4,421.5,153.9z M417.6,148.3L417.6,148.3c-0.5-0.8-0.4-1.8,0.4-2.4l0,0c0.8-0.5,1.8-0.4,2.4,0.4l0,0
	c0.5,0.8,0.4,1.8-0.4,2.4l0,0c-0.3,0.2-0.6,0.3-1,0.3l0,0C418.5,149,417.9,148.8,417.6,148.3z"/>
<path id="XMLID_98_" class="st4" d="M334.7,298.1c-0.9-0.2-1.5-1-1.4-2l0,0c0.2-0.9,1-1.5,2-1.4l0,0c0.9,0.2,1.6,1,1.4,2l0,0
	c-0.1,0.8-0.9,1.4-1.7,1.4l0,0C334.9,298.1,334.8,298.1,334.7,298.1z M328,296.9L328,296.9c-0.9-0.2-1.6-1-1.4-2l0,0
	c0.2-0.9,1-1.5,2-1.4l0,0c0.9,0.2,1.5,1,1.4,2l0,0c-0.1,0.8-0.9,1.4-1.7,1.4l0,0C328.2,297,328.1,297,328,296.9z M321.3,295.8
	c-0.9-0.2-1.6-1-1.4-2l0,0c0.2-0.9,1-1.5,2-1.4l0,0c0.9,0.2,1.5,1,1.4,2l0,0c-0.1,0.8-0.9,1.4-1.7,1.4l0,0
	C321.5,295.8,321.4,295.8,321.3,295.8z M314.6,294.6L314.6,294.6c-0.9-0.2-1.5-1-1.4-2l0,0c0.2-0.9,1-1.5,2-1.4l0,0
	c0.9,0.2,1.6,1,1.4,2l0,0c-0.1,0.8-0.9,1.4-1.7,1.4l0,0C314.8,294.7,314.7,294.6,314.6,294.6z M307.9,293.5c-0.9-0.2-1.5-1-1.4-2
	l0,0c0.2-0.9,1-1.5,2-1.4l0,0c0.9,0.2,1.5,1,1.4,2l0,0c-0.1,0.8-0.9,1.4-1.7,1.4l0,0C308.1,293.5,308,293.5,307.9,293.5z
	 M301.2,292.3c-0.9-0.2-1.6-1-1.4-2l0,0c0.2-0.9,1-1.6,2-1.4l0,0c0.9,0.2,1.5,1,1.4,2l0,0c-0.1,0.8-0.9,1.4-1.7,1.4l0,0
	C301.4,292.3,301.3,292.3,301.2,292.3z M294.5,291.2L294.5,291.2c-0.9-0.2-1.6-1-1.4-2l0,0c0.2-0.9,1-1.6,2-1.4l0,0
	c0.9,0.2,1.6,1,1.4,2l0,0c-0.1,0.8-0.9,1.4-1.7,1.4l0,0C294.7,291.2,294.6,291.2,294.5,291.2z M287.8,290c-0.9-0.2-1.5-1-1.4-2l0,0
	c0.2-0.9,1-1.6,2-1.4l0,0c0.9,0.2,1.5,1,1.4,2l0,0c-0.1,0.8-0.9,1.4-1.7,1.4l0,0C288,290,287.9,290,287.8,290z M281.1,288.9
	c-0.9-0.2-1.5-1-1.4-2l0,0c0.2-0.9,1-1.6,2-1.4l0,0c0.9,0.2,1.5,1,1.4,2l0,0c-0.1,0.8-0.9,1.4-1.7,1.4l0,0
	C281.3,288.9,281.2,288.9,281.1,288.9z M274.4,287.7L274.4,287.7c-0.9-0.2-1.6-1-1.4-2l0,0c0.2-0.9,1-1.6,2-1.4h0
	c0.9,0.2,1.6,1,1.4,2l0,0c-0.1,0.8-0.9,1.4-1.7,1.4l0,0C274.6,287.7,274.5,287.7,274.4,287.7z M267.7,286.5L267.7,286.5
	c-0.9-0.2-1.5-1-1.4-2l0,0c0.2-0.9,1-1.6,2-1.4l0,0c0.9,0.2,1.6,1,1.4,2l0,0c-0.1,0.8-0.9,1.4-1.7,1.4l0,0
	C267.9,286.6,267.8,286.6,267.7,286.5z M261,285.4c-0.9-0.2-1.5-1-1.4-2l0,0c0.2-0.9,1-1.6,2-1.4l0,0c0.9,0.2,1.5,1,1.4,2l0,0
	c-0.1,0.8-0.9,1.4-1.7,1.4l0,0C261.2,285.4,261.1,285.4,261,285.4z M254.3,284.2L254.3,284.2c-0.9-0.2-1.6-1-1.4-2l0,0
	c0.2-0.9,1-1.5,2-1.4l0,0c0.9,0.2,1.5,1,1.4,2l0,0c-0.1,0.8-0.9,1.4-1.7,1.4l0,0C254.5,284.3,254.4,284.3,254.3,284.2z M247.6,283.1
	c-0.9-0.2-1.6-1-1.4-2l0,0c0.2-0.9,1-1.6,2-1.4l0,0c0.9,0.2,1.6,1,1.4,2l0,0c-0.1,0.8-0.9,1.4-1.7,1.4l0,0
	C247.8,283.1,247.7,283.1,247.6,283.1z M240.9,281.9L240.9,281.9c-0.9-0.2-1.5-1-1.4-2l0,0c0.2-0.9,1-1.5,2-1.4l0,0
	c0.9,0.2,1.6,1,1.4,2l0,0c-0.1,0.8-0.9,1.4-1.7,1.4l0,0C241.1,281.9,241,281.9,240.9,281.9z M234.2,280.8L234.2,280.8
	c-0.9-0.2-1.5-1-1.4-2l0,0c0.2-0.9,1-1.5,2-1.4l0,0c0.9,0.2,1.5,1,1.4,2l0,0c-0.1,0.8-0.9,1.4-1.7,1.4l0,0
	C234.4,280.8,234.3,280.8,234.2,280.8z M227.5,279.6c-0.9-0.2-1.6-1-1.4-2l0,0c0.2-0.9,1-1.5,2-1.4l0,0c0.9,0.2,1.5,1,1.4,2l0,0
	c-0.1,0.8-0.9,1.4-1.7,1.4l0,0C227.7,279.6,227.6,279.6,227.5,279.6z M220.8,278.5L220.8,278.5c-0.9-0.2-1.5-1-1.4-2l0,0
	c0.2-0.9,1-1.5,2-1.4l0,0c0.9,0.2,1.5,1,1.4,2l0,0c-0.1,0.8-0.9,1.4-1.7,1.4l0,0C221,278.5,220.9,278.5,220.8,278.5z M214.1,277.3
	c-0.9-0.2-1.5-1-1.4-2l0,0c0.2-0.9,1-1.5,2-1.4l0,0c0.9,0.2,1.6,1,1.4,2l0,0c-0.1,0.8-0.9,1.4-1.7,1.4l0,0
	C214.3,277.3,214.2,277.3,214.1,277.3z M207.4,276.2c-0.9-0.2-1.5-1-1.4-2l0,0c0.2-0.9,1-1.5,2-1.4l0,0c0.9,0.2,1.5,1,1.4,2l0,0
	c-0.1,0.8-0.9,1.4-1.7,1.4l0,0C207.6,276.2,207.6,276.2,207.4,276.2z M200.8,275c-0.9-0.2-1.6-1-1.4-2l0,0c0.2-0.9,1-1.5,2-1.4l0,0
	c0.9,0.2,1.5,1,1.4,2l0,0c-0.1,0.8-0.9,1.4-1.7,1.4l0,0C200.9,275,200.8,275,200.8,275z M194,273.8L194,273.8c-0.9-0.2-1.5-1-1.4-2
	l0,0c0.2-0.9,1-1.5,2-1.4l0,0c0.9,0.2,1.6,1,1.4,2l0,0c-0.1,0.8-0.9,1.4-1.7,1.4l0,0C194.2,273.9,194.1,273.9,194,273.8z
	 M187.4,272.7c-0.9-0.2-1.5-1-1.4-2l0,0c0.2-0.9,1-1.5,2-1.4l0,0c0.9,0.2,1.5,1,1.4,2l0,0c-0.1,0.8-0.9,1.4-1.7,1.4l0,0
	C187.5,272.7,187.5,272.7,187.4,272.7z M180.7,271.5L180.7,271.5c-0.9-0.2-1.6-1-1.4-2l0,0c0.2-0.9,1-1.5,2-1.4l0,0
	c0.9,0.2,1.5,1,1.4,2l0,0c-0.1,0.8-0.9,1.4-1.7,1.4l0,0C180.9,271.6,180.7,271.5,180.7,271.5z M174,270.4c-0.9-0.2-1.6-1-1.4-2l0,0
	c0.2-0.9,1-1.6,2-1.4l0,0c0.9,0.2,1.5,1,1.4,2l0,0c-0.1,0.8-0.9,1.4-1.7,1.4l0,0C174.2,270.4,174.1,270.4,174,270.4z"/>
<path id="XMLID_99_" class="st4" d="M355.2,207.9c-0.8-0.5-1.1-1.5-0.7-2.3l0,0c0.5-0.8,1.5-1.1,2.3-0.7l0,0
	c0.8,0.5,1.1,1.5,0.7,2.3l0,0c-0.3,0.6-0.9,0.9-1.5,0.9l0,0C355.8,208.1,355.5,208,355.2,207.9z M349.3,204.6L349.3,204.6
	c-0.8-0.5-1.1-1.5-0.7-2.3l0,0c0.5-0.8,1.5-1.1,2.3-0.7l0,0c0.8,0.5,1.1,1.5,0.7,2.3l0,0c-0.3,0.6-0.9,0.9-1.5,0.9l0,0
	C349.8,204.8,349.6,204.7,349.3,204.6z M343.3,201.3L343.3,201.3c-0.8-0.5-1.1-1.5-0.7-2.3l0,0c0.5-0.8,1.5-1.1,2.3-0.7l0,0
	c0.8,0.5,1.1,1.5,0.7,2.3l0,0c-0.3,0.6-0.9,0.9-1.5,0.9l0,0C343.9,201.5,343.6,201.4,343.3,201.3z M337.4,198L337.4,198
	c-0.8-0.5-1.1-1.5-0.7-2.3l0,0c0.5-0.8,1.5-1.1,2.3-0.7l0,0c0.8,0.5,1.1,1.5,0.7,2.3l0,0c-0.3,0.6-0.9,0.9-1.5,0.9l0,0
	C337.9,198.2,337.7,198.1,337.4,198z M331.5,194.7c-0.8-0.5-1.1-1.5-0.7-2.3l0,0c0.5-0.8,1.5-1.1,2.3-0.7l0,0
	c0.8,0.5,1.1,1.5,0.7,2.3l0,0c-0.3,0.6-0.9,0.9-1.5,0.9l0,0C332,194.9,331.7,194.8,331.5,194.7z M325.5,191.4L325.5,191.4
	c-0.8-0.5-1.1-1.5-0.7-2.3l0,0c0.5-0.8,1.5-1.1,2.3-0.7l0,0c0.8,0.5,1.1,1.5,0.7,2.3l0,0c-0.3,0.6-0.9,0.9-1.5,0.9l0,0
	C326.1,191.6,325.8,191.5,325.5,191.4z M319.6,188.1L319.6,188.1c-0.8-0.5-1.1-1.5-0.7-2.3l0,0c0.5-0.8,1.5-1.1,2.3-0.7l0,0
	c0.8,0.5,1.1,1.5,0.7,2.3l0,0c-0.3,0.6-0.9,0.9-1.5,0.9l0,0C320.1,188.3,319.8,188.2,319.6,188.1z M313.6,184.8L313.6,184.8
	c-0.8-0.5-1.1-1.5-0.7-2.3l0,0c0.5-0.8,1.5-1.1,2.3-0.7l0,0c0.8,0.5,1.1,1.5,0.7,2.3l0,0c-0.3,0.6-0.9,0.9-1.5,0.9l0,0
	C314.2,185,313.9,185,313.6,184.8z M307.7,181.5L307.7,181.5c-0.8-0.5-1.1-1.5-0.7-2.3l0,0c0.5-0.8,1.5-1.1,2.3-0.7l0,0
	c0.8,0.5,1.1,1.5,0.7,2.3l0,0c-0.3,0.6-0.9,0.9-1.5,0.9l0,0C308.2,181.7,307.9,181.6,307.7,181.5z M301.8,178.2L301.8,178.2
	c-0.8-0.5-1.1-1.5-0.7-2.3l0,0c0.5-0.8,1.5-1.1,2.3-0.7l0,0c0.8,0.5,1.1,1.5,0.7,2.3l0,0c-0.3,0.6-0.9,0.9-1.5,0.9l0,0
	C302.3,178.4,302,178.3,301.8,178.2z M295.8,174.9L295.8,174.9c-0.8-0.5-1.1-1.5-0.7-2.3l0,0c0.5-0.8,1.5-1.1,2.3-0.7l0,0
	c0.8,0.5,1.1,1.5,0.7,2.3l0,0c-0.3,0.6-0.9,0.9-1.5,0.9l0,0C296.3,175.1,296.1,175,295.8,174.9z M289.9,171.6
	c-0.8-0.5-1.1-1.5-0.7-2.3l0,0c0.5-0.8,1.5-1.1,2.3-0.7l0,0c0.8,0.5,1.1,1.5,0.7,2.3l0,0c-0.3,0.6-0.9,0.9-1.5,0.9l0,0
	C290.4,171.8,290.1,171.8,289.9,171.6z M283.9,168.3c-0.8-0.5-1.1-1.5-0.7-2.3l0,0c0.5-0.8,1.5-1.1,2.3-0.7l0,0
	c0.8,0.5,1.1,1.5,0.7,2.3l0,0c-0.3,0.6-0.9,0.9-1.5,0.9l0,0C284.5,168.5,284.2,168.4,283.9,168.3z M278,165
	c-0.8-0.5-1.1-1.5-0.7-2.3l0,0c0.5-0.8,1.5-1.1,2.3-0.7l0,0c0.8,0.5,1.1,1.5,0.7,2.3l0,0c-0.3,0.6-0.9,0.9-1.5,0.9l0,0
	C278.5,165.2,278.2,165.1,278,165z M272,161.7L272,161.7c-0.8-0.5-1.1-1.5-0.7-2.3l0,0c0.5-0.8,1.5-1.1,2.3-0.7l0,0
	c0.8,0.5,1.1,1.5,0.7,2.3l0,0c-0.3,0.6-0.9,0.9-1.5,0.9l0,0C272.6,161.9,272.3,161.9,272,161.7z M266.1,158.4L266.1,158.4
	c-0.8-0.5-1.1-1.5-0.7-2.3l0,0c0.5-0.8,1.5-1.1,2.3-0.7l0,0c0.8,0.5,1.1,1.5,0.7,2.3l0,0c-0.3,0.6-0.9,0.9-1.5,0.9l0,0
	C266.6,158.6,266.4,158.6,266.1,158.4z M260.2,155.1c-0.8-0.5-1.1-1.5-0.7-2.3l0,0c0.5-0.8,1.5-1.1,2.3-0.7l0,0
	c0.8,0.5,1.1,1.5,0.7,2.3l0,0c-0.3,0.6-0.9,0.9-1.5,0.9l0,0C260.7,155.3,260.4,155.3,260.2,155.1z M254.2,151.8L254.2,151.8
	c-0.8-0.5-1.1-1.5-0.7-2.3l0,0c0.5-0.8,1.5-1.1,2.3-0.7l0,0c0.8,0.5,1.1,1.5,0.7,2.3l0,0c-0.3,0.6-0.9,0.9-1.5,0.9l0,0
	C254.8,152,254.5,152,254.2,151.8z M248.3,148.5c-0.8-0.5-1.1-1.5-0.7-2.3l0,0c0.5-0.8,1.5-1.1,2.3-0.7l0,0c0.8,0.5,1.1,1.5,0.7,2.3
	l0,0c-0.3,0.6-0.9,0.9-1.5,0.9l0,0C248.8,148.7,248.5,148.7,248.3,148.5z M242.3,145.2c-0.8-0.5-1.1-1.5-0.7-2.3l0,0
	c0.5-0.8,1.5-1.1,2.3-0.7l0,0c0.8,0.5,1.1,1.5,0.7,2.3l0,0c-0.3,0.6-0.9,0.9-1.5,0.9l0,0C242.9,145.4,242.6,145.4,242.3,145.2z
	 M236.4,141.9c-0.8-0.5-1.1-1.5-0.7-2.3l0,0c0.5-0.8,1.5-1.1,2.3-0.7l0,0c0.8,0.5,1.1,1.5,0.7,2.3l0,0c-0.3,0.6-0.9,0.9-1.5,0.9l0,0
	C236.9,142.1,236.6,142.1,236.4,141.9z M230.4,138.6c-0.8-0.5-1.1-1.5-0.7-2.3l0,0c0.5-0.8,1.5-1.1,2.3-0.7h0
	c0.8,0.5,1.1,1.5,0.7,2.3l0,0c-0.3,0.6-0.9,0.9-1.5,0.9l0,0C231,138.8,230.7,138.8,230.4,138.6z M224.5,135.3L224.5,135.3
	c-0.8-0.5-1.1-1.5-0.7-2.3l0,0c0.5-0.8,1.5-1.1,2.3-0.7l0,0c0.8,0.5,1.1,1.5,0.7,2.3l0,0c-0.3,0.6-0.9,0.9-1.5,0.9l0,0
	C225,135.5,224.8,135.5,224.5,135.3z M218.6,132c-0.8-0.5-1.1-1.5-0.7-2.3l0,0c0.5-0.8,1.5-1.1,2.3-0.7l0,0c0.8,0.5,1.1,1.5,0.7,2.3
	l0,0c-0.3,0.6-0.9,0.9-1.5,0.9l0,0C219.1,132.2,218.8,132.2,218.6,132z M212.6,128.7L212.6,128.7c-0.8-0.5-1.1-1.5-0.7-2.3l0,0
	c0.5-0.8,1.5-1.1,2.3-0.7l0,0c0.8,0.5,1.1,1.5,0.7,2.3l0,0c-0.3,0.6-0.9,0.9-1.5,0.9l0,0C213.2,128.9,212.9,128.9,212.6,128.7z"/>
<path id="XMLID_104_" class="st4" d="M157.6,159.7c-0.7-0.6-0.8-1.7-0.2-2.4l0,0c0.6-0.7,1.7-0.8,2.4-0.2l0,0
	c0.7,0.6,0.8,1.7,0.2,2.4l0,0c-0.3,0.4-0.8,0.6-1.3,0.6l0,0C158.4,160.1,158,160,157.6,159.7z M162.1,154.6
	c-0.7-0.6-0.8-1.7-0.2-2.4l0,0c0.6-0.7,1.7-0.8,2.4-0.2l0,0c0.7,0.6,0.8,1.7,0.2,2.4l0,0c-0.3,0.4-0.8,0.6-1.3,0.6l0,0
	C162.8,155,162.4,154.8,162.1,154.6z M166.6,149.4c-0.7-0.6-0.8-1.7-0.2-2.4l0,0c0.6-0.7,1.7-0.8,2.4-0.2l0,0
	c0.7,0.6,0.8,1.7,0.2,2.4l0,0c-0.3,0.4-0.8,0.6-1.3,0.6l0,0C167.3,149.9,166.9,149.7,166.6,149.4z M171.1,144.3
	c-0.7-0.6-0.8-1.7-0.2-2.4l0,0c0.6-0.7,1.7-0.8,2.4-0.2l0,0c0.7,0.6,0.8,1.7,0.2,2.4l0,0c-0.3,0.4-0.8,0.6-1.3,0.6l0,0
	C171.8,144.7,171.4,144.6,171.1,144.3z M175.5,139.2c-0.7-0.6-0.8-1.7-0.2-2.4l0,0c0.6-0.7,1.7-0.8,2.4-0.2l0,0
	c0.7,0.6,0.8,1.7,0.2,2.4l0,0c-0.3,0.4-0.8,0.6-1.3,0.6l0,0C176.2,139.6,175.8,139.5,175.5,139.2z M180,134.1
	c-0.7-0.6-0.8-1.7-0.2-2.4l0,0c0.6-0.7,1.7-0.8,2.4-0.2l0,0c0.7,0.6,0.8,1.7,0.2,2.4l0,0c-0.3,0.4-0.8,0.6-1.3,0.6l0,0
	C180.7,134.5,180.3,134.4,180,134.1z M184.5,129c-0.7-0.6-0.8-1.7-0.2-2.4v0c0.6-0.7,1.7-0.8,2.4-0.2l0,0c0.7,0.6,0.8,1.7,0.2,2.4
	l0,0c-0.3,0.4-0.8,0.6-1.3,0.6l0,0C185.2,129.4,184.8,129.2,184.5,129z"/>
<g id="XMLID_15_">
	<path id="XMLID_19_" class="st5" d="M309.4,320.5c-26.8-8.4-43.2-17.3-43.2-17.3l-18.3,1.7l-18.3-1.7c0,0-16.4,8.9-43.2,17.3
		c-26.8,8.4-37.3,41.5-33.7,73.1c0,0,25.5,23.3,92.2,24.7v0.1c1,0,2,0,3,0c1,0,2,0,3,0v-0.1c66.7-1.3,92.2-24.7,92.2-24.7
		C346.7,362,336.2,328.9,309.4,320.5z"/>
	<g id="XMLID_14_">
		<path id="XMLID_31_" class="st6" d="M271.4,273.1l-22.6-2.3l-22.6,2.3c0,0,3.8,21.4-2.3,38c0,0,7.5,9.4,24.8,9.4
			c17.3,0,24.8-9.4,24.8-9.4C267.6,294.5,271.4,273.1,271.4,273.1z"/>
		<path id="XMLID_38_" class="st6" d="M271.4,273.1l-22.6-2.3l-22.6,2.3c0,0,1.2,6.7,1.2,15.5c2.6,3.9,5.6,7.3,8.9,10
			c4.6,3.8,13.3,4.6,15.5,4.6c2.3,0,10.9-0.9,15.5-4.6c1.1-0.9,2.1-1.9,3.1-2.9C269.5,283.7,271.4,273.1,271.4,273.1z"/>
		<path id="XMLID_6_" class="st6" d="M247.7,190.5c-22.9,0-37.8,18.5-37.8,41.4c0,17.1,8.4,41.8,22.3,53.1
			c4.6,3.8,13.3,4.6,15.5,4.6c2.3,0,10.9-0.9,15.5-4.6c13.8-11.3,22.3-36,22.3-53.1C285.5,209.1,270.5,190.5,247.7,190.5z"/>
		<path id="XMLID_7_" class="st2" d="M274.2,201.3c0-7.3-11.9-13.3-26.5-13.3c-14.6,0-26.5,5.9-26.5,13.3c0,7.3,11.9,13.3,26.5,13.3
			C262.3,214.6,274.2,208.7,274.2,201.3z"/>
		<path id="XMLID_8_" class="st2" d="M229.6,205.6c0,0-18.9,8.3-18.1,41c0,0-4.2-10.8-3.4-26.3c0.8-15.5,17.1-26,17.1-26
			L229.6,205.6z"/>
		<path id="XMLID_9_" class="st2" d="M265.7,205.6c0,0,18.9,8.3,18.1,41c0,0,4.2-10.8,3.4-26.3c-0.8-15.5-17.1-26-17.1-26
			L265.7,205.6z"/>
		<path id="XMLID_10_" class="st2" d="M217.2,198.8c0,0-1.6-9.5,12-16.1c20.2-9.9,51.5,2,56.4,34.2
			C285.6,216.9,252.1,192.9,217.2,198.8z"/>
		<path id="XMLID_11_" class="st2" d="M223.7,194.3c0,0-4.6-3.7-12.4,4.5c-7.8,8.3-3.1,30.5-3.1,30.5s9.8-30,21.4-31.4
			c11.6-1.4-7.5-3.7-7.5-3.7"/>
		<path id="XMLID_12_" class="st2" d="M271.2,194.3c0,0,4.6-3.7,12.4,4.5c7.8,8.3,3.1,30.5,3.1,30.5s-9.8-30-21.4-31.4
			c-11.6-1.4,7.5-3.7,7.5-3.7"/>
		<path id="XMLID_13_" class="st3" d="M299.5,248.9c-1.2,10.5-11,18.1-16.3,17.5c-5.3-0.6-3.9-9.1-2.8-19.6
			c1.2-10.5,1.7-19.1,7-18.5C292.7,228.9,300.7,238.4,299.5,248.9z"/>
		<path id="XMLID_39_" class="st4" d="M285,246.8c0.9-8.6,1.5-15.8,4.5-17.9c-0.7-0.3-1.4-0.5-2-0.6c-5.3-0.6-5.8,8-7,18.5
			c-1.2,10.5-2.5,19,2.8,19.6c0.9,0.1,2-0.1,3.1-0.4C282.7,264.1,283.9,256.3,285,246.8z"/>
		<path id="XMLID_16_" class="st3" d="M196.2,248.9c1.2,10.5,11,18.1,16.3,17.5c5.3-0.6,3.9-9.1,2.8-19.6c-1.2-10.5-1.7-19.1-7-18.5
			C203,228.9,195,238.4,196.2,248.9z"/>
		<path id="XMLID_36_" class="st4" d="M215.3,246.8c-1.2-10.5-1.7-19.1-7-18.5c-0.6,0.1-1.3,0.3-2,0.6c3,2.1,3.5,9.4,4.5,17.9
			c1,9.5,2.2,17.3-1.4,19.2c1.1,0.4,2.2,0.5,3.1,0.4C217.8,265.9,216.4,257.4,215.3,246.8z"/>
		<path id="XMLID_25_" class="st3" d="M291.2,234.9l-3.2-1c0.1-0.3,9.9-31.2-3.8-50c-7.1-9.8-19.4-14.7-36.5-14.7
			c-17.1,0-29.4,5-36.6,14.8c-13.7,18.9-3.9,49.7-3.8,50l-3.2,1c-0.4-1.3-10.4-32.8,4.3-53c7.8-10.7,21-16.2,39.3-16.2
			c18.3,0,31.5,5.4,39.3,16.2C301.7,202.1,291.6,233.5,291.2,234.9z"/>
		<path id="XMLID_21_" class="st5" d="M213.8,183.4c-1.4,0-2.7-0.5-3.7-1.6c-1.9-2-1.8-5.3,0.2-7.2c8.6-8.1,21.2-12.3,37.4-12.3
			c15.8,0,28.2,4,36.9,11.8c2.1,1.9,2.2,5.1,0.3,7.2c-1.9,2.1-5.1,2.2-7.2,0.4c-6.7-6.1-16.8-9.1-30-9.1c-13.5,0-23.7,3.2-30.4,9.5
			C216.3,182.9,215,183.4,213.8,183.4z"/>
		<path id="XMLID_27_" class="st3" d="M251.8,283.3V281c16,0,27.8-4.1,34.2-11.8c4.8-5.7,4.9-11.5,4.9-11.5l2.3,0
			c0,0.3-0.2,6.6-5.4,12.9C283,276.4,272.8,283.3,251.8,283.3z"/>
		<path id="XMLID_24_" class="st3" d="M257.4,281.7c0,2.5-3.3,4.5-7.3,4.5c-4.1,0-7.3-2-7.3-4.5c0-2.5,3.3-4.5,7.3-4.5
			C254.2,277.2,257.4,279.3,257.4,281.7z"/>
	</g>
	<path id="XMLID_175_" class="st9" d="M325.5,380.8c-2.7,4.1-0.2-15.5-1.4-25.7c0,0-1.5,27.3-6.7,52c1.7-0.6,3.4-1.3,4.9-1.9
		c2.7-9.7,6.5-25.2,8.1-39.4C330.6,365.8,328.3,376.7,325.5,380.8z M174.7,380.8c-2.7-4.1-5-15-5-15c1.7,15.2,6,31.9,8.7,41.3
		c1.5,0.5,3.1,1.1,4.7,1.6c-5.5-25.1-7-53.7-7-53.7C174.9,365.4,177.4,384.9,174.7,380.8z"/>
</g>
</svg>
