<?xml version="1.0" encoding="utf-8"?>
<!-- Generator: Adobe Illustrator 23.0.6, SVG Export Plug-In . SVG Version: 6.00 Build 0)  -->
<svg version="1.1" id="Layer_1" xmlns="http://www.w3.org/2000/svg" xmlns:xlink="http://www.w3.org/1999/xlink" x="0px" y="0px"
	 viewBox="0 0 180.1 177.9" style="enable-background:new 0 0 180.1 177.9;" xml:space="preserve">
<style type="text/css">
	.st0{fill:url(#SVGID_1_);}
	.st1{fill:url(#SVGID_2_);}
	.st2{fill:url(#SVGID_3_);}
	.st3{fill-rule:evenodd;clip-rule:evenodd;fill:url(#SVGID_4_);}
	.st4{fill-rule:evenodd;clip-rule:evenodd;fill:url(#SVGID_5_);}
	.st5{fill-rule:evenodd;clip-rule:evenodd;fill:url(#SVGID_6_);}
	.st6{fill:url(#SVGID_7_);}
	.st7{fill:url(#SVGID_8_);}
	.st8{fill:url(#SVGID_9_);}
	.st9{fill:url(#SVGID_10_);}
	.st10{fill:#BA2026;}
	.st11{fill-rule:evenodd;clip-rule:evenodd;fill:url(#SVGID_11_);}
	.st12{fill-rule:evenodd;clip-rule:evenodd;fill:url(#SVGID_12_);}
	.st13{fill-rule:evenodd;clip-rule:evenodd;fill:url(#SVGID_13_);}
	.st14{fill:url(#SVGID_14_);}
	.st15{fill:none;stroke:url(#SVGID_15_);stroke-width:3;stroke-miterlimit:10;}
	.st16{fill:none;stroke:url(#SVGID_16_);stroke-width:3;stroke-miterlimit:10;}
	.st17{fill:none;stroke:url(#SVGID_17_);stroke-width:3;stroke-miterlimit:10;}
	.st18{fill:none;stroke:url(#SVGID_18_);stroke-width:3;stroke-miterlimit:10;}
	.st19{fill:none;stroke:url(#SVGID_19_);stroke-width:3;stroke-miterlimit:10;}
	.st20{fill:url(#SVGID_20_);}
	.st21{fill:url(#SVGID_21_);}
	.st22{fill:url(#SVGID_22_);}
</style>
<g>
	<path class="st10" d="M114.4,92c0-3.7-2.9-7-6.7-7.8l-0.5-0.1v8.4h7.3L114.4,92z"/>
	<rect x="107.1" y="94.5" class="st10" width="7.3" height="7.3"/>
	<path class="st10" d="M105.1,84.1l-0.5,0.1c-3.8,0.8-6.7,4.2-6.7,7.8l0,0.4h7.3V84.1z"/>
	<rect x="97.8" y="94.5" class="st10" width="7.3" height="7.3"/>
	<g>
		<path class="st10" d="M119,33.3l-48.5,0.1l-0.2,0c-19.5,1-34.8,18-34.8,38.7v78.3l17-17V72.1c0-11.1,8.2-20.8,18.2-21.6l48.3,0
			v24.4l12.1-16.2l0-8.2L119,33.3z"/>
		<polygon class="st10" points="52.4,133.5 35.5,150.4 90.6,150.4 75.6,133.5 		"/>
	</g>
	<polygon class="st10" points="112.3,60.5 87.8,60.5 53.1,94.6 103.3,154 127.9,154 78.2,94.7 	"/>
	<path class="st10" d="M139.6,50.2v65c0,9.1-6.8,17.1-16.5,19.6l-0.3,0.1l12.1,15.6c13.6-8.6,21.2-17.2,21.2-35.3V32L139.6,50.2z"/>
</g>
</svg>
