<?xml version="1.0" encoding="utf-8"?>
<!-- Generator: Adobe Illustrator 23.0.6, SVG Export Plug-In . SVG Version: 6.00 Build 0)  -->
<svg version="1.1" id="Layer_1" xmlns="http://www.w3.org/2000/svg" xmlns:xlink="http://www.w3.org/1999/xlink" x="0px" y="0px"
	 viewBox="0 0 180.1 177.9" style="enable-background:new 0 0 180.1 177.9;" xml:space="preserve">
<style type="text/css">
	.st0{fill:#FF9600;}
</style>
<g>
	<path class="st0" d="M86.9,76.3c-14.8,0-29.5,0-44.3,0c-1.9,0-2.6,0.4-2.6,2.5c0.1,14,0.1,27.9,0.1,41.9c0,4.6,1.6,6.3,6.3,6.3
		c12.1,0.1,24.1,0,36.2,0c1.7,0,3.3,0.2,4.1,1.9c1.3,2.5-0.3,5.3-3.2,5.3c-13.3,0-26.7,0.1-40-0.1C38,134,33,128.5,33,122.6
		c-0.1-13.5,0-27,0-40.5c0-9.8,0-19.7,0-29.5c0-7.4,5.1-12.4,12.5-12.4c2.4,0,4.8-0.1,7.2,0c1.3,0,2.1-0.3,1.9-1.8
		c0-0.2,0-0.4,0-0.5c0.1-5,0.1-4.9,4.9-4.9c1.7,0,2.3,0.5,2.3,2.2c-0.1,5.1,0,5,5.1,5c11.9,0,23.8-0.1,35.7,0c1.9,0,2.6-0.4,2.6-2.5
		c-0.1-4.9,0-4.9,5.2-4.8c1.4,0,1.8,0.4,1.8,1.8c0.2,5.4,0.3,5.4,5.8,5.4c2.3,0,4.7-0.2,6.9,0.4c4.7,1.1,8.8,5.8,8.9,10.9
		c0.2,7.7,0,15.4,0.1,23.1c0,2.2-1.4,1.8-2.7,1.8C116.4,76.3,101.7,76.3,86.9,76.3C86.9,76.3,86.9,76.3,86.9,76.3z M83.3,69.1
		c13.5,0,27-0.1,40.5,0.1c2.4,0,3-0.7,2.9-3c-0.2-4.3,0-8.6-0.1-12.9c-0.1-3.9-1.9-5.7-5.8-5.8c-1,0-2,0-3,0c-5.8,0-5.7,0-5.8,5.7
		c-0.1,6.1,1.4,5-5.5,5.1c-1.3,0-1.7-0.5-1.7-1.7c0.1-2.4,0-4.8,0.1-7.2c0-1.3-0.2-1.9-1.7-1.9c-13.3,0-26.6,0-40,0
		c-1.3,0-1.8,0.4-1.7,1.7c0.1,2.4,0,4.8,0.1,7.2c0,1.3-0.2,1.9-1.7,1.9c-5.5,0.2-5.5,0.3-5.4-5.2c0-0.4,0-0.9,0-1.3
		c0-4.3,0-4.3-4.5-4.3c-1.3,0-2.7,0-4,0c-4.1,0.1-5.9,1.8-6,5.9c-0.1,4.4,0.1,8.8-0.1,13.1c-0.1,2.1,0.6,2.7,2.7,2.7
		C56.2,69,69.7,69.1,83.3,69.1z"/>
	<path class="st0" d="M148.2,112.7c0,16.3-12.9,28.8-29.6,28.7c-15.4-0.1-28.1-13.3-28-29.3c0-15.6,13.1-28.7,28.5-28.6
		C135.7,83.6,148.2,96.2,148.2,112.7z M141,112.8c0-12.2-9.5-21.9-21.6-22c-11.6-0.1-21.7,10.1-21.7,21.7
		c0,11.8,10.1,21.8,22.1,21.6C131.5,134,141,124.4,141,112.8z"/>
	<path class="st0" d="M63.5,108.8c3.5,0,7,0.1,10.4,0c1.5,0,2.2,0.3,2.2,2c0.1,5.2,0.2,5.2-5.1,5.3c-6,0-11.9-0.1-17.9,0.1
		c-1.9,0-2.4-0.6-2.4-2.4c0.1-4.9,0-4.9,4.9-4.9C58.3,108.8,60.9,108.9,63.5,108.8C63.5,108.9,63.5,108.9,63.5,108.8z"/>
	<path class="st0" d="M63.7,87.2c3.5,0,7,0.1,10.4,0c1.5,0,2,0.4,2,2c-0.3,6.4,1.1,5.1-5.2,5.2c-5.9,0.1-11.8-0.1-17.7,0.1
		c-2,0-2.6-0.5-2.5-2.5c0.1-4.6,0-4.6,4.6-4.6C58.2,87.2,61,87.2,63.7,87.2C63.7,87.2,63.7,87.2,63.7,87.2z"/>
	<path class="st0" d="M115.8,106.8c0-2.3,0.1-4.6,0-7c-0.1-1.3,0.3-1.9,1.7-1.9c5.5-0.2,5.5-0.3,5.4,5.2c0,5.6,0,5.6,5.5,5.7
		c0.2,0,0.4,0,0.5,0c5,0,4.9,0,4.9,5c0,1.7-0.5,2.3-2.3,2.3c-4.5-0.1-8.9-0.2-13.4,0c-2.1,0.1-2.6-0.7-2.4-2.6
		C115.9,111.3,115.8,109.1,115.8,106.8z"/>
</g>
</svg>
