<?xml version="1.0" encoding="utf-8"?>
<!-- Generator: Adobe Illustrator 23.0.6, SVG Export Plug-In . SVG Version: 6.00 Build 0)  -->
<svg version="1.1" id="Layer_1" xmlns="http://www.w3.org/2000/svg" xmlns:xlink="http://www.w3.org/1999/xlink" x="0px" y="0px"
	 viewBox="0 0 180.1 177.9" style="enable-background:new 0 0 180.1 177.9;" xml:space="preserve">
<style type="text/css">
	.st0{fill:#FF9600;}
</style>
<g>
	<path class="st0" d="M41.3,89c0-16.5,0-33,0-49.5c0-10.3,6.5-16.9,16.7-16.9c23.8,0,47.6,0,71.4,0c9.8,0,16.4,6.7,16.4,16.5
		c0,33.3,0,66.6,0,100c0,9.6-6.7,16.2-16.4,16.2c-23.8,0-47.6,0-71.4,0c-10.3,0-16.7-6.5-16.7-16.9C41.2,122,41.2,105.5,41.3,89
		C41.2,89,41.3,89,41.3,89z M137.4,89c0-16.2,0-32.3,0-48.5c0-7-2.5-9.5-9.5-9.5c-23.1,0-46.2,0-69.4,0c-6.1,0-8.9,2.8-8.9,8.8
		c0,32.8,0,65.6,0,98.3c0,6.1,2.8,8.8,8.9,8.8c23.2,0,46.5,0,69.7,0c6.6,0,9.2-2.6,9.2-9.2C137.4,121.5,137.4,105.2,137.4,89z"/>
	<path class="st0" d="M106.1,93.2c-5.2,0-10.3,0-15.5,0c-3.5,0-5.4-1.5-5.5-4.1c0-2.7,1.8-4.3,5.3-4.3c10.5,0,21.1,0,31.6,0
		c3.5,0,5.3,1.6,5.3,4.3c-0.1,2.6-1.9,4.1-5.4,4.1C116.6,93.2,111.3,93.1,106.1,93.2z"/>
	<path class="st0" d="M106.3,45.3c5.5,0,11,0,16.5,0c2,0,3.5,0.7,4.2,2.7c0.6,1.6,0.3,3.1-0.9,4.4c-1,1.2-2.3,1.3-3.7,1.3
		c-10.8,0-21.5,0-32.3,0c-2.8,0-4.9-1-5-4.2c-0.1-2.7,1.6-4.1,4.9-4.1C95.5,45.3,100.9,45.3,106.3,45.3z"/>
	<path class="st0" d="M106.1,132.6c-5.4,0-10.8,0-16.2,0c-2.8,0-4.7-1.1-4.8-4c-0.1-2.9,1.7-4.3,4.5-4.3c11.1,0,22.2-0.1,33.3,0
		c2.7,0,4.3,1.5,4.3,4.2c0,2.6-1.6,4.1-4.3,4.1C117.3,132.6,111.7,132.6,106.1,132.6C106.1,132.6,106.1,132.6,106.1,132.6z"/>
	<path class="st0" d="M79.1,89.1c0,5.6-4.3,9.8-9.8,9.7c-5.5-0.1-9.8-4.5-9.7-9.9c0-5.4,4.5-9.8,9.9-9.7
		C75.1,79.2,79.2,83.4,79.1,89.1z"/>
	<path class="st0" d="M79.1,49.8c-0.2,5.4-4.4,9.5-9.8,9.4c-5.8-0.1-10-4.5-9.7-10.2c0.3-5.5,4.8-9.7,10.2-9.4
		C75.3,39.9,79.3,44.2,79.1,49.8z"/>
	<path class="st0" d="M69.2,118.7c5.6-0.1,9.8,4,9.9,9.6c0.1,5.5-4.1,9.9-9.6,10c-5.4,0.1-9.8-4.1-10-9.7
		C59.4,123.3,63.8,118.8,69.2,118.7z"/>
</g>
</svg>
