<?xml version="1.0" encoding="utf-8"?>
<!-- Generator: Adobe Illustrator 23.0.6, SVG Export Plug-In . SVG Version: 6.00 Build 0)  -->
<svg version="1.1" id="Layer_1" xmlns="http://www.w3.org/2000/svg" xmlns:xlink="http://www.w3.org/1999/xlink" x="0px" y="0px"
	 viewBox="0 0 180.1 177.9" style="enable-background:new 0 0 180.1 177.9;" xml:space="preserve">
<style type="text/css">
	.st0{fill:#FF9600;}
</style>
<path class="st0" d="M137.9,121.8c0,6.2-0.1,12.4,0,18.6c0.1,6-4.9,9.3-9.2,9.3c-9.4,0-18.7,0-28.1,0c-1,0-1.1-0.4-1.1-1.2
	c0-12,0-24,0-36c0-1-0.3-1.3-1.3-1.3c-6.8,0.1-13.6,0-20.4,0c-1,0-1.3,0.2-1.3,1.2c0,12,0,23.9,0,35.9c0,1-0.2,1.4-1.3,1.4
	c-9.1,0-18.3,0-27.4,0c-4.7,0-8.4-2.9-9.2-7.2c-0.1-0.7-0.1-1.4-0.1-2.2c0-12.7,0-25.5,0-38.2c0-1.5,0-1.5-1.5-1.5
	c-2.6,0-5.1,0.2-7.6-0.6c-1.2-0.4-2.3-0.9-3.2-1.7c-1.9-1.6-2.4-3.7-1.3-5.9c0.6-1.3,1.5-2.3,2.6-3.3c15.2-13,30.4-25.9,45.7-38.9
	c2.4-2,4.7-4,7.1-6c1.9-1.6,4.2-2.3,6.7-2.5c4.3-0.4,8.2,0.5,11.7,3.2c1.7,1.4,3.5,2.6,5.3,3.9c0.5,0.4,0.5,0.6,0,1
	c-5.2,4.1-10,8.7-14.1,14c-0.3,0.5-0.8,0.5-1.3,0.6c-4.8,0.5-9.1,4.1-10.2,8.6c-1.5,5.6,2,11.3,7.8,13c6.7,2,13.8-1.8,15.5-8.2
	c0.3-1.2,0.5-2.4,0.3-3.6c-0.2-0.8,0.1-1.3,0.5-1.9c3.6-4.7,8-8.7,12.7-12.4c1.9-1.5,1.9-1.5,3.8,0.2c9.9,9.2,19.8,18.4,29.8,27.6
	c1.2,1.1,2.6,2.1,3.6,3.4c2.1,3,1.4,6.1-1.8,7.9c-1.9,1.1-3.9,1.4-6,1.5c-1.8,0.1-3.5,0.1-5.3,0c-1,0-1.4,0.3-1.4,1.3
	C137.9,108.6,137.9,115.2,137.9,121.8z"/>
<path class="st0" d="M143.2,37.8c1.7,0,3.5,0.1,5.1,0.6c5.5,1.6,8.2,6.1,7,11.7c-0.8,3.7-2.8,6.7-5.1,9.6c-3.6,4.4-7.6,8.4-12,12
	c-0.6,0.5-0.9,0.5-1.4,0c-1.2-1.2-2.4-2.3-3.7-3.4c-0.6-0.5-0.7-0.8,0-1.3c4.3-3.4,8.3-7.2,11.7-11.5c1.6-2,3.1-4.1,3.7-6.7
	c0.5-2.3-0.1-3.3-2.4-3.9c-2.8-0.7-5.5-0.3-8.3,0.3c-9.2,2.1-17.3,6.4-24.9,11.8c-4.3,3-8.2,6.5-11.6,10.5c-1.6,1.9-3.1,3.9-4,6.3
	c-0.6,1.5-1.3,3-0.3,4.6c0.2,0.4-0.1,0.6-0.3,0.9c-1,1.6-2.5,2.6-4.3,3.1c-0.6,0.2-1,0.1-1.4-0.5c-1.5-2.6-1.6-5.4-0.9-8.3
	c0.9-3.4,2.7-6.3,4.9-9.1C102,56,110.5,49.7,120,44.7c5.6-2.9,11.3-5.2,17.5-6.4C139.4,38,141.3,37.7,143.2,37.8z"/>
</svg>
