<?xml version="1.0" encoding="utf-8"?>
<!-- Generator: Adobe Illustrator 23.0.6, SVG Export Plug-In . SVG Version: 6.00 Build 0)  -->
<svg version="1.1" id="Layer_1" xmlns="http://www.w3.org/2000/svg" xmlns:xlink="http://www.w3.org/1999/xlink" x="0px" y="0px"
	 viewBox="0 0 180.1 177.9" style="enable-background:new 0 0 180.1 177.9;" xml:space="preserve">
<style type="text/css">
	.st0{fill:#FF9600;}
</style>
<g>
	<path class="st0" d="M46.5,85.3c0-5.9,0-11.8,0-17.8c0-1.2,0-1.2,1.2-1.3c9.1-1,17.8-3.3,26.2-6.9c3.6-1.5,7.3-3,11-4.3
		c7.7-2.8,15.2-2.2,22.6,0.9c6.4,2.7,12.2,6.5,17.7,10.7c0.8,0.6,1.6,1.4,2.2,2.2c1,1.5,0.7,2.4-1,3c-2,0.7-4.1,1.2-6.1,1.8
		c-2.7,0.9-5.4,2-7.6,3.8c-2.8,2.2-5.8,2.4-9.1,1.1c-2.6-1-4.9-2.5-7.1-4.2c-1.1-0.9-1.5-0.9-2.7,0c-3.4,2.8-5.6,6.4-6.1,10.8
		c-0.3,2.6,1,4.2,3.6,4.9c2.7,0.7,5.4,0.9,8.2,1.2c4.3,0.4,8.5,0.9,12.6,2.2c3.7,1.2,6.8,3.2,8.9,6.5c3.1,4.7,1.7,10.2-3.2,12.8
		c-1.3,0.7-2.8,0.8-4.3,0.9c-4.7,0.1-9.4,0.3-14.1,0.4c-5.4,0.1-10.7,0.5-16,0.9c-5.7,0.4-11.3,0.5-16.9-0.9
		c-3.1-0.8-5.9-2.2-8.5-3.9c-2.2-1.4-4.3-2.8-6.6-4.1c-1.3-0.7-2.6-1.4-4-1.7c-0.6-0.1-0.8-0.4-0.8-1C46.4,97.4,46.4,91.3,46.5,85.3
		C46.4,85.3,46.4,85.3,46.5,85.3z"/>
	<path class="st0" d="M43.6,86.5c0,6-0.1,12,0,18c0,1.6-0.5,2.9-1.4,4.2c-1.1,1.4-2.4,2.3-4.1,2.4c-3.3,0.2-6.6,0.2-9.8,0
		c-1.8-0.1-3.1-1.1-4.1-2.5c-0.9-1.2-1.4-2.5-1.4-4.1c0-10.7,0-21.4-0.1-32.1c0-1.9,0.2-3.7,0.2-5.5c0.1-3.3,3.3-5.6,6-5.7
		c3.1-0.1,6.2-0.1,9.2,0.2c2.8,0.3,5.2,2.9,5.4,5.7c0.2,3.2,0.1,6.5,0.2,9.8C43.7,80,43.7,83.3,43.6,86.5
		C43.7,86.5,43.7,86.5,43.6,86.5z"/>
	<path class="st0" d="M131.9,129.6c-10.6,0-17.6-3.8-23.1-10.7c-1.2-1.5-1.2-1.5,0.5-2.6c0.7-0.5,1.5-0.9,2.2-1.4
		c0.5-0.3,0.7-0.2,1,0.2c2.8,4,6.7,6.9,11.4,8.3c8.5,2.5,16.1,0.6,22.4-5.8c4.1-4.2,6.2-9.3,6-15.2c-0.3-13.1-11.7-23-24.7-21.3
		c-6.2,0.8-11.2,4-15,9c-0.4,0.5-0.6,0.6-1.1,0.2c-0.9-0.7-1.9-1.3-2.8-2c-0.7-0.4-0.6-0.8-0.2-1.4c4.1-5.6,9.6-9.1,16.4-10.6
		c12.1-2.8,27.7,3.7,31.8,19.8c3.2,12.8-2.7,24.6-13.7,30.5C138.9,128.8,134.8,129.8,131.9,129.6z"/>
	<path class="st0" d="M131.8,86.1c0.1,0,0.5,0,0.9,0.1c1.4,0.2,2,0.8,2,2.2c0,1,0.4,1.5,1.2,1.9c0.8,0.5,1.7,0.9,2.3,1.6
		c1.2,1.2,1.4,2.5,0.4,3.8c-1,1.3-2.3,1.6-3.8,0.7c-0.8-0.5-1.6-1-2.6-1.2c-0.7-0.1-1.4-0.2-2,0.2c-1.2,0.7-1.4,2-0.3,2.9
		c0.8,0.7,1.7,1.2,2.5,1.6c1.6,0.9,3.3,1.7,4.9,2.7c5.8,3.5,3.7,12-1.1,14.1c-1,0.4-1.5,1-1.5,2.1c0,1.3-0.6,1.9-1.9,2.1
		c-0.8,0.1-1.6,0.1-2.3,0c-1.3-0.2-1.9-0.8-2-2.2c-0.1-0.6-0.3-1.1-0.9-1.3c-0.5-0.3-1.1-0.6-1.6-0.9c-0.6-0.3-1.3-0.7-1.8-1.2
		c-1.9-1.6-1.7-3.7,0.5-4.9c0.6-0.4,1.3-0.3,1.9,0c0.8,0.4,1.6,0.8,2.4,1.2c1.6,0.8,3.2,0.6,4.7-0.3c1.7-1,1.7-3.2,0-4.2
		c-1.6-1.1-3.4-1.7-5-2.7c-0.7-0.5-1.5-0.9-2.2-1.4c-4.6-3.1-3.3-9.4-0.1-11.7c0.2-0.1,0.3-0.3,0.5-0.4c1.1-0.5,1.6-1.3,1.6-2.6
		C128.5,86.7,129.5,86.1,131.8,86.1z"/>
</g>
</svg>
