<?xml version="1.0" encoding="utf-8"?>
<!-- Generator: Adobe Illustrator 23.0.6, SVG Export Plug-In . SVG Version: 6.00 Build 0)  -->
<svg version="1.1" id="Layer_1" xmlns="http://www.w3.org/2000/svg" xmlns:xlink="http://www.w3.org/1999/xlink" x="0px" y="0px"
	 viewBox="0 0 180.1 177.9" style="enable-background:new 0 0 180.1 177.9;" xml:space="preserve">
<style type="text/css">
	.st0{fill:#FF9600;}
</style>
<g>
	<path class="st0" d="M150.2,53.9c-1.4-0.4-2.7-0.8-4.5-1.3c5.5-2.3,10.7-4.5,16.3-6.8c-2.3,5.6-4.5,10.7-6.8,16.3
		c-0.5-1.7-0.8-3.1-1.2-4.4c-0.6-0.1-0.8,0.3-1,0.6c-6.4,6.4-12.9,12.8-19.3,19.3c-0.6,0.5-0.8,1-0.7,1.9c0.2,1.9-1,3.8-2.8,4.6
		c-1.8,0.8-4,0.6-5.3-0.9c-0.8-0.9-1.7-1.1-2.8-1.1c-9,0-18.1,0-27.1,0c-0.8,0-1.4,0.1-2,0.8c-0.9,1.2-2.2,1.8-3.7,1.6
		c-1-0.1-1.5,0.3-2.1,0.9c-7.3,7.3-14.7,14.7-22,22c-0.8,0.8-1,1.3-0.3,2.3c1.9,2.9,2.8,6.2,2.5,9.7c-0.1,1.1,0.3,1.4,1.3,1.4
		c22.6,0,45.1,0,67.7,0c1.3,0,1.4-0.5,1.4-1.5c0-14.2,0-28.4-0.1-42.6c0-1.5,0.4-1.9,1.9-1.9c3,0.1,3,0,3,3.1c0,14.7,0,29.3,0,44
		c0,3.1-0.6,3.7-3.7,3.7c-23.7,0-47.5,0-71.2,0c-1.2,0-1.9,0.3-2.5,1.4c-4.8,8.4-15.5,11.1-23.7,5.8c-0.8-0.5-1.2-0.5-1.9,0.2
		c-3.4,3.4-6.8,6.8-10.2,10.2c-0.8,0.8-1.2,1-2,0.1c-2.4-2.5-2.5-2.5,0.1-5c2.9-2.8,5.7-5.7,8.6-8.5c0.9-0.8,0.8-1.4,0.2-2.3
		c-5.7-9-1.6-21,8.4-24.7c1.2-0.4,1.4-1,1.4-2.1c0-11.5,0-22.9,0-34.4c0-2.9,0.6-3.6,3.5-3.6c28,0,56,0,83.9,0c2.2,0,2-0.3,2,2
		c0,2.9,0,2.9-2.8,2.9c-26.6,0-53.3,0-79.9,0c-1.5,0-2,0.3-2,1.9c0.1,10.2,0.1,20.3,0,30.5c0,1.3,0.3,1.8,1.7,1.9
		c2.7,0.1,5.1,1.1,7.4,2.6c0.7,0.5,1.1,0.4,1.7-0.2c7.5-7.5,15-15,22.6-22.6c0.5-0.5,0.7-1,0.7-1.8c-0.1-2.2,1-4,2.9-4.8
		c1.9-0.8,4-0.3,5.5,1.3c0.5,0.5,0.9,0.7,1.6,0.7c9.4,0,18.8,0,28.2,0c0.7,0,1.2-0.2,1.7-0.8c1-1.2,2.3-1.7,3.8-1.6
		c0.7,0.1,1.2-0.1,1.7-0.6c6.6-6.7,13.3-13.3,19.9-19.9C150.1,54.3,150.1,54.2,150.2,53.9z M62.6,118.7c0-2.1-0.3-3.6-1.2-5.4
		c-0.2-0.4-0.3-1.3-0.9-1c-0.6,0.2-1.2,0.8-1.3,1.6c0,0.2,0.1,0.5,0.1,0.8c0,2.5-1.8,4.7-4.2,4.9c-2.6,0.3-4.8-1.3-5.3-3.9
		c-0.5-2.5,1-4.9,3.5-5.6c0.7-0.2,1.4-0.1,2.2-0.1c0.8,0,1.3-0.7,1.6-1.3c0.2-0.5-0.5-0.6-0.9-0.8c-4.7-2.4-10.6-1.3-14.2,2.5
		c-3.7,4-4.3,10-1.5,14.6c2.9,4.6,8.4,6.8,13.6,5.3C58.9,128.8,62.5,124.1,62.6,118.7z"/>
	<path class="st0" d="M133,105.1c0,3.1,0,6.3,0,9.4c0,1-0.2,1.4-1.3,1.5c-3.6,0-3.6,0.1-3.6-3.5c0-5.6,0-11.2,0-16.8
		c0-1.3,0.4-1.5,1.6-1.5c3.3,0.1,3.3,0,3.3,3.4C133,100.1,133,102.6,133,105.1z"/>
	<path class="st0" d="M113.6,107.6c0,2.4,0,4.7,0,7.1c0,0.9-0.2,1.3-1.2,1.3c-3.6,0.1-3.6,0.1-3.6-3.5c0-4,0-8,0-12.1
		c0-1.1,0.3-1.4,1.4-1.4c3.5,0,3.5-0.1,3.5,3.5C113.6,104.2,113.6,105.9,113.6,107.6z"/>
	<path class="st0" d="M89.4,108.7c0-2,0-3.9,0-5.9c0-1,0.2-1.3,1.3-1.4c3.6-0.1,3.6-0.1,3.6,3.5c0,3.2,0,6.5,0,9.7
		c0,1-0.2,1.3-1.3,1.3c-3.6,0-3.6,0.1-3.6-3.5C89.4,111.2,89.4,109.9,89.4,108.7z"/>
	<path class="st0" d="M123.3,108.7c0,2,0,4,0,6c0,0.9-0.2,1.3-1.2,1.3c-3.6,0.1-3.6,0.2-3.6-3.5c0-3.2,0-6.5,0-9.7
		c0-0.9,0.2-1.4,1.2-1.4c3.6,0,3.6-0.1,3.6,3.5C123.3,106.2,123.3,107.4,123.3,108.7z"/>
	<path class="st0" d="M104,110c0,1.6-0.1,3.2,0,4.8c0,1-0.3,1.2-1.2,1.2c-3.6,0.1-3.6,0.1-3.6-3.6c0-2.4,0-4.8,0-7.3
		c0-0.9,0.2-1.3,1.2-1.3c3.7-0.1,3.7-0.2,3.7,3.5C104,108.2,104,109.1,104,110z"/>
	<path class="st0" d="M79.8,111c0-1.1,0-2.3,0-3.4c0-0.3-0.1-0.6,0-0.8c1.1-1.3,2.6-0.3,3.8-0.6c0.8-0.1,1,0.3,1,1
		c0,2.6,0.2,5.2-0.1,7.7c-0.3,2.1-2.3,0.6-3.4,0.9c-0.7,0.2-1.4,0.1-1.3-1C79.9,113.6,79.8,112.3,79.8,111z"/>
</g>
</svg>
