<?xml version="1.0" encoding="utf-8"?>
<!-- Generator: Adobe Illustrator 23.0.6, SVG Export Plug-In . SVG Version: 6.00 Build 0)  -->
<svg version="1.1" id="Layer_1" xmlns="http://www.w3.org/2000/svg" xmlns:xlink="http://www.w3.org/1999/xlink" x="0px" y="0px"
	 viewBox="0 0 3302.8 2200" style="enable-background:new 0 0 3302.8 2200;" xml:space="preserve">
<style type="text/css">
	.st0{opacity:5.000000e-02;}
	.st1{fill:#B42B19;}
	.st2{fill:#3C251D;}
	.st3{clip-path:url(#SVGID_2_);}
	.st4{fill:#A6BFD5;}
	.st5{fill:#F1CC6E;}
	.st6{fill:#D3DFEB;}
	.st7{fill:#DAE382;}
	.st8{fill:#E8A080;}
	.st9{fill:#FFFFFF;}
	.st10{fill:#BF635F;}
	.st11{fill:#706664;}
	.st12{fill:#E07C5D;}
	.st13{opacity:0.25;}
	.st14{fill:#BB5151;}
	.st15{fill:#85554A;}
	.st16{opacity:0.24;}
	.st17{fill:#FCAB1F;}
	.st18{fill:#E59075;}
	.st19{fill:#564B49;}
	.st20{opacity:0.22;}
	.st21{fill:#070707;}
	.st22{fill:#6F8BA1;}
	.st23{fill:#B0B0B0;}
	.st24{fill:#7F7F7F;}
	.st25{opacity:0.32;}
	.st26{fill:#FAEFE4;}
	.st27{fill:#F2F2F2;}
	.st28{fill:#E3B385;}
	.st29{opacity:0.59;}
</style>
<g class="st0">
	<g>
		<circle class="st1" cx="2107.8" cy="1197.8" r="745"/>
	</g>
</g>
<g class="st0">
	<g>
		<circle class="st1" cx="1354.9" cy="1216.6" r="745"/>
	</g>
</g>
<g>
	<g>
		<path class="st2" d="M1514.1,1694.1c-6.5,0-12.9-0.1-19.3-0.3c-2.4-0.1-4.3-2.1-4.2-4.5c0.1-2.4,2-4.3,4.5-4.2
			c11.3,0.4,22.8,0.4,34.1,0.1c2.4,0.2,4.4,1.8,4.4,4.2c0.1,2.4-1.8,4.4-4.2,4.4C1524.4,1694.1,1519.2,1694.1,1514.1,1694.1z
			 M1563.7,1692.1c-2.2,0-4.1-1.7-4.3-4c-0.2-2.4,1.6-4.5,4-4.7c11.3-0.9,22.7-2.2,33.9-3.7c2.6-0.3,4.6,1.3,4.9,3.7
			c0.3,2.4-1.3,4.6-3.7,4.9c-11.4,1.6-23,2.9-34.4,3.8C1563.9,1692.1,1563.8,1692.1,1563.7,1692.1z M1460.7,1691.8
			c-0.1,0-0.3,0-0.4,0c-11.5-1-23.1-2.4-34.4-4c-2.4-0.3-4-2.5-3.7-4.9c0.3-2.4,2.4-4,4.9-3.7c11.1,1.6,22.5,3,33.9,4
			c2.4,0.2,4.1,2.3,3.9,4.7C1464.8,1690.1,1462.9,1691.8,1460.7,1691.8z M1631.7,1682.7c-2,0-3.8-1.4-4.2-3.5
			c-0.5-2.3,1.1-4.6,3.4-5.1c11.2-2.2,22.4-4.8,33.3-7.6c2.2-0.6,4.7,0.8,5.3,3.1c0.6,2.3-0.8,4.7-3.1,5.3
			c-11,2.9-22.4,5.5-33.7,7.7C1632.3,1682.6,1632,1682.7,1631.7,1682.7z M1392.7,1681.9c-0.3,0-0.6,0-0.9-0.1
			c-11.3-2.3-22.6-5-33.7-7.9c-2.3-0.6-3.7-3-3.1-5.3c0.6-2.3,3-3.7,5.3-3.1c10.9,2.9,22.1,5.5,33.2,7.8c2.4,0.5,3.9,2.8,3.4,5.1
			C1396.5,1680.5,1394.7,1681.9,1392.7,1681.9z M1698.3,1665.5c-1.8,0-3.5-1.2-4.1-3c-0.7-2.3,0.5-4.7,2.8-5.4
			c10.8-3.5,21.7-7.3,32.2-11.4c2.2-0.8,4.7,0.2,5.6,2.5c0.9,2.2-0.3,4.7-2.5,5.6c-10.7,4.1-21.7,8-32.7,11.5
			C1699.2,1665.4,1698.7,1665.5,1698.3,1665.5z M1326.3,1664.3c-0.4,0-0.9-0.1-1.4-0.2c-10.9-3.6-21.9-7.5-32.6-11.7
			c-2.2-0.9-3.3-3.4-2.4-5.6c0.9-2.2,3.4-3.3,5.6-2.5c10.5,4.1,21.3,8,32.1,11.6c2.3,0.7,3.5,3.2,2.8,5.5
			C1329.8,1663.1,1328.1,1664.3,1326.3,1664.3z M1762.5,1640.7c-1.6,0-3.2-0.9-3.9-2.5c-1-2.2,0-4.7,2.1-5.7
			c10.4-4.7,20.7-9.7,30.7-15c2.1-1.1,4.7-0.3,5.9,1.8c1.1,2.1,0.3,4.7-1.8,5.8c-10.2,5.3-20.7,10.5-31.1,15.2
			C1763.7,1640.6,1763.1,1640.7,1762.5,1640.7z M1262.4,1639.2c-0.6,0-1.2-0.1-1.8-0.4c-10.5-4.8-20.9-10-31-15.4
			c-2.1-1.1-2.9-3.7-1.8-5.9c1.1-2.1,3.8-2.9,5.9-1.8c9.9,5.3,20.2,10.4,30.5,15.1c2.2,1,3.1,3.6,2.1,5.8
			C1265.6,1638.2,1264,1639.2,1262.4,1639.2z M1823.4,1608.7c-1.5,0-2.9-0.8-3.7-2.1c-1.2-2-0.6-4.7,1.5-5.9
			c9.7-5.8,19.4-12,28.8-18.4c2-1.3,4.7-0.9,6,1.1c1.3,2,0.8,4.7-1.2,6c-9.6,6.5-19.4,12.8-29.2,18.7
			C1825,1608.6,1824.2,1608.7,1823.4,1608.7z M1201.8,1606.9c-0.8,0-1.6-0.2-2.3-0.6c-9.8-6-19.6-12.3-29-18.8c-2-1.4-2.5-4.1-1.1-6
			c1.4-2,4.1-2.5,6-1.1c9.3,6.4,18.9,12.6,28.6,18.5c2,1.2,2.7,3.9,1.5,5.9C1204.6,1606.2,1203.2,1606.9,1201.8,1606.9z
			 M1880.3,1570.1c-1.3,0-2.6-0.6-3.4-1.7c-1.5-1.9-1.1-4.6,0.8-6.1c9.1-6.9,18-14.2,26.5-21.5c1.8-1.5,4.5-1.4,6.1,0.5
			c1.6,1.8,1.4,4.5-0.5,6.1c-8.6,7.5-17.7,14.8-26.9,21.9C1882.1,1569.8,1881.2,1570.1,1880.3,1570.1z M1145.2,1568
			c-0.9,0-1.9-0.3-2.7-0.9c-9.1-7-18.1-14.4-26.7-22c-1.8-1.6-2-4.3-0.4-6.1c1.6-1.8,4.3-2,6.1-0.4c8.5,7.4,17.4,14.7,26.3,21.7
			c1.9,1.5,2.2,4.2,0.8,6.1C1147.8,1567.4,1146.5,1568,1145.2,1568z M1932.4,1525.2c-1.1,0-2.3-0.4-3.1-1.3
			c-1.7-1.7-1.6-4.5,0.1-6.1c8.2-7.9,16.2-16.1,23.9-24.4c1.6-1.7,4.4-1.9,6.1-0.2c1.8,1.6,1.9,4.4,0.2,6.1
			c-7.8,8.4-16,16.8-24.2,24.7C1934.5,1524.8,1933.5,1525.2,1932.4,1525.2z M1093.4,1522.8c-1.1,0-2.2-0.4-3-1.2
			c-8.2-8-16.3-16.4-24.1-24.9c-1.6-1.8-1.5-4.5,0.3-6.1c1.8-1.6,4.5-1.5,6.1,0.3c7.6,8.4,15.6,16.6,23.7,24.5
			c1.7,1.7,1.7,4.4,0.1,6.1C1095.7,1522.4,1094.5,1522.8,1093.4,1522.8z M1979,1474.7c-1,0-1.9-0.3-2.8-1c-1.8-1.5-2.1-4.2-0.6-6.1
			c7.3-8.8,14.3-17.9,20.9-26.9c1.4-1.9,4.2-2.3,6.1-0.9c1.9,1.4,2.4,4.1,0.9,6c-6.7,9.2-13.8,18.4-21.2,27.3
			C1981.5,1474.2,1980.3,1474.7,1979,1474.7z M1047,1472.1c-1.3,0-2.5-0.5-3.4-1.6c-7.2-8.9-14.3-18.2-21.1-27.5
			c-1.4-1.9-1-4.7,1-6.1c1.9-1.4,4.6-1,6,1c6.6,9.2,13.7,18.3,20.8,27.1c1.5,1.9,1.2,4.6-0.6,6.1
			C1049,1471.8,1048,1472.1,1047,1472.1z M2019.6,1419.3c-0.8,0-1.6-0.2-2.4-0.7c-2-1.3-2.6-4-1.3-6c6.1-9.5,12.1-19.3,17.7-29.1
			c1.2-2.1,3.8-2.8,5.9-1.6c2.1,1.2,2.8,3.8,1.6,5.9c-5.7,10-11.8,19.9-18,29.5C2022.4,1418.6,2021,1419.3,2019.6,1419.3z
			 M1006.7,1416.4c-1.4,0-2.8-0.7-3.7-2c-6.2-9.7-12.2-19.7-17.8-29.7c-1.2-2.1-0.4-4.7,1.6-5.9c2.1-1.2,4.7-0.4,5.9,1.6
			c5.6,9.9,11.5,19.7,17.6,29.3c1.3,2,0.7,4.7-1.3,6C1008.3,1416.2,1007.5,1416.4,1006.7,1416.4z M2053.6,1359.7
			c-0.6,0-1.3-0.1-1.9-0.4c-2.1-1.1-3-3.7-1.9-5.8c5.1-10.2,9.9-20.6,14.3-30.9c0.9-2.2,3.5-3.2,5.7-2.3c2.2,0.9,3.2,3.5,2.3,5.7
			c-4.4,10.4-9.3,21-14.5,31.4C2056.8,1358.8,2055.2,1359.7,2053.6,1359.7z M972.9,1356.5c-1.6,0-3.1-0.9-3.9-2.4
			c-5.1-10.5-9.9-21.1-14.3-31.6c-0.9-2.2,0.1-4.7,2.3-5.7c2.2-0.9,4.8,0.1,5.7,2.3c4.3,10.3,9.1,20.8,14.1,31.1
			c1,2.1,0.2,4.7-2,5.8C974.2,1356.3,973.6,1356.5,972.9,1356.5z M2080.6,1296.7c-0.5,0-1-0.1-1.5-0.3c-2.3-0.8-3.4-3.3-2.6-5.5
			c3.9-10.8,7.5-21.7,10.7-32.4c0.7-2.3,3-3.6,5.4-2.9c2.3,0.7,3.6,3.1,2.9,5.4c-3.2,10.9-6.9,22-10.8,32.9
			C2084.1,1295.6,2082.4,1296.7,2080.6,1296.7z M946.3,1293c-1.8,0-3.5-1.1-4.1-2.9c-3.8-10.9-7.4-22-10.6-33
			c-0.7-2.3,0.7-4.7,2.9-5.4c2.3-0.6,4.7,0.6,5.4,3c3.2,10.9,6.7,21.8,10.5,32.5c0.8,2.3-0.4,4.7-2.6,5.5
			C947.3,1292.9,946.8,1293,946.3,1293z M2100.2,1230.8c-0.3,0-0.7,0-1-0.1c-2.3-0.5-3.8-2.9-3.2-5.2c2.6-11.1,4.9-22.4,6.9-33.4
			c0.4-2.4,2.5-4,5-3.5c2.4,0.4,3.9,2.7,3.5,5c-1.9,11.2-4.3,22.6-7,33.9C2103.9,1229.4,2102.2,1230.8,2100.2,1230.8z M927.1,1227
			c-2,0-3.8-1.4-4.2-3.4c-2.5-11.1-4.8-22.6-6.7-33.9c-0.4-2.4,1.2-4.6,3.5-5c2.5-0.4,4.6,1.2,5,3.5c1.9,11.2,4.2,22.5,6.7,33.5
			c0.5,2.3-0.9,4.7-3.3,5.2C927.8,1227,927.4,1227,927.1,1227z M2112.1,1163.1c-0.2,0-0.3,0-0.5,0c-2.4-0.3-4.1-2.4-3.8-4.8
			c1.3-11.3,2.3-22.7,3-34c0.1-2.4,2.3-4.3,4.6-4.1c2.4,0.1,4.2,2.2,4.1,4.6c-0.7,11.4-1.7,23-3.1,34.5
			C2116.2,1161.5,2114.3,1163.1,2112.1,1163.1z M915.6,1159.3c-2.2,0-4.1-1.6-4.3-3.9c-1.3-11.5-2.2-23.2-2.8-34.5
			c-0.1-2.4,1.7-4.4,4.1-4.6c2.9-0.3,4.4,1.7,4.6,4.1c0.6,11.2,1.5,22.6,2.8,34c0.3,2.4-1.5,4.5-3.8,4.8
			C915.9,1159.3,915.8,1159.3,915.6,1159.3z M2116.3,1094.5c-2.4,0-4.3-1.9-4.3-4.3v-2.6c0-11.3-0.3-22.8-0.9-34.1
			c-0.1-2.4,1.7-4.4,4.1-4.6c2.3-0.2,4.4,1.7,4.6,4.1c0.6,11.5,0.9,23.1,0.9,34.6v2.6C2120.6,1092.6,2118.7,1094.5,2116.3,1094.5z
			 M911.9,1090.7L911.9,1090.7c-2.4,0-4.3-1.9-4.3-4.3c0-11.4,0.4-23,1-34.6c0.2-2.4,2.1-4.4,4.6-4.1c2.4,0.1,4.2,2.2,4.1,4.6
			c-0.7,11.4-1,22.9-1,34.1C916.2,1088.7,914.3,1090.7,911.9,1090.7z M2112.4,1023.4c-2.2,0-4-1.6-4.3-3.8
			c-1.3-11.1-2.9-22.5-4.8-33.8c-0.4-2.4,1.2-4.6,3.5-5c2.5-0.4,4.6,1.2,5,3.5c2,11.5,3.6,23,4.9,34.3c0.3,2.4-1.4,4.5-3.8,4.8
			C2112.7,1023.3,2112.6,1023.4,2112.4,1023.4z M915.9,1022.1c-0.2,0-0.3,0-0.5,0c-2.4-0.3-4.1-2.4-3.8-4.8
			c1.3-11.4,3-22.9,4.9-34.3c0.4-2.3,2.5-4,5-3.5c2.4,0.4,3.9,2.6,3.5,5c-1.9,11.2-3.6,22.6-4.9,33.8
			C920,1020.4,918.1,1022.1,915.9,1022.1z M2100.8,955.6c-2,0-3.8-1.4-4.2-3.4c-2.5-10.9-5.4-22-8.6-33c-0.7-2.3,0.7-4.7,2.9-5.4
			c2.3-0.7,4.7,0.6,5.4,2.9c3.2,11.1,6.2,22.4,8.7,33.5c0.5,2.3-0.9,4.7-3.2,5.2C2101.4,955.6,2101.1,955.6,2100.8,955.6z
			 M927.7,954.4c-0.3,0-0.6,0-1-0.1c-2.3-0.5-3.8-2.9-3.2-5.2c2.6-11.2,5.6-22.4,8.8-33.5c0.7-2.3,3.1-3.6,5.4-2.9
			c2.3,0.7,3.6,3.1,2.9,5.4c-3.2,10.9-6.1,22-8.7,33C931.5,953,929.7,954.4,927.7,954.4z M2081.5,889.7c-1.8,0-3.5-1.1-4.1-2.9
			c-3.8-10.8-8-21.5-12.4-31.9c-0.9-2.2,0.1-4.7,2.3-5.7c2.3-1,4.7,0.1,5.7,2.3c4.5,10.5,8.7,21.4,12.6,32.3
			c0.8,2.3-0.4,4.7-2.6,5.5C2082.5,889.6,2082,889.7,2081.5,889.7z M947.2,888.5c-0.5,0-1-0.1-1.5-0.3c-2.3-0.8-3.4-3.3-2.6-5.5
			c3.8-10.7,8.1-21.5,12.6-32.2c0.9-2.2,3.5-3.2,5.7-2.3c2.2,0.9,3.2,3.5,2.3,5.7c-4.5,10.5-8.7,21.2-12.4,31.7
			C950.6,887.4,949,888.5,947.2,888.5z M2054.7,826.3c-1.6,0-3.1-0.9-3.9-2.4c-5-10.1-10.3-20.3-16-30.2c-1.2-2.1-0.4-4.7,1.6-5.9
			c2.1-1.2,4.7-0.4,5.9,1.6c5.7,10.1,11.1,20.4,16.2,30.6c1,2.1,0.2,4.7-2,5.8C2056,826.2,2055.3,826.3,2054.7,826.3z M974,825.3
			c-0.6,0-1.3-0.1-1.9-0.4c-2.1-1.1-3-3.7-2-5.8c5.1-10.2,10.5-20.5,16.2-30.5c1.2-2.1,3.8-2.8,5.9-1.6c2.1,1.2,2.8,3.8,1.6,5.9
			c-5.6,9.9-11,20-16,30.1C977.2,824.4,975.6,825.3,974,825.3z M2020.8,766.4c-1.4,0-2.8-0.7-3.6-2c-6.2-9.6-12.7-19.1-19.3-28.2
			c-1.4-1.9-1-4.6,0.9-6.1c1.9-1.4,4.7-1,6.1,0.9c6.7,9.2,13.3,18.9,19.6,28.6c1.3,2,0.7,4.7-1.3,6
			C2022.4,766.2,2021.6,766.4,2020.8,766.4z M1007.9,765.6c-0.8,0-1.6-0.2-2.4-0.7c-2-1.3-2.6-4-1.3-6c6.2-9.7,12.8-19.3,19.6-28.5
			c1.4-1.9,4.1-2.3,6.1-0.9c1.9,1.4,2.4,4.1,0.9,6c-6.7,9.1-13.1,18.6-19.3,28.1C1010.7,764.9,1009.3,765.6,1007.9,765.6z
			 M1980.4,710.8c-1.3,0-2.5-0.5-3.3-1.6c-7.2-8.7-14.7-17.4-22.4-25.8c-1.6-1.8-1.5-4.5,0.3-6.1c1.8-1.6,4.5-1.5,6.1,0.3
			c7.8,8.5,15.4,17.3,22.7,26.2c1.5,1.9,1.3,4.6-0.6,6.1C1982.3,710.5,1981.3,710.8,1980.4,710.8z M1048.4,710.2c-1,0-1.9-0.3-2.7-1
			c-1.9-1.5-2.1-4.2-0.6-6.1c7.3-8.9,14.9-17.7,22.7-26.1c1.6-1.7,4.4-1.9,6.1-0.3c1.8,1.6,1.9,4.4,0.3,6.1
			c-7.6,8.3-15.2,17-22.4,25.8C1050.9,709.6,1049.6,710.2,1048.4,710.2z M1933.9,660.2c-1.1,0-2.2-0.4-3-1.2
			c-8.1-7.9-16.5-15.6-25.1-23.1c-1.8-1.6-2-4.3-0.4-6.1c1.6-1.8,4.3-2,6.1-0.4c8.7,7.6,17.3,15.4,25.5,23.4
			c1.7,1.7,1.7,4.4,0.1,6.1C1936.1,659.7,1935,660.2,1933.9,660.2z M1094.9,659.6c-1.1,0-2.3-0.4-3.1-1.3c-1.7-1.7-1.6-4.5,0.1-6.1
			c8.2-8,16.8-15.8,25.5-23.4c1.8-1.6,4.5-1.4,6.1,0.4c1.6,1.8,1.4,4.5-0.4,6.1c-8.6,7.4-17.1,15.2-25.2,23.1
			C1097.1,659.2,1096,659.6,1094.9,659.6z M1882,615.2c-0.9,0-1.9-0.3-2.7-0.9c-8.9-6.9-18.2-13.7-27.6-20.1c-2-1.4-2.5-4-1.1-6
			c1.4-2,4.1-2.5,6-1.1c9.5,6.5,18.9,13.4,28,20.4c1.9,1.5,2.2,4.2,0.8,6.1C1884.6,614.6,1883.3,615.2,1882,615.2z M1146.9,614.6
			c-1.3,0-2.6-0.6-3.4-1.7c-1.5-1.9-1.1-4.6,0.8-6.1c9.1-7,18.5-13.9,28-20.3c2-1.3,4.7-0.8,6,1.1c1.4,2,0.8,4.7-1.1,6
			c-9.4,6.4-18.7,13.1-27.6,20.1C1148.8,614.3,1147.8,614.6,1146.9,614.6z M1825.3,576.3c-0.8,0-1.5-0.2-2.2-0.6
			c-9.6-5.8-19.6-11.4-29.7-16.8c-2.1-1.1-2.9-3.7-1.8-5.9c1.1-2.1,3.8-2.9,5.9-1.8c10.2,5.4,20.4,11.2,30.1,17
			c2,1.2,2.7,3.9,1.5,5.9C1828.2,575.6,1826.8,576.3,1825.3,576.3z M1203.7,575.8c-1.5,0-2.9-0.7-3.7-2.1c-1.2-2.1-0.6-4.7,1.5-5.9
			c9.8-5.9,20-11.7,30.2-17c2.1-1.1,4.7-0.3,5.9,1.8c1.1,2.1,0.3,4.7-1.8,5.9c-10,5.3-20.1,10.9-29.7,16.8
			C1205.2,575.6,1204.5,575.8,1203.7,575.8z M1764.7,544.2c-0.6,0-1.2-0.1-1.8-0.4c-10.2-4.7-20.7-9.1-31.4-13.3
			c-2.2-0.9-3.3-3.4-2.5-5.6c0.9-2.2,3.4-3.3,5.6-2.5c10.8,4.2,21.5,8.8,31.8,13.5c2.2,1,3.1,3.6,2.1,5.7
			C1767.9,543.3,1766.3,544.2,1764.7,544.2z M1264.6,543.8c-1.6,0-3.2-0.9-3.9-2.5c-1-2.2,0-4.7,2.1-5.7
			c10.4-4.8,21.1-9.3,31.9-13.5c2.3-0.9,4.7,0.2,5.6,2.5c0.9,2.2-0.3,4.7-2.5,5.6c-10.6,4.1-21.2,8.6-31.5,13.3
			C1265.8,543.6,1265.2,543.8,1264.6,543.8z M1700.7,519.2c-0.4,0-0.9-0.1-1.3-0.2c-10.8-3.5-21.8-6.8-32.7-9.6
			c-2.3-0.6-3.7-3-3.1-5.3c0.6-2.3,2.9-3.7,5.3-3.1c11.1,2.9,22.3,6.2,33.2,9.8c2.3,0.7,3.5,3.2,2.8,5.5
			C1704.2,518.1,1702.6,519.2,1700.7,519.2z M1328.7,518.8c-1.8,0-3.5-1.2-4.1-3c-0.7-2.3,0.5-4.7,2.8-5.4c11-3.6,22.2-6.8,33.2-9.7
			c2.4-0.6,4.7,0.8,5.3,3.1c0.6,2.3-0.8,4.7-3.1,5.3c-10.9,2.9-21.9,6.1-32.8,9.6C1329.6,518.8,1329.2,518.8,1328.7,518.8z
			 M1634.3,501.8c-0.3,0-0.6,0-0.9-0.1c-11.1-2.3-22.4-4.2-33.6-5.8c-2.4-0.3-4-2.5-3.7-4.9c0.3-2.4,2.5-4,4.9-3.7
			c11.4,1.6,22.8,3.6,34.1,5.9c2.3,0.5,3.9,2.8,3.4,5.1C1638.1,500.3,1636.3,501.8,1634.3,501.8z M1395.2,501.5
			c-2,0-3.8-1.4-4.2-3.5c-0.5-2.3,1-4.6,3.4-5.1c11.2-2.3,22.7-4.2,34.1-5.8c2.3-0.3,4.5,1.3,4.9,3.7c0.3,2.4-1.3,4.6-3.7,4.9
			c-11.3,1.6-22.6,3.5-33.6,5.7C1395.8,501.5,1395.5,501.5,1395.2,501.5z M1566.3,492c-0.1,0-0.2,0-0.4,0c-11.3-1-22.8-1.6-34.1-1.9
			c-2.4-0.1-4.3-2.1-4.2-4.5c0.1-2.4,1.9-4.7,4.4-4.2c11.5,0.3,23.1,1,34.6,2c2.4,0.2,4.1,2.3,3.9,4.7
			C1570.4,490.3,1568.5,492,1566.3,492z M1463.2,491.9c-2.2,0-4.1-1.7-4.3-4c-0.2-2.4,1.6-4.5,4-4.7c11.4-1,23-1.6,34.5-1.9
			c2.4,0.1,4.4,1.8,4.4,4.2c0.1,2.4-1.8,4.4-4.2,4.4c-11.3,0.3-22.8,0.9-34.1,1.9C1463.5,491.9,1463.4,491.9,1463.2,491.9z"/>
	</g>
</g>
<g>
	<defs>
		
			<ellipse id="SVGID_1_" transform="matrix(0.7071 -0.7071 0.7071 0.7071 -315.8457 1390.4288)" cx="1520.5" cy="1076.5" rx="538.5" ry="538.5"/>
	</defs>
	<clipPath id="SVGID_2_">
		<use xlink:href="#SVGID_1_"  style="overflow:visible;"/>
	</clipPath>
	<g class="st3">
		<g>
			
				<ellipse transform="matrix(0.7071 -0.7071 0.7071 0.7071 -317.3037 1393.9484)" class="st4" cx="1524" cy="1080" rx="563.1" ry="563.1"/>
		</g>
	</g>
	<g class="st3">
		<g>
			<path class="st5" d="M68.9,597c0,0-8.2,4.2-11.7,5.1c-3.6,1-3.2-11.2-12.8-10.5c-9.6,0.7-102.3-2-114.3-1.1
				c-12,0.9-38-3-42.7-5.5c-4.7-2.5-12.2-0.9-13.4,3.1c-1.2,4-11.4,9.1-18.7,9.2c-7.2,0.2-53.6,7.1-44.9,22.6
				c8.7,15.5,41.1,16.4,43,23c2,6.7-31.8,0.1-42.1,1.2c-10.3,1.1-14.2,22.5,6.7,22.8c20.9,0.3,28.2-3.5,25.3,2.5
				c-2.9,5.9-42.8,26.7-20.4,35.8c22.4,9.1,21.6-5.9,28.6-2c6.9,3.8,14,6.2,26.5,11.7c12.5,5.5-63.5,32.5-42.5,47.1
				c21,14.6,81.3-25.2,87.6-30.3c6.3-5.1,1.7-28.4,34-37.9c32.4-9.5,77.1-3.6,94.1,3.7c17,7.4,36,19.4,44.6,32.1
				c8.6,12.8,16.6,40.4,22.9,38.9c6.3-1.4,11.5-14.2,11.3-16.1c-0.1-1.9,52.1,33.3,55.7,61.7c3.5,28.4-8.5,104.1,57,133.1
				c65.5,29,33.1,81.8,76.6,94.8c43.5,13,43.5,37.7,59.2,45.9c15.7,8.2,33.3,21.1,52.4,27.9c19,6.8,13.6-5.4,27.6-3.9
				c14,1.5,21.5,22.1,33.2,25.2c11.7,3.1,24.4-5.7,34.5,1.1c10.2,6.8,5.1,25.3,17.4,33.5c12.3,8.2,33.9,29.6,41.8,26.1
				c7.8-3.4,9-20.2,17-15.5c8,4.7,21.5,25.2,21,40c-0.5,14.8-18.1,29-20.9,40.2c-2.8,11.2-3.5,18.4-2.1,26.9
				c1.4,8.5-12.3,20-5.6,34.8c6.7,14.8,26.5,19.2,37.3,47.8c10.8,28.6,17.7,44.6,31.9,52.5c14.2,7.9,32.9,16.6,35.6,28.6
				c2.7,12,11.6,85.5,6.8,95.1c-4.7,9.7-15,14.7-15,30.4c-0.1,15.8,4.2,20.5,2.8,31c-1.4,10.5-10.8,17.3-10.4,36.6
				c0.5,19.3,4.6,39.1,4.5,54.5c-0.1,15.4-9.1,16.4-11.3,27.3c-2.2,10.9,1.8,16.7,2.2,22c0.4,5.3-3.5,10.6,0,17.2
				c3.5,6.6,6.7,13.8,7.2,16.7c0.5,2.8,15,53.4,68.7,43.4c11.7-5.5,2.8-16.3-4.3-22.3c-7.1-5.9-21.8-13.5-11.7-28.9
				c10.1-15.4,24.6-19.7,21.9-31.3c-2.6-11.6-16.9-3.4-19.4-4.7c-2.5-1.3,30.3-28.3,29.5-39.4c-0.8-11-17-17.4-13.1-27
				c3.8-9.6,15.4,11.8,23.1,5.9c7.7-5.9-5.7-15.7,2.8-23.8c8.5-8.1,35.7,0.7,40.5-12.6c4.8-13.2-22.7-38.1-13.9-49.9
				c8.8-11.7,12.3,28.5,28.3,19.1c15.9-9.4,17.1-40.6,34.9-51c17.8-10.3,8.6-37.9,17.5-53.3c9-15.4,28.5-23.5,50.3-29.4
				c21.7-5.9,39.1-67.7,26.8-94.8c-12.2-27.1,33.8-16.8,28-55.7c-5.8-39-83.4-83.5-110.4-73c-27,10.5-36.5,5.5-39.1-5.8
				c-2.6-11.3,10.5-42.7-19.8-53.4c-30.4-10.7-29.8,2.1-38.1-0.5c-8.3-2.6-18.4-16.9-28.3-23.8c-9.9-6.8-7-26-25.4-21.8
				c-18.4,4.2-25.1,4-29.6,4.3c-4.5,0.3-31.2-17.8-41.3-15.3c-10.1,2.5-31.9,35.2-38.7,37.9c-6.8,2.6-12.7-8.8-22.7-8.8
				c-10,0-17.9,19.9-28.9,9.2c-11-10.7-5.6-44.7-14.9-60.2c-9.3-15.5-33.1-5.4-38.7-5c-5.6,0.4-0.3-4.8,1.4-25.4
				c1.7-20.7,2.1-26.4-11.5-30.7c-13.6-4.3-17.6,7.9-18.5,17.1c-1,9.1-16.5,16.9-25.4,17.1c-8.9,0.2-35.4-15.6-36.2-66.2
				c-0.8-50.6,22-52.7,54.9-48.8c32.9,3.8,27.2-25.8,44.3-17c17.1,8.8,36,52.3,43.7,52.7c7.7,0.4-12.7-42.5-8.9-56.7
				c3.8-14.1,57.9-40.4,48.7-62.2c-9.2-21.8-4.6-36,11.7-44.8c16.3-8.8,27.6,2.8,30.4-14.6c2.8-17.4,15.7-27.9,20.6-27.3
				c4.9,0.6,40.5-8.6,48.1-9.7c7.6-1,17.8-5.1-4.9-18.3c-22.7-13.2-41.9-5.6-48.3-10.9c-6.4-5.3,24.9-38.2,32.5-24.8
				c7.6,13.4,20.6,5,25.4,0c4.8-5,8.1-17.1,15.5-11.5c7.3,5.6,9.5,18.7,8.1,23.8c-1.4,5.1-0.4,16.1,13.5,20.2
				c13.9,4,27.5-8.4,22.8-18.8c-4.7-10.4-19.9-20.1-21.3-22.5c-1.4-2.4,4.5-17.9-1.4-23.2c-5.8-5.3-57.4-33.1-66.9-51.8
				c-9.5-18.7-20.1-11.1-24.1-2.6c-3.9,8.5-17.9,20.3-24.8,3.6c-6.9-16.7-12.4-21-21.4-24.3c-9-3.3-63.5-21.9-53.1,18.1
				c10.4,40.1,13.7,39.5,5.9,43.6c-7.9,4.1,1.3,31.1-10,41.2c-11.4,10.1-12.7,6.4-25.5-14.2c-12.8-20.6-80.1-21.9-95.6-30.4
				c-15.5-8.4-32.3-28.7-10.7-47.9c21.6-19.2,29-34.1,46.4-32.9c17.4,1.1,55.4,13.7,56.8,5.5c1.4-8.2-38.4-18.7-34.4-24.3
				c4-5.5,30.6,0.2,32.4-8.5c1.8-8.7-26-20.1-1.2-28.1c24.8-8,44.9-9,41.2,6.6c-3.7,15.5,4.8,21.6,11.8,13c7-8.6,12.4-17.6,16-7.8
				s-1.4,25.9-13.8,26.8c-12.4,0.9-27.9,4.4-24.5,12.3c3.4,7.9,31.3-8,50.4,0.7c19.2,8.7,44.8,13,54.3,10.4c9.5-2.6-2.1-17.5-8-27.6
				c-6-10.1,41.2,17.8,43.7-5.6c2.5-23.5-47.9-10.2-51.7-21.4c-3.8-11.2-9.6-24.7-24.1-28c-14.4-3.3-48.1-17.6-74.5-20
				c-26.4-2.4-44.4,10.3-55.6,16.9c-11.2,6.5-33.7-9.5-39.2-1.5c-5.5,8,7.4,35.3-1.7,37.4c-9.1,2.1-27.2-25.3-32.4-19.6
				c-5.2,5.6,7.1,34.6-10.2,38c-17.3,3.4-55,8.2-69.2,4.3c-14.2-4-2.6-22-12.1-42.3c-9.5-20.3-17.5-41.7-48.4-40
				c-30.9,1.7-50.8-11.6-64.8-10.6c-14,1-42.7,0.7-46.5,14.8c-3.8,14.1-6,18.1-12.2,26.2c-6.3,8.1-3.4,30.8,17.6,26.9
				c21.1-3.9,43.1-5.5,40.3,5.7c-2.8,11.2-35.7,18.8-44.9,14.7C171.9,582.9,111.2,568.2,68.9,597z"/>
		</g>
	</g>
	<g class="st3">
		<g>
			<path class="st5" d="M604.1,463.6c0,0,42.9-13.6,53.4-30.1c10.5-16.5,20.3-15.3,29.5-16c9.2-0.7-1.9-20.4,21.2-24
				c23.1-3.6,32.9,3.8,50.4,0.2c17.5-3.6,11.4-26.6,19.5-31.5c8.1-4.9,6.9,14.7,18.1,10.3c11.2-4.4-6.2-40,70.8-45.5
				c77-5.5,66.7,3.4,49.4,11.1c-17.3,7.7,15,6.4,44.6-2.1c29.6-8.6,35.5,6,41,23.6c5.5,17.5,12.5,31,27.3,22.8
				c14.8-8.2,24.3-28.2,40-15.4c15.7,12.8-32.5,39.6-39.3,54.4c-6.8,14.8,7.7,15.2,9.2,35.2c1.4,20-10,28.7-22.4,29.2
				c-12.4,0.5,4.5,24.4-5.6,31.6c-10.1,7.2-23.8-19.4-31.1-12.8c-7.4,6.6,18.2,18.4,8,26.6c-10.3,8.3-61.2,10.5-74.7,24
				c-13.5,13.5-39.9,16.1-44.5,28.6c-4.5,12.5-6.7,20.2-9.2,31.1c-2.5,10.9-9.9,21.5-30.4,14c-20.5-7.5-52.2-32.8-60-53.4
				c-7.8-20.6-17.8-41.7-8.5-42.7c9.3-1,14.1,15.5,20.4,15c6.3-0.5,13.2-30.3-8.5-29.5c-21.7,0.8-29.6,12.5-32.5-2.7
				c-2.9-15.2,6.4-19.8-9.1-25.8c-15.5-6-66.8-21.8-75.2-15c-8.4,6.8-1.2,22.1-20.3,14.8C616.3,482.3,581.3,489.1,604.1,463.6z"/>
		</g>
	</g>
	<g class="st3">
		<g>
			<g>
				<path class="st6" d="M2795.9,456.8c-12.6-12-4.5-8.6-3.9-29.1c0.6-20.5-19.2-40.2-31.9-36.7c-12.7,3.4-37.7,14.2-47.6,18.5
					c-10,4.3,10.5-10.1-25.1-8.6c-35.5,1.5-51.8,6.9-61.2,5.5c-9.5-1.5,8.3-10.6-32.4-9.8c-40.7,0.8-49.2,4.6-59.6-5.7
					c-10.4-10.4-36.2-3.8-51.2-10.3c-15-6.4-20.3-5.3-15.6-11.8c4.7-6.4,15.1-0.7,19.5-10.7c4.4-10-74.6-16.8-69.6-6.1
					c5,10.7,21.4,7.8,26.5,15.6c5.1,7.9,5.8,30-6.1,32.3c-11.9,2.3-45.4,3.6-51.7,8c-6.3,4.4-17.9,11.3-19.1,11.4
					s-10.1-1.8-8.7-24.1c1.4-22.3-13.5-11.6-40.4-3.2c-26.9,8.4-93.6,13.5-99.6,6.1c-6-7.5,13.6-8.1,12.3-22.4s-60.8-5.7-72.3-5.9
					c-11.5-0.2-26.6-16.7-44.7-3.2c-18.1,13.5-37.2,8-53,7.4c-15.8-0.7-82,31.7-103,34.6c-20.9,2.9-19.9,6.4-15.1,24.7
					c4.9,18.3-7.5-2.3-29.3-2.9c-21.8-0.6-45.2,10.4-38.8,23.6c6.4,13.2,34.5,26.2,27.1,31.7c-7.5,5.5-58.2,22.8-50.8,7.9
					c7.4-14.9,32.8-65.4,6.2-65.6c-26.6-0.2-48.4-0.1-53.5,21c-5.1,21.1-36.7,18.6-97.8,32.6c-61,13.9-62.1-1.3-77.8,16.1
					c-15.7,17.4-25.5,37.2-45.6,38.6c-20,1.4,18.2-5.1,12.5-28.6c0,0-40.1-36.3-127.5-30c-87.4,6.3-110.5,49.5-117.3,55.7
					c-6.8,6.2-66.9,38.7-53.3,66.4c13.7,27.7,32.7,17.2,42.3,5.6c9.6-11.7,2.7,31.8,25.1,30.2c22.4-1.6,29.9-4.1,38.8-20.9
					c8.9-16.9-3.7-17.4-6.2-35.8c-2.5-18.4,5.3-9.9,18.5-17.6c13.2-7.6,14.7-9.2,18.6-21.9c3.9-12.7,14.3-25.4,22-14
					c7.7,11.4-22.6,26.9-21.1,43.1c1.6,16.1,8,15.7,30.5,10.2c22.6-5.4,31.9-21.9,34.6-0.1c2.8,21.8-18.7,20.4-33.5,33
					c-14.8,12.5-23.8,27.5-39.2,37.2c-15.4,9.7-71.9,31.4-78.7,15.2c-6.8-16.2-28.9-15.6-31.2-2.5c-2.3,13.1-31.8,31.9-54.6,46.1
					c-22.9,14.2-35,12.9-25.8,32.6c9.3,19.7,19.5,27.6,9.2,35.2c-10.3,7.5-66.3-14.2-65.3,16.1c1,30.4-5.1,38,3,45.6
					c8.1,7.7,25.9,11,44.8,5.7c19-5.3,28.7-8.5,33.9-24.6c5.2-16.1,10.9-20.1,20.2-21.9c9.2-1.7,14.8-12.5,14.5-17.2
					c-0.3-4.6,20.4-6.8,27.4-9.8c7-3,2.1-17.3,16.8-10.2c14.7,7.2,38.8,34.8,58.1,39.2c19.3,4.3,13-8.5-0.7-18.2
					c-13.7-9.8-36.4-23.5-33.2-32.7c3.3-9.2,9.8-6.4,26.4,5.3c16.6,11.7,38,62.5,61.1,72.6c23.1,10.2,23.8-9.6,16.8-18
					c-7-8.5,1.3-28.4,11.1-21.9c9.8,6.5,5.9,11,14.1,23.7c8.2,12.7,76.9,1.6,81.7,17.8c4.8,16.1,1,47.9-48.5,52.2
					c-49.6,4.3-66.6-6.3-83.4,8.1c-16.8,14.5-25.4,21.2-48.6,5.3c-23.2-15.9-61.7-0.2-44.4-25.5c0,0,17.8-4.1,10.1-19.3
					c-7.7-15.2-56.4-11.7-71.7-5.6c-15.3,6.1-51.9,17.3-71.3,25.2c-19.4,7.8-28.3,18.5-30.1,51.6c-1.9,33.1-36.3,24.1-43.7,48.3
					c-7.3,24.2-12,43.1-6.1,57.7c5.9,14.6,7,30.3,3.9,37c-3.1,6.7-15.8,29.8,0.6,48.7c16.4,18.9,16.5,4.5,44.1,34.8
					c27.6,30.3,13.3,34.1,40.8,30c27.5-4.1,51.1-12.3,67.4-20.6c16.3-8.3,13.5-13.9,25.3-9c11.8,4.9,18.9,19.8,28.1,21.4
					c9.2,1.7,19.6-4.1,24.7,7.7c5.1,11.8-8.9,31.8,6.2,60.8c15.1,29,29,42.3,37,65.7c8,23.4,6.7,29.6,0.8,40.8
					c-5.8,11.2-15.7,21.9,6.8,69.3c22.4,47.5,17.2,26.1,21,56.9c3.8,30.8,9.7,23.2,18.6,51.7c8.9,28.5,7.4,35.3,30.2,38.9
					c22.8,3.6,45.9-0.9,56.2-8.8c10.3-7.9,48.1-59.8,47.6-82.7c-0.4-22.9,14.1-22.5,13.4-48.7c-0.7-26.2,24.4-36.6,33.9-49.7
					c9.5-13.1,4.2-71-4.4-95.7c-8.6-24.7-1.7-51.9,19.3-79.7c21-27.8,45.9-40.1,53.2-77.8c7.4-37.8,6.1-49.1-27.5-35.7
					c-33.7,13.4-32-7.7-35.4-16.1c-3.4-8.4-37.4-44.1-44-62.3c-6.5-18.2-56.8-70.9-39.9-92.5c16.9-21.6,43.5,54.2,49.3,67.4
					c5.8,13.2,17.4,7,32.8,44.9c15.4,37.9,29.4,35.3,67.2,12c37.8-23.2,82-80.9,54.4-95.1c-27.6-14.3-23.7,12.7-37.4,6.5
					c-13.7-6.2-50.7-44.6-43.8-59.9c7-15.3,41.3,30.5,55.3,29.5c14-1,26.7,1,35.2,12.8s42.9,2.2,59.8-8.1
					c17-10.3,29.8-10.7,35.1,11.3c5.2,22.1,24.3,35,27.6,30.5c3.3-4.5-7.8,9.6,7.8,41.5c15.6,31.8,21.9,77.2,49.3,72.4
					c27.5-4.8,20.7-56.6,16.8-69.2c-3.9-12.6,39.8-68.8,54.9-69.1c15.1-0.4,51.6,20.6,68.5,53.8c16.9,33.2,15.2-7.5,23.3-7.4
					c8.2,0.1-0.5,43,12.4,55.3c13,12.3,21.2-11.9,19.4-20c-1.8-8.1,15.3,48.3,39.1,43.4c23.8-4.9,47.7-22,39.2-42.6
					c-8.4-20.5-50.9-56.2-42.6-71.8c8.2-15.6,22.8-31.4,27.1-25.9c4.3,5.4-18.3,47,2.6,46c20.9-1,28.6-33.1,24.4-41.4
					c-4.2-8.3,20.2,6.2,38.5-13.3c18.3-19.5,50.4-43.7,46.1-70.2c-4.3-26.4-21.5-52.9-25.9-57.8c-4.4-4.9,11-9.4,4.1-21.8
					c-6.9-12.4-13.5-42,2.7-40.8c16.2,1.2,33.4,10.5,36.7,22.7c3.3,12.2-3.3,32.2,11.4,35.9c14.8,3.7,25.8-16.7,15.4-37.4
					c-10.4-20.7-2.6-45.1,21.1-47.1c23.7-2.1,51.7-17,60-35.5c8.3-18.5,11.6-66.4,24.2-63c12.6,3.4,0.1,60.2,13.3,63.2
					c13.2,3,16.3-51.1,9.2-65c-7-13.9-30.1-15.8-46.3-13.2c-16.1,2.6-29.3-7.9-22.1-17c7.2-9.1,28.8-41.5,69.7-44
					c40.9-2.6,47.4,4.1,68.5,3c21.1-1.2,23.7-22.8,40.2-33.7c16.4-10.8,15,2.5,23.4,6.6c8.4,4-24.3,19.6-35.7,37.3
					c-11.4,17.7-13.8,44,2.3,52.5c16,8.5,51.8-10.9,54.9-30.1c3.2-19.2,2.7-55,12.8-57.9c10.1-2.9,9.2,1.8,49.2-5.3
					c40-7.2,33.8-21.4,46.1-23.4C2776.4,468.2,2808.5,468.8,2795.9,456.8z M1608.3,775.9c-11.7,5.5-46,2.6-57.5-1.2
					c-11.5-3.8-11.6,15.5-38.4,11.7c-26.9-3.8-11.5-34.3-6.6-45.7c4.9-11.5,25-18.3,33.6-11.7c8.6,6.5,14.8,12.5,14.8,12.5
					s3-12.4,17.9-24.6c14.8-12.2,15.7,12.8,32.4,26.3C1621.1,756.7,1620,770.4,1608.3,775.9z M1702.6,726.2
					c-3.6-0.2,20.2,12.2,24.6,35.5c4.4,23.3,10.7,39.3-11.8,46.7c-22.4,7.3-26.9-16.3-18.3-28.1c8.5-11.7-7.7-14.8-16.3-20.3
					c-8.6-5.5-21.5-38.9-1.7-49.3c19.8-10.4,25.1-33.7,42.3-12.3C1738.7,719.6,1733.3,728.2,1702.6,726.2z"/>
			</g>
		</g>
	</g>
	<g class="st3">
		<g>
			<path class="st7" d="M1702.8,1438.5c0,0-6.3-28.9,8.6-48.6c14.9-19.7,15.6-59.9,14.6-66.2c-1.1-6.4-19.2-19-26.3-4.9
				c-7.1,14.1-25.8,19.8-28.5,31.8c-2.8,12,0.7,13.6,2.1,29.2c1.4,15.7-1.8,30.2,1,37.2C1676.9,1423.9,1663,1465.7,1702.8,1438.5z"
				/>
		</g>
	</g>
	<g class="st3">
		<g>
			<path class="st5" d="M2517.2,1315.2c0,0-39.9-17.2-37.1-36.7c2.8-19.5-26.9-37.5-32.9-29.2c-6.1,8.3-15.3,14-18.6,18.5
				c-3.3,4.5-8.4,26.4-12.5,28.1c-4.1,1.7-24.3-27.6-31.8-14.2c-7.5,13.4-28.9,27.1-29.9,38.7c-1,11.5,7.5,28.1,3.4,29.8
				c-4.1,1.7-53.9-1.9-60.8,12.2c-6.8,14.1-23.4,36.1-4.7,60.5c18.7,24.4,28,44.5,28.4,50.2c0.4,5.7-10.5,21.7-3.4,29
				c7.2,7.3,42.4,9.8,63.8-12.5c21.4-22.3,12.9-21.7,41.2-24.4c28.2-2.7,46.6,1,53.5,13.3c6.9,12.4,16.4,9,30.3,10.1
				c14,1.1,9.5,14.3,31.1,29.2c21.6,14.9,50.9,19.3,69.1-5c18.2-24.2,43.5-66.9,29.5-102.4c-14-35.5-34.6-60.6-50.2-75.9
				c-15.6-15.4-5.7-46.1-34.5-59.1C2522.5,1262.5,2523.7,1318.3,2517.2,1315.2z"/>
		</g>
	</g>
	<g class="st3">
		<g>
			<path class="st5" d="M2519.4,1150.4c0,0-27.1-16-51.7-13.5c-24.6,2.5-34.3-23.3-46.5-16.7c-12.2,6.6-1,29.4,11.9,36.4
				c12.9,7,20.9-9.4,36.6,11.7c15.7,21.1,13,33.5,26.5,45.4c13.5,11.9,21.4,11.4,30.1-2.2c8.7-13.5,18.2-24.2,26.5-9.8
				c8.3,14.4,30.4,20,31.9,15.3C2586.1,1212.2,2539.9,1159.4,2519.4,1150.4z"/>
		</g>
	</g>
	<g class="st3">
		<g>
			<path class="st5" d="M2311.9,1127.2c0,0,1.7-6.2-6.1-26.1c-7.8-19.9-20.3-8.6-28.1-0.5c-7.9,8.1-35.1,12.5-40.5,28.7
				c-5.5,16.2,3.1,47.1,16.1,52.2c13.1,5.2,38,11.2,41.9-0.9C2299.1,1168.6,2313.5,1140.1,2311.9,1127.2z"/>
		</g>
	</g>
	<g class="st3">
		<g>
			<path class="st5" d="M2196,1166.7c0,0-22.8-6.6-34.3-26.9c-11.4-20.3-38.7-38-45-33.3c-6.3,4.7,32.2,31.7,38.5,47.7
				c6.3,16,19.4,42.7,38.1,50.6c18.7,8,22.8-7,20.2-17.2C2210.9,1177.4,2196,1166.7,2196,1166.7z"/>
		</g>
	</g>
	<g class="st3">
		<g>
			<path class="st5" d="M2479.2,688c0,0,35,2.9,34.2-7.5c-0.7-10.3-18.6-23-35.7-13.6c-17.1,9.5-21.7,13-19.7,32.2
				c2,19.2-0.7,45.5-21.7,51.7c-21,6.2-66.5,16.9-59.9,41.2c6.6,24.2,18.6,18.7,34.5,1.1c16-17.6,52.2-29.9,58.5-43.6
				c6.3-13.7,9.9-17.2,6.7-28.4C2473,710,2467.8,687.7,2479.2,688z"/>
		</g>
	</g>
</g>
<g>
	<g>
		<g>
			<path class="st2" d="M812.8,1266.2H738c-1.4,0-2.6-1.2-2.6-2.6v-74.7c0-1.4,1.2-2.6,2.6-2.6h74.7c1.4,0,2.6,1.2,2.6,2.6v74.7
				C815.3,1265.1,814.2,1266.2,812.8,1266.2z M740.6,1261h69.5v-69.5h-69.5V1261z"/>
		</g>
	</g>
	<g>
		<g>
			<path class="st2" d="M770,1249.6c-0.7,0-1.4-0.3-1.9-0.8l-20.4-21.7c-1-1-0.9-2.7,0.1-3.7c1-1,2.7-0.9,3.7,0.1l18.3,19.5
				l33.3-44.2c0.9-1.2,2.5-1.4,3.6-0.5c1.1,0.9,1.4,2.5,0.5,3.6l-35.1,46.6c-0.5,0.6-1.2,1-1.9,1L770,1249.6z"/>
		</g>
	</g>
</g>
<g>
	<g>
		<g>
			<polygon class="st8" points="1623.9,842.7 1641,1045 1501.3,1044.6 1490.4,851.4 			"/>
		</g>
	</g>
	<g>
		<g>
			<path class="st9" d="M1625.4,1021.1c0,0,126.6,15.1,246.8,71.8c0,0-34,250.8-67.2,480.2l-4.2,265.4l-445-1.4l11.3-258.9
				l-94.2-491.3c0,0,158.5-56.5,208.3-59.3C1531.1,1024.7,1625.4,1021.1,1625.4,1021.1z"/>
		</g>
	</g>
	<g>
		<g>
			<polygon class="st9" points="1481.2,1027.6 1499.2,1002.9 1581.1,1023.6 1636.7,999.1 1668.2,1030.2 1576.6,1052.2 
				1485.2,1041.1 			"/>
		</g>
	</g>
	<g>
		<g>
			<polygon class="st1" points="1592.5,1034.8 1620.9,1056.5 1608.6,1097.3 1580.2,1099.8 1554.2,1059.5 			"/>
		</g>
	</g>
	<g>
		<g>
			<path class="st10" d="M1504.3,880.6c0,0,16,111.5,131,97.3l-3.9-50.1L1504.3,880.6z"/>
		</g>
	</g>
	<g>
		<g>
			<path class="st11" d="M1483.9,1023.7l63.2,573.5l-34.1,384.3c0,0-173.4,59-234.5,18.2l32.6-422.9l-56-499.1
				C1255.1,1077.6,1412.6,1040.6,1483.9,1023.7z"/>
		</g>
	</g>
	<g>
		<g>
			<path class="st11" d="M1665.1,1026.2l-17.8,579.4l30.3,369c0,0,93.6,50.4,178.5,23.2l-27.2-366.7l54.3-550.1
				C1883.3,1081,1793,1043.4,1665.1,1026.2z"/>
		</g>
	</g>
	<g>
		<g>
			<polygon class="st1" points="1608.6,1097.3 1654.1,1682 1604.9,1755 1548.8,1685.4 1582.8,1094.5 			"/>
		</g>
	</g>
	<g>
		<g>
			<path class="st2" d="M1547,1595.7l-63.1-572c-20.7,4.9-48.7,11.5-78,18.4l88,251.7l-41.9,23.8L1547,1595.7z"/>
		</g>
	</g>
	<g>
		<g>
			<path class="st2" d="M1665.1,1026.2c0,0,48.4,7.2,76.7,14l-54.3,246.8l29.4,27.2L1649,1596L1665.1,1026.2z"/>
		</g>
	</g>
	<g>
		<g>
			<path class="st11" d="M1882.9,1080.7c86.2,17.2,164.6,482.2,164.6,482.2l-160.8,23.6l-37.9-168.1L1882.9,1080.7z"/>
		</g>
	</g>
	<g>
		<g>
			<path class="st11" d="M1255.8,1078.4c-69.4,85.9-84.7,213.1-84.7,213.1l129.8-17.8l24.9,73.4L1255.8,1078.4z"/>
		</g>
	</g>
	<g>
		<g>
			<path class="st2" d="M1864,1403.7C1864,1403.7,1864,1403.7,1864,1403.7c1.4,0,2.5-1.1,2.4-2.5l-1.4-95.9c0-1.4-1.3-2.3-2.5-2.4
				c-1.4,0-2.4,1.1-2.4,2.5l1.4,95.9C1861.6,1402.7,1862.6,1403.7,1864,1403.7z"/>
		</g>
	</g>
	<g>
		<g>
			<path class="st2" d="M1862.5,1242c1.2,0,2.3-0.9,2.4-2.2c5.6-57.7,33.9-140.3,34.2-141.1c0.4-1.3-0.2-2.7-1.5-3.1
				c-1.3-0.4-2.7,0.2-3.1,1.5c-0.3,0.8-28.8,84-34.5,142.3c-0.1,1.3,0.8,2.5,2.2,2.7C1862.4,1242,1862.5,1242,1862.5,1242z"/>
		</g>
	</g>
	<g>
		<g>
			<circle class="st2" cx="1486.4" cy="1743.4" r="16.1"/>
		</g>
	</g>
	<g>
		<g>
			<circle class="st2" cx="1477.8" cy="1850.7" r="16.1"/>
		</g>
	</g>
	<g>
		<g>
			<g>
				<path class="st12" d="M1686.5,771.6c0,0,18.5-15.7,29.2-5.4c11.3,11,9.6,48.8-27.1,53.7C1688.6,819.9,1680.9,800.4,1686.5,771.6
					z"/>
			</g>
		</g>
		
			<image style="overflow:visible;" width="1094" height="1440" xlink:href="90CED205.png"  transform="matrix(0.24 0 0 0.24 1434.9919 608.9339)">
		</image>
		<g>
			<g>
				<path class="st2" d="M1671.3,686.4c0,0,19.2,53.1,25.8,81.7c0,0,0.6-80.8-13.3-101.1C1669.9,646.7,1671.3,686.4,1671.3,686.4z"
					/>
			</g>
		</g>
		<g>
			<g>
				
					<ellipse transform="matrix(0.9895 -0.1448 0.1448 0.9895 -99.1886 233.2001)" class="st2" cx="1552.9" cy="798.2" rx="8.3" ry="20.7"/>
			</g>
		</g>
		<g>
			<g>
				<path class="st2" d="M1643.3,789.1c-1.5-11.3,1-21,5.5-21.6c4.5-0.6,9.4,8.1,10.9,19.4s-1,21-5.5,21.6
					C1649.7,809.1,1644.8,800.4,1643.3,789.1z"/>
			</g>
		</g>
		<g>
			<g class="st13">
				<g>
					<path class="st9" d="M1648.9,652.8L1648.9,652.8C1649,652.4,1649,652.5,1648.9,652.8z"/>
				</g>
			</g>
		</g>
		<g>
			<g>
				<path class="st14" d="M1611.4,851.9c-0.3,0-0.7-0.1-0.9-0.3c-2-2.2-2.2-4.1-1.1-7.1c0.6-1.6,2.4-2,3.7-2.4
					c0.4-0.1,0.8-0.2,1.2-0.3l1.2-0.4c2.2-0.7,4.3-1.4,6.1-2.7c1.8-1.3,3.4-3.7,2.8-6c-0.3-1.1-1-2.1-1.8-3.2l-0.2-0.2
					c-7.7-10.6-11.9-23.6-12-36.7c0-0.6,0.5-1.1,1.1-1.1c0.6,0,1.1,0.5,1.1,1.1c0.1,12.6,4.2,25.2,11.6,35.4l0.2,0.2
					c0.9,1.2,1.8,2.4,2.1,4c0.8,3.3-1.3,6.5-3.7,8.2c-2,1.5-4.4,2.3-6.7,3l-1.2,0.4c-0.4,0.1-0.9,0.3-1.4,0.4c-1,0.2-2,0.5-2.2,1
					c-0.9,2.3-0.7,3.3,0.6,4.9c0.4,0.4,0.4,1.1-0.1,1.5C1611.8,851.8,1611.6,851.9,1611.4,851.9z"/>
			</g>
		</g>
		<g>
			<g>
				<path class="st2" d="M1622.4,752.9c4.7,1.7,10.7-3.2,15.2-4.3c10.3-2.5,18.7,3.8,28.6,3c2.6-0.2,3.6-2.6,2.6-4.8
					c-7.2-15.2-46.8-17.4-48.6,3.3C1620,751.6,1621.2,752.5,1622.4,752.9L1622.4,752.9z"/>
			</g>
		</g>
		<g>
			<g>
				<path class="st2" d="M1567.1,764c-4.1,2.9-11.2-0.3-15.8-0.2c-10.6,0.3-17.1,8.6-26.9,10.4c-2.5,0.5-4.2-1.6-3.7-4
					c3-16.5,40.6-29,47.8-9.5C1569.1,762.1,1568.1,763.3,1567.1,764L1567.1,764z"/>
			</g>
		</g>
		<g>
			<g>
				<g>
					<path class="st14" d="M1627.2,904.9c-4.6,2.3-9.4,4.1-13.9,6.5c-0.3,0.2-0.2,0.8,0.2,0.7c5.7-0.4,9.9-2.3,14.8-5.3
						C1629.6,906.1,1628.5,904.3,1627.2,904.9L1627.2,904.9z"/>
				</g>
			</g>
		</g>
		<g>
			<g>
				<g>
					<path class="st14" d="M1557.1,872.4c-3.5,2.9-5.4,6.6-5.5,11.1c0,1.1,1.4,1.1,1.7,0.2c1.5-3.7,3-6.9,5.3-10.2
						C1559.2,872.6,1557.8,871.8,1557.1,872.4L1557.1,872.4z"/>
				</g>
			</g>
		</g>
		<g>
			<g>
				<path class="st2" d="M1481.1,821.7c0,0,17.1-44.5,13.2-109.5l-57.8-15.6c0,0-9.7,43.2-1.1,70.9c8.6,27.7,23.3,52.5,23.3,52.5
					L1481.1,821.7z"/>
			</g>
		</g>
		<g>
			<g>
				<path class="st15" d="M1600.1,585.1c5.6,4.5,9.6,12.3,16.8,12.4c4.7,0.1,8.6-3.4,12.7-5.5c11.5-5.9,27.4-0.3,32.6,11.5
					c1.3,2.9,2,6,3.5,8.8c4.6,8.3,15,10.9,23.7,15c8.6,4,17.1,13.6,12.8,22.1c-1.8,3.5-5.5,5.9-6.8,9.5c-2.2,6.1,2.9,12.8,1.7,19.1
					c-1.2,6.7-8.6,10.2-15.3,11.7c-6.7,1.5-14.1,2.3-18.8,7.2c-1.9,1.9-3.2,4.4-5.2,6.1c-3.5,2.9-8.3,3.1-12.8,2.8
					c-10.2-0.5-20.3-2.6-29.9-6.1c-8.2-3-16.8-7.1-25.2-4.9c-5.7,1.4-10.2,5.5-15.4,8.1c-8.5,4.3-19,4.4-27.6,0.3
					c-1.9-0.9-3.9-2-5.9-1.5c-2.8,0.7-3.9,4-5,6.7c-5.3,12.8-22.2,19.2-34.7,13.1c-3.2-1.6-6.3-3.9-9.9-3.8
					c-4.6,0.1-8.1,4.1-12.1,6.3c-6.5,3.6-14.5,2.7-21.8,4.2s-15.1,7.9-12.8,15c-6.2,4.4-14.1-2.3-18.7-8.3
					c-5.9-7.7-11.7-15.3-17.6-23c-1.7-2.2-3.5-4.6-3.4-7.4c0.2-6.1,8.3-8.4,11.7-13.5c5.2-7.9-2.9-18.8,0.1-27.8
					c4.7-14.4,30.6-10.5,36.1-24.6c2.4-6.2-0.5-13.7,2.6-19.7c4.7-9,17.9-7.1,27.3-11.1c14.5-6.2,21.6-28.2,37.3-26.9
					c4.8,0.4,9,3.1,13.6,4.5c10.9,3.4,22.6-0.6,33.7-3.5C1578.2,579.4,1591.2,577.9,1600.1,585.1z"/>
			</g>
		</g>
		<g>
			<g>
				<g>
					<path class="st8" d="M1483.3,815c0,0-11-38.5-45.5-12.7c-13.7,10.3-0.6,53.7,44.7,47C1482.5,849.3,1496.5,841.2,1483.3,815z"/>
				</g>
			</g>
			<g>
				<g>
					<path class="st14" d="M1458.5,838.3c-3.7-0.3-7.2-1.3-10.1-3.3c-0.6-0.4-0.7-1.2-0.3-1.8c0.4-0.6,1.2-0.7,1.7-0.3
						c7.5,5.4,21.5,2.3,24.9,0.5c-0.2-0.2-0.5-0.4-0.5-0.4c-2.5-2.3-6.7-6.2-4.7-11.6c0.8-2.2,2.1-3.6,3.8-4.4
						c1.4-0.6,2.8-0.6,3.9-0.5c-2-4.7-7.7-15.7-15.6-15.6c-22.1,0.1-22,15.3-22,16c0,0.7-0.5,1.3-1.2,1.3c-0.8,0-1.3-0.6-1.3-1.2
						c0-0.2-0.1-4.7,2.9-9.3c2.8-4.2,8.7-9.1,21.5-9.2c12,0,18.6,18.7,18.9,19.5c0.2,0.5,0,1-0.3,1.3c-0.4,0.3-0.9,0.4-1.3,0.2
						c0,0-2.5-1-4.5-0.1c-1.1,0.5-2,1.5-2.5,3c-1.4,3.8,1.8,6.8,3.8,8.7c1,0.9,1.6,1.5,1.9,2.2c0.1,0.4,0.2,1.2-0.8,1.9
						C1474.8,836.6,1466.4,839,1458.5,838.3z"/>
				</g>
			</g>
		</g>
		<g class="st16">
			<g>
				<path class="st9" d="M1617.9,661.6c6.7,0.5,13.7-0.3,19.4-3.7c3.4-2.1,6.5-6,5.2-9.8c-1.1-3.4-5.1-4.9-8.6-5.3
					c-3.5-0.4-7.3-0.3-10.3-2.2c-6.2-3.9-5.1-13.2-8-19.9c-2.9-7-11-11.4-18.5-10.1c-5.3,0.9-9.7,4.3-14.4,6.8
					c-11.7,6.2-27,7-37.5-0.9c-8.4-6.3-13.9-17.9-24.3-19.2c-3.5-0.5-7.6,0.7-9.3,3.8c-0.9,1.6-1.1,3.4-1.5,5.2
					c-1.3,5.9-5,11.3-10,14.6c-3,2-7.1,4.8-5.7,8.1c1.3,3.1,5.9,2.5,9.1,1.4c3.5-1.3,7.1-2.5,10.6-3.8c3.4-1.2,6.9-2.4,10.4-2.4
					c8.5,0.1,15.1,7.2,20.4,13.8c1.7,2.2,3.5,4.4,6,5.8c4.3,2.4,9.8,1.6,14.4-0.2c4.6-1.8,8.9-4.5,13.7-5.6
					c9.4-2.3,20,2.1,25.1,10.4c2.7,4.4,4.3,10.1,9.1,12.2C1614.6,661.3,1616.3,661.5,1617.9,661.6z"/>
			</g>
		</g>
		<g>
			<g>
				<path class="st9" d="M1566.3,877.3c0,0,47.7,9.5,82.7-11.5c0,0-10.8,36.9-40.1,36.9S1566.3,877.3,1566.3,877.3z"/>
			</g>
		</g>
	</g>
</g>
<g>
	<g>
		<polygon class="st17" points="2381.1,1726.4 579.3,1726.4 834.8,1999.2 2636.6,1999.2 		"/>
	</g>
</g>
<g>
	<g>
		<path class="st11" d="M2047.4,1563c8.6,36.6,6.9,126.6-195,218.2l-115.4-69.6l169.7-159.5L2047.4,1563z"/>
	</g>
</g>
<g>
	<g>
		<g>
			<g>
				<path class="st18" d="M1471.6,1724.2c0,0,41.4-13.7,103.9-16.7c23.8-1.1,78.5-24,78.4-8.1c-0.1,15.9-71.5,33.2-72.3,38.2
					c-0.7,5,32.5,27.9,32.5,27.9l-65-2.9L1471.6,1724.2z"/>
			</g>
		</g>
	</g>
	<g>
		<g>
			<path class="st9" d="M1547,1881.3c0,0,86.5-203.6,142.5-291.9l280,5.1c0,0-73,162.9-106.9,224c-33.9,61.1-45.8,106.9-45.8,106.9
				l-280-15.3L1547,1881.3z"/>
		</g>
	</g>
	<g>
		<g>
			<g>
				<path class="st18" d="M1444.7,1666.7l88,55.5c0,0,126.6,6.4,128.5,20.2s-35.7,100.7-35.7,100.7s-60.6-2.8-128.6-33.7
					c-1-0.5-104.8-78.9-104.8-78.9L1444.7,1666.7z"/>
			</g>
		</g>
	</g>
	<g>
		<g>
			<g>
				<path class="st18" d="M1614.8,1729.1l78.2,16.9l69.5,53c0,0-7.4,13.4-19.8,6.8c-12.5-6.6-48.7-31.7-48.7-31.7l-40.9-7.9l36,21.5
					l50.9,56.7c0,0-6.8,11.9-16,3.9c-9.3-8-31.9-26.4-31.9-26.4l28,38c0,0-8.5,12.4-22.7-2.5c-14.1-14.9-26-27.8-26-27.8l-27.3-11.2
					l22.1,15l20.8,36.2c0,0-6.4,6.7-14.4,1.2c-8-5.5-22.7-22.2-22.7-22.2l-54.4-10.1L1614.8,1729.1z"/>
			</g>
		</g>
	</g>
</g>
<g>
	<g>
		<g>
			
				<rect x="2394.7" y="1216.6" transform="matrix(-1 -1.224647e-16 1.224647e-16 -1 5152.4824 2467.9814)" class="st2" width="363.1" height="34.9"/>
		</g>
	</g>
	<g>
		<g>
			<rect x="2381.6" y="1081.5" class="st19" width="389.2" height="148.1"/>
		</g>
	</g>
	<g class="st20">
		<g>
			
				<rect x="2673.6" y="1081.5" transform="matrix(-1 -1.224647e-16 1.224647e-16 -1 5444.417 2311.1201)" class="st21" width="97.3" height="148.1"/>
		</g>
	</g>
	<g>
		<g>
			<g>
				<path class="st2" d="M2303.7,864.4l0.4,145l-61.6-28.6c-12.5-5.8-20.8-19.9-20.9-35.7l-0.1-16.2c-0.1-15.9,8.2-30.2,20.7-36.1
					L2303.7,864.4z"/>
			</g>
		</g>
		<g>
			<g>
				<g>
					
						<rect x="2338" y="627" transform="matrix(0.9998 -1.814013e-02 1.814013e-02 0.9998 -11.2438 43.8555)" class="st1" width="147.5" height="29.5"/>
				</g>
			</g>
			<g>
				<g>
					<path class="st2" d="M2195.3,644.2L2195.3,644.2c0.3,17.3,14.7,31.1,32,30.8l80.9-1.5c17.3-0.3,31.1-14.7,30.8-32v0
						c-0.3-17.3-14.7-31.1-32-30.8l-80.9,1.5C2208.8,612.6,2195,626.9,2195.3,644.2z"/>
				</g>
			</g>
			<g>
				<g>
					<path class="st6" d="M2341.3,631.1l0.4,22.2c0.1,6.7-5.2,12.2-11.8,12.3l0,0l-0.8-46.3l0,0
						C2335.7,619.1,2341.2,624.4,2341.3,631.1z"/>
				</g>
			</g>
			<g>
				<g>
					
						<rect x="2431.4" y="645.1" transform="matrix(0.9741 -0.2262 0.2262 0.9741 -107.8298 571.2136)" class="st6" width="14" height="222.1"/>
				</g>
			</g>
			<g>
				<g>
					
						<rect x="2471.2" y="634.5" transform="matrix(-1.815838e-02 -0.9998 0.9998 -1.815838e-02 1893.177 3139.4363)" class="st2" width="33.6" height="11.4"/>
				</g>
			</g>
			<g>
				<g>
					
						<rect x="2389.5" y="623.6" transform="matrix(0.9998 -1.854337e-02 1.854337e-02 0.9998 -11.4881 44.9131)" class="st6" width="53.3" height="36.7"/>
				</g>
			</g>
			<g>
				<g>
					<path class="st4" d="M2423.2,650c1.7-4.5-0.6-9.5-5.1-11.3c-4.5-1.7-9.5,0.6-11.3,5.1c-1.7,4.5,0.6,9.5,5.1,11.3
						C2416.5,656.8,2421.5,654.5,2423.2,650z"/>
				</g>
			</g>
			<g>
				<g>
					<path class="st22" d="M2419.7,648.7c1-2.5-0.3-5.4-2.8-6.3c-2.5-1-5.4,0.3-6.3,2.8c-1,2.5,0.3,5.4,2.9,6.3
						C2415.9,652.5,2418.7,651.2,2419.7,648.7z"/>
				</g>
			</g>
			<g>
				<g>
					<path class="st2" d="M2452.9,809.8c0-2.3,0.8-56.1,6-73.5c2.3-7.7,15.6-17.2,37-32.1c21.4-14.8,53.8-37.2,48.9-48.1
						c-9.1-20.3-51.7-19-52.1-18.9l-0.3-7.6c2-0.1,48.2-1.5,59.4,23.4c7.5,16.6-22.5,37.4-51.5,57.4c-15.2,10.5-32.4,22.4-34.1,28
						c-4.9,16.3-5.6,70.9-5.7,71.4L2452.9,809.8z"/>
				</g>
			</g>
			<g>
				<g>
					<path class="st1" d="M2442.5,770.2L2442.5,770.2c-10.2,2.4-16.6,12.7-14.2,22.9l13.4,56.8l37.1-8.7l-13.4-56.8
						C2462.9,774.1,2452.7,767.8,2442.5,770.2z"/>
				</g>
			</g>
			<g>
				<g>
					<path class="st6" d="M2455.8,792.6c2.1-5.6-0.7-11.8-6.3-13.9c-5.6-2.1-11.8,0.7-13.9,6.3c-2.1,5.6,0.7,11.8,6.3,13.9
						C2447.4,800.9,2453.7,798.1,2455.8,792.6z"/>
				</g>
			</g>
		</g>
		<g>
			<g>
				
					<rect x="2504.4" y="715.7" transform="matrix(-1 -1.224647e-16 1.224647e-16 -1 5212.0361 1548.1219)" class="st2" width="203.1" height="116.8"/>
			</g>
		</g>
		<g>
			<g>
				<path class="st2" d="M2464,715.7h197.1v116.8H2458V721.7C2458,718.4,2460.7,715.7,2464,715.7z"/>
			</g>
		</g>
		<g>
			<g>
				<g>
					<path class="st19" d="M2515.9,708.6c0-48.4,39.2-87.6,87.6-87.6c48.4,0,87.6,39.2,87.6,87.6c0,48.4-39.2,87.6-87.6,87.6
						C2555.1,796.2,2515.9,757,2515.9,708.6z"/>
				</g>
			</g>
			<g>
				<g>
					<rect x="2579.2" y="620.9" class="st19" width="29.9" height="175.2"/>
				</g>
			</g>
			<g>
				<g>
					
						<ellipse transform="matrix(0.7071 -0.7071 0.7071 0.7071 255.2255 2033.335)" class="st11" cx="2582.1" cy="708.6" rx="87.6" ry="87.6"/>
				</g>
			</g>
			<g>
				<g>
					<path class="st4" d="M2551.4,708.6c0-15.5,12.6-28.1,28.1-28.1c15.5,0,28.1,12.6,28.1,28.1c0,15.5-12.6,28.1-28.1,28.1
						C2564,736.7,2551.4,724.1,2551.4,708.6z"/>
				</g>
			</g>
			<g>
				<g>
					<circle class="st2" cx="2577.9" cy="708.3" r="11.1"/>
				</g>
			</g>
		</g>
		<g>
			<g>
				<path class="st4" d="M2516.1,811.7c0-6.8,5.5-12.3,12.3-12.3c6.8,0,12.3,5.5,12.3,12.3c0,6.8-5.5,12.3-12.3,12.3
					C2521.6,824,2516.1,818.5,2516.1,811.7z"/>
			</g>
		</g>
		<g>
			<g>
				<path class="st4" d="M2546.9,815.1c0-4.9,4-8.9,8.9-8.9s8.9,4,8.9,8.9c0,4.9-4,8.9-8.9,8.9S2546.9,820,2546.9,815.1z"/>
			</g>
		</g>
		<g>
			<g>
				<path class="st4" d="M2571,816.3c0-3.9,3.2-7.1,7.1-7.1c3.9,0,7.1,3.2,7.1,7.1c0,3.9-3.2,7.1-7.1,7.1
					C2574.2,823.4,2571,820.2,2571,816.3z"/>
			</g>
		</g>
		<g>
			<g>
				<path class="st4" d="M2590.8,817.8c0-3.1,2.5-5.6,5.6-5.6c3.1,0,5.6,2.5,5.6,5.6c0,3.1-2.5,5.6-5.6,5.6
					C2593.2,823.4,2590.8,820.9,2590.8,817.8z"/>
			</g>
		</g>
		<g>
			<g>
				<path class="st19" d="M2500,831.3h266.5c26.8,0,48.5,21.7,48.5,48.5v172.8c0,26.8-21.7,48.5-48.5,48.5H2500
					c-26.8,0-48.5-21.7-48.5-48.5V879.8C2451.5,853,2473.2,831.3,2500,831.3z"/>
			</g>
		</g>
		<g>
			<g>
				<path class="st11" d="M2158.2,864.3l145-0.4l-28.6,61.6c-5.8,12.5-19.9,20.8-35.7,20.8l-16.2,0.1c-15.9,0.1-30.2-8.2-36.1-20.7
					L2158.2,864.3z"/>
			</g>
		</g>
		<g>
			<g>
				<path class="st11" d="M2302.9,1008.8l-145,0.4l28.6-61.6c5.8-12.5,20-20.8,35.7-20.9l16.2-0.1c15.9-0.1,30.2,8.2,36.1,20.7
					L2302.9,1008.8z"/>
			</g>
		</g>
		<g>
			<g>
				<path class="st2" d="M2157.8,1009.5l-0.4-145l61.6,28.6c12.5,5.8,20.8,19.9,20.9,35.7l0.1,16.2c0.1,15.9-8.2,30.2-20.7,36.1
					L2157.8,1009.5z"/>
			</g>
		</g>
		<g>
			<g>
				<rect x="2307.5" y="873.9" class="st1" width="26" height="147.8"/>
			</g>
		</g>
		<g>
			<g>
				<path class="st11" d="M2376.5,831.3H2643c26.8,0,48.5,21.7,48.5,48.5v172.8c0,26.8-21.7,48.5-48.5,48.5h-266.5
					c-26.8,0-48.5-21.7-48.5-48.5V879.8C2328.1,853,2349.8,831.3,2376.5,831.3z"/>
			</g>
		</g>
		<g>
			<g>
				<g>
					<path class="st4" d="M2390.1,976.9V865.2c0-2.5,2-4.5,4.5-4.5h111.7c2.5,0,4.5,2,4.5,4.5v111.7c0,2.5-2,4.5-4.5,4.5h-111.7
						C2392.2,981.4,2390.1,979.4,2390.1,976.9z M2501.9,869.7h-102.7v102.7h102.7V869.7z"/>
				</g>
			</g>
		</g>
		<g>
			<g>
				<circle class="st4" cx="2351" cy="854.3" r="7.1"/>
			</g>
		</g>
		<g>
			<g>
				<path class="st4" d="M2339.3,1073.6c0-3.9,3.2-7.1,7.1-7.1c3.9,0,7.1,3.2,7.1,7.1s-3.2,7.1-7.1,7.1
					C2342.5,1080.8,2339.3,1077.5,2339.3,1073.6z"/>
			</g>
		</g>
		<g>
			<g>
				<path class="st4" d="M2659.9,858.8c0-3.9,3.2-7.1,7.1-7.1c3.9,0,7.1,3.2,7.1,7.1c0,3.9-3.2,7.1-7.1,7.1
					C2663.1,865.9,2659.9,862.7,2659.9,858.8z"/>
			</g>
		</g>
		<g>
			<g>
				<path class="st4" d="M2655.3,1078.1c0-3.9,3.2-7.1,7.1-7.1c3.9,0,7.1,3.2,7.1,7.1c0,3.9-3.2,7.1-7.1,7.1
					C2658.5,1085.3,2655.3,1082.1,2655.3,1078.1z"/>
			</g>
		</g>
		<g>
			<g>
				<path class="st4" d="M2488.7,880.4c0-2.6,2.1-4.7,4.7-4.7c2.6,0,4.7,2.1,4.7,4.7c0,2.6-2.1,4.7-4.7,4.7
					C2490.8,885.1,2488.7,883,2488.7,880.4z"/>
			</g>
		</g>
		<g>
			<g>
				<path class="st23" d="M2488.7,966.2c0-2.6,2.1-4.7,4.7-4.7c2.6,0,4.7,2.1,4.7,4.7c0,2.6-2.1,4.7-4.7,4.7
					C2490.8,970.9,2488.7,968.8,2488.7,966.2z"/>
			</g>
		</g>
		<g>
			<g>
				<circle class="st4" cx="2407.6" cy="880.4" r="4.7"/>
			</g>
		</g>
		<g>
			<g>
				<circle class="st4" cx="2407.6" cy="966.2" r="4.7"/>
			</g>
		</g>
		<g>
			<g>
				<g>
					<path class="st6" d="M2466.1,936.2c0-7.4,6-13.4,13.4-13.4c7.4,0,13.4,6,13.4,13.4c0,7.4-6,13.4-13.4,13.4
						C2472.1,949.6,2466.1,943.6,2466.1,936.2z"/>
				</g>
			</g>
			<g>
				<g>
					<path class="st2" d="M2474.8,936.2c0-2.6,2.1-4.7,4.7-4.7c2.6,0,4.7,2.1,4.7,4.7c0,2.6-2.1,4.7-4.7,4.7
						C2476.9,940.9,2474.8,938.8,2474.8,936.2z"/>
				</g>
			</g>
		</g>
		<g>
			<g>
				<g>
					<path class="st6" d="M2407.4,936.2c0-7.4,6-13.4,13.4-13.4c7.4,0,13.4,6,13.4,13.4c0,7.4-6,13.4-13.4,13.4
						C2413.4,949.6,2407.4,943.6,2407.4,936.2z"/>
				</g>
			</g>
			<g>
				<g>
					<path class="st2" d="M2416.1,936.2c0-2.6,2.1-4.7,4.7-4.7c2.6,0,4.7,2.1,4.7,4.7c0,2.6-2.1,4.7-4.7,4.7
						C2418.2,940.9,2416.1,938.8,2416.1,936.2z"/>
				</g>
			</g>
		</g>
		<g>
			<g>
				<path class="st6" d="M2439,862.6h27.8v36.9c0,7.7-6.2,13.9-13.9,13.9l0,0c-7.7,0-13.9-6.2-13.9-13.9V862.6z"/>
			</g>
		</g>
		<g>
			<g>
				<path class="st2" d="M2448.1,898.5c0-2.6,2.1-4.7,4.7-4.7s4.7,2.1,4.7,4.7c0,2.6-2.1,4.7-4.7,4.7S2448.1,901.1,2448.1,898.5z"/>
			</g>
		</g>
		<g>
			<g>
				<path class="st4" d="M2592.7,977.2c0-14.5,11.7-26.2,26.2-26.2s26.2,11.7,26.2,26.2c0,14.5-11.7,26.2-26.2,26.2
					S2592.7,991.7,2592.7,977.2z"/>
			</g>
		</g>
		<g>
			<g>
				<rect x="2691" y="756.1" class="st11" width="129.3" height="75.2"/>
			</g>
		</g>
		<g>
			<g>
				<rect x="2699.5" y="764.1" class="st17" width="110.9" height="60.3"/>
			</g>
		</g>
		<g>
			<g>
				<rect x="2260.3" y="904.5" class="st1" width="58.8" height="65.9"/>
			</g>
		</g>
		<g>
			<g>
				<path class="st4" d="M2258.7,903.9L2258.7,903.9c6,0,10.9,4.9,10.9,10.9V960c0,6-4.9,10.9-10.9,10.9l0,0
					c-6,0-10.9-4.9-10.9-10.9v-45.2C2247.8,908.8,2252.7,903.9,2258.7,903.9z"/>
			</g>
		</g>
	</g>
	<g>
		<g>
			<polygon class="st2" points="2770.7,951.3 2818.6,876.9 2862.7,875.6 2838.2,940.4 			"/>
		</g>
	</g>
	<g>
		<g>
			<polygon class="st11" points="2838.2,940.4 2793.7,940.6 2737.5,946.1 2728.2,951.3 2769.8,951.3 			"/>
		</g>
	</g>
	<g>
		<g>
			<polygon class="st11" points="2728.2,951.3 2728.2,890.9 2820.2,875.6 2795.7,940.4 			"/>
		</g>
	</g>
	<g>
		<g>
			<path class="st1" d="M2254.5,1212.9h162.4l113.3-55.5c8.6-4.2,12.2-14.7,8-23.3c-4.2-8.6-14.7-12.2-23.3-8l-106,52h-154.3
				c-9.6,0-17.4,7.8-17.4,17.4C2237.1,1205.1,2244.9,1212.9,2254.5,1212.9z"/>
		</g>
	</g>
	<g>
		<g>
			<path class="st2" d="M2202.6,1173H2346c2,0,3.6,1.6,3.6,3.6v35.6c0,2-1.6,3.6-3.6,3.6h-143.4c-11.8,0-21.4-9.6-21.4-21.4l0,0
				C2181.2,1182.6,2190.8,1173,2202.6,1173z"/>
		</g>
	</g>
	<g>
		<g>
			
				<rect x="2606" y="1112.7" transform="matrix(-1 -1.224647e-16 1.224647e-16 -1 5260.686 2239.2275)" class="st2" width="48.7" height="13.8"/>
		</g>
	</g>
	<g>
		<g>
			
				<rect x="2606" y="1138.3" transform="matrix(-1 -1.224647e-16 1.224647e-16 -1 5260.686 2290.4246)" class="st2" width="48.7" height="13.8"/>
		</g>
	</g>
	<g>
		<g>
			
				<rect x="2781.4" y="973.6" transform="matrix(-1 -1.224647e-16 1.224647e-16 -1 5580.2168 1956.7325)" class="st24" width="17.4" height="9.4"/>
		</g>
	</g>
	<g>
		<g>
			
				<rect x="2755.3" y="973.6" transform="matrix(-1 -1.224647e-16 1.224647e-16 -1 5527.9302 1956.7325)" class="st24" width="17.4" height="9.4"/>
		</g>
	</g>
	<g>
		<g>
			
				<rect x="2730.2" y="973.6" transform="matrix(-1 -1.224647e-16 1.224647e-16 -1 5477.8228 1956.7325)" class="st24" width="17.4" height="9.4"/>
		</g>
	</g>
	<g>
		<g>
			
				<rect x="2781.4" y="991.5" transform="matrix(-1 -1.224647e-16 1.224647e-16 -1 5580.2168 1992.4073)" class="st24" width="17.4" height="9.4"/>
		</g>
	</g>
	<g>
		<g>
			
				<rect x="2755.3" y="991.5" transform="matrix(-1 -1.224647e-16 1.224647e-16 -1 5527.9302 1992.4073)" class="st24" width="17.4" height="9.4"/>
		</g>
	</g>
	<g>
		<g>
			
				<rect x="2730.2" y="991.5" transform="matrix(-1 -1.224647e-16 1.224647e-16 -1 5477.8228 1992.4073)" class="st24" width="17.4" height="9.4"/>
		</g>
	</g>
	<g>
		<g>
			
				<rect x="2781.4" y="1007.7" transform="matrix(-1 -1.224647e-16 1.224647e-16 -1 5580.2168 2024.8148)" class="st24" width="17.4" height="9.4"/>
		</g>
	</g>
	<g>
		<g>
			
				<rect x="2755.3" y="1007.7" transform="matrix(-1 -1.224647e-16 1.224647e-16 -1 5527.9302 2024.8148)" class="st24" width="17.4" height="9.4"/>
		</g>
	</g>
	<g>
		<g>
			
				<rect x="2730.2" y="1007.7" transform="matrix(-1 -1.224647e-16 1.224647e-16 -1 5477.8228 2024.8148)" class="st24" width="17.4" height="9.4"/>
		</g>
	</g>
	<g>
		<g>
			
				<rect x="2498.9" y="1247.1" transform="matrix(-1 -1.224647e-16 1.224647e-16 -1 5153.5703 2537.698)" class="st2" width="155.8" height="43.6"/>
		</g>
	</g>
	<g>
		<g>
			<rect x="2568.1" y="1268.8" class="st2" width="17.3" height="735.9"/>
		</g>
	</g>
	<g>
		<g>
			<polygon class="st2" points="2716.5,2004.5 2579.2,1518.7 2433.1,2002.8 2416.5,1997.8 2579.8,1456.9 2733.1,1999.8 			"/>
		</g>
	</g>
</g>
<g>
	<g class="st25">
		<g>
			<g>
				<polygon class="st2" points="1061.5,741.5 882.1,741.5 604.5,741.5 534.1,987.7 811.8,987.7 991.2,987.7 1268.8,987.7 
					1339.1,741.5 				"/>
			</g>
		</g>
	</g>
	<g>
		<g>
			<polygon class="st1" points="1086.4,725.8 629.3,725.8 559,972 1016,972 			"/>
		</g>
	</g>
	<g>
		<g>
			<polygon class="st26" points="1364,725.8 907,725.8 836.7,972 1293.7,972 			"/>
		</g>
	</g>
	<g>
		<g>
			<path class="st9" d="M624.7,877.3l58-46.2c1.5-1.3,3-2.5,4.6-3.8c1.6-1.3,3-2.7,4.3-4.2c1.3-1.5,2.5-3.1,3.5-4.9
				c1-1.7,1.6-3.6,1.9-5.6c0.6-4.5-0.5-8-3.4-10.6c-2.9-2.6-6.5-3.8-10.9-3.8c-5.2,0-9.6,1.6-12.9,4.9c-3.4,3.2-5.5,7.2-6.5,12
				l-27.9-2.1c1.4-6.9,3.7-12.8,6.9-17.9c3.2-5.1,7.1-9.3,11.7-12.6c4.6-3.4,9.7-5.9,15.5-7.6c5.8-1.7,12-2.5,18.5-2.5
				c6,0,11.5,0.8,16.5,2.5s9.2,4.2,12.6,7.5c3.4,3.3,5.8,7.5,7.3,12.5c1.5,5,1.8,10.8,0.9,17.4c-1.3,8.5-3.9,15.4-7.9,20.9
				c-4,5.4-8.9,10.3-14.6,14.7l-45.1,34.6h58.8l-3.4,24.7h-92.5L624.7,877.3z"/>
		</g>
		<g>
			<path class="st9" d="M788.2,880.5h-57.9l3.4-23.6l65.7-82.4h30.7l-11.6,82.4h17l-3.4,23.6h-17.1l-3.6,26.6h-27L788.2,880.5z
				 M797.9,811.2h-0.4l-35.8,45.7h29.8L797.9,811.2z"/>
		</g>
	</g>
	<g>
		<g>
			<path class="st2" d="M907.3,798.3h29.1l31.8,67.5h0.3l9.5-67.5h21.4l-13.6,97.1h-28l-32.8-69.1h-0.3l-9.6,69.1h-21.4L907.3,798.3
				z"/>
		</g>
		<g>
			<path class="st2" d="M1019.8,798.3h66l-2.7,19.7h-44.6l-2.6,18.1h42.1l-2.7,19.7h-42.1l-2.8,19.7h47l-2.7,19.7h-68.4
				L1019.8,798.3z"/>
		</g>
		<g>
			<path class="st2" d="M1095.2,798.3h23.3l6.7,62.3h0.3l29.1-62.3h19.9l11.3,63.9h0.3l25.2-63.9h21.7l-42,97.1h-19.1l-12.1-67.2
				h-0.3l-30.7,67.2h-18.4L1095.2,798.3z"/>
		</g>
		<g>
			<path class="st2" d="M1287.2,822.1c-1.5-2.2-3.6-3.8-6.4-4.9c-2.8-1.1-5.6-1.6-8.2-1.6c-1.6,0-3.2,0.2-4.9,0.6
				c-1.7,0.4-3.4,0.9-4.9,1.7c-1.5,0.8-2.8,1.8-3.9,3.1c-1.1,1.3-1.8,2.8-2,4.7c-0.3,2.2,0.1,4,1.2,5.4c1,1.4,2.6,2.6,4.5,3.6
				c2,0.9,4.2,1.8,6.9,2.5c2.6,0.7,5.2,1.6,7.9,2.5c2.7,0.9,5.2,2,7.7,3.3c2.5,1.3,4.7,2.9,6.5,4.9c1.8,2,3.2,4.4,4,7.4
				c0.9,3,1,6.6,0.3,10.8c-0.7,5.4-2.4,10.1-5,14.1c-2.6,4-5.8,7.4-9.6,10c-3.8,2.7-8,4.6-12.7,5.9c-4.7,1.3-9.6,1.9-14.6,1.9
				c-6.3,0-12-1-17.1-2.9c-5.1-1.9-9.7-5-13.8-9.3l17.7-16.7c1.8,2.9,4.3,5.2,7.3,6.8c3.1,1.6,6.4,2.4,9.9,2.4
				c1.7,0,3.5-0.2,5.3-0.6c1.8-0.4,3.5-1,5.1-1.8c1.6-0.8,2.9-1.9,3.9-3.1c1-1.3,1.7-2.8,2-4.5c0.5-2.9-0.3-5.2-2.4-6.9
				c-2-1.7-4.7-3.1-7.9-4.3c-3.2-1.2-6.7-2.4-10.4-3.6c-3.7-1.2-7.2-2.8-10.3-4.8c-3.1-2-5.5-4.7-7.3-8c-1.8-3.3-2.3-7.6-1.6-13
				c0.7-5.2,2.4-9.8,5-13.7c2.6-3.9,5.8-7.2,9.7-9.9c3.8-2.6,8.1-4.6,12.7-6c4.7-1.3,9.4-2,14.1-2c5.5,0,10.7,0.8,15.6,2.3
				c4.9,1.6,9.1,4.2,12.7,7.8L1287.2,822.1z"/>
		</g>
	</g>
</g>
<g>
	<g>
		<g>
			<ellipse class="st27" cx="994.8" cy="1626.8" rx="88.9" ry="13.5"/>
		</g>
	</g>
	<g>
		<g>
			<ellipse class="st27" cx="994.8" cy="1818" rx="79.4" ry="18"/>
		</g>
	</g>
	<g>
		<g>
			<polygon class="st27" points="915.4,1818 906,1626.8 1083.7,1626.8 1074.3,1818 			"/>
		</g>
	</g>
	<g>
		<g>
			<ellipse class="st28" cx="995.3" cy="1629.7" rx="83.5" ry="11"/>
		</g>
	</g>
	<g>
		<g>
			<path class="st27" d="M892.2,1782.1h27.9c7.4,0,13.5-6,13.5-13.5c0-7.4-6-13.5-13.5-13.5h-27.4l-14-76.5c-0.1-0.6,0-1.2,0.5-1.6
				c0.4-0.5,1-0.6,1.6-0.6l31.7,3.3c7.4,0.8,14-4.6,14.8-12c0.8-7.4-4.6-14-12-14.8l-31.7-3.3c-9.1-1-17.9,2.4-24.1,9.1
				c-6.2,6.7-8.8,15.7-7.2,24.7l14.1,77.1C868.6,1773,879.5,1782.1,892.2,1782.1z"/>
		</g>
	</g>
</g>
<g>
	<g>
		<path class="st2" d="M2886.8,2024.9H593.1c-7.6,0-13.8-9.9-13.8-22c0-12.2,6.2-22,13.8-22h2293.7c7.6,0,13.8,9.9,13.8,22
			C2900.6,2015,2894.4,2024.9,2886.8,2024.9z"/>
	</g>
</g>
<g>
	<g>
		<polygon class="st27" points="1444.7,1791.8 1482.9,1813.4 1533.8,1702.7 1493.1,1686.1 		"/>
	</g>
</g>
<g>
	<g>
		<path class="st11" d="M1255.8,1078.4c-59.2,19.7-185,454.3-175.5,499.1c17,79.8,286.8,200.2,368.2,241l63.6-127.3l-249.4-162.9
			l48.4-157.8L1255.8,1078.4z"/>
	</g>
</g>
<g>
	<g>
		<path class="st2" d="M1314.5,1273.8C1314.5,1273.8,1314.5,1273.8,1314.5,1273.8c1.5-0.1,2.5-1.2,2.4-2.5
			c-5.7-132.6-61.7-190-62.3-190.6c-1-0.9-2.5-1-3.5,0c-1,1-1,2.5,0,3.5c0.6,0.6,55.2,56.9,60.8,187.3
			C1312.1,1272.8,1313.2,1273.8,1314.5,1273.8z"/>
	</g>
</g>
<g>
	<g>
		<g>
			<rect x="2109.5" y="1703.2" class="st17" width="13.9" height="130.7"/>
		</g>
	</g>
	<g>
		<g>
			<rect x="2027" y="1574.9" class="st6" width="173.1" height="7.5"/>
		</g>
	</g>
	<g>
		<g>
			<path class="st1" d="M2118,1394.7h-6.6c-37.4,0-68,30.6-68,68v153.7c0,37.4,30.6,68,68,68h6.6c37.4,0,68-30.6,68-68v-153.7
				C2186,1425.3,2155.4,1394.7,2118,1394.7z"/>
		</g>
	</g>
	<g>
		<g>
			<rect x="2138.5" y="1480.8" class="st17" width="47.3" height="6.4"/>
		</g>
	</g>
	<g>
		<g>
			<rect x="2138.5" y="1496.8" class="st17" width="47.3" height="6.4"/>
		</g>
	</g>
	<g>
		<g>
			<rect x="2138.5" y="1512.2" class="st17" width="47.3" height="6.4"/>
		</g>
	</g>
	<g>
		<g>
			<rect x="2138.5" y="1528.2" class="st17" width="47.3" height="6.4"/>
		</g>
	</g>
	<g class="st29">
		<g>
			<path class="st9" d="M2119.7,1420.2h-43.2c-0.7,0-1.3,0.6-1.3,1.3v102.8c0,0.7,0.6,1.3,1.3,1.3h43.2c0.7,0,1.3-0.6,1.3-1.3
				v-102.8C2120.9,1420.8,2120.4,1420.2,2119.7,1420.2z"/>
		</g>
	</g>
	<g>
		<g>
			<rect x="2138.5" y="1543.3" class="st17" width="47.3" height="6.4"/>
		</g>
	</g>
	<g>
		<g>
			<rect x="2138.5" y="1559.2" class="st17" width="47.3" height="6.4"/>
		</g>
	</g>
	<g>
		<g>
			<rect x="2043.7" y="1480.8" class="st17" width="47.3" height="6.4"/>
		</g>
	</g>
	<g>
		<g>
			<rect x="2043.7" y="1496.8" class="st17" width="47.3" height="6.4"/>
		</g>
	</g>
	<g>
		<g>
			<rect x="2043.7" y="1512.2" class="st17" width="47.3" height="6.4"/>
		</g>
	</g>
	<g>
		<g>
			<rect x="2043.7" y="1528.2" class="st17" width="47.3" height="6.4"/>
		</g>
	</g>
	<g>
		<g>
			<rect x="2043.7" y="1543.3" class="st17" width="47.3" height="6.4"/>
		</g>
	</g>
	<g>
		<g>
			<rect x="2043.7" y="1559.2" class="st17" width="47.3" height="6.4"/>
		</g>
	</g>
	<g>
		<g>
			
				<ellipse transform="matrix(0.7071 -0.7071 0.7071 0.7071 -506.7974 1962.3065)" class="st17" cx="2115.3" cy="1592.9" rx="9.3" ry="9.3"/>
		</g>
	</g>
	<g>
		<g>
			<g>
				<path class="st17" d="M2095.4,1397.5c-2,0.6-3.9,1.2-5.8,1.9v42.5h5.8V1397.5z"/>
			</g>
		</g>
		<g>
			<g>
				<path class="st17" d="M2123.6,1395.3c-1.9-0.2-3.9-0.4-5.8-0.5v47.1h5.8V1395.3z"/>
			</g>
		</g>
		<g>
			<g>
				<path class="st17" d="M2103.1,1395.7v46.2h5.8V1395C2107,1395.1,2105,1395.4,2103.1,1395.7z"/>
			</g>
		</g>
		<g>
			<g>
				<path class="st17" d="M2131.4,1396.7v45.2h5.8v-43.5C2135.3,1397.8,2133.3,1397.2,2131.4,1396.7z"/>
			</g>
		</g>
	</g>
	<g>
		<g>
			<path class="st17" d="M2114.3,1708.3c-51,0-92.5-41.5-92.5-92.5v-57.7c0-2.6,2.1-4.6,4.6-4.6c2.6,0,4.6,2.1,4.6,4.6v57.7
				c0,45.9,37.3,83.2,83.2,83.2c45.9,0,83.2-37.3,83.2-83.2v-56.9c0-2.6,2.1-4.6,4.6-4.6c2.6,0,4.6,2.1,4.6,4.6v56.9
				C2206.9,1666.8,2165.4,1708.3,2114.3,1708.3z"/>
		</g>
	</g>
	<g>
		<g>
			<rect x="2036.5" y="1815.9" class="st2" width="161.8" height="17.8"/>
		</g>
	</g>
</g>
<g>
	<g>
		<polygon class="st1" points="1056.3,1683 951,1683 934.8,1765 1040.1,1765 		"/>
	</g>
</g>
<g>
	<g>
		<path class="st9" d="M956.7,1733.5l19.3-15.4c0.5-0.4,1-0.8,1.5-1.3c0.5-0.4,1-0.9,1.4-1.4c0.4-0.5,0.8-1,1.2-1.6
			c0.3-0.6,0.5-1.2,0.6-1.9c0.2-1.5-0.2-2.7-1.1-3.5c-1-0.8-2.2-1.3-3.6-1.3c-1.7,0-3.2,0.5-4.3,1.6c-1.1,1.1-1.9,2.4-2.2,4
			l-9.3-0.7c0.5-2.3,1.2-4.3,2.3-6c1.1-1.7,2.4-3.1,3.9-4.2c1.5-1.1,3.2-2,5.2-2.5c1.9-0.6,4-0.8,6.1-0.8c2,0,3.8,0.3,5.5,0.8
			c1.7,0.6,3.1,1.4,4.2,2.5c1.1,1.1,1.9,2.5,2.4,4.1c0.5,1.7,0.6,3.6,0.3,5.8c-0.4,2.8-1.3,5.1-2.6,7c-1.3,1.8-3,3.4-4.9,4.9
			l-15,11.5h19.6l-1.1,8.2h-30.8L956.7,1733.5z"/>
	</g>
	<g>
		<path class="st9" d="M1011.1,1734.6h-19.3l1.1-7.9l21.9-27.4h10.2l-3.9,27.4h5.7l-1.1,7.9h-5.7l-1.2,8.8h-9L1011.1,1734.6z
			 M1014.3,1711.5h-0.1l-11.9,15.2h9.9L1014.3,1711.5z"/>
	</g>
</g>
</svg>
