<?xml version="1.0" encoding="utf-8"?>
<!-- Generator: Adobe Illustrator 23.0.6, SVG Export Plug-In . SVG Version: 6.00 Build 0)  -->
<svg version="1.1" id="Layer_1" xmlns="http://www.w3.org/2000/svg" xmlns:xlink="http://www.w3.org/1999/xlink" x="0px" y="0px"
	 viewBox="0 0 180.1 177.9" style="enable-background:new 0 0 180.1 177.9;" xml:space="preserve">
<style type="text/css">
	.st0{fill:#FF9600;}
</style>
<path class="st0" d="M79.9,97.1c0,5.6,0,11.2,0,16.8c0,5.5,3.4,10,8.5,11.6c5.1,1.6,10.3-0.3,13.4-4.7c1.4-2.1,2.1-4.3,2.1-6.9
	c0-3,0-6,0-9c0-0.9,0.3-1.1,1.2-1.1c9.2,0,18.4,0,27.6,0c0.7,0,1.2,0,1.2,0.9c-0.2,6.8,0.3,13.5-1.4,20.2c-4.5,17-20,30-37.4,31
	c-18.9,1.1-35.6-9.4-42.3-26.3c-2.6-6.6-3.1-13.5-2.9-20.4c0.1-4.6,0.1-9.1,0-13.7c0-2.9-1.4-4.6-4.3-5.5c-0.7-0.2-0.9-0.5-0.9-1.2
	c0-9.7,0-19.4,0-29.1c0-0.6,0-1.2,0.8-1.1c5.2,0.2,10.4-0.5,15.5,0.4C71.9,60.7,79.7,70.1,79.8,81C79.9,86.4,79.8,91.7,79.9,97.1
	C79.9,97.1,79.9,97.1,79.9,97.1z"/>
<path class="st0" d="M118.2,98c-6.2,0-12.3,0-18.5,0c-2.3,0-3-0.7-3-3c0-2.3,0-4.7,0-7c0-2,0.8-2.7,2.7-2.7c3.7-0.1,3.7-0.1,3.7-3.9
	c0-7,0-14,0-21c0-15,11.5-26.4,26.5-26.4c2.6,0,5.2,0,7.8,0c1,0,1.4,0.3,1.4,1.3c0,9.2,0,18.4,0,27.7c0,0.9-0.2,1.1-1.1,1.2
	c-2.9,0.5-4.4,2.3-4.5,5.2c0,4.8,0,9.6,0,14.4c0,1.1,0.3,1.5,1.4,1.4c0.8-0.1,1.6,0,2.3,0c2,0,2.7,0.8,2.7,2.7c0,2.4,0,4.9,0,7.3
	c0,1.9-0.8,2.7-2.6,2.7C130.8,98,124.5,98,118.2,98C118.2,98,118.2,98,118.2,98z"/>
<path class="st0" d="M157.3,48.6c0,6.2,0,12.3,0,18.5c0,2.3-0.6,3-2.9,3c-2.4,0-4.9,0-7.3,0c-1.7,0-2.5-0.8-2.5-2.5
	c0-12.6,0-25.3,0-37.9c0-1.8,0.8-2.6,2.5-2.6c2.5,0,5,0,7.5,0c2,0,2.7,0.7,2.7,2.7C157.3,36.1,157.3,42.3,157.3,48.6z"/>
<path class="st0" d="M39,73.8c0,5.7,0,11.5,0,17.2c0,2.4-0.5,2.8-2.8,2.8c-2.3,0-4.7,0-7,0c-1.9,0-2.4-0.6-2.4-2.4
	c0-11.8,0-23.6,0-35.4c0-1.8,0.6-2.4,2.4-2.4c2.4,0,4.9,0,7.3,0c2,0,2.5,0.5,2.5,2.5C39,62,39,67.9,39,73.8C39,73.8,39,73.8,39,73.8
	z"/>
</svg>
