<?xml version="1.0" encoding="utf-8"?>
<!-- Generator: Adobe Illustrator 23.0.6, SVG Export Plug-In . SVG Version: 6.00 Build 0)  -->
<svg version="1.1" id="Layer_1" xmlns="http://www.w3.org/2000/svg" xmlns:xlink="http://www.w3.org/1999/xlink" x="0px" y="0px"
	 viewBox="0 0 180.1 177.9" style="enable-background:new 0 0 180.1 177.9;" xml:space="preserve">
<style type="text/css">
	.st0{fill:#FF9600;}
</style>
<path class="st0" d="M53.6,43.9c1.8-0.1,3.3,1.3,4.7,2.4c4.5,3.4,8.9,5.1,13.9,0.9c0.2-0.2,0.6-0.4,0.9-0.4
	c7.4-0.7,9.4-5.9,10.4-12.2c0.7-4.5,1.8-5.1,6.2-5.1c12.2-0.1,10-0.1,12.3,9.4c1,3.9,2.4,6.2,6.5,7c2.5,0.5,4.9,1.7,7,3
	c2.3,1.4,4.1,1.5,6.2-0.1c2-1.5,4.4-2.6,6.5-4c1.4-0.9,3.1-1.5,4.4-0.6c3.2,2.2,6,5,8.2,8.2c0.9,1.4,0.5,3-0.4,4.4
	c-1.6,2.6-3,5.2-4.7,7.7c-1,1.5-0.9,2.7,0,4.3c2,3.2,3.5,6.8,4.4,10.5c0.5,2.1,1.6,2.9,3.5,3.3c2.8,0.6,5.6,1.4,8.4,2.1
	c2.4,0.6,3.6,2.1,3.6,4.5c0,0.1,0,0.2,0,0.3c0,12.9,1.2,10.9-10.2,13.7c-3.3,0.8-5.3,1.9-5.9,5.5c-0.6,3.2-2.1,6.1-3.8,8.9
	c-1,1.5-0.9,2.8,0.1,4.3c1.6,2.4,2.9,5,4.5,7.4c1.4,2.2,1.3,4.2-0.4,6.1c-1.8,1.9-3.8,3.8-5.7,5.7c-1.9,1.8-3.9,1.8-6.1,0.4
	c-2.9-1.9-5.7-4.3-9-5.1c-3.2-0.7-5.8,2.9-9,3.4c-5.8,0.9-8.5,4.4-8.9,10c-0.1,1.1-0.4,2.2-0.7,3.3c-2,6.1-7.3,3.1-11.2,3.7
	c-2.9,0.4-5.3-0.5-6-3.8c-0.6-2.6-1.4-5.2-1.9-7.8c-0.4-2.3-1.3-3.5-3.7-4c-3.1-0.6-6.1-1.7-8.6-3.5c-2.9-2.1-5.2-1.6-7.7,0.4
	c-0.5,0.4-1.1,0.7-1.7,1c-2.6,1.1-4.6,4.4-7.7,3.2c-3.8-1.5-6.2-5-8.7-8.1c-1.2-1.4-0.9-3.3,0.3-4.7c5.1-5.9,5.6-11.5,1.9-18.8
	c-2.4-4.7-4.5-7.3-9.6-8.2c-7.6-1.4-7.7-1.4-7.5-9.7c0-1.2,0-2.5,0-3.7c0-2.5,1.2-4.2,3.7-4.4c7.7-0.7,12.1-4.2,14.6-12
	c1.6-5,1.9-8.3-0.9-12.6c-4.3-6.5-4.1-6.7,1.7-12.4C49.3,46.2,50.6,43.9,53.6,43.9z M126.6,93.3c0-19.1-15.4-34.5-34.4-34.5
	c-19,0-34.4,15.5-34.4,34.6c0,19,15.6,34.4,34.6,34.3C111.3,127.6,126.7,112.2,126.6,93.3z"/>
<path class="st0" d="M64.4,93.9c4.9,2.3,9.7,4.6,14.6,6.7c4.8,2.1,9.2,1.2,13-2.3c3.5-3.3,4.6-8.5,2.8-12.9c-1.3-3.3-3.8-5.4-7-6.9
	c-4.5-2.1-9-4.2-14-6.5c8.9-6.1,17.8-5.8,26.7-2.3c8.1,3.2,12.2,9.7,12.4,18.2c0.1,4,1.4,5.9,4.9,6.9c0.5,0.2,1,0.5,1.5,0.7
	c5.8,2.7,5.8,2.7,3.6,8.8c-1.3,3.5-3.1,6.6-5.4,9.6c-1,1.3-1.9,1.7-3.4,0.7c-5.5-3.7-10.3-4.2-16.1,0.5c-5.3,4.3-12.3,3.8-18.4,0.6
	c-7.1-3.6-12.4-9.1-14.9-16.8C64.2,97.3,63.9,95.8,64.4,93.9z"/>
</svg>
