<?xml version="1.0" encoding="utf-8"?>
<!-- Generator: Adobe Illustrator 23.0.6, SVG Export Plug-In . SVG Version: 6.00 Build 0)  -->
<svg version="1.1" id="Layer_1" xmlns="http://www.w3.org/2000/svg" xmlns:xlink="http://www.w3.org/1999/xlink" x="0px" y="0px"
	 viewBox="0 0 180.1 177.9" style="enable-background:new 0 0 180.1 177.9;" xml:space="preserve">
<style type="text/css">
	.st0{fill:#FF9600;}
</style>
<path class="st0" d="M52.3,22.7c8.3,11.7,16.7,23.3,25,35c9.7,13.5,19.4,27,29.1,40.5c0.9,1.2,4.9,2.2,6.2,1.5
	c0.3-0.2,0.4-0.4,0.3-0.7c-0.1-0.3-0.2-0.7-0.3-1c-2.4-5-3-10.2-2.8-15.7c0.2-5,0.1-10.1,0-15.1c0-1.6,0.5-1.9,2-1.9
	c11.9,0.1,23.9,0.1,35.8,0c1.5,0,1.9,0.5,1.9,1.9c0,15.5,0,30.9,0,46.4c0,1.5-0.4,2-2,2c-4-0.1-8,0-12-0.1c-1.3,0-2,0.2-2,1.8
	c0,3.5-0.1,3.5-3.6,3.5c-11.2,0-22.5,0-33.7,0c-1.8,0-2.4-0.5-2.1-2.2c0-0.3,0-0.7,0-1c0.2-1.6-0.3-2.2-2-2.1c-2.3,0.1-4.7,0-7,0.1
	c-1.1,0-1.7-0.3-1.6-1.5c0.1-1.1-0.2-2-0.7-3c-10-19.2-20-38.4-29.9-57.6c-0.2-0.4-0.3-0.8-1.1-1.1c0,2.2,0,4.3,0,6.4
	c0,3.4,0,6.8,0,10.1c0,1.3,0.4,2,1.8,1.8c2-0.3,2.2,0.5,1.8,2.3c-1.1,4.8-2,9.7-2.9,14.6c-0.2,1-0.5,1.7-1.7,1.5
	c-1.4-0.2-1.6,0.6-1.6,1.7c0.1,1.6,0,3.2,0,4.8c0.1,2-0.6,3.2-2.6,3.8c-2.2,0.7-3,2.7-2,4.4c0.4,0.8,1,1.4,1.9,0.5
	c0.2-0.2,0.7-0.5,0.9-0.4c2,0.9,2.3-0.4,2.6-1.9c0.3-1.3,1.4-1.9,2.7-1.8c1.3,0.1,2.1,1,2.3,2.3c0.2,1.5-0.1,3-0.9,4.2
	c-0.9,1.3-0.3,1.8,0.6,2.5c4.3,3.5,8.6,6.9,12.9,10.4c0.3,0.3,0.6,0.5,1.1,1c-1.9,0.3-3.4,0.6-4.9-0.7c-3.6-3.1-7.4-6-11.1-9
	c-0.9-0.8-1.7-1.2-2.9-0.6c-1.1,0.5-2.4,0.6-3.5,0.2c-1.8-0.6-3,0.1-4.2,1.2c-2.9,2.6-5.9,5-8.7,7.6c-1.6,1.5-3.2,1.9-5.2,1.5
	c-0.1-0.7,0.5-0.9,0.9-1.2c3.7-3.3,7.5-6.5,11.3-9.7c0.9-0.8,1.3-1.2,0.4-2.4c-2.9-3.9-2-9,2-11.8c1.6-1.1,2-5.2,0.5-6.4
	c-0.5-0.4-0.5-0.7-0.6-1.2c-0.8-5.3-1.5-10.5-2.3-15.8c-0.2-1.4,0.4-1.6,1.5-1.4c1.9,0.3,2.3-0.5,2.3-2.3c-0.1-9.4-0.1-18.8,0-28.1
	c0-2.7-0.5-5-1.9-7.2c-1.9-3-1.8-3,1.2-4.8c3-1.8,6.1-3.4,8.9-5.6C52,22.7,52.2,22.7,52.3,22.7z M129.3,91.8
	C129.3,91.8,129.3,91.8,129.3,91.8c2.7,0,5.4,0,8.1,0c0.8,0,1.5,0,1.5-1.1c0-4.5,0-9.1,0-13.6c0-0.8-0.3-1.1-1.1-1.1
	c-5.4,0-10.7,0-16.1,0c-1.1,0-1.4,0.5-1.4,1.5c0,4.3,0,8.5,0,12.8c0,1.2,0.4,1.6,1.6,1.5C124.4,91.8,126.8,91.8,129.3,91.8z
	 M86.5,104.6c0.1,0.1,0.2,0.2,0.4,0.3c4.2-2.4,8.3-4.8,12.5-7.2c0.7-0.4,0.9-0.8,0.4-1.5c-1.7-2.2-3.4-4.5-5-6.8
	c-0.6-0.8-1-0.5-1.3,0.2C91.1,94.6,88.8,99.6,86.5,104.6z M46.6,42.2c-0.1,0.7-0.2,0.9-0.2,1.2c0,8.6,0,17.1,0,25.7
	c0,1,0.1,1.7,1.4,1.7c1.5,0,1.2-1,1.2-1.8c0-6.5-0.1-13,0.1-19.4C49.2,46.8,48.3,44.6,46.6,42.2z M89.1,84c-0.1-0.1-0.2-0.2-0.3-0.3
	c-3.4,2.4-6.8,4.8-10.1,7.2c-0.5,0.3-0.4,0.8-0.2,1.3c1.3,2.3,2.6,4.6,4.2,7.3C84.9,94.1,87,89.1,89.1,84z M81.8,72
	c-1.8,4.7-3.5,9.1-5.2,13.5c3.5-1.7,6.6-3.7,9.7-5.7c0.6-0.4,0.6-0.8,0.2-1.4C84.9,76.3,83.5,74.3,81.8,72z M72.5,82.5
	c1.8-4.9,3.5-9.4,5.2-13.8c-3.1,1.6-5.9,3.5-8.6,5.4c-0.5,0.3-0.5,0.7-0.2,1.2C70,77.5,71.1,79.8,72.5,82.5z M66.4,68.1
	c2.9-1.9,5.2-3.3,7.5-4.8c0.6-0.4,1-0.7,0.5-1.5c-1.6-2.3-3.2-4.7-5.1-7.5C68.3,59.1,67.4,63.3,66.4,68.1z M54.4,49.8
	c2.8-1.8,4.9-3.2,7.1-4.6c0.4-0.3,1-0.6,0.7-1.3c-1.5-2.6-2.9-5.1-4.7-8.2C56.4,40.7,55.5,44.9,54.4,49.8z M62.7,63
	c0.2,0,0.3,0,0.5,0c0.9-4.2,1.8-8.4,2.8-13.1c-2.6,1.7-4.7,3.1-6.9,4.5c-0.7,0.4-0.7,0.9-0.3,1.6C60.2,58.3,61.4,60.6,62.7,63z
	 M53.7,31.2c-0.1-0.1-0.2-0.3-0.4-0.4c-2,1.3-4,2.6-6,3.9c-0.4,0.3-0.5,0.6-0.3,1.1c1.3,2.5,2.6,5,4.2,8
	C52.2,39.1,53,35.1,53.7,31.2z"/>
<path class="st0" d="M84.2,155.2c-1.3-0.4-2.6-0.7-3.9-1.2c-2.8-1.1-4.6-3.2-4.7-6.2c-0.1-4.4-0.2-8.8,0-13.2c0.2-4.8,4-7.8,9.7-8.3
	c1.2-0.1,2.5-0.1,3.7-0.1c18.3,0,36.5,0,54.8,0c1,0,2.1,0,3.1,0.1c4,0.4,7,2.9,7.5,6.8c0.6,4.7,0.5,9.5,0,14.2
	c-0.5,4.1-2.9,6.7-6.8,7.9C126.4,155.2,105.3,155.2,84.2,155.2z M115,144.6c9,0,18.1-0.1,27.1,0c1.8,0,2.3-0.6,2.1-2.2
	c-0.1-1.1-0.1-2.2,0-3.3c0.2-1.9-0.4-2.6-2.5-2.5c-16.7,0.1-33.3,0-50,0c-5.8,0-5.8,0-5.8,5.8c0,1.7,0.5,2.2,2.2,2.2
	C97.1,144.6,106.1,144.6,115,144.6z"/>
<path class="st0" d="M46.5,141.9c-6.4,0-12.8-0.1-19.2,0c-1.7,0-2.2-0.5-2-2.1c0.1-0.5,0.1-1,0-1.4c-0.1-1.3,0.3-1.8,1.7-1.8
	c3.6,0,3.6-0.1,3.6-3.6c0-0.3,0-0.6,0-0.8c0-3.4,0-3.5-3.5-3.4c-1.5,0-2-0.5-1.8-1.9c0.1-0.5,0.1-1,0-1.4c-0.2-1.6,0.5-1.9,2-1.9
	c8.1,0.1,16.3,0,24.4,0c4.6,0,9.2,0.1,13.8,0c1.7,0,2.3,0.5,2,2.1c-0.1,0.5-0.1,1.1,0,1.7c0.1,1.2-0.4,1.5-1.5,1.5
	c-3.8,0.1-3.8,0.1-3.8,4c0,0.1,0,0.1,0,0.2c0,3.6,0,3.7,3.6,3.7c1.4,0,1.9,0.5,1.7,1.8c-0.1,0.4-0.1,0.8,0,1.2
	c0.3,1.8-0.4,2.4-2.2,2.3C59.1,141.9,52.8,141.9,46.5,141.9z"/>
</svg>
