<?xml version="1.0" encoding="utf-8"?>
<!-- Generator: Adobe Illustrator 23.0.6, SVG Export Plug-In . SVG Version: 6.00 Build 0)  -->
<svg version="1.1" id="Layer_1" xmlns="http://www.w3.org/2000/svg" xmlns:xlink="http://www.w3.org/1999/xlink" x="0px" y="0px"
	 viewBox="0 0 180.1 177.9" style="enable-background:new 0 0 180.1 177.9;" xml:space="preserve">
<style type="text/css">
	.st0{fill:#FF9600;}
</style>
<g>
	<path class="st0" d="M139,86.6c3-3,5.8-5.8,8.6-8.6c0.6-0.6,1.2-1.1,1.9-1.5c2.1-1.1,4.7,0.1,5.3,2.5c0.2,0.8,0.2,1.7,0.2,2.6
		c0,23,0,45.9,0,68.9c0,3.4-0.6,4-4,4c-23,0-46.1,0-69.1,0c-0.5,0-0.9,0-1.4,0c-1.7-0.1-3-0.9-3.6-2.5c-0.7-1.6-0.2-3,1-4.2
		c3.6-3.6,7.1-7.2,10.7-10.7c0.4-0.4,1-0.8,1.5-1.2c-0.8-0.8-1.4-0.5-2-0.5c-15.9,0-31.8,0-47.7,0c-7.7,0-13.6-4.9-15-12.3
		c-0.2-1.1-0.2-2.3-0.2-3.4c0-26.8,0-53.5,0-80.3c0-9.5,6.2-15.7,15.7-15.8c3.1,0,6.2,0,9.3,0c2.5,0,3.3,0.8,3.3,3.3
		c0,6.7,0,13.3,0,20c0,1.4,0.4,1.7,1.7,1.7c19.3,0,38.6,0,57.9,0c1.1,0,1.8-0.3,2.6-1.1c6.4-6.4,12.8-12.8,19.2-19.3
		c4.5-4.5,9.7-4.5,14.2,0c0.8,0.8,1.6,1.5,2.3,2.3c3.6,3.7,3.6,8.9,0,12.7c-3.8,3.9-7.7,7.7-11.6,11.6c-0.6,0.6-1,1.1-1,2
		c0,9.6,0,19.3,0,28.9C138.9,85.8,138.9,86,139,86.6z M87.7,144.7c0-0.2,0-0.4,0-0.6c0.3,0.2,0.5,0.1,0.8,0.1
		c2.1-0.3,3.2,0.5,3.2,2.6c0,0.5,0.1,1,0,1.5c-0.1,1.1,0.4,1.4,1.4,1.3c0.5,0,1-0.1,1.5,0c1.1,0.1,1.5-0.2,1.5-1.4
		c0-1.5,0.8-2.5,2.4-2.6c1.4-0.1,2.4,0.9,2.5,2.5c0,1.2,0.4,1.5,1.6,1.5c2.7,0,2.7,0,2.8-2.7c0-0.2,0-0.5,0-0.7
		c0.2-1.5,1.1-2.3,2.5-2.3c1.4,0,2.2,0.9,2.4,2.3c0.1,0.5,0.1,0.9,0,1.4c-0.3,1.7,0.5,2.3,2.1,2c0.2,0,0.3,0,0.5,0
		c1.2,0.1,1.9-0.1,1.9-1.6c-0.1-1.5,0.9-2.3,2.4-2.4c1.4-0.1,2.5,1,2.4,2.5c0,1.3,0.5,1.5,1.6,1.5c2.4-0.1,2.4,0,2.5-2.4
		c0-0.3,0-0.7,0-1c0.1-1.4,1-2.2,2.4-2.3c1.3-0.1,2.4,0.9,2.5,2.3c0.1,0.5,0.1,0.9,0,1.4c-0.2,1.5,0.3,2.1,1.9,2
		c1.5-0.1,2.8,0.1,2.7-2.1c-0.1-1.2,1.1-2,2.4-1.9c1.4,0.1,2.3,0.9,2.3,2.3c0,1.4,0.4,1.7,1.8,1.7c2.7-0.1,2.7,0,2.7-2.7
		c0-0.3,0-0.6,0-0.9c0.3-1.4,1.2-2.1,2.6-2.1c1.3,0.1,2.1,0.8,2.3,2.2c0.1,0.7,0.1,1.4,0,2.1c-0.2,1.6,0.8,1.6,1.8,1.4
		c1.2-0.2,0.7-1.2,0.7-1.8c-0.2-21.2-0.3-42.5-0.5-63.7c0-0.4,0.2-0.9-0.3-1.4c-0.4,0.4-0.8,0.8-1.2,1.2
		c-19.4,19.4-38.9,38.9-58.3,58.3c-0.6,0.6-1.3,1.3-2,1.9C87.7,144.3,87.7,144.5,87.7,144.7c-0.2,0-0.4,0-0.5,0.3
		c-1.7,1.2-3,2.9-4.9,4.7c1.5,0,2.4-0.1,3.3,0c1,0.1,1.4-0.3,1.4-1.3c-0.1-1.1-0.1-2.3,0.3-3.4C87.3,144.8,87.5,144.8,87.7,144.7z
		 M109.4,53.3c-0.8,0-1.4,0-2.1,0c-17.1,0-34.1,0-51.2,0c-2.5,0-2.5,0-2.5,2.4c0,17,0,34,0,51c0,2.8-0.7,3.5-3.5,3.5
		c-3.3,0-6.7,0-10,0c-4.1,0.1-7.3,1.9-9.2,5.6c-3.5,6.9,1.6,14.5,9.7,14.5c17.7,0,35.4,0,53.1,0c1.1,0,1.8-0.4,2.5-1.1
		c12.1-12.2,24.2-24.3,36.4-36.5c0.8-0.8,1-1.5,1-2.6c0-9.2,0-18.5,0-27.7c0-0.5,0.2-1-0.2-1.6c-0.5,0.4-0.9,0.9-1.4,1.3
		c-8.2,8.2-16.3,16.3-24.5,24.5c-0.6,0.6-1.1,1.2-1.9,1.4c-5.9,1.8-11.7,3.7-17.6,5.4c-2.1,0.6-3.6-1-3.2-3.1
		c0.1-0.4,0.2-0.8,0.3-1.2c1.6-5.3,3.3-10.5,4.9-15.8c0.3-1,0.9-1.7,1.6-2.4c5.5-5.5,11-10.9,16.5-16.4
		C108.6,54.4,109.1,54.1,109.4,53.3z M29.9,109.4c4-3.5,8.4-4.1,13-3.8c1.2,0.1,2.4-0.1,3.6,0c1.7,0.2,2.1-0.4,2.1-2.1
		c-0.1-24.4,0-48.8,0-73.2c0-0.4,0-0.8,0-1.2c0-0.4-0.2-0.7-0.6-0.7c-3.5,0.1-7.1-0.5-10.6,0.3c-4.7,1.1-7.4,5-7.4,10.1
		c0,23,0,45.9,0,68.9C29.9,108.1,29.9,108.5,29.9,109.4z M104.1,83.1c0.5,0,0.8-0.4,1.1-0.7c11-10.9,21.9-21.9,32.9-32.8
		c0.8-0.8,0.7-1.2-0.1-1.9c-2.4-2.3-4.8-4.7-7.1-7.1c-0.7-0.8-1.2-0.7-1.9,0c-10.9,10.9-21.8,21.9-32.8,32.8
		c-0.9,0.9-0.8,1.5-0.1,2.3c0.5,0.6,1.1,1.3,1.9,1.4c2.1,0.2,3.1,1.4,3.5,3.4C101.9,81.7,102.9,82.6,104.1,83.1z M149.2,36.7
		c0-1.2-0.4-2.1-1.2-3c-0.9-1-1.9-2-2.9-2.9c-1.9-1.8-4.3-1.7-6.2,0.1c-1.6,1.5-3.1,3.1-4.6,4.6c-0.6,0.6-0.7,1,0,1.6
		c2.5,2.4,5,4.9,7.4,7.4c0.6,0.6,0.9,0.6,1.5,0c1.5-1.6,3.2-3.2,4.7-4.8C148.8,38.9,149.3,37.9,149.2,36.7z M93.4,80
		c-0.8,2.5-1.5,4.9-2.4,7.7c2.8-0.9,5.3-1.6,7.7-2.4C97.8,82.6,96.1,81,93.4,80z"/>
	<path class="st0" d="M142,123.4c0,4.8,0,9.6,0,14.5c0,2.7-0.8,3.5-3.4,3.5c-9.6,0-19.3,0-28.9,0c-1.3,0-2.6-0.1-3.1-1.6
		c-0.6-1.4,0.2-2.4,1.2-3.3c9.8-9.8,19.7-19.6,29.5-29.5c1-1,1.9-1.9,3.4-1.2c1.4,0.6,1.4,1.9,1.4,3.2
		C142,113.8,142,118.6,142,123.4z M137,114.7c-7.3,7.3-14.6,14.6-21.9,21.9c6.8,0,13.9,0,20.9,0c1.1,0,1-0.7,1-1.4
		c0-2.9,0-5.7,0-8.6C137,122.5,137,118.5,137,114.7z"/>
</g>
</svg>
