<?xml version="1.0" encoding="utf-8"?>
<!-- Generator: Adobe Illustrator 23.0.6, SVG Export Plug-In . SVG Version: 6.00 Build 0)  -->
<svg version="1.1" id="Layer_1" xmlns="http://www.w3.org/2000/svg" xmlns:xlink="http://www.w3.org/1999/xlink" x="0px" y="0px"
	 viewBox="0 0 180.1 177.9" style="enable-background:new 0 0 180.1 177.9;" xml:space="preserve">
<style type="text/css">
	.st0{fill:#FF9600;}
</style>
<path class="st0" d="M159.3,99.4c-1.9,0.9-4,1-6.1,1c-11.3,0-22.7,0-34-0.1c-2.5,0-3.8,0.2-3.4,3.4c0.4,3.5-1.5,6.5-4.9,7.5
	c-3,0.8-3,2.6-3,5c0.1,10.8,0,21.7,0,32.5c0,2,0.4,4.9-2.6,4.8c-2.5-0.1-2.3-2.7-2.3-4.6c0-11-0.1-22,0.1-33c0-2.9-0.7-3.9-3.8-3.8
	c-16.7,0.2-33.3,0.1-50,0c-3.1,0-4.2,0.8-4.2,4.1c0.2,10.5,0.1,21,0.1,31.6c0,1.3,0,2.6-0.2,3.9c-0.2,1.2-0.9,2.1-2.3,2.1
	c-1.4,0-2-1-2.2-2.2c-0.2-1.9-0.2-3.9-0.2-5.8c0-9.9,0-19.8,0-29.6c0-2.5-0.4-4.4-2.6-6.3c-4.1-3.6-3.8-9.4,0.9-12.4
	c2.6-1.7,2.5-3.3,1.9-5.5c-1.5-5.8-2.9-11.6-4.3-17.4c-0.5-2.3-1.1-4.6,2.5-5c3-0.4,1-2.2,0.6-3.1c-2.2-4.9-3.3-10.1-4.1-15.4
	c-0.2-1.5-0.4-3,1.2-3.8c1.3-0.7,2.5-0.1,3.6,0.8c2.9,2.5,5.9,5,9.1,7.8c1.3-5.8,2-11.5,4.3-16.8c0.7-1.4,1-3.3,3-3.3
	c2,0,2.4,1.8,3,3.3c2.4,5.3,3.2,11,4.4,17.1c3-2.7,5.6-5.1,8.3-7.4c1.2-1,2.6-2.3,4.3-1.5c2.2,1,1.3,3.1,1.2,4.7
	c-0.4,4.9-2.1,9.4-3.9,14.7c7.1,0,13.8,0,20.5,0c2.7,0,1.9-2.2,1.9-3.6c0.1-9.1,0.1-18.1,0-27.2c0-2.1,0-4.2,1-6.1
	c19.8,0,39.5,0.1,59.3-0.1c2.4,0,3,0.5,3,3C159.2,54.7,159.3,77.1,159.3,99.4z M154.4,65.2c0-9.1-0.1-18.1,0-27.2
	c0-2.6-0.4-3.7-3.4-3.7c-15.5,0.1-31.1,0.1-46.6,0c-2.8,0-3.6,0.8-3.5,3.6c0.2,8.4,0.1,16.8,0,25.3c0,2.2,0.4,3.5,2.7,4.3
	c3.1,1.1,5.3,3.6,5.2,6.9c-0.1,5.9,2.7,11.5,1.7,17.4c-0.5,2.9,0.6,3.9,3.7,3.9c12.1-0.2,24.3-0.2,36.4,0c2.9,0,3.9-0.7,3.8-3.8
	C154.3,83,154.4,74.1,154.4,65.2z M75.4,107.2c10,0,20,0,30,0c2.5,0,5.3,0.2,5.4-3.2c0.1-3.4-2.5-3.6-5.1-3.6c-20.2,0-40.4,0-60.6,0
	c-2.6,0-5.3,0.2-5.2,3.5c0.1,3.2,2.9,3.3,5.4,3.3C55.3,107.2,65.4,107.2,75.4,107.2z M59.6,95.5c-1.8-6.1-1-10.9,4.4-14.4
	c2.1-1.4,0.9-3.9,0.7-5.8c-0.2-1.8-2.1-1.1-3.2-1.1c-5.7-0.1-11.3,0-17-0.1c-2.3,0-3.3,0.5-2.7,3c1.4,5.3,2.6,10.7,3.9,16
	c0.4,1.6,1.1,2.5,3,2.5C52.2,95.5,55.7,95.5,59.6,95.5z M92.5,95.5c1.9,0,3.9,0,5.8,0c8.1,0,8,0,7.4-7.9c-0.2-2.1-0.8-2.8-2.9-2.8
	c-6.9,0.1-13.9,0-20.8,0.1c-3.4,0.1-5.6,1.9-5.5,5.4c0.1,3.6,2.4,5.1,5.8,5.2C85.7,95.6,89.1,95.5,92.5,95.5z M85.9,80
	c4.5,0,9,0,13.6,0c2.9,0,4.7-1.5,4.7-4.4c0-2.9-2-4.3-4.8-4.3c-8.9,0-17.8,0.1-26.6-0.1c-3.8,0-2.9,2.6-3,4.7
	c-0.1,2.2-0.1,4.2,3.1,4.1C77.2,79.9,81.6,80,85.9,80z M56.5,45.7c-3,7.7-2.6,14.7-1.9,21.7c0.1,1.1,0.7,1.7,1.9,1.8
	c1.2,0,1.6-0.6,1.8-1.8C59.2,60.5,59,53.6,56.5,45.7z M72.6,85.2c-3.3-0.5-6.3-0.7-8.3,2.3c-1.1,1.7-1.1,3.7,0,5.5
	c2,3,5,2.9,8.3,2.3C71.4,91.8,71.3,88.6,72.6,85.2z M41.1,55.4c0.4,4.7,2.4,8.2,4,11.8c0.7,1.6,1.8,2.5,3.4,1.9
	c1.9-0.7,1.2-2.7,0.6-3.7C47.2,61.8,45,58.3,41.1,55.4z M71.6,55.7c-3.7,2.5-5.7,6.1-7.8,9.4c-0.7,1.2-1.5,3-0.1,3.9
	c1.6,1,3.1-0.5,3.9-1.9C69.4,63.6,71.2,60.1,71.6,55.7z"/>
<path class="st0" d="M149.5,65.3c0,7-0.1,13.9,0,20.9c0.1,3.3-1.3,4.7-4.6,4.6c-4.7-0.1-9.4,0-14.1,0c-1.9,0-4,0-4.1-2.4
	c-0.1-2.3,2-2.5,3.9-2.5c3.6,0,7.1-0.1,10.7,0c2.5,0.1,3.4-0.6,3.3-3.2c-0.1-11.8-0.1-23.6,0-35.4c0-2.6-0.9-3.3-3.4-3.2
	c-9.1,0.1-18.1,0.1-27.2,0c-2.7,0-3.8,0.6-3.6,3.5c0.2,4,0.1,8.1,0.1,12.1c0,1.7-0.2,3.6-2.3,3.7c-2.4,0.1-2.6-1.9-2.6-3.8
	c0-5.3,0.1-10.7,0-16c-0.1-3.1,1.4-4.3,4.4-4.3c11.6,0.1,23.3,0.1,34.9,0c3.5,0,4.5,1.6,4.4,4.8C149.5,51.1,149.5,58.2,149.5,65.3z"
	/>
<path class="st0" d="M127.2,75.2c-3.1,0-6.2,0-9.2,0c-3,0-4.5-1.3-2.9-4.2c3.1-5.7,6.3-11.3,9.7-16.8c1.5-2.5,3.5-2.4,4.9,0
	c3.3,5.5,6.6,11.1,9.7,16.8c1.3,2.4,0.5,4.1-2.5,4.2C133.7,75.3,130.5,75.2,127.2,75.2z M133.4,70.3c-2.3-3.8-4.1-6.9-6.3-10.7
	c-2,4.1-4.4,6.9-5.5,10.7C125.5,70.3,129,70.3,133.4,70.3z"/>
</svg>
