<?xml version="1.0" encoding="utf-8"?>
<!-- Generator: Adobe Illustrator 23.0.6, SVG Export Plug-In . SVG Version: 6.00 Build 0)  -->
<svg version="1.1" id="Layer_1" xmlns="http://www.w3.org/2000/svg" xmlns:xlink="http://www.w3.org/1999/xlink" x="0px" y="0px"
	 viewBox="0 0 180.1 177.9" style="enable-background:new 0 0 180.1 177.9;" xml:space="preserve">
<style type="text/css">
	.st0{fill:#FF9600;}
</style>
<path class="st0" d="M72.5,158.8c-3.3-2.3-3.8-4-2.2-7.9c5.4-13.5,10.8-27.1,16.3-40.5c1.1-2.6,0.4-2.9-2-2.9
	c-6.6,0.1-13.1,0-19.7-0.1c-7,0-9.8-4.3-6.7-10.6c10.5-22,21.2-43.9,31.7-65.9c1.6-3.4,4.4-5.2,7.7-6.4c11.3,0,22.7,0,34,0
	c5.3,2.5,6.2,5.6,3.3,10.7c-7.1,12.5-14.2,25-21.3,37.5c-1.5,2.7-1.5,2.7,1.7,2.7c4.7,0,9.3,0,14,0c2.7,0,5.2,0.6,6.5,3.3
	c1.3,2.7,0.1,5-1.6,7.1c-18.7,23.5-37.4,46.9-56,70.4c-0.9,1.1-2.1,1.7-3.2,2.5C74.1,158.8,73.3,158.8,72.5,158.8z"/>
</svg>
