<?xml version="1.0" encoding="utf-8"?>
<!-- Generator: Adobe Illustrator 23.0.6, SVG Export Plug-In . SVG Version: 6.00 Build 0)  -->
<svg version="1.1" id="Layer_1" xmlns="http://www.w3.org/2000/svg" xmlns:xlink="http://www.w3.org/1999/xlink" x="0px" y="0px"
	 viewBox="0 0 180.1 177.9" style="enable-background:new 0 0 180.1 177.9;" xml:space="preserve">
<style type="text/css">
	.st0{fill:#FF9600;}
</style>
<path class="st0" d="M23.9,65.2c3.8-7.7,5.6-16.2,8.1-24.4c1.7-5.7,4.5-8.3,10.9-8.2c32.2,0.3,64.3,0.2,96.5,0
	c6.1,0,9.6,1.8,11.3,7.8c2.4,8.3,5.7,16.3,8.1,24.5c1.8,6.2,1.5,12.7-4.2,17c-5.9,4.5-12.5,3.2-18.2-0.4c-3.1-1.9-4.4-1.7-7.3,0.3
	c-6.6,4.5-13.8,4.5-20.4-0.2c-2.5-1.8-3.7-2.2-6.5-0.2c-7.1,5.1-14.7,5-21.7-0.4c-2.2-1.7-3-1.5-5.1,0c-7.3,5.4-15.1,5.6-22.3-0.1
	c-2.2-1.8-3-1.3-5.1,0c-9.9,6.5-16.5,5.1-24.2-4.4C23.9,72.7,23.9,69,23.9,65.2z"/>
<path class="st0" d="M91.4,153.1c-15.9,0-31.9-0.2-47.8,0.1c-7.1,0.1-10.5-2.2-10.3-9.8c0.3-15.4,0-30.8,0.2-46.2
	c0-2.1-1.5-5.6,2.3-5.8c4.6-0.3,2.9,3.7,2.9,6c0.2,14.1,0.5,28.1-0.1,42.2c-0.3,7,2.2,8.9,8.7,8.4c6.7-0.5,13.5-0.4,20.3,0
	c4.6,0.2,6.2-1.3,6.1-5.9c-0.3-9.2-0.2-18.4,0-27.6c0.2-8.9,3.5-11.9,12.5-12.1c4.6-0.1,9.2-0.1,13.8,0c8.8,0.2,12.4,3.4,12.7,12.1
	c0.3,9.2,0.3,18.4,0,27.6c-0.1,4.7,1.6,6.1,6.1,5.9c6.5-0.3,13-0.4,19.4,0c5,0.3,6.6-1.5,6.5-6.4c-0.2-14.6-0.2-29.2,0-43.8
	c0-2.3-1.6-6.2,2.7-6.3c5.1-0.2,2.9,4.2,3,6.6c0.2,14.6,0.1,29.2,0.1,43.8c0,10-1.4,11.4-11.1,11.4
	C123.3,153.1,107.4,153.1,91.4,153.1z M77.9,129c0,18.8,0,18.8,19,18.8c1.9,0,3.8-0.1,5.7,0c3.6,0.3,5.5-0.8,5.4-4.9
	c-0.2-9.4-0.1-18.8-0.1-28.3c0-5.3-2.7-7.9-8-7.9c-23.6,0.1-22.1-2.4-21.9,20.6C77.9,128,77.9,128.5,77.9,129z"/>
</svg>
