<?xml version="1.0" encoding="utf-8"?>
<!-- Generator: Adobe Illustrator 23.0.6, SVG Export Plug-In . SVG Version: 6.00 Build 0)  -->
<svg version="1.1" id="Layer_1" xmlns="http://www.w3.org/2000/svg" xmlns:xlink="http://www.w3.org/1999/xlink" x="0px" y="0px"
	 viewBox="0 0 180.1 177.9" style="enable-background:new 0 0 180.1 177.9;" xml:space="preserve">
<style type="text/css">
	.st0{fill:#FF9600;}
</style>
<path class="st0" d="M121.5,134.5c0,6.5-0.2,13.1,0.1,19.6c0.1,3-1,4-3.8,4.3c-19.3,2-38.6,1.8-57.8-0.2c-3.2-0.3-3.6-1.7-3.5-4.4
	c0.1-13.1,0-26.2,0.1-39.2c0-1.5-1-3.8,1.3-4.3c2.5-0.5,5.5-2,7.8,0.2c10.9,10.4,23.8,9.2,36.8,6.7c4.3-0.8,8.5-2.5,11.3-6.3
	c1.8-2.3,4.2-1.1,6.3-0.7c2.2,0.4,1.3,2.4,1.4,3.8C121.5,120.8,121.5,127.6,121.5,134.5z"/>
<path class="st0" d="M104.9,21.5c10.3,5.8,15.9,14,17.5,24.9c0.3,2.4,0.4,4.4,3.5,4.9c2.1,0.4,3.2,2.3,3.1,4.5
	c-0.2,2.4-1.7,3.9-4,4.3c-1.5,0.2-3,0.3-4.5,0.3c-20.4,0-40.7,0-61.1,0c-1.4,0-2.7,0-4.1-0.2c-2.4-0.3-4-1.6-4.4-4
	c-0.4-2.4,0.8-4.4,3-4.9c2.8-0.6,3-2.4,3.4-4.6c1.9-8.6,5-16.6,12.3-22.2c4.5-3.5,5.2-3.2,6.2,2.3c0.5,2.7,0.8,5.4,1.4,8.1
	c0.4,1.9,0.8,4.3,3.5,3.7c2.5-0.5,2-2.7,1.7-4.5c-0.8-4.5-1.5-9-2.4-13.4c-0.7-3.4,0.6-5,3.8-5.2c3.8-0.2,7.6-0.1,11.4-0.1
	c3.9,0,5.1,2.1,4.4,5.7c-0.7,4-1.6,8-2.2,12.1c-0.3,2.1-1.6,5.1,1.8,5.5c2.9,0.4,3-2.5,3.4-4.5C103.4,30.2,104.1,26.2,104.9,21.5z"
	/>
<path class="st0" d="M89.6,108.3c-6.3-0.1-11.5-2.7-16.1-6.8c-2.7-2.4-5.5-5-7.1-8.3c-3.8-7.5-10-13.8-11.7-22.4
	c-0.3-1.4-2.1-3.7,1.3-4.2c2.7-0.4,4,0.3,4.2,3.5c0.2,3.3,0.5,7,4.4,8.9c0.9,0.4,1.2,2,1.7,3.1C68.7,87.8,72,93,76.6,97.1
	c8.2,7.4,18.2,7.2,26.2-0.4c3-2.9,5.4-6.2,7.5-9.7c2-3.4,2.9-7.4,6.5-10.1c2.1-1.6,2.3-4.9,2.1-7.7c-0.1-2.6,1.4-2.5,3.2-2.5
	c2.4-0.1,2.3,1.4,2,3c-0.4,2.1-0.4,4.5-1.5,6.1c-4.8,7-7.6,15.2-13.3,21.7C104,103.5,97.9,108,89.6,108.3z"/>
<path class="st0" d="M134.6,133.7c0-6.2,0.1-12.5,0-18.7c0-2.4,0.9-2.6,2.7-1.6c3.8,2.1,6.7,5.3,8.9,9c2.4,4.1,4.2,8.4,5.7,12.9
	c2.4,6.9,0.6,11.8-5.7,15.5c-3.4,2-7.5,5.1-10.7,3.7c-2.5-1.1-0.6-6.4-0.8-9.8C134.4,141,134.6,137.3,134.6,133.7
	C134.6,133.7,134.6,133.7,134.6,133.7z"/>
<path class="st0" d="M43.4,113.1c0,13.8,0,26.6,0,39.5c0,1.9-0.9,1.8-2.3,1.5c-12-2.4-16.6-10.2-12.3-21.8
	C31.6,124.8,35.1,117.8,43.4,113.1z"/>
</svg>
