<?xml version="1.0" encoding="utf-8"?>
<!-- Generator: Adobe Illustrator 23.0.6, SVG Export Plug-In . SVG Version: 6.00 Build 0)  -->
<svg version="1.1" id="Layer_1" xmlns="http://www.w3.org/2000/svg" xmlns:xlink="http://www.w3.org/1999/xlink" x="0px" y="0px"
	 viewBox="0 0 180.1 177.9" style="enable-background:new 0 0 180.1 177.9;" xml:space="preserve">
<style type="text/css">
	.st0{fill:#FF9600;}
</style>
<g>
	<path class="st0" d="M61.2,100.8c0-11.9,0-23.7,0-35.6c0-0.6,0.1-0.9,0.7-1.3c9.3-6.2,18.7-12.4,28-18.7c0.5-0.3,0.8-0.4,1.4,0
		c9.3,6.3,18.7,12.5,28,18.7c0.5,0.3,0.6,0.6,0.6,1.1c0,23.8,0,47.6,0,71.4c0,0.6-0.1,0.8-0.8,0.8c-6.4,0-12.8,0-19.2,0
		c-0.6,0-0.8-0.2-0.8-0.8c0-7.4,0-14.9,0-22.3c0-0.7-0.1-0.9-0.9-0.9c-5.1,0-10.2,0-15.4,0c-0.7,0-0.9,0.2-0.9,0.9
		c0,7.4,0,14.8,0,22.2c0,0.7-0.1,0.9-0.9,0.9c-6.4,0-12.7,0-19.1,0c-0.7,0-0.8-0.2-0.8-0.9C61.2,124.5,61.2,112.7,61.2,100.8z
		 M75.1,68.7c-1.5,0-3,0-4.5,0c-0.5,0-0.7,0.1-0.7,0.7c0,3,0,5.9,0,8.9c0,0.5,0.1,0.7,0.6,0.7c3,0,6,0,9.1,0c0.5,0,0.6-0.2,0.6-0.6
		c0-3,0-6,0-9c0-0.5-0.2-0.7-0.7-0.7C78.1,68.7,76.6,68.7,75.1,68.7z M90.6,68.7c-1.5,0-3,0-4.6,0c-0.5,0-0.7,0.2-0.7,0.7
		c0,3,0,6,0,9c0,0.5,0.2,0.6,0.6,0.6c3,0,6,0,9.1,0c0.5,0,0.6-0.2,0.6-0.6c0-3,0-6,0-9c0-0.5-0.1-0.7-0.7-0.7
		C93.5,68.7,92.1,68.7,90.6,68.7z M85.4,89.2c0,1.5,0,3,0,4.6c0,0.5,0.2,0.6,0.6,0.6c3,0,6,0,9.1,0c0.5,0,0.6-0.2,0.6-0.6
		c0-3,0-6,0-9c0-0.5-0.2-0.7-0.7-0.7c-3,0-6,0-9,0c-0.5,0-0.7,0.2-0.7,0.7C85.4,86.3,85.4,87.7,85.4,89.2z M90.6,99.6
		c-1.5,0-3,0-4.6,0c-0.5,0-0.7,0.2-0.7,0.7c0,3,0,6,0,9c0,0.5,0.2,0.7,0.7,0.6c3,0,6,0,9,0c0.5,0,0.7-0.2,0.7-0.7c0-3,0-6,0-9
		c0-0.5-0.2-0.7-0.7-0.7C93.5,99.6,92.1,99.6,90.6,99.6z M69.9,89.2c0,1.5,0,3,0,4.6c0,0.4,0.1,0.6,0.6,0.6c3.1,0,6.1,0,9.2,0
		c0.4,0,0.5-0.2,0.5-0.6c0-3,0-6.1,0-9.1c0-0.5-0.2-0.6-0.6-0.6c-3,0-6.1,0-9.1,0c-0.5,0-0.6,0.2-0.6,0.6
		C69.9,86.2,69.9,87.7,69.9,89.2z M75,109.8c1.5,0,3,0,4.5,0c0.5,0,0.7-0.1,0.7-0.6c0-3,0-6,0-9c0-0.4-0.1-0.6-0.6-0.6
		c-3,0-6.1,0-9.1,0c-0.5,0-0.6,0.2-0.6,0.6c0,3,0,6,0,9c0,0.6,0.2,0.7,0.7,0.7C72.1,109.8,73.6,109.8,75,109.8z M111.1,73.8
		c0-1.5,0-2.9,0-4.4c0-0.5-0.1-0.7-0.7-0.7c-3,0-6,0-9,0c-0.5,0-0.6,0.1-0.6,0.6c0,3,0,6,0,9c0,0.5,0.2,0.6,0.6,0.6c3,0,6,0,9,0
		c0.6,0,0.7-0.2,0.7-0.7C111.1,76.8,111.1,75.3,111.1,73.8z M106,84.1c-1.5,0-3,0-4.5,0c-0.5,0-0.7,0.2-0.7,0.7c0,3,0,6,0,9
		c0,0.5,0.1,0.6,0.6,0.6c3,0,6,0,9,0c0.5,0,0.6-0.2,0.6-0.6c0-3,0-6,0-9c0-0.5-0.1-0.7-0.7-0.7C109,84.1,107.5,84.1,106,84.1z
		 M106.1,109.8c1.5,0,3,0,4.5,0c0.4,0,0.6-0.1,0.6-0.6c0-3,0-6.1,0-9.1c0-0.5-0.2-0.6-0.6-0.6c-3,0-6,0-9.1,0
		c-0.5,0-0.6,0.1-0.6,0.6c0,3,0,6,0,9.1c0,0.5,0.2,0.6,0.6,0.6C103,109.8,104.5,109.8,106.1,109.8z"/>
	<path class="st0" d="M151,115.8c0,6.9,0,13.8,0,20.6c0,0.7-0.2,0.9-0.9,0.9c-8.2,0-16.4,0-24.7,0c-0.6,0-0.8-0.2-0.8-0.8
		c0-13.8,0-27.7,0-41.5c0-0.7,0.2-0.9,0.9-0.9c8.2,0,16.4,0,24.7,0c0.7,0,0.9,0.2,0.9,0.9C151,101.9,151,108.8,151,115.8z
		 M137.8,109.8c1.5,0,3,0,4.5,0c0.5,0,0.7-0.1,0.7-0.6c0-3,0-6,0-9.1c0-0.5-0.2-0.6-0.6-0.6c-3,0-6,0-9.1,0c-0.4,0-0.6,0.1-0.6,0.6
		c0,3,0,6.1,0,9.1c0,0.5,0.2,0.6,0.6,0.6C134.8,109.8,136.3,109.8,137.8,109.8z M143,120c0-1.5,0-3,0-4.5c0-0.5-0.1-0.7-0.6-0.7
		c-3,0-6,0-9.1,0c-0.5,0-0.6,0.2-0.6,0.7c0,3,0,6,0,9c0,0.5,0.2,0.7,0.7,0.7c3,0,5.9,0,8.9,0c0.6,0,0.8-0.2,0.7-0.8
		C142.9,122.9,143,121.5,143,120z"/>
	<path class="st0" d="M30,115.8c0-6.9,0-13.9,0-20.8c0-0.7,0.2-0.9,0.9-0.9c8.2,0,16.4,0,24.7,0c0.6,0,0.8,0.1,0.8,0.8
		c0,13.9,0,27.7,0,41.6c0,0.6-0.2,0.8-0.8,0.8c-8.3,0-16.6,0-24.8,0c-0.7,0-0.8-0.2-0.8-0.8C30,129.6,30,122.7,30,115.8z M43.2,99.6
		c-1.5,0-2.9,0-4.4,0c-0.5,0-0.7,0.1-0.7,0.7c0,3,0,6,0,9c0,0.5,0.1,0.6,0.6,0.6c3,0,6,0,9.1,0c0.5,0,0.6-0.2,0.6-0.6c0-3,0-6,0-9
		c0-0.5-0.1-0.7-0.7-0.7C46.2,99.6,44.7,99.6,43.2,99.6z M43.2,114.8c-1.5,0-3,0-4.5,0c-0.5,0-0.7,0.1-0.7,0.7c0,3,0,6,0,9
		c0,0.5,0.2,0.7,0.7,0.7c3,0,6,0,9,0c0.5,0,0.7-0.1,0.7-0.6c0-3,0-6,0-9.1c0-0.5-0.2-0.6-0.6-0.6C46.2,114.8,44.7,114.8,43.2,114.8z
		"/>
	<path class="st0" d="M49.9,61.3c3.4-2.2,6.7-4.4,10-6.6c10-6.6,20-13.3,30-20c0.5-0.3,0.9-0.3,1.4,0c13.1,8.7,26.1,17.4,39.2,26.1
		c0.2,0.1,0.4,0.3,0.7,0.5c-0.2,0.2-0.5,0.1-0.7,0.1c-2.6,0-5.1,0-7.7,0c-0.7,0-1.2-0.2-1.8-0.5c-9.5-6.4-19.1-12.8-28.6-19.1
		c-1.1-0.8-2.3-0.8-3.5,0C79.2,48.2,69.7,54.6,60.2,61c-0.5,0.4-1.1,0.5-1.8,0.5c-2.5,0-5.1,0-7.6,0C50.5,61.5,50.3,61.5,49.9,61.3z
		"/>
	<path class="st0" d="M139.2,90.7c-4.6,0-9.1,0-13.7,0c-0.7,0-0.9-0.2-0.8-0.8c0-0.5,0.1-1,0-1.4c-0.1-0.7,0.2-0.9,0.9-0.9
		c9.1,0,18.1,0,27.2,0c0.7,0,1,0.2,0.9,0.9c-0.1,0.5-0.1,0.9,0,1.4c0.1,0.6-0.2,0.8-0.8,0.8C148.2,90.7,143.7,90.7,139.2,90.7z"/>
	<path class="st0" d="M41.9,90.7c-4.5,0-9.1,0-13.6,0c-0.7,0-0.9-0.2-0.8-0.8c0.1-0.6,0-1.2,0-1.8c0-0.3,0.1-0.5,0.5-0.5
		c0.1,0,0.3,0,0.4,0c9.1,0,18.1,0,27.2,0c0.7,0,1,0.2,0.9,0.9c-0.1,0.5,0,1.1,0,1.6c0,0.5-0.1,0.6-0.6,0.6c-1.4,0-2.9,0-4.3,0
		C48.2,90.7,45.1,90.7,41.9,90.7z"/>
</g>
</svg>
