<?xml version="1.0" encoding="utf-8"?>
<!-- Generator: Adobe Illustrator 23.0.6, SVG Export Plug-In . SVG Version: 6.00 Build 0)  -->
<svg version="1.1" id="Layer_1" xmlns="http://www.w3.org/2000/svg" xmlns:xlink="http://www.w3.org/1999/xlink" x="0px" y="0px"
	 viewBox="0 0 180.1 177.9" style="enable-background:new 0 0 180.1 177.9;" xml:space="preserve">
<style type="text/css">
	.st0{fill:#FF9600;}
</style>
<g>
	<path class="st0" d="M101.2,27.1c3.6,1.5,4.3,4.6,4,8c-0.2,2.2,0.6,3,2.7,2.7c1.1-0.1,2.2,0,3.3,0c4.1,0.1,5.6,1.4,5.8,5.4
		c0.1,1.5,0.6,1.8,2,1.8c3.4-0.1,6.7-0.1,10.1,0c3.9,0.1,7,2.8,7,6.5c0.1,19.3,0,38.6,0,58c-0.4,0-0.6,0-0.8-0.1
		c-5.1-1.9-5.1-1.9-5.1-7.4c0-16.2,0-32.3,0-48.5c0-2.2-0.6-2.8-2.7-2.7c-2.8,0.2-5.6,0.1-8.4,0c-1.5-0.1-2,0.4-2,2
		c-0.1,5.8-1.3,6.8-7.1,6.8c-16.8,0-33.6,0-50.4,0c-4.4,0-6.2-1.6-6-6c0.1-2.4-0.7-2.9-2.9-2.8c-2.7,0.2-5.4,0.1-8.2,0
		c-1.7-0.1-2.2,0.6-2.1,2.2c0.1,6.8,0,13.6,0,20.4c0,23.4,0,46.8-0.1,70.2c0,2.6,0.6,3.4,3.3,3.4c15.6-0.1,31.2-0.1,46.8-0.1
		c2.2,0,5.1,3,4.9,5.1c-0.1,0.6-0.5,0.7-0.9,0.7c-0.7,0-1.5,0-2.2,0c-16.2,0-32.5,0-48.7,0c-5.6,0-7-0.9-9.2-6.2c0-32,0-63.9,0-95.9
		c1.5-4.5,4.6-6.4,9.3-6.1c2.3,0.2,4.7-0.1,7.1,0.1c1.9,0.1,2.9-0.2,2.9-2.5c0-2.9,2-4.5,4.9-4.7c1.8-0.1,3.6-0.2,5.4,0
		c2.1,0.2,2.8-0.6,2.5-2.6c-0.5-3.5,0.4-6.4,3.8-8.2C80.5,27.1,90.9,27.1,101.2,27.1z M85.2,54.4c7.3,0,14.5,0,21.8,0c4,0,4,0,4-4.1
		c0-6.5,0-6.5-6.4-6.6c-4.5-0.1-5.5-1-5.5-5.4c0-0.8-0.1-1.6,0-2.4c0.3-2.1-0.4-2.8-2.6-2.8c-5.8,0.2-11.6,0-17.4,0.1
		c-2.1,0-4.9-1-6.3,0.5c-1.3,1.3-0.4,4-0.4,6c0,2.6-1.4,3.8-3.8,4c-2.2,0.1-4.4,0.2-6.5,0.1c-1.8-0.1-2.7,0.4-2.5,2.4
		c0.2,2,0.2,4,0,6c-0.2,2,0.6,2.4,2.5,2.4C69.8,54.3,77.5,54.4,85.2,54.4z"/>
	<path class="st0" d="M120.3,161.1c-4.2-1-8.1-2.2-11.6-4.9c-7.8-6.1-10.9-17.1-7.1-26.4c3.9-9.8,13.7-15.6,24.3-14.4
		c9.7,1.1,17.9,9.1,19.5,18.9c0.1,0.8,0.3,1.6,0.5,2.4c0,1.3,0,2.5,0,3.8c-0.9,4.2-2.2,8.3-4.9,11.8c-3.9,5-9.2,7.6-15.2,8.9
		C123.9,161.1,122.1,161.1,120.3,161.1z M135,138.1c0-4-0.1-4.1-4.1-4.1c-3.9,0-3.9,0-3.9-4.1c0-1.2,0.6-2.9-0.9-3.4
		c-1.9-0.8-4.2-0.7-6.1-0.1c-1.8,0.6-1.1,2.5-1.1,3.8c-0.1,3.8,0,3.8-4,3.8c-1.2,0-2.8-0.5-3.5,0.8c-1.1,2-0.8,4.3-0.2,6.3
		c0.5,1.6,2.3,1,3.6,1.1c4,0.1,4,0,4.1,4c0,0.7,0,1.5,0,2.2c0,0.7,0.3,1.4,1,1.5c2,0.5,4.2,0.7,6.1,0c1.7-0.6,1-2.5,1-3.9
		c0.1-4.3-0.6-3.8,4-3.8C134.9,142.2,135,142.1,135,138.1z"/>
	<path class="st0" d="M99.5,104.1c2.9,0,5.8,0,8.7,0c1.7,0,3.1,0.5,3.3,2.4c0.2,1.6,0.1,3-2,3.5c-0.8,0.2-1.5,0.7-2.2,1.1
		c-0.3,0.2-0.8,0.4-0.9,0c-0.2-3-2.5-1.6-3.9-1.7c-4-0.2-8,0-12-0.1c-1.7,0-2.3,0.5-2.1,2.1c0.1,0.6-0.1,1.3,0,1.9
		c0.4,2.5-0.7,3.1-3.1,3.2c-2.8,0.1-3.5-0.8-3.3-3.5c0.2-3.7,0.1-3.7-3.7-3.7c-4,0-8,0.1-12,0c-1.8-0.1-2.5,0.5-2.2,2.3
		c0.1,0.4,0,0.9,0,1.4c0,3.8,0,3.7-3.7,3.5c-1.4-0.1-1.6-0.7-1.6-1.8c0.1-2.4,0-4.7,0-7.1c0-2.4,1.2-3.4,3.5-3.4
		c5.6,0,11.3-0.1,16.9,0.1c2.3,0.1,3.1-0.7,2.8-2.9c-0.2-1.1-0.1-2.2,0-3.3c0.1-1.5-0.4-2.2-1.8-2.9c-1.3-0.6-2-0.1-2.7,0.8
		c-1.4,1.7-2.5,0.7-3.6-0.4c-1.1-1.1-2.8-2-1.1-4c1.9-2.4,1.1-4.3-1.9-4.5c-2.7-0.2-1.8-2.2-2.1-3.7c-0.2-1.4,0-2.7,1.9-2.9
		c3.2-0.4,3.9-2.2,1.8-4.7c-1.6-1.9,0.2-2.7,1.1-3.8c0.9-1.1,1.8-2,3.4-0.8c2.6,2,4.3,1.2,4.7-1.9c0.3-2.6,2.2-1.8,3.7-2
		c1.5-0.1,2.9-0.1,2.7,2c-0.1,1.3,0.2,2.1,1.6,2.7c1.4,0.6,2.1,0.2,3-0.8c1.8-1.8,2.9,0.1,4.1,1c1.2,0.9,1.8,1.9,0.6,3.4
		c-2,2.6-1.2,4.3,2.1,4.7c2.5,0.3,1.6,2.2,1.9,3.5c0.2,1.3,0.2,2.5-1.6,2.8c-3.6,0.7-4.1,2.1-2,4.8c1.5,1.9-0.3,2.7-1.2,3.8
		c-0.9,1-1.9,2.4-3.3,0.8c-1.2-1.3-2.2-1.4-3.8-0.7c-1.7,0.8-1.1,2.1-1.1,3.3c0.1,5.5,0.1,5.5,5.6,5.5
		C95.9,104.1,97.7,104.1,99.5,104.1z M91.7,83.7c0.1-3.6-2.9-6.5-6.5-6.6c-3.6-0.1-6.6,2.8-6.7,6.4c0,3.5,3,6.6,6.5,6.7
		C88.6,90.2,91.6,87.2,91.7,83.7z"/>
	<path class="st0" d="M67.4,126.3c0,3.1-2.8,5.8-6,5.8c-3.2,0-5.8-2.7-5.9-5.9c0-3.2,2.9-6.1,6.1-6
		C64.8,120.4,67.5,123.2,67.4,126.3z"/>
	<path class="st0" d="M91,126.3c0,3.2-2.8,5.9-6,5.8c-3.3-0.1-5.7-2.7-5.7-6.1c0.1-3.2,2.8-5.9,6-5.8C88.5,120.3,91,123.1,91,126.3z
		"/>
</g>
</svg>
