<?xml version="1.0" encoding="utf-8"?>
<!-- Generator: Adobe Illustrator 23.0.6, SVG Export Plug-In . SVG Version: 6.00 Build 0)  -->
<svg version="1.1" id="Layer_1" xmlns="http://www.w3.org/2000/svg" xmlns:xlink="http://www.w3.org/1999/xlink" x="0px" y="0px"
	 viewBox="0 0 180.1 177.9" style="enable-background:new 0 0 180.1 177.9;" xml:space="preserve">
<style type="text/css">
	.st0{fill:#FF9600;}
	.st1{fill-rule:evenodd;clip-rule:evenodd;fill:#FF9600;}
</style>
<g>
	<path class="st0" d="M89.6,60.2c9,0,18,0.1,27,0c4.4-0.1,7.3,1.1,7,6.1c-0.1,2.6,1.4,3.3,3.5,2.9c8-1.6,13.1,2.6,18,8
		c3.8,4.2,7.9,8.1,12.1,12c2.7,2.5,3.8,5.3,3.7,8.8c-0.1,4.7-0.1,9.3,0,14c0,4.3-1.7,6.8-6.3,6.3c-4.8-0.5-7.9,0.3-8.5,6.2
		c-0.5,4.4-5.9,7-10.5,6.6c-4.6-0.5-8.7-3.9-8.9-8.6c-0.2-3.8-1.8-4.3-5-4.2c-8.7,0.1-17.3,0.1-26,0c-2.6,0-4.2,0.1-4.4,3.6
		c-0.4,5.5-4.8,9.2-10,9.2c-5.2,0.1-9.9-3.3-10.4-8.8c-0.3-4-2.2-4-5.1-4c-6.2,0.1-12.3,0.1-18.5,0c-3.1-0.1-7.5,1.3-7.6-3.8
		c-0.1-5,4.2-4.1,7.4-4.2c1.7-0.1,3.3,0,5,0c1.4-0.1,3.2,0.5,3.3-1.9c0.1-2.7-2-2.2-3.5-2.2c-6-0.1-12-0.1-18,0
		c-3.1,0.1-6-0.4-6-4.2c0-3.5,2.8-3.9,5.8-3.9c5.3,0.1,10.7-0.3,16,0.1c5,0.4,6.2-1.5,6-6.2c-0.4-8.5,0-17-0.1-25.5
		c-0.1-4.4,1.8-6.4,6.3-6.4C70.9,60.3,80.3,60.2,89.6,60.2z M150.1,91.6c-4.9-5.5-9.6-10.8-14.4-16.1c-1.2-1.4-3.1-1.2-4.7-0.7
		c-1.9,0.6-1.4,2.4-1.4,3.8c-0.1,3.2,0,6.3,0,9.5c0,2.2,0.6,3.5,3.1,3.4C138.7,91.5,144.6,91.6,150.1,91.6z M81.6,126.3
		c2.6-0.7,4.9-2.3,4.8-5.6c-0.1-3.5-2.2-5.6-5.7-5.4c-3.2,0.1-5.3,2.3-5.2,5.5C75.5,124.2,77.7,126,81.6,126.3z M131.1,120.6
		c0.2,3.3,2,5.4,5.2,5.5c3.6,0.2,5.7-2.2,5.6-5.6c0-3.2-2.1-5.3-5.4-5.3C133.2,115.3,131.4,117.3,131.1,120.6z"/>
	<path class="st0" d="M25.4,118.5c-3.2-0.7-8.1,1.6-8.1-4c0-5.7,4.9-4.1,8.2-4.2c3.4-0.1,8.4-1.2,8.3,4.2
		C33.7,120,28.5,117.7,25.4,118.5z"/>
</g>
</svg>
