<?xml version="1.0" encoding="utf-8"?>
<!-- Generator: Adobe Illustrator 23.0.6, SVG Export Plug-In . SVG Version: 6.00 Build 0)  -->
<svg version="1.1" id="Layer_1" xmlns="http://www.w3.org/2000/svg" xmlns:xlink="http://www.w3.org/1999/xlink" x="0px" y="0px"
	 viewBox="0 0 180.1 177.9" style="enable-background:new 0 0 180.1 177.9;" xml:space="preserve">
<style type="text/css">
	.st0{fill:#FF9600;}
	.st1{fill-rule:evenodd;clip-rule:evenodd;fill:#FF9600;}
</style>
<g>
	<path class="st0" d="M68.2,86.7c-1.2,10.6,0.6,20.3,2.5,30c2.4,12.1,4.6,24.2,7,36.2c0.6,3,0,5.2-3,5.9c-3.2,0.7-4.6-1.5-5.3-4.2
		c-3-11.5-5.9-23-8.9-34.5c-0.5-1.9-1-3.8-2.4-5.6c-1,6.9-2.1,13.9-3.1,20.8c-0.9,6.2-1.7,12.4-2.6,18.7c-0.4,2.8-1.3,5.1-4.6,4.8
		c-3.4-0.2-3.9-2.6-3.7-5.5c1.2-18.1,2.4-36.3,3.7-54.5c0.4-5.4,0.1-10.7-0.6-16C47.1,81,47,79.1,47,77.3c0-4.7,1.2-8.9,5.9-10.9
		c4.9-2,9.5-1.1,13.4,2.3c2.7,2.4,5.2,5,7.6,7.7c5.1,6.1,11.2,11.1,17.3,16.1c1.7,1.4,2.7,1.2,4.4-0.1c7.9-6.1,14.7-13.2,21.5-20.5
		c3.5-3.8,7.2-7.1,13.1-6.5c5,0.5,8.5,3.4,9.2,8.4c0.2,1.7,0.4,3.5,0.2,5.2c-2.4,20.7,0.8,41.1,1.9,61.7c0.2,4.1,0.7,8.3,1,12.4
		c0.2,2.8-0.2,5.3-3.6,5.7c-3.3,0.4-4.4-1.8-4.8-4.6c-1.8-12.4-3.5-24.9-5.3-37.3c-0.1-0.8,0.1-1.6-1.3-2.4
		c-1.2,4.3-2.3,8.4-3.4,12.5c-2.4,9.2-4.8,18.3-7.1,27.6c-0.8,3.1-2.2,5.1-5.5,4.2c-3.2-0.8-3.2-3.5-2.7-6.2
		c3-15.9,6.2-31.7,9.1-47.6c1-5.8,1.5-11.7,0.3-18c-6.5,4.3-12.8,8.5-19.1,12.7c-5.7,3.9-5.9,4-11.6,0.1
		C81.4,95.5,75.1,91.3,68.2,86.7z"/>
	<path class="st0" d="M92.9,61.8c-3.9,0-7.8-0.1-11.6,0c-2.9,0.1-4.2-0.8-4.1-3.8c0.2-3.3,0.1-6.7,0.1-10c0-1.6,0.4-2.8,1.6-3.9
		c3.8-3.7,7.7-7.5,11.3-11.4c2.2-2.4,3.9-2.1,5.9,0.2c1.6,1.8,3.1,3.8,5.1,5.1c7.7,5.1,8.4,12.5,7.7,20.7c-0.2,2.5-1.2,3.2-3.5,3.2
		C101.2,61.8,97,61.8,92.9,61.8z"/>
	<path class="st0" d="M72.3,44.7c-1-0.2-1.8-0.7-2.3-1.6c-0.8-1.4-0.1-2.4,0.8-3.2c2.7-2.8,5.5-5.5,8.2-8.2
		c3.6-3.6,7.3-7.1,10.7-10.8c2.3-2.4,4.1-2.5,6.3,0c1,1.1,2,2.1,3.1,3.1c0.9,0.9,1.4,2.4,3,0.1c1.1-1.7,4.8-0.1,4.5,1.8
		c-0.8,5,1.9,8,5.2,10.8c1.1,1,2.1,2.1,3.1,3.1c1.2,1.2,1.7,2.5,0.4,3.9c-1.4,1.6-2.9,1-4.1-0.3c-5.2-5.2-10.6-10.2-15.6-15.6
		c-2.2-2.3-3.4-2.3-5.5,0c-4.7,5.1-9.8,9.9-14.7,14.8C74.6,43.5,73.7,44.6,72.3,44.7z"/>
	<path class="st0" d="M130.3,61.7c-5.4,0-9.5-4.6-9.4-10.3c0.1-5.4,4.4-9.9,9.5-9.9c5.3,0,9.8,4.6,9.8,10.1
		C140.1,57.2,135.6,61.8,130.3,61.7z"/>
	<path class="st0" d="M66,51.7c0,5.7-4.4,10.1-9.8,10c-5.3-0.1-9.3-4.4-9.3-10c0-5.8,4.1-10.2,9.5-10.2C61.7,41.5,66,46.1,66,51.7z"
		/>
</g>
</svg>
