<?xml version="1.0" encoding="utf-8"?>
<!-- Generator: Adobe Illustrator 23.0.6, SVG Export Plug-In . SVG Version: 6.00 Build 0)  -->
<svg version="1.1" id="Layer_1" xmlns="http://www.w3.org/2000/svg" xmlns:xlink="http://www.w3.org/1999/xlink" x="0px" y="0px"
	 viewBox="0 0 180.1 177.9" style="enable-background:new 0 0 180.1 177.9;" xml:space="preserve">
<style type="text/css">
	.st0{fill:#FF9600;}
	.st1{fill-rule:evenodd;clip-rule:evenodd;fill:#FF9600;}
</style>
<g>
	<path class="st0" d="M90.6,26.1c5.2,0,9.8,0.8,14.1,3c6.7,3.5,10.1,9.3,11.3,16.6c0.4,2.4,0.5,4.8,0.3,7.3c0,0.5,0,0.9,0.5,1.3
		c0.8,0.7,1,1.7,1.2,2.7c0.5,3.6-0.1,7-1.8,10.2c-0.5,0.9-1,1.7-1.9,2.2c-0.4,0.2-0.5,0.6-0.7,1c-2.1,5.1-4.8,9.9-8.7,13.9
		c-2.4,2.4-5,4.5-8.2,5.7c-6.2,2.5-11.8,1-17-2.9c-5.4-4.1-9-9.7-11.6-15.9c-0.4-0.9-0.6-1.8-1.7-2.2c-0.7-0.3-1-1-1.4-1.7
		c-1.8-3.3-2.4-6.8-1.9-10.4c0.2-1.2,0.4-2.5,1.7-3.1c0.4-0.2,0.2-0.6,0.2-0.9c0.3-3.6,0.8-7.2,1.7-10.6c2.1-7.8,7.4-12.5,14.9-14.9
		C84.7,26.4,87.9,26.1,90.6,26.1z"/>
	<path class="st0" d="M86.3,108.7c0.8-3,1.5-5.8,2.2-8.6c0.1-0.4-0.1-0.5-0.3-0.8c-1.3-1.1-1.6-2.6-1.7-4.2c0-0.5,0.1-0.7,0.7-0.7
		c2.5,0,5,0,7.5,0c0.6,0,0.8,0.2,0.7,0.8c-0.1,1.6-0.4,3.1-1.7,4.2c-0.2,0.2-0.4,0.4-0.3,0.7c0.7,2.8,1.5,5.6,2.3,8.7
		c0.9-1,1.7-1.8,2.5-2.7c3.5-3.9,7-7.8,10-12.2c0.6-0.8,1.1-1.7,1.4-2.6c0.1-0.3,0.2-0.5,0.6-0.4c3,0.6,6.1,0.6,9.1,0.8
		c9.4,0.7,15.3,5.9,19.1,14.1c1.1,2.4,2,4.9,2.8,7.5c1.3,4.6-0.3,8.9-4.3,11.6c-3.6,2.4-7.7,3.7-11.9,4.7c-2.3,0.6-4.6,1-7,1.4
		c-0.8,0.1-0.9,0-0.7-0.8c1.6-5.2-0.6-10.2-5.3-12.3c-1.5-0.7-3-0.9-4.6-0.9c-7.8,0-15.6,0-23.4,0c-0.8,0-1.1-0.2-1.3-1
		c-1.2-4.4-4.8-7.3-9.4-7.4c-2.2-0.1-4.4-0.1-6.6,0c-5,0.1-9.1,3.7-9.7,8.4c-0.7,5,2.2,9.5,7.1,11c0.7,0.2,0.8,0.6,0.8,1.2
		c0.3,2.1,0.3,2.1-1.7,1.7c-5.2-0.9-10.4-2-15.2-4.3c-1.2-0.6-2.4-1.2-3.4-2c-3.7-2.7-4.9-6.4-3.9-10.7c1.1-4.8,3.1-9.2,5.9-13.3
		c3.7-5.3,8.8-8.1,15.1-8.7c3-0.3,6-0.4,8.9-0.8c1.2-0.2,1.7,0,2.2,1.2c1.2,2.6,3.1,4.7,4.9,6.9C80.5,102.3,83.3,105.4,86.3,108.7z"
		/>
	<path class="st0" d="M90,148.5c-3.9,0-7.7,0-11.6,0c-2,0-3-0.8-3.3-2.8c-1.3-7.8-2.7-15.7-4-23.5c-0.1-0.8-0.4-1.1-1.3-1.1
		c-0.9,0.1-1.9,0-2.8,0c-1.7,0-2.9-1.2-2.9-2.8c0-1.6,1.2-2.8,2.9-2.8c2.1,0,4.1,0,6.2,0c1.6,0,2.6,0.9,2.9,2.5
		c0.3,1.6,0.6,3.3,0.8,4.9c0.1,0.8,0.4,1,1.2,1c9.8,0,19.5,0,29.3,0c2.9,0,4.1,1.6,3.2,4.4c-1.9,5.9-3.8,11.8-5.7,17.7
		c-0.6,1.9-1.4,2.5-3.4,2.5C97.6,148.5,93.8,148.5,90,148.5z"/>
	<path class="st0" d="M98.8,159.3c-2.4,0-4.4-1.9-4.4-4.3c0-2.4,1.9-4.3,4.3-4.3c2.4,0,4.4,1.9,4.4,4.2
		C103.1,157.3,101.2,159.3,98.8,159.3z"/>
	<path class="st0" d="M81.2,159.3c-2.4,0-4.4-1.9-4.4-4.4c0-2.4,1.9-4.3,4.3-4.3c2.4,0,4.3,1.9,4.4,4.3
		C85.5,157.3,83.6,159.3,81.2,159.3z"/>
</g>
</svg>
