<?xml version="1.0" encoding="utf-8"?>
<!-- Generator: Adobe Illustrator 23.0.6, SVG Export Plug-In . SVG Version: 6.00 Build 0)  -->
<svg version="1.1" id="Layer_1" xmlns="http://www.w3.org/2000/svg" xmlns:xlink="http://www.w3.org/1999/xlink" x="0px" y="0px"
	 viewBox="0 0 180.1 177.9" style="enable-background:new 0 0 180.1 177.9;" xml:space="preserve">
<style type="text/css">
	.st0{fill:#FF9600;}
	.st1{fill-rule:evenodd;clip-rule:evenodd;fill:#FF9600;}
</style>
<g>
	<path class="st0" d="M96.3,30.4c3.3,1.1,6.9,0.9,10.3,2.4c-1.4,2.1-2.9,4.2-4.3,6.3c-0.8,1.4-1.5,0.7-2.4,0.2c-7-4-7-4-7,4.1
		c0,4.3,0,8.5,0,12.8c0,1.3,0,2.7,1.9,2.3c4.4-0.8,5.7,1.7,5.9,5.5c-0.4,0-0.8,0.1-1.3,0.1c-6.5,0.2-6.5,0.2-6.5,6.8
		c0,6.3,0.1,12.6,0,18.9c0,1.9,0.6,2.5,2.5,2.5c5.3-0.1,10.6,0.3,15.8-0.1c4.3-0.3,6.8,1.1,8,5.3c-1,0.6-2.1,0.3-3.1,0.3
		c-7,0-13.9,0.1-20.9,0c-1.7,0-2.4,0.4-2.3,2.2c0.1,7.9,0.1,15.7,0,23.6c0,1.7,0.4,2.4,2.3,2.4c6.3-0.1,12.6-0.1,18.9,0
		c1.9,0,2.5-0.9,3-2.4c1.8-6.5,3-13.1,3.6-19.9c0.1-1.1-0.2-2.2,0.7-3.6c2.4,3.4,5.6,6,4.3,11c-1,4.1-1.4,8.4-2.6,12.5
		c-0.5,1.9-0.1,2.4,1.8,2.4c4.6-0.1,9.2-0.1,13.8,0c1.4,0,2.3-0.4,3-1.7c4.1-7.5,6.7-15.4,7.5-23.9c0.2-2.2-0.5-2.7-2.5-2.6
		c-4.1,0.1-8.2,0-12.5,0c2.2-5.6,2.2-5.6,7.5-5.6c8.2,0,8.2,0,6.8-8.1c-0.2-1-0.3-2.1-0.7-2.9c-1.8-4-0.6-7.3,2.1-10.8
		c2.6,5.3,3.9,10.8,4.5,16.4c3.9,35.7-19.1,66-54.5,72.1c-34.4,5.9-68.9-19.7-73.6-54.6c-0.1-0.9,0.1-1.8-0.7-2.5c0-4.5,0-9,0-13.5
		c0.2-0.6,0.5-1.2,0.6-1.9c3.8-27,23.1-48.3,49.6-54.5c2.6-0.6,5.2-1.1,7.8-1.6C87.7,30.4,92,30.4,96.3,30.4z M87.3,78.3
		c0-3.8-0.1-7.6,0-11.4c0.1-2.3-0.7-2.8-2.9-2.8c-6.1,0.1-12.1,0.1-18.2,0c-1.7,0-2.6,0.4-3.1,2.2c-2.2,7.7-3.4,15.5-4,23.5
		c-0.1,1.9,0.4,2.6,2.4,2.6c7.7-0.1,15.5-0.1,23.2,0c1.9,0,2.5-0.7,2.5-2.6C87.2,86,87.3,82.2,87.3,78.3z M73,97.9
		c-3.8,0-7.6,0.1-11.4,0c-1.7,0-2.4,0.3-2.3,2.2c0.6,8.1,1.7,16,4,23.8c0.4,1.5,1.1,2.2,2.8,2.2c6.3-0.1,12.6-0.1,18.8,0
		c2,0,2.5-0.8,2.5-2.6c-0.1-7.7-0.1-15.5,0-23.2c0-2-0.8-2.4-2.6-2.4C80.8,98,76.9,97.9,73,97.9z M57.8,64.2c-5.8,0-11,0.1-16.3,0
		c-1.5,0-2.2,0.6-2.9,1.8c-4.3,7.6-6.6,15.7-7.5,24.3c-0.2,1.7,0.5,2.2,2.1,2.1c6.2,0,12.4,0,18.5,0c1.4,0,2.1-0.4,2.1-1.9
		C53.9,81.6,55.4,73,57.8,64.2z M42.5,97.9c-3.1,0-6.3,0.1-9.4,0c-1.6,0-2.2,0.4-2,2.1c0.9,8.6,3.3,16.7,7.5,24.3
		c0.7,1.2,1.4,1.9,2.9,1.8c4.7-0.1,9.4-0.1,14.2,0c1.6,0,2.2-0.4,1.7-2.1c-2.1-7.8-3.4-15.8-3.5-23.9c0-1.6-0.5-2.2-2.2-2.1
		C48.6,98,45.5,97.9,42.5,97.9z M87.3,47.7c0-2.7-0.1-5.4,0-8.1c0.2-2.8-0.6-3.7-3.3-2.4c-8.8,4-13.4,11.5-17.3,19.7
		c-0.7,1.5,0.5,1.6,1.6,1.6c5.6,0,11.2,0,16.8,0c1.9,0,2.2-0.9,2.2-2.5C87.3,53.3,87.3,50.5,87.3,47.7z M66.4,131.6
		c2.3,7.2,8,15.2,13.5,19c1.7,1.2,3.5,2.1,5.4,2.7c1.4,0.5,2.1,0.2,2.1-1.4c0-6.1-0.1-12.1,0-18.2c0-1.7-0.7-2.1-2.2-2.1
		C79,131.6,72.8,131.6,66.4,131.6z M92.9,141.9c0,3.2,0,5.8,0,8.4c0,3.9,0,3.9,3.6,2.4c2.6-1.1,4.9-2.7,7-4.7
		c4.1-3.9,7-8.7,9.6-13.8c1.3-2.4,0.3-2.8-1.9-2.7c-2.5,0.1-4.9,0-7.4,0c-3.5,0.1-8.1-1.2-10.1,0.6C91.3,134.2,93.2,139,92.9,141.9z
		 M43.9,58.6c5.2,0,9.9,0,14.5,0c0.9,0,1.5-0.4,1.8-1.2c2.6-6.5,6.1-12.5,11.1-18.1C62.1,41.4,49.5,50.2,43.9,58.6z M43.9,131.6
		c5.9,8.6,20.1,18.4,27.2,19c-4.6-5.1-8-10.9-10.5-17.2c-0.5-1.1-1-1.9-2.4-1.8C53.5,131.7,48.9,131.6,43.9,131.6z M136.6,131.6
		c-5.4,0-9.8,0-14.3,0c-1.1,0-1.9,0.1-2.4,1.3c-2.5,6.5-6.1,12.4-10.5,17.8C120.2,147.3,129,141,136.6,131.6z"/>
	<path class="st0" d="M130.7,30.4c0.8,1,2,0.8,3.1,1.2c12.4,4.3,18.6,17.7,13.6,29.7c-5.1,12.3-12,23.5-19.3,34.6
		c-1.1,1.6-1.7,1.6-2.8,0c-7.3-11-14.2-22.3-19.3-34.6c-5-12.1,1.2-25.4,13.6-29.7c1-0.4,2.3-0.2,3.1-1.1
		C125.3,30.4,128,30.4,130.7,30.4z M137.9,52.9c0-6.1-5-11.1-11.1-11.2c-6.3-0.1-11.4,4.9-11.4,11.2c0,6.1,5,11.2,11.1,11.2
		C132.6,64.2,137.9,59.1,137.9,52.9z"/>
</g>
</svg>
