<?xml version="1.0" encoding="utf-8"?>
<!-- Generator: Adobe Illustrator 23.0.6, SVG Export Plug-In . SVG Version: 6.00 Build 0)  -->
<svg version="1.1" id="Layer_1" xmlns="http://www.w3.org/2000/svg" xmlns:xlink="http://www.w3.org/1999/xlink" x="0px" y="0px"
	 viewBox="0 0 180.1 177.9" style="enable-background:new 0 0 180.1 177.9;" xml:space="preserve">
<style type="text/css">
	.st0{fill:#FF9600;}
	.st1{fill-rule:evenodd;clip-rule:evenodd;fill:#FF9600;}
</style>
<path class="st0" d="M117.1,117.3c0,5.7-0.1,11.5,0.1,17.2c0.1,2.6-0.9,3.5-3.3,3.7c-16.9,1.8-33.9,1.6-50.8-0.2
	c-2.8-0.3-3.1-1.5-3.1-3.8c0.1-11.5,0-23,0.1-34.5c0-1.3-0.9-3.4,1.1-3.8c2.2-0.5,4.9-1.7,6.9,0.2c9.5,9.1,20.9,8,32.4,5.9
	c3.8-0.7,7.4-2.2,9.9-5.5c1.5-2.1,3.7-1,5.6-0.6c1.9,0.4,1.2,2.2,1.2,3.3C117.2,105.3,117.1,111.3,117.1,117.3z"/>
<path class="st0" d="M102.5,18.1c9,5.1,14,12.3,15.4,21.8c0.3,2.1,0.3,3.9,3.1,4.3c1.9,0.3,2.8,2,2.7,4c-0.2,2.1-1.5,3.4-3.5,3.8
	c-1.3,0.2-2.7,0.2-4,0.2c-17.9,0-35.8,0-53.6,0c-1.2,0-2.4,0-3.6-0.2c-2.1-0.2-3.5-1.4-3.8-3.5c-0.4-2.1,0.7-3.9,2.7-4.3
	c2.5-0.5,2.6-2.1,3-4c1.6-7.6,4.4-14.6,10.8-19.5c4-3.1,4.6-2.8,5.5,2c0.4,2.4,0.7,4.7,1.2,7.1c0.3,1.7,0.7,3.8,3.1,3.3
	c2.2-0.4,1.8-2.4,1.5-3.9c-0.7-3.9-1.3-7.9-2.1-11.8c-0.6-3,0.5-4.4,3.3-4.6c3.3-0.2,6.7-0.1,10-0.1c3.4,0,4.5,1.9,3.9,5
	c-0.6,3.5-1.4,7.1-1.9,10.6c-0.3,1.8-1.4,4.4,1.6,4.9c2.5,0.4,2.6-2.2,2.9-3.9C101.2,25.7,101.8,22.2,102.5,18.1z"/>
<path class="st0" d="M89.1,94.3C83.5,94.2,79,92,75,88.4c-2.4-2.1-4.8-4.4-6.3-7.3c-3.4-6.6-8.8-12.1-10.3-19.7
	c-0.2-1.2-1.8-3.3,1.1-3.7c2.4-0.3,3.5,0.2,3.7,3.1c0.2,2.9,0.4,6.2,3.8,7.8c0.8,0.4,1,1.8,1.5,2.7c2.2,4.9,5.1,9.4,9.1,13
	c7.2,6.5,16,6.3,23-0.4c2.6-2.5,4.7-5.4,6.6-8.5c1.8-3,2.6-6.5,5.7-8.9c1.9-1.4,2-4.3,1.9-6.7c-0.1-2.3,1.2-2.2,2.8-2.2
	c2.1,0,2.1,1.3,1.8,2.7c-0.4,1.8-0.3,4-1.3,5.4c-4.2,6.1-6.7,13.4-11.7,19C101.7,90,96.4,94,89.1,94.3z"/>
<path class="st0" d="M128.6,116.6c0-5.5,0.1-10.9,0-16.4c0-2.1,0.8-2.3,2.3-1.4c3.3,1.9,5.8,4.6,7.8,7.9c2.1,3.6,3.7,7.4,5,11.3
	c2.1,6.1,0.6,10.3-5,13.6c-3,1.7-6.6,4.5-9.4,3.2c-2.2-1-0.6-5.6-0.7-8.6C128.4,123,128.6,119.8,128.6,116.6
	C128.6,116.6,128.6,116.6,128.6,116.6z"/>
<path class="st0" d="M48.5,98.5c0,12.1,0,23.4,0,34.7c0,1.7-0.8,1.6-2,1.3c-10.6-2.1-14.5-9-10.8-19.1
	C38.1,108.8,41.2,102.7,48.5,98.5z"/>
</svg>
