<?xml version="1.0" encoding="utf-8"?>
<!-- Generator: Adobe Illustrator 23.0.6, SVG Export Plug-In . SVG Version: 6.00 Build 0)  -->
<svg version="1.1" id="Layer_1" xmlns="http://www.w3.org/2000/svg" xmlns:xlink="http://www.w3.org/1999/xlink" x="0px" y="0px"
	 viewBox="0 0 180.1 177.9" style="enable-background:new 0 0 180.1 177.9;" xml:space="preserve">
<style type="text/css">
	.st0{fill:#FF9600;}
	.st1{fill-rule:evenodd;clip-rule:evenodd;fill:#FF9600;}
</style>
<path class="st0" d="M95.3,143.7c-10.2,0-20.3,0-30.5,0c-11,0-17.6-6.6-17.6-17.6c0-6.1-0.5-12.2,0.4-18.3
	c2-13.5,12.6-23.8,26.1-25.2c1.8-0.2,3,0.4,4.4,1.5c11,9,23.7,9,34.4-0.1c1.3-1.1,2.6-1.6,4.4-1.4c14.2,1.8,25,12.7,26.1,27
	c0.5,6.2,0.4,12.4,0.1,18.6c-0.5,9.2-7,15.3-16.4,15.4C116.3,143.8,105.8,143.7,95.3,143.7z M95.3,135.8c10.4,0,20.8,0,31.1,0
	c5.6,0,8.7-3.2,8.8-8.8c0-5.6,0.1-11.1-0.1-16.7c-0.4-8.8-7.5-17-16.1-19c-1.3-0.3-2.2-0.1-3.2,0.7c-13.3,9.5-27.8,9.5-40.7,0.1
	c-1.3-0.9-2.3-1.1-3.8-0.7c-8.5,2.1-15.4,10.2-15.7,18.9c-0.2,5.3-0.1,10.7-0.1,16c0,6.4,3,9.4,9.5,9.4
	C75,135.8,85.2,135.8,95.3,135.8z"/>
<path class="st0" d="M95.1,83.9c-13.8-0.1-24.9-11.3-24.8-25c0.1-13.7,11.3-24.8,25-24.8c13.9,0,25.1,11.3,25,25.1
	C120.2,73,108.9,84,95.1,83.9z M78.4,59.2c0,9.3,7.6,16.9,16.9,16.9c9.3,0,16.9-7.6,16.9-16.9c0-9.5-7.7-17.2-17.1-17.1
	C85.9,42.2,78.3,49.9,78.4,59.2z"/>
<path class="st0" d="M88.2,130.5c0-0.1,0-0.2,0-0.3c2.6-9.5,5.2-18.9,8-28.3c0.6-1.9,2.7-2.4,4.6-1.8c2.1,0.7,3.3,2.4,2.7,4.5
	c-2.4,9.1-5,18.1-7.6,27.1c-0.6,2.1-2.3,3.1-4.5,2.7C89.4,133.9,88.2,132.6,88.2,130.5z"/>
<path class="st0" d="M108.7,127.6c-2.1,0-3.3-0.8-4-2.3c-0.8-1.5-0.4-2.9,0.6-4.2c1.2-1.6,3.9-2.6,3.6-4.4c-0.2-1.5-2.5-2.7-3.7-4.2
	c-1.4-1.7-1.2-3.6,0.3-5.2c1.6-1.6,3.6-1.7,5.2-0.3c2.6,2.3,5.1,4.9,7.5,7.4c1.2,1.3,1.4,3,0.3,4.4c-2.4,3-5.2,5.7-8.1,8.1
	C109.9,127.5,109,127.5,108.7,127.6z"/>
<path class="st0" d="M81.9,106.2c2.1,0,3.3,0.8,4,2.2c0.8,1.5,0.5,2.9-0.5,4.2c-1.3,1.5-3.8,3-3.7,4.5c0,1.5,2.5,2.9,3.7,4.5
	c1.3,1.7,1.1,3.4-0.3,4.9c-1.5,1.6-3.5,2-5.1,0.6c-2.7-2.4-5.2-5-7.7-7.6c-1.2-1.3-1.3-3.1-0.1-4.4c2.6-2.8,5.3-5.5,8.1-8.2
	C80.7,106.3,81.6,106.3,81.9,106.2z"/>
</svg>
