<?xml version="1.0" encoding="utf-8"?>
<!-- Generator: Adobe Illustrator 23.0.6, SVG Export Plug-In . SVG Version: 6.00 Build 0)  -->
<svg version="1.1" id="Layer_1" xmlns="http://www.w3.org/2000/svg" xmlns:xlink="http://www.w3.org/1999/xlink" x="0px" y="0px"
	 viewBox="0 0 180.1 177.9" style="enable-background:new 0 0 180.1 177.9;" xml:space="preserve">
<style type="text/css">
	.st0{fill:#FF9600;}
	.st1{fill-rule:evenodd;clip-rule:evenodd;fill:#FF9600;}
</style>
<g>
	<path class="st0" d="M87.7,31.4c2.4,0.4,4.8,0.6,7.2,1.1c19.1,3.9,34.4,19.5,38,38.8c2.4,12.7,0.1,24.5-6.6,35.5
		c-0.4,0.7-0.3,1,0.2,1.6c6.6,7.2,13.2,14.4,19.9,21.6c0.6,0.7,0.6,1-0.1,1.6c-4.4,3.9-8.7,7.9-13,11.9c-0.7,0.7-1.1,0.6-1.7-0.1
		c-6.3-7-12.6-13.9-18.9-20.9c-0.6-0.7-1-0.7-1.8-0.2c-27.5,17.2-63.5,4-73.2-26.9C28.8,67.5,46.3,38,74.9,32.3
		c2.1-0.4,4.3-0.6,6.4-0.9C83.4,31.4,85.5,31.4,87.7,31.4z M128.2,80.6c0-24.1-19.5-43.7-43.6-43.8c-24.1,0-43.7,19.5-43.8,43.6
		c-0.1,24.1,19.6,43.8,43.6,43.8C108.6,124.3,128.2,104.8,128.2,80.6z"/>
	<path class="st0" d="M86.2,56.5c2.6,0,5.1,0,7.7,0c1.8,0,2.6,0.8,2.6,2.6c0,0.9,0.1,1.8,0,2.7c-0.1,0.9,0.3,1,1.1,1
		c4.2,0,8.4,0,12.7,0c2.6,0,3.8,1.2,3.8,3.8c0,2.2,0,4.5,0,6.7c0,0.6-0.2,1-0.7,1.3c-6.7,4.4-13.9,7.7-21.7,9.6
		c-1,0.2-1.3,0.1-1.3-1c0.1-3.6-0.2-3.9-3.8-3.9c-0.8,0-1.6,0-2.4,0c-1.4,0.1-2.1,0.9-2.2,2.2c0,0.6-0.1,1.2,0,1.8
		c0.1,0.9-0.3,1-1.1,0.8c-4-1-7.9-2.3-11.6-4c-3.5-1.6-6.8-3.5-10.1-5.6c-0.7-0.4-0.9-0.9-0.9-1.7c0.1-2.1,0-4.3,0-6.4
		c0-2.4,1.2-3.6,3.6-3.7c4.2,0,8.4,0,12.7,0c1,0,1.3-0.3,1.2-1.2c-0.1-0.9,0-1.8,0-2.7c0-1.5,0.9-2.4,2.4-2.4
		C80.8,56.5,83.5,56.5,86.2,56.5z M86.1,59.6c-1.5,0-3.1,0-4.6,0c-2.2,0-2.1,0-2.2,2.1c0,0.8,0.2,1.1,1.1,1.1c3.4,0,6.9,0,10.3,0
		c2.5,0,2.1,0.5,2.2-2.2c0-0.7-0.2-1-0.9-1C90,59.6,88.1,59.6,86.1,59.6z"/>
	<path class="st0" d="M58.4,77.7c0.4,0,0.6,0.3,0.9,0.5c6.7,4.2,13.9,7.2,21.6,8.9c0.7,0.2,1,0.4,0.9,1.2c-0.1,0.7,0,1.3,0,2
		c0.1,1.2,0.9,2.1,2.1,2.1c1.4,0.1,2.9,0,4.3,0c1.2,0,2-0.9,2.1-2.1c0.1-1-0.4-2.2,0.2-2.8c0.6-0.6,1.8-0.5,2.7-0.7
		c7-1.7,13.5-4.6,19.6-8.4c0.3-0.2,0.6-0.6,0.9-0.4c0.3,0.2,0.1,0.6,0.1,0.9c0,6.5,0,13,0,19.5c0,2.5-1.2,3.7-3.7,3.7
		c-16.1,0-32.3,0-48.4,0c-2.3,0-3.6-1.2-3.7-3.4c0-6.8,0-13.6,0-20.4C58.2,78.1,58.2,77.9,58.4,77.7z"/>
</g>
</svg>
