<?xml version="1.0" encoding="utf-8"?>
<!-- Generator: Adobe Illustrator 23.0.6, SVG Export Plug-In . SVG Version: 6.00 Build 0)  -->
<svg version="1.1" id="Layer_1" xmlns="http://www.w3.org/2000/svg" xmlns:xlink="http://www.w3.org/1999/xlink" x="0px" y="0px"
	 viewBox="0 0 180.1 177.9" style="enable-background:new 0 0 180.1 177.9;" xml:space="preserve">
<style type="text/css">
	.st0{fill:#FF9600;}
	.st1{fill-rule:evenodd;clip-rule:evenodd;fill:#FF9600;}
</style>
<g>
	<path class="st0" d="M112.5,25.9c4.5,0.9,8.8,2.2,12.7,4.9c9.7,7,13.2,16.8,12.1,28.2c-1.6,17.6-10.4,31.2-24.8,41.4
		c-1.8,1.3-3.3,1.3-5.1,0c-12.5-8.8-21.9-19.9-25.5-35.1c-2.7-11.5-1.1-22.2,7.8-30.8c4.7-4.5,10.2-7.3,16.7-8.2
		c0.4-0.1,0.8-0.3,1.2-0.4C109.2,25.9,110.8,25.9,112.5,25.9z M94.4,55.9c0.1,8.3,6.6,14.9,14.6,14.9c8,0,14.7-6.7,14.6-14.6
		c-0.1-8.3-6.6-14.7-14.8-14.7C100.9,41.5,94.3,48,94.4,55.9z"/>
	<path class="st0" d="M27,120.9c2.4-7.2,4-14.7,6-22.1c1.4-5.3,2.8-10.6,4.2-15.9c0.8-3.2,1.8-4,5.1-4c10.9,0,21.8,0,32.7,0
		c3,0,4.6,1.3,4.7,3.6c0.1,2.5-1.6,3.8-4.8,3.8c-9.7,0-19.3,0-29,0c-0.9,0-2-0.3-2.4,1.1c-2.6,10.2-5.3,20.4-8,30.7
		c36.3,0,72.5,0,108.8,0c-1.9-7.1-3.7-14-5.6-21c-1-3.6-2-7.2-2.9-10.8c-0.6-2.5,0.4-4.3,2.5-4.9c2.1-0.5,3.9,0.6,4.6,3.1
		c3.2,11.8,6.4,23.6,9.5,35.4c0.1,0.3,0.3,0.6,0.5,0.8c0,1.7,0.7,4-0.2,4.8c-0.8,0.8-3.2,0.2-4.8,0.2c-39.4,0-78.8,0-118.2,0.1
		c-2.4,0-3.2-0.5-2.8-2.8C27.1,122.4,27,121.6,27,120.9z"/>
</g>
</svg>
