<?xml version="1.0" encoding="utf-8"?>
<!-- Generator: Adobe Illustrator 23.0.6, SVG Export Plug-In . SVG Version: 6.00 Build 0)  -->
<svg version="1.1" id="Layer_1" xmlns="http://www.w3.org/2000/svg" xmlns:xlink="http://www.w3.org/1999/xlink" x="0px" y="0px"
	 viewBox="0 0 180.1 177.9" style="enable-background:new 0 0 180.1 177.9;" xml:space="preserve">
<style type="text/css">
	.st0{fill:#FF9600;}
	.st1{fill-rule:evenodd;clip-rule:evenodd;fill:#FF9600;}
</style>
<path class="st0" d="M123.1,144c-5.7-0.2-12.2-1.1-18.6-2.1c-12.2-1.7-24.2-0.3-36.2,1.6c-6.3,1-12.6,2.2-19.1,1.1
	c-5.6-0.9-8-3.8-8.2-9.4c-0.3-14.9,7.2-24.7,20.2-31c4.3-2.1,8.1-2.9,13-0.9c11.7,4.9,23.5,3.9,35.1-1.1c0.5-0.2,1-0.5,1.5-0.7
	c1.2-0.4,2.4-0.1,3,0.8c0.5,0.9-0.7,1.5-1.3,2c-2.8,2.9-6.2,5-10,6.2c-2.3,0.7-4.2,1.2-6.7-0.6c-2.6-1.9-6.2-1.3-9.3-0.3
	c-2.2,0.7-3,2.9-2.8,5.2c0.2,2.2,1.3,4.2,3.7,4.5c3.3,0.3,6.9,1.3,9.7-1.6c0.6-0.6,1.4-0.5,2.2-0.7c7.7-1.3,14.1-4.9,19.1-10.9
	c1-1.2,1.7-1.5,3.2-0.7c11.1,6.2,17.3,15.4,17.5,28.4c0.1,5.2-2,8-7,9.3C129.4,144.1,126.6,144.1,123.1,144z"/>
<path class="st0" d="M116.7,74.4c0,14.8-11.9,27-26.5,27c-14.8,0.1-26.8-12.2-26.7-27.2c0-14.9,11.9-27,26.5-27
	C104.8,47.2,116.7,59.3,116.7,74.4z"/>
<path class="st0" d="M52,75.3c0-2.9,0-5.7,0-8.6c0-2.7,0-5.3,2.7-7c0.4-0.2,0.6-0.9,0.7-1.4C58.3,44,68,36.8,81.1,33.7
	c12.9-3.1,24.8-0.3,34.9,8.6c4.7,4.1,8,9.1,9.1,15.4c0.1,0.3,0,0.8,0.2,1c4.7,4.9,2.4,11.1,2.8,16.7c0.2,3.2,0,6.4,0.1,9.6
	c0,2.4-0.5,4.6-2.7,6c-1.1,0.7-1.2,1.8-1.6,2.8c-4.6,12-12.5,20-25.7,22.3c-2.9,0.5-5.5,2.6-8.9,2.2c-2.5-0.3-4-1.2-4-3.8
	c0-2.6,1.5-3.8,4.1-3.7c2.5,0.1,5.4-0.9,7.2,2.1c0.6,1.1,1.8,0.4,2.7,0.2c11.1-2.4,18.1-9.5,22.1-19.9c0.2-0.5,0.5-1.2,0.3-1.5
	c-3.1-4.7-1.2-9.9-1.6-14.9c-0.3-3.8-0.1-7.7,0-11.6c0-1.2-0.2-2.6,0.4-3.6c2.2-3.7,0.5-6.9-1.3-9.8C112.3,41,102,36.3,89.4,36.5
	C77.2,36.8,67.5,42,61.1,52.6c-1.8,3-2.3,6-1.4,9.7c0.9,3.9,0.3,8.1,0.4,12.2c0,4.1,0.1,8.2,0,12.3c-0.1,2,0.1,4.4-2.9,4.8
	c-2.4,0.3-4.8-1.9-5-4.7C51.9,83,52.1,79.1,52,75.3C52.1,75.3,52.1,75.3,52,75.3z"/>
<path class="st0" d="M51,64.8c0,6.5,0,12.7,0,18.8c0,0.5,0.2,1.2-0.5,1.4c-0.9,0.2-1.4-0.5-2-0.9C42.4,79.2,43.5,68.7,51,64.8z"/>
<path class="st0" d="M129.1,64.8c7.5,3.8,8.6,14.4,2.5,19.2c-0.6,0.5-1.2,1.2-2,0.9c-1-0.3-0.5-1.3-0.5-2
	C129.1,77,129.1,71.1,129.1,64.8z"/>
</svg>
