<?xml version="1.0" encoding="utf-8"?>
<!-- Generator: Adobe Illustrator 23.0.6, SVG Export Plug-In . SVG Version: 6.00 Build 0)  -->
<svg version="1.1" id="Layer_1" xmlns="http://www.w3.org/2000/svg" xmlns:xlink="http://www.w3.org/1999/xlink" x="0px" y="0px"
	 viewBox="0 0 180.1 177.9" style="enable-background:new 0 0 180.1 177.9;" xml:space="preserve">
<style type="text/css">
	.st0{fill:#FF9600;}
	.st1{fill-rule:evenodd;clip-rule:evenodd;fill:#FF9600;}
</style>
<g>
	<path class="st0" d="M90.1,150.1c-15.7,0-31.4-0.1-47.1,0.1c-3.8,0.1-4.8-1.1-4.5-4.7c0.4-5.7-0.4-11.4,0.5-17
		c2.4-15.3,17.3-25.7,32.5-22.9c1.5,0.3,2.4,1.3,3.5,2.1c9.7,6.8,19,6.8,28.3-0.4c2.1-1.7,4.3-1.6,6.6-1.7c10.1-0.5,19,2,25.6,10.2
		c4,4.9,5.9,10.6,6.1,16.9c0.1,4.6-0.2,9.2,0.1,13.7c0.2,3.3-1.1,3.9-4.1,3.8C121.7,150.1,105.9,150.1,90.1,150.1z"/>
	<path class="st0" d="M61.8,46c7.6,2.1,14.8,4,21.9,6.3c4.3,1.4,8.2,1.5,12.5,0.1c6.3-2.1,12.8-3.7,19.2-5.6c1.5-0.4,3-1.2,3,1.6
		c-0.1,10.8,0,21.6-1.6,32.3c-0.8,5.1-3.2,9.7-6.4,13.9c-10.9,14.1-29.8,14-40.6-0.2c-3.6-4.7-6.2-10.1-6.7-15.9
		C62,67.8,61.7,57.2,61.8,46z M80.7,65.5c-3.6-0.3-7-0.5-10.5-0.8c-1.6-0.2-2.7,0-2.8,2c-0.4,8.7,0.7,16.9,6,24.1
		c8.9,12.1,24.7,11.9,33.3-0.4c4.7-6.7,5.9-14.2,5.8-22.1c-0.1-2.9-0.7-3.8-3.8-3.5C99.5,65.5,90.1,67,80.7,65.5z"/>
	<path class="st0" d="M44,38.3c9-2.6,17.5-4.4,25.6-7.6c13.7-5.4,26.8-5.7,40.6-0.1c8.1,3.3,16.9,5,25.3,7.8
		c-4.4,1.5-8.3,3.3-13.5,1.9c-7.8-2.1-16.1-2.5-24.3-3.6c-2.3-0.3-4.6-0.9-6.9-1.5c-2.4-0.6-4.3,0.7-4.5,3.1
		c-0.1,2.2,1.5,3.6,3.8,3.4c8.1-0.6,15.9,1.9,24,3.3c-7.9,2.2-15.8,4.5-23.7,6.7c-0.7,0.2-1.6-0.1-2.4-0.3
		c-14.1-4-28.3-8.1-42.4-12.2C45.3,39.2,45,38.9,44,38.3z"/>
	<path class="st0" d="M124.2,56.6c0.9,5.7-1.4,12.7,0.6,19.6c0.5,1.9-0.8,2-2.2,2c-2.1,0.1-2.2-0.9-1.9-2.6
		c1.3-9.4,0.7-18.9,0.9-28.3c0.1-2.5-0.7-3.6-3.2-3.7c-9.5-0.7-18.7-3.7-28.4-3.1c-1.3,0.1-2.6-0.5-2.4-2.2c0.2-1.6,1.6-2,2.8-1.7
		c10.1,2.3,20.5,3.1,30.8,4.7c2.2,0.3,3,1.3,2.9,3.6C124,48.4,124.2,51.8,124.2,56.6z"/>
</g>
</svg>
