<?xml version="1.0" encoding="utf-8"?>
<!-- Generator: Adobe Illustrator 23.0.6, SVG Export Plug-In . SVG Version: 6.00 Build 0)  -->
<svg version="1.1" id="Layer_1" xmlns="http://www.w3.org/2000/svg" xmlns:xlink="http://www.w3.org/1999/xlink" x="0px" y="0px"
	 viewBox="0 0 180.1 177.9" style="enable-background:new 0 0 180.1 177.9;" xml:space="preserve">
<style type="text/css">
	.st0{fill:#FF9600;}
	.st1{fill-rule:evenodd;clip-rule:evenodd;fill:#FF9600;}
</style>
<path class="st0" d="M66.1,78.7c1.1,0.1,2.3,0.2,3.5,0.3c12.8,0.5,23.5-4.3,32.7-13c3.2-3,5.8-6.5,8.6-9.8c7.1-8.2,14.6-16.1,23-23
	c3.3-2.7,6.6-5.2,10.4-7.1c1.5-0.7,3-1.3,4.7-1.6c2.3-0.3,3.6,1,3.3,3.2c-0.2,1.8-0.9,3.4-1.7,5c-2.2,4.3-5.2,8.1-8.3,11.8
	c-7.8,9.1-16.5,17.2-25.7,24.8c-5.5,4.5-10.2,9.6-13.5,15.8c-3.8,7.1-5.5,14.7-5.1,22.7c0.1,1,0.2,1.9,0.3,2.9
	C87.6,100.1,76.8,89.4,66.1,78.7z"/>
<path class="st0" d="M45.8,121.6c-2.5,2-5.1,4-7.9,5.6c-1.2,0.7-2.5,1.4-3.9,1.8c-1,0.3-1.8,0.1-2.5-0.7c-3.7-3.7-7.4-7.4-11.1-11.1
	c-0.2-0.2-0.3-0.3-0.5-0.6c2.4,0.1,4.3-1.1,6.1-2.3c4.8-2.9,9-6.5,13.1-10.2c1.9-1.7,3.7-3.5,5.5-5.2c0.3-0.3,0.5-0.4,0.9,0
	c10.8,10.8,21.6,21.7,32.5,32.5c0.3,0.3,0.4,0.5,0,0.9c-7,6.9-13.9,13.9-20.9,20.9c-0.3,0.3-0.5,0.3-0.8,0
	c-6.8-6.9-13.7-13.7-20.6-20.5c-0.4-0.4-0.2-0.6,0.1-0.9c3.2-3.2,6.3-6.3,9.5-9.5c0.2-0.2,0.4-0.3,0.6-0.4
	C46,121.7,45.9,121.6,45.8,121.6z"/>
<path class="st0" d="M97.1,112.9c-0.1,0.3-0.3,0.5-0.4,0.6c-3.6,3.6-7.2,7.2-10.8,10.8c-1.8,1.8-3.6,3.6-5.4,5.4
	c-0.3,0.4-0.5,0.4-0.9,0C68.7,119,57.9,108.2,47.1,97.5c-0.3-0.3-0.3-0.5,0-0.8c5.5-5.5,10.9-10.9,16.4-16.4
	c0.5-0.5,0.7-0.1,0.9,0.1c9.4,9.4,18.8,18.8,28.2,28.2c1.4,1.4,2.7,2.7,4.1,4.1C96.8,112.7,97,112.8,97.1,112.9z"/>
</svg>
