<?xml version="1.0" encoding="utf-8"?>
<!-- Generator: Adobe Illustrator 23.0.6, SVG Export Plug-In . SVG Version: 6.00 Build 0)  -->
<svg version="1.1" id="Layer_1" xmlns="http://www.w3.org/2000/svg" xmlns:xlink="http://www.w3.org/1999/xlink" x="0px" y="0px"
	 viewBox="0 0 180.1 177.9" style="enable-background:new 0 0 180.1 177.9;" xml:space="preserve">
<style type="text/css">
	.st0{fill:#FF9600;}
</style>
<g>
	<path class="st0" d="M25.8,132.1c0.1-3.9,2.1-6.9,4.8-9.5C45,108.2,59.3,93.7,73.8,79.4c1.8-1.8,3-3.3,0.9-5.6
		c-0.2-0.2-0.3-0.6-0.5-0.9c-3.7-7.3-3.6-8.3,2.1-14c6.7-6.7,13.5-13.3,20.1-20.2c2.1-2.3,4.1-2.3,6.7-1.4c8.8,3,15.2,9.1,20.9,16.1
		c2.7,3.3,4.8,7,6,11.1c0.8,2.4,0.5,4.4-1.6,6.4c-7.7,7.3-15.3,14.8-22.7,22.5c-2.1,2.2-4.1,2.6-6.7,1.6c-1.6-0.6-3.4-0.9-4.7-2
		c-3.3-2.7-5.3-1.7-8.1,1.1c-14,14.3-28.3,28.3-42.5,42.4c-2.7,2.7-5.6,4.6-9.6,4.5C29.1,140.7,25.7,137.2,25.8,132.1z"/>
	<path class="st0" d="M118.8,149.6c-10.7,0-21.5-0.1-32.2,0.1c-2.5,0-3.2-0.5-2.5-3c1.4-5.3,6-9.5,11.6-9.5c15.7-0.1,31.3-0.1,47,0
		c5.5,0.1,10.1,4.2,11.5,9.6c0.6,2.3-0.1,3-2.4,2.9C140.7,149.6,129.7,149.6,118.8,149.6z"/>
	<path class="st0" d="M96.1,27.8c0.1,1.8-0.9,3.4-2.4,4.8C85,41.2,76.3,49.8,67.6,58.4c-3.3,3.2-7,3.4-9.7,0.7
		c-2.7-2.7-2.5-6.4,0.7-9.6c8.6-8.7,17.2-17.4,25.8-26.1c2.2-2.3,4.8-3,7.8-1.8C94.9,22.6,96.1,24.7,96.1,27.8z"/>
	<path class="st0" d="M106.1,104.5c-0.1-1.8,0.9-3.4,2.3-4.9c8.7-8.7,17.5-17.5,26.2-26.2c3-3,6.9-3.1,9.5-0.6
		c2.8,2.7,2.7,6.6-0.4,9.7c-8.7,8.8-17.5,17.5-26.2,26.2c-2.2,2.2-4.8,3.1-7.8,1.7C107.3,109.4,106.1,107.5,106.1,104.5z"/>
</g>
</svg>
