<?xml version="1.0" encoding="utf-8"?>
<!-- Generator: Adobe Illustrator 23.0.6, SVG Export Plug-In . SVG Version: 6.00 Build 0)  -->
<svg version="1.1" id="Layer_1" xmlns="http://www.w3.org/2000/svg" xmlns:xlink="http://www.w3.org/1999/xlink" x="0px" y="0px"
	 viewBox="0 0 180.1 177.9" style="enable-background:new 0 0 180.1 177.9;" xml:space="preserve">
<style type="text/css">
	.st0{fill:#FF9600;}
</style>
<g>
	<path class="st0" d="M142.2,107.4c-1.5-0.5-2.9-0.9-4.3-1.3c-7.4-2.1-15-3.2-22.7-3.5c-9.5-0.3-18.9,0.6-28.2,3
		c-0.6,0.1-0.7-0.1-0.8-0.5c-2.7-7.4-5.4-14.9-8.1-22.3c-1.3-3.6-2.6-7.2-3.9-10.8c-0.2-0.5-0.2-0.7,0.4-1
		c9.4-4.5,17.9-10.5,25.5-17.7c5.9-5.5,11-11.7,15.2-18.6c0.1-0.1,0.1-0.3,0.4-0.4C124.4,58.6,133.3,82.9,142.2,107.4z"/>
	<path class="st0" d="M47.3,118.7c-9.5,0-17.3-7.3-18-16.8c-0.6-8.3,4.2-15.7,12-18.6c9.8-3.6,19.6-7.1,29.4-10.7
		c0.5-0.2,0.7-0.1,0.9,0.4c4,11,8,22,12,32.9c0.2,0.6,0.1,0.8-0.5,1c-9.8,3.6-19.6,7.1-29.4,10.7C51.6,118.3,49.4,118.7,47.3,118.7z
		"/>
	<path class="st0" d="M71.8,151c-2.8,0-5.1-1.7-6.1-4.4c-2.2-5.9-4.3-11.9-6.5-17.9c-1-2.8-2-5.6-3.1-8.4c-0.2-0.5-0.1-0.7,0.4-0.9
		c5.8-2.1,11.5-4.2,17.3-6.3c0.5-0.2,0.6-0.1,0.8,0.4c3.8,10.6,7.7,21.2,11.6,31.8c0.2,0.5,0.1,0.6-0.4,0.8c-4,1.4-8,2.9-12,4.3
		C73.1,150.8,72.4,150.9,71.8,151z"/>
	<path class="st0" d="M150.9,108.7c0,0.8-0.3,1.3-0.9,1.5c-0.5,0.2-1,0.4-1.6,0.6c-1.2,0.4-1.9,0.1-2.4-1.1c-1.7-4.7-3.4-9.3-5.1-14
		c-7.9-21.8-15.9-43.6-23.8-65.5c-0.6-1.7-0.3-2.3,1.3-2.9c2.4-0.9,2.7-0.7,3.6,1.7c9.6,26.2,19.1,52.5,28.7,78.7
		C150.8,108.1,150.9,108.4,150.9,108.7z"/>
	<path class="st0" d="M146.8,68.3c-0.1,2.7-1.5,5.3-4.2,7.1c-0.4,0.3-0.6,0.2-0.8-0.3c-1.9-5.3-3.8-10.6-5.8-15.9
		c-0.2-0.5-0.1-0.7,0.5-0.7C142,57.9,146.8,62.1,146.8,68.3z"/>
	<path class="st0" d="M87.5,117c0,0.3-0.2,0.3-0.4,0.3c-2.2,0.8-4.5,1.6-6.7,2.5c-0.3,0.1-0.5,0.1-0.6-0.3c-0.8-2.3-1.7-4.7-2.6-7
		c-0.1-0.3,0-0.5,0.3-0.6c2.3-0.8,4.6-1.7,6.9-2.5c0.3-0.1,0.4,0,0.5,0.2c0.9,2.4,1.7,4.7,2.6,7.1C87.4,116.8,87.5,116.9,87.5,117z"
		/>
</g>
</svg>
