<?xml version="1.0" encoding="utf-8"?>
<!-- Generator: Adobe Illustrator 23.0.6, SVG Export Plug-In . SVG Version: 6.00 Build 0)  -->
<svg version="1.1" id="Layer_1" xmlns="http://www.w3.org/2000/svg" xmlns:xlink="http://www.w3.org/1999/xlink" x="0px" y="0px"
	 viewBox="0 0 180.1 177.9" style="enable-background:new 0 0 180.1 177.9;" xml:space="preserve">
<style type="text/css">
	.st0{fill:#FF9600;}
</style>
<g>
	<path class="st0" d="M81.2,122.3c0,3.8,0,7.5,0,11.3c0,6.1-4.3,10.6-10.4,10.7c-7.8,0.1-15.5,0.1-23.3,0
		c-5.9-0.1-10.2-4.3-10.3-10.2c-0.1-7.9-0.2-15.9,0-23.8c0.1-5.9,4.5-10.1,10.5-10.1c7.6-0.1,15.2-0.1,22.8,0
		c6.4,0.1,10.7,4.5,10.8,10.9C81.2,114.7,81.2,118.5,81.2,122.3z M59.4,105.9c-3.8,0-7.7,0-11.5,0c-3.3,0-5,1.7-5,5
		c0,7.5,0,15.1,0,22.6c0,3.2,1.6,5,4.8,5c7.7,0.1,15.4,0.1,23.1,0c3,0,4.7-1.7,4.8-4.8c0.1-7.7,0.1-15.4,0-23.1
		c0-3.2-1.9-4.7-5.1-4.7C66.7,105.9,63,105.9,59.4,105.9z"/>
	<path class="st0" d="M81.2,61c0,3.8,0,7.7,0,11.5c-0.1,5.7-4.3,10.2-10,10.3c-7.9,0.2-15.9,0.1-23.8,0c-5.9-0.1-10.1-4.4-10.2-10.3
		c-0.1-7.9-0.1-15.7,0-23.6c0.1-5.9,4.4-10.1,10.4-10.2c7.8-0.1,15.5-0.1,23.3,0c6.1,0.1,10.3,4.5,10.4,10.7
		C81.2,53.3,81.2,57.1,81.2,61z M59.2,44.5c-3.8,0-7.7,0-11.5,0c-3,0-4.8,1.7-4.8,4.7c0,7.7,0,15.4,0,23.1c0,2.9,1.6,4.7,4.5,4.8
		c7.9,0.1,15.7,0.1,23.6,0c2.7,0,4.5-1.6,4.5-4.2c0.1-8,0.1-16,0-24.1c0-2.8-1.9-4.2-4.7-4.3C66.9,44.5,63,44.5,59.2,44.5z"/>
	<path class="st0" d="M98.3,122.1c0-3.9,0-7.9,0-11.8c0.1-5.7,4.4-10.1,10.1-10.2c7.9-0.1,15.7-0.1,23.6,0
		c5.9,0.1,10.2,4.4,10.3,10.3c0.1,7.9,0.1,15.7,0,23.6c-0.1,5.9-4.3,10.2-10.2,10.3c-7.9,0.1-15.7,0.1-23.6,0
		c-5.9-0.1-10.1-4.5-10.2-10.4C98.2,130,98.3,126,98.3,122.1z M120.3,138.5c3.6,0,7.2,0,10.8,0c3.9,0,5.6-1.7,5.6-5.5
		c0-7.2,0-14.4,0-21.6c0-3.7-1.7-5.5-5.4-5.5c-7.4,0-14.7,0-22.1,0c-3.6,0-5.3,1.7-5.3,5.3c0,7.4,0,14.7,0,22.1
		c0,3.4,1.7,5.2,5.1,5.2C112.7,138.6,116.5,138.5,120.3,138.5z"/>
	<path class="st0" d="M120.2,85.9c-2.7,0-4.9-1-6.8-2.8c-5.1-5.1-10.2-10.1-15.3-15.3c-4.1-4.1-4-9.9,0.1-14
		c5-5.1,10-10.1,15.1-15.1c4-3.9,9.9-4,13.9-0.1c5.2,5,10.2,10.1,15.3,15.3c4,4.1,4.1,9.7,0.1,13.8c-5.1,5.3-10.4,10.4-15.6,15.6
		C125,85.1,122.8,85.9,120.2,85.9z M139.6,60.8c0.1-1-0.3-1.9-1-2.7c-5.2-5.2-10.4-10.4-15.6-15.6c-1.6-1.6-3.9-1.6-5.5,0
		c-5.2,5.1-10.3,10.2-15.4,15.4c-1.8,1.8-1.7,3.9,0,5.7c5,5.1,10.1,10.2,15.3,15.3c1.8,1.8,4.1,1.8,5.9,0c5.1-5,10.2-10.2,15.3-15.2
		C139.3,62.8,139.7,61.9,139.6,60.8z"/>
</g>
</svg>
