<?xml version="1.0" encoding="utf-8"?>
<!-- Generator: Adobe Illustrator 23.0.6, SVG Export Plug-In . SVG Version: 6.00 Build 0)  -->
<svg version="1.1" id="Layer_1" xmlns="http://www.w3.org/2000/svg" xmlns:xlink="http://www.w3.org/1999/xlink" x="0px" y="0px"
	 viewBox="0 0 180.1 177.9" style="enable-background:new 0 0 180.1 177.9;" xml:space="preserve">
<style type="text/css">
	.st0{fill:#FF9600;}
</style>
<path class="st0" d="M157.4,67.9c0-1.7-0.5-2.2-2.3-2.3c-5.8-0.3-5.8-0.3-5.8-6c0-1,0-1.9,0-2.9c0-4.8,0-4.9-4.7-4.8
	c-2.4,0.1-3.6-0.5-3.3-3.2c0.2-2.2-0.2-4.4,0.1-6.5c0.5-3.7-1.1-4.3-4.4-4.3C118.2,38.1,99.4,38,80.7,38c-10.7,0-21.3,0.1-32-0.1
	c-2.8,0-3.6,0.8-3.4,3.5c0.2,2.8,0,5.6,0.1,8.4c0,1.6-0.6,2-2.1,2.1c-5.9,0.4-5.9,0.5-5.9,6.6c0,1-0.1,2,0,2.9
	c0.6,3.5-0.7,5-4.3,4.3c-3-0.6-3.8,0.6-3.8,3.7c0.1,22.3,0.2,44.6,0,66.9c0,3.4,1.1,3.9,4.1,3.9c20-0.1,40-0.1,60-0.1
	c20.2,0,40.5,0,60.7,0c1.6,0,3.4,0.6,3.4-2.3C157.3,114.4,157.3,91.2,157.4,67.9z M55.9,45.2c12.5,0.1,24.9,0,37.4,0
	c12.5,0,24.9,0.1,37.4-0.1c2.7,0,3.5,0.6,3.5,3.4c-0.1,2.5-0.6,3.3-3.2,3.3c-25-0.1-50.1-0.1-75.1,0c-3,0-3.2-1.2-3.3-3.6
	C52.4,45.5,53.6,45.2,55.9,45.2z M48.1,59c30.1,0.1,60.3,0.1,90.4,0c2.3,0,3.7,0.1,3.7,3.2c0,3.1-1.2,3.5-3.8,3.5c-15-0.1-30,0-45,0
	c-15.1,0-30.3-0.1-45.4,0.1c-2.7,0-3.4-0.7-3.5-3.4C44.4,59.3,45.7,59,48.1,59z M150.1,129.3c0,2.7-0.7,3.4-3.4,3.4
	c-35.6-0.1-71.2-0.1-106.8,0c-2.8,0-3.4-0.9-3.3-3.5c0.1-17.7,0.1-35.4,0-53c0-2.7,0.7-3.4,3.4-3.4c17.9,0.1,35.8,0.1,53.8,0.1
	c17.6,0,35.1,0,52.7-0.1c2.6,0,3.8,0.4,3.7,3.5C150,94,150,111.7,150.1,129.3z"/>
<path class="st0" d="M114.4,90.6c-5.6-9.1-14.1-13.2-24.7-11.7c-10.1,1.4-16.9,7.5-19.9,17.3c-3.7,11.7,2.4,24.8,13.6,29.6
	c2.3,1,4.6,1.6,5.9-1.2c1.3-2.8-0.4-4.2-2.8-5.3c-0.9-0.4-1.7-0.8-2.6-1.4c-5.9-3.7-9.1-11.3-7.6-17.9c1.6-7.4,7.5-13,14.5-13.9
	c7.4-1,14.2,2.3,17.4,8.5c-1.1,0.8-2.6-0.2-3.8,0.9c2.9,4.9,5.7,9.9,8.8,15.3c3.1-5.6,5.9-10.5,9.1-16.3
	C117.5,95.9,116.1,93.4,114.4,90.6z"/>
</svg>
