<?xml version="1.0" encoding="utf-8"?>
<!-- Generator: Adobe Illustrator 23.0.6, SVG Export Plug-In . SVG Version: 6.00 Build 0)  -->
<svg version="1.1" id="Layer_1" xmlns="http://www.w3.org/2000/svg" xmlns:xlink="http://www.w3.org/1999/xlink" x="0px" y="0px"
	 viewBox="0 0 180.1 177.9" style="enable-background:new 0 0 180.1 177.9;" xml:space="preserve">
<style type="text/css">
	.st0{fill:#FF9600;}
	.st1{fill-rule:evenodd;clip-rule:evenodd;fill:#FF9600;}
</style>
<g>
	<path class="st1" d="M71.5,115.1C83.9,101,96.3,86.9,108.9,73c0,0,0,0,0,0c4.6-5.1,9.2-10.2,13.9-15.4h-18.3L80.7,84.3V57.6H66.9
		v62.7L71.5,115.1z"/>
	<polygon class="st1" points="105.4,95.2 89.3,95.2 89.2,95.3 107.4,120.3 124,120.3 	"/>
	<rect x="35.9" y="141" class="st0" width="6.8" height="6.9"/>
	<rect x="45.3" y="141" class="st0" width="6.8" height="6.9"/>
	<rect x="54.7" y="141" class="st0" width="6.8" height="6.9"/>
	<polygon class="st0" points="35.9,30 35.8,137.8 42.7,137.8 42.7,36.9 146.9,36.9 146.9,141 70.9,141 64.8,141 64.8,141.1 
		64.8,147.9 70.9,147.9 153.8,147.9 153.8,30 	"/>
</g>
</svg>
