<?xml version="1.0" encoding="utf-8"?>
<!-- Generator: Adobe Illustrator 23.0.6, SVG Export Plug-In . SVG Version: 6.00 Build 0)  -->
<svg version="1.1" id="Layer_1" xmlns="http://www.w3.org/2000/svg" xmlns:xlink="http://www.w3.org/1999/xlink" x="0px" y="0px"
	 viewBox="0 0 180.1 177.9" style="enable-background:new 0 0 180.1 177.9;" xml:space="preserve">
<style type="text/css">
	.st0{fill:#FF9600;}
	.st1{fill-rule:evenodd;clip-rule:evenodd;fill:#FF9600;}
</style>
<g>
	<path class="st0" d="M158,150.1c-0.8,2.6-2.3,4.5-5.1,5.1c-0.6,0.1-1.2,0.2-1.7,0.2c-8.2,0-16.4,0-24.7,0c-4.1,0-6.8-2.4-6.9-6.5
		c-0.1-4.7-0.2-9.3,0.1-14c0.4-5.2,5.5-9.7,10.7-9.4c0.4,0,0.8,0.2,1.2,0.4c4.8,2.1,9.6,2.1,14.4,0c2-0.9,3.9-0.2,5.7,0.6
		c3.4,1.5,5.5,4.2,6.2,8c0,0.2,0.1,0.3,0.2,0.4C158,139.9,158,145,158,150.1z M138.8,151c4.1,0,8.3,0,12.4,0c1.7,0,2.6-0.8,2.6-2.5
		c0-4.2,0.1-8.3,0-12.5c0-2.5-1.2-4.4-3.4-5.6c-1.1-0.6-2.2-0.9-3.5-0.4c-5.4,2.2-10.8,2.2-16.2,0c-0.7-0.3-1.4-0.3-2.2-0.1
		c-2.9,0.9-4.6,3.2-4.6,6.6c0,3.9,0,7.8,0,11.6c0,2.1,0.8,2.8,2.9,2.8C130.8,151.1,134.8,151,138.8,151z"/>
	<path class="st0" d="M95.7,27.2c2.4,0.6,4.7,1.5,6.7,3.2c5.6,4.8,5.9,13.9,0.4,18.9c-3.7,3.4-8.1,4.5-12.9,2.9
		c-4.8-1.6-7.7-5.1-8.6-10.1c-1.2-6.5,3.4-13.1,10.1-14.5c0.3-0.1,0.6,0,0.8-0.3C93.4,27.2,94.5,27.2,95.7,27.2z M94,48.5
		c4.7,0,8.5-3.8,8.5-8.5c0-4.7-3.8-8.5-8.5-8.6c-4.7,0-8.6,3.9-8.6,8.6C85.5,44.7,89.3,48.5,94,48.5z"/>
	<path class="st0" d="M49.1,155.3c-4,0-8.1,0-12.1,0c-4.4,0-7-2.6-7-7c0-4,0-7.9,0-11.9c0-5.3,3-9.2,8-10.6c1.6-0.5,3.1-0.5,4.7,0.2
		c4.1,1.8,8.3,1.8,12.4,0.3c3.9-1.4,7.9-0.4,10.6,2.8c1.7,2,2.6,4.3,2.6,6.8c0.1,4.4,0.2,8.8,0,13.1c-0.2,3.9-2.9,6.2-6.8,6.3
		C57.3,155.3,53.2,155.3,49.1,155.3z M49.1,151c4.1,0,8.2,0,12.3,0c1.8,0,2.6-0.8,2.7-2.6c0-1.5,0-3.1,0-4.6c0-2.9,0.2-5.8-0.1-8.6
		c-0.4-3.9-4-6.1-7.6-4.8c-4.9,1.8-9.9,1.8-14.8-0.2c-1.5-0.6-2.8-0.4-4.1,0.4c-2.2,1.3-3.2,3.3-3.2,5.8c0,3.9,0,7.8,0,11.8
		c0,2.1,0.7,2.9,2.9,2.9C41.1,151.1,45.1,151,49.1,151z"/>
	<path class="st0" d="M93.8,84.8c-4,0-8,0-12,0c-4.5,0-7.1-2.6-7.1-7.2c0-4.5-0.3-9.1,0.2-13.6c0.5-5,5.6-9.3,10.6-9.1
		c0.7,0,1.3,0.4,1.9,0.7c4.2,1.7,8.6,1.9,12.8,0.1c2.5-1.1,4.8-0.7,7,0.4c4,2,5.9,5.5,6,9.9c0.1,4,0,8,0,12c0,4.1-2.6,6.7-6.7,6.8
		C102.3,84.9,98,84.8,93.8,84.8z M94,80.5c4.1,0,8.2,0,12.4,0c1.8,0,2.6-0.8,2.6-2.5c0-4.1,0.1-8.2,0-12.4c0-2.6-1.3-4.6-3.6-5.8
		c-1-0.5-2-0.8-3.1-0.3c-5.5,2.3-10.9,2.3-16.4,0c-0.6-0.2-1.1-0.3-1.7-0.2C81,60.1,79,62.6,79,66c0,3.9,0,7.7,0,11.6
		c0,2.1,0.7,2.9,2.8,2.9C85.9,80.5,89.9,80.5,94,80.5z"/>
	<path class="st0" d="M69.7,46.1c-1.5-0.7-2.8-1.2-4-1.9c-1.3-0.6-1.8-1.7-1.3-2.8c0.5-1.2,1.7-1.6,3-1c2.7,1.2,5.4,2.4,8.1,3.7
		c1.4,0.7,1.8,1.7,1.1,3.1c-1.3,2.9-2.7,5.8-4.2,8.7c-0.6,1.2-1.8,1.6-2.9,1.1c-1-0.5-1.4-1.7-0.9-2.9c0.4-0.9,0.8-1.9,1.4-3.1
		c-3.8,2.2-7,4.8-9.9,7.8C52,67.2,47.6,77.4,47,89.2c0,0.6,0,1.3-0.1,1.9c-0.1,1.4-0.9,2.3-2.2,2.2c-1.2,0-2.1-1-2.1-2.4
		c0-1.6,0.1-3.3,0.3-4.9c1.5-13.5,7.3-24.7,17.5-33.6c2.5-2.2,5.2-4.1,8.1-5.7C68.9,46.6,69.2,46.4,69.7,46.1z"/>
	<path class="st0" d="M140.5,85.4c-0.9-7.4-3.4-14.1-7.5-20.2c-5-7.4-11.5-13-19.7-16.7c-0.3-0.1-0.5-0.2-0.8-0.4
		c-1.3-0.7-1.8-1.8-1.2-3c0.5-1.1,1.7-1.5,3-0.9c13.2,5.9,22.5,15.7,27.7,29.2c1.5,3.8,2.4,7.8,2.8,11.9c0,0.2,0.1,0.5,0.2,0.7
		c0.1,0.1,0.3,0.2,0.4,0.3c0.8-0.9,1.5-1.9,2.3-2.7c1.1-1.1,2.4-1.2,3.3-0.3c0.9,0.9,0.8,2.2-0.3,3.3c-1.9,1.9-3.8,3.9-5.8,5.8
		c-1.3,1.2-2.4,1.2-3.7,0c-1.9-1.9-3.8-3.8-5.7-5.8c-1.1-1.1-1.2-2.3-0.3-3.2c0.9-1,2.1-0.9,3.3,0.2c0.6,0.6,1.2,1.2,1.8,1.7
		C140.3,85.4,140.4,85.4,140.5,85.4z"/>
	<path class="st0" d="M49.1,97.7c7,0,12.8,5.8,12.8,12.8c0,7-5.8,12.8-12.8,12.8c-7,0-12.8-5.8-12.8-12.8
		C36.3,103.4,42.1,97.7,49.1,97.7z M40.6,110.4c0,4.7,3.8,8.5,8.5,8.6c4.7,0,8.6-3.9,8.6-8.6c0-4.7-3.9-8.5-8.6-8.5
		C44.4,102,40.6,105.7,40.6,110.4z"/>
	<path class="st0" d="M138.8,97.7c7,0,12.8,5.7,12.8,12.7c0,7-5.7,12.8-12.7,12.8c-7,0-12.8-5.8-12.9-12.8
		C126,103.5,131.7,97.7,138.8,97.7z M147.3,110.5c0-4.7-3.8-8.5-8.5-8.5c-4.7,0-8.5,3.8-8.6,8.4c-0.1,4.7,3.9,8.6,8.6,8.6
		C143.5,119,147.3,115.1,147.3,110.5z"/>
	<path class="st0" d="M82.4,136.7c3.8,1,7.7,1.5,11.7,1.5c6.1,0,11.9-1.2,17.6-3.4c0.5-0.2,1.1-0.5,1.7-0.4c1,0.1,1.7,0.7,1.9,1.7
		c0.2,1.1-0.3,1.9-1.3,2.3c-1.4,0.6-2.9,1.2-4.3,1.6c-9.6,3-19.2,3.3-29,0.7c-0.3-0.1-0.6-0.1-1-0.2c-0.1,0-0.2,0-0.3,0.1
		c0.2,1,0.9,1.8,1.3,2.7c0.7,1.4,0.4,2.7-0.7,3.2c-1.2,0.6-2.3,0.1-3.1-1.3c-1.3-2.4-2.6-4.9-3.8-7.3c-0.9-1.8-0.4-3,1.5-3.6
		c2.5-0.8,5-1.5,7.5-2.2c1.6-0.5,2.7,0.1,3.1,1.4c0.4,1.2-0.3,2.2-1.9,2.7C83.1,136.3,82.6,136.2,82.4,136.7z"/>
</g>
</svg>
