<?xml version="1.0" encoding="utf-8"?>
<!-- Generator: Adobe Illustrator 23.0.6, SVG Export Plug-In . SVG Version: 6.00 Build 0)  -->
<svg version="1.1" id="Layer_1" xmlns="http://www.w3.org/2000/svg" xmlns:xlink="http://www.w3.org/1999/xlink" x="0px" y="0px"
	 viewBox="0 0 180.1 177.9" style="enable-background:new 0 0 180.1 177.9;" xml:space="preserve">
<style type="text/css">
	.st0{fill:#FF9600;}
	.st1{fill-rule:evenodd;clip-rule:evenodd;fill:#FF9600;}
</style>
<g>
	<path class="st0" d="M24.8,125.2c7.8-6.2,15.6-12.3,23.3-18.6c5.6-4.5,11.1-9.1,18.6-10.1c4-0.6,8-0.7,11.9,0.5
		c6.5,1.9,13,4,19.4,6c4.2,1.3,6.6,5.3,5.9,9.3c-0.8,4.5-3.7,6.5-8.7,6.4c-1.5-0.1-2.9-0.5-4.3-0.9c-4.7-1.5-9.4-2.8-14.1-4.4
		c-1.5-0.5-2.7-0.4-3.1,1.2c-0.4,1.5,0.8,2.1,2,2.5c5.5,1.7,11,3.5,16.5,4.9c7.5,1.9,12.2-0.6,15.1-7.7c0.5-1.2,1.3-1.7,2.3-2.3
		c8.3-4.7,16.5-9.3,24.8-14c7.7-4.3,12.8-2.6,16.2,5.4c0,1.3,0,2.6,0,3.9c-1.3,3.5-3.7,5.7-7,7.5c-13.7,7.6-27.2,15.2-40.8,23
		c-3,1.7-6,2.1-9.4,1.3c-9.6-2.3-19.1-4.5-28.7-6.9c-1.5-0.4-2.6-0.2-3.9,0.8c-5.6,4.4-11.4,8.7-17,13.2c-2.1,1.7-3.3,1.5-4.9-0.7
		c-4.6-6.3-9.5-12.4-14.2-18.6C24.8,126.3,24.8,125.7,24.8,125.2z"/>
	<path class="st0" d="M103.2,30.7c9.1,0,18.3,0,27.4,0c3.4,0,4.5,1,4.5,4.5c0,4.5,0,8.9,0,13.4c0,2.2-0.6,3.9-3.2,4
		c-2,0.1-1.5,1.6-1.5,2.6c0,9.6,0,19.2,0,28.8c0,3.8-1,4.8-4.8,4.8c-15.1,0-30.2,0-45.3,0c-3.5,0-4.7-1.2-4.7-4.7
		c0-9.7,0-19.4,0-29.1c0-1.4,0-2.5-1.9-2.6c-1.7-0.1-2.6-1.4-2.6-3.1c0-5.1-0.1-10.2,0-15.4c0-2.8,2-3.4,4.4-3.4
		C84.8,30.7,94,30.7,103.2,30.7z M103.3,46.2c6.4,0,12.8,0,19.2,0c6,0,5.9,0,6.1-6c0.1-2.4-0.8-2.9-3-2.8c-13.9,0.1-27.7,0-41.6,0
		c-6.4,0-6.3,0-6.3,6.4c0,1.9,0.6,2.4,2.4,2.3C87.9,46.1,95.6,46.2,103.3,46.2z M103.2,60.9c2.1,0,4.3,0,6.4,0
		c1.9,0,3.4-0.8,3.3-2.9c-0.1-1.8-1.4-2.7-3.3-2.7c-4.4,0-8.7,0-13.1,0c-1.8,0-3.1,0.8-3.2,2.7c0,1.9,1.3,2.8,3.1,2.8
		C98.7,60.9,101,60.9,103.2,60.9z"/>
</g>
</svg>
