<?xml version="1.0" encoding="utf-8"?>
<!-- Generator: Adobe Illustrator 23.0.6, SVG Export Plug-In . SVG Version: 6.00 Build 0)  -->
<svg version="1.1" id="Layer_1" xmlns="http://www.w3.org/2000/svg" xmlns:xlink="http://www.w3.org/1999/xlink" x="0px" y="0px"
	 viewBox="0 0 180.1 177.9" style="enable-background:new 0 0 180.1 177.9;" xml:space="preserve">
<style type="text/css">
	.st0{fill:#FF9600;}
	.st1{fill-rule:evenodd;clip-rule:evenodd;fill:#FF9600;}
</style>
<g>
	<path class="st0" d="M94.1,153.7c-11.3,0-22.5,0-33.8,0c-5.6,0-8.1-2.3-9.1-7.9c-2.1-12.8-4.4-25.5-6.6-38.3
		c-0.8-4.6,0.4-7.2,4.6-9.4c0.9-0.4,1.2-1.1,1.4-1.9c0.8-2.5,1.8-4.9,3.1-7.2c3.3-6.1,8.5-9.3,15.4-9.7c0.7,0,1.4-0.1,2.1-0.1
		c2.9-0.3,5.5-0.6,7.9,2.2c2.4,2.8,6.5,3.2,10.2,3.6c5.4,0.7,10.7,0.3,15.9-1.5c1.9-0.7,3.8-1.5,5-3.1c1-1.4,2.1-1.7,3.7-1.5
		c1.7,0.2,3.4,0.3,5,0.4c6.9,0.4,12.1,3.6,15.4,9.7c0.7,1.3,1.5,2.7,2,4.1c0.9,2.5,1.7,4.7,4.5,6.1c2.7,1.4,3.4,4.4,2.8,7.4
		c-2.3,13.4-4.6,26.9-6.9,40.3c-0.7,4-3.8,6.5-8.2,6.5C117,153.7,105.5,153.7,94.1,153.7z M94.2,99.7c-13.6,0-27.1,0-40.7,0
		c-5.5,0-7.6,2.5-6.7,8c2.2,12.7,4.4,25.4,6.6,38c0.8,4.4,2.5,5.9,7,5.9c12.7,0,25.4,0,38.2,0c10,0,19.9,0,29.9,0
		c3.7,0,5.6-1.7,6.3-5.3c2.2-12.8,4.4-25.7,6.6-38.5c1-5.4-1.2-8-6.6-8C121.2,99.7,107.7,99.7,94.2,99.7z"/>
	<path class="st0" d="M94.2,19.2c13.4,0,22,8.4,22.4,21.8c0.1,2,0.5,3.8,1.1,5.7c1.4,4.3,0.6,8.5-2.6,11.9c-0.6,0.7-0.9,1.4-1.3,2.1
		c-2.4,5.5-5.6,10.4-10.4,14.1C97,79.5,90,79.4,83.7,74.4c-4.4-3.5-7.5-8.1-9.8-13.2c-0.5-1.2-1.1-2.2-2.2-3.1
		c-3-2.7-3.5-9.7-1.3-13.2c1-1.6,0.6-3.7,1-5.5c0.3-1.3,0.3-2.7,0.6-4.1c1.7-9.3,9-15.4,19.1-16.1C92.2,19.1,93.2,19.2,94.2,19.2z
		 M107.7,41.6c-0.4-0.2-0.8-0.3-1.2-0.5c-2.9-1.7-6-2.1-9.3-1.2c-3.4,0.9-6.9,0.7-10.2-0.3c-5.8-1.9-10,1.5-11.4,6.5
		c-0.1,0.5-0.2,1.4-0.5,1.5c-3.1,1.2-1.8,3.8-1.8,5.8c0,1.5,0.6,3.2,2.1,3.8c1,0.4,1.3,1,1.7,1.9c1.7,4.2,4.1,8.1,7.5,11.2
		c5.7,5.1,12.3,5.1,18,0.1c3.5-3,5.8-6.9,7.5-11.1c0.3-0.6,0.3-1.3,0.9-1.8c2.6-1.8,3.9-5.1,3.1-8c-0.2-0.6-0.4-1.4-1-1.4
		c-1.4,0-1.3-1-1.6-1.8c-0.8-2.3-1.6-4.6-3.5-6.4c-0.1-0.1-0.4-0.1-0.6-0.1C107.4,40.3,108.1,40.8,107.7,41.6z"/>
	<path class="st0" d="M94,158.1c-12.1,0-24.2,0-36.3,0c-0.6,0-1.2,0-1.8,0c-0.9-0.1-1.4-0.5-1.5-1.4c-0.1-1,0.5-1.6,1.5-1.7
		c0.6-0.1,1.2,0,1.8,0c24.3,0,48.5,0,72.8,0c0.5,0,1.1,0,1.6,0c1,0.1,1.5,0.7,1.5,1.7c-0.1,0.9-0.6,1.4-1.5,1.4c-0.6,0-1.2,0-1.8,0
		C118.2,158.1,106.1,158.1,94,158.1z"/>
	<path class="st0" d="M97.3,125c-0.1,1.9-1.6,3.3-3.4,3.2c-1.9-0.1-3.2-1.6-3.1-3.5c0.1-1.8,1.5-3.1,3.3-3.1
		C95.9,121.7,97.4,123.2,97.3,125z"/>
</g>
</svg>
