<?xml version="1.0" encoding="utf-8"?>
<!-- Generator: Adobe Illustrator 23.0.6, SVG Export Plug-In . SVG Version: 6.00 Build 0)  -->
<svg version="1.1" id="Layer_1" xmlns="http://www.w3.org/2000/svg" xmlns:xlink="http://www.w3.org/1999/xlink" x="0px" y="0px"
	 viewBox="0 0 180.1 177.9" style="enable-background:new 0 0 180.1 177.9;" xml:space="preserve">
<style type="text/css">
	.st0{fill:#FF9600;}
	.st1{fill-rule:evenodd;clip-rule:evenodd;fill:#FF9600;}
</style>
<g>
	<path class="st0" d="M91.9,107c-7.9,0-15.8,0-23.8,0c-1.2,0-1.6-0.3-1.5-1.6c0.2-3.4,1.6-5.8,4.7-7.2c2.6-1.3,5.4-2,8.1-3.2
		c1.7-0.7,3.2-1.7,4.5-3.1c1.4-1.6,1.8-3.5,1.2-5.5c-0.3-1.1-0.7-2.1-1.1-3.2c-0.1-0.4-0.3-0.6-0.7-0.8c-1.9-0.9-2.6-2-1.7-3.7
		c0.8-1.7,0.6-3.1,0.3-4.8c-0.6-3.2,1.1-5.7,3.5-7.7c5-4.1,12.3-2.6,15.5,3c1.1,1.9,1.4,4,0.6,6.1c-0.3,0.8-0.4,1.5,0.2,2.2
		c0.6,0.9,0.8,2,0.6,3.1c-0.1,0.7-0.4,1.4-1.2,1.6c-1,0.2-1.3,0.8-1.5,1.6c0,0.1-0.1,0.2-0.1,0.2c-2.6,5.7,0.2,8.8,5,11
		c2.5,1.1,5.2,2,7.7,3.1c3.3,1.4,4.8,3.9,5,7.5c0,1.1-0.2,1.4-1.4,1.4C107.8,107,99.9,107,91.9,107z"/>
	<path class="st0" d="M91.3,132c-21.1,0-39.2-16.6-41-38.3c-0.2-2.3-0.3-4.6,0-6.8c0.1-1-0.2-1.3-1.2-1.2c-1.6,0.1-3.2,0-4.8,0
		c-0.3,0-0.8,0.1-0.9-0.3c-0.1-0.4,0.2-0.6,0.4-0.8c2.8-2.8,5.7-5.7,8.5-8.5c0.6-0.6,0.9-0.4,1.4,0.1c2.8,2.8,5.6,5.6,8.4,8.5
		c0.2,0.2,0.6,0.5,0.4,0.9c-0.2,0.4-0.6,0.3-1,0.3c-1.4,0-2.9,0-4.3,0c-0.8,0-1.2,0.2-1.2,1.1c-1,11.6,2.7,21.6,11.2,29.5
		c14,13.3,35.5,13.1,49.5-0.2c0.8-0.7,1.6-1.4,2.7-1.4c1.2,0,2.2,0.6,2.6,1.7c0.5,1.3,0.3,2.4-0.7,3.3c-2.6,2.6-5.5,4.8-8.7,6.7
		C106.2,130.2,99.2,132,91.3,132z"/>
	<path class="st0" d="M90.9,48.4c24.8,0,43.8,19.9,42.7,43.7c-0.1,1.4,0.3,1.8,1.6,1.7c1.5-0.1,3,0,4.4,0c0.3,0,0.7,0,0.8,0.3
		c0.2,0.4-0.1,0.6-0.4,0.8c-2.9,2.9-5.8,5.8-8.7,8.7c-0.5,0.5-0.9,0.4-1.3,0c-2.8-2.9-5.7-5.7-8.5-8.6c-0.2-0.2-0.7-0.4-0.5-0.9
		c0.2-0.4,0.7-0.4,1.1-0.4c1.4,0,2.9,0,4.3,0c0.9,0,1.2-0.2,1.3-1.2c1.4-18.2-12.1-35.3-30.2-37.9c-11.8-1.7-22,1.6-30.7,9.7
		c-1.5,1.4-3.3,1.6-4.5,0.3c-1.3-1.3-1.1-3.1,0.5-4.6C70.9,52.4,80.7,48.6,90.9,48.4z"/>
	<path class="st0" d="M47.6,43.7c3.2,0,5.8,2.6,5.8,5.8c0,3.3-2.6,5.8-5.9,5.8c-3.2,0-5.7-2.6-5.7-5.8
		C41.9,46.3,44.4,43.7,47.6,43.7z"/>
	<path class="st0" d="M57,134.5c0,3.3-2.6,5.8-5.9,5.8c-3.2,0-5.7-2.6-5.7-5.7c0-3.3,2.6-5.9,5.8-5.9C54.5,128.7,57,131.2,57,134.5z
		"/>
	<path class="st0" d="M138.4,45.9c0,3.2-2.6,5.8-5.8,5.8c-3.2,0-5.9-2.6-5.9-5.9c0-3.2,2.6-5.8,5.8-5.8
		C135.8,40.1,138.3,42.7,138.4,45.9z"/>
	<path class="st0" d="M157.7,87.7c0,3.2-2.6,5.8-5.8,5.7c-3.2,0-5.8-2.6-5.7-5.8c0-3.3,2.6-5.8,5.9-5.8
		C155.3,81.9,157.8,84.5,157.7,87.7z"/>
	<path class="st0" d="M26.1,92.7c0-3.2,2.6-5.7,5.8-5.7c3.2,0,5.8,2.6,5.7,5.8c0,3.3-2.6,5.8-5.9,5.8C28.5,98.5,26,95.9,26.1,92.7z"
		/>
	<path class="st0" d="M142,130.9c0,3.2-2.6,5.7-5.9,5.7c-3.2,0-5.8-2.6-5.8-5.8c0-3.2,2.6-5.8,5.8-5.8
		C139.4,125,142,127.6,142,130.9z"/>
</g>
</svg>
