<?xml version="1.0" encoding="utf-8"?>
<!-- Generator: Adobe Illustrator 23.0.6, SVG Export Plug-In . SVG Version: 6.00 Build 0)  -->
<svg version="1.1" id="Layer_1" xmlns="http://www.w3.org/2000/svg" xmlns:xlink="http://www.w3.org/1999/xlink" x="0px" y="0px"
	 viewBox="0 0 180.1 177.9" style="enable-background:new 0 0 180.1 177.9;" xml:space="preserve">
<style type="text/css">
	.st0{fill:#FF9600;}
</style>
<g>
	<path class="st0" d="M74,15.2c4.7,0,9.3,0,14,0c7,0.1,13.9,0.5,20.9,0.4c4.5-0.1,8.3,1.1,11.5,4.2c10.5,10.3,21,20.7,31.3,31.1
		c3.5,3.5,4.8,7.9,4.8,13c-0.2,26.1-0.2,52.3,0,78.4c0.1,8.3-6.4,19-17.1,21.5c-2,0.5-4.1,0.6-6.2,0.9c-23,0-46.1,0-69.1,0
		c-0.6-0.2-1.3-0.4-1.9-0.5C50.3,162.8,42,153.4,42,141.5c0-34.6,0-69.3,0-103.9c0-11.4,9.7-21.4,21.1-21.9
		C66.8,15.5,70.4,15.3,74,15.2z M53.4,89.8c0,17,0,33.9,0,50.9c0,7.4,4.6,12.2,11.9,12.3c22.6,0.1,45.2,0.1,67.8,0
		c7.1,0,11.9-4.8,11.9-12c0.1-24.2,0-48.3,0-72.5c0-5-1.9-6.8-6.8-6.9c-6.2-0.1-12.4-0.1-18.6-0.2c-7.3-0.1-8.7-1.4-8.9-8.8
		c-0.1-6.3-0.1-12.6-0.3-18.9c-0.2-5.4-1.8-6.8-7.1-6.8c-12.3,0-24.6,0.1-36.9,0.1c-8.4,0-13,4.6-13,12.9
		C53.4,56.6,53.4,73.2,53.4,89.8z"/>
	<path class="st0" d="M99,44.1c0.3,5.8,0.6,11.3,0.8,17.1c0.1-0.1,0,0.1-0.2,0.1c-9.7,0-19.4,0.2-29.2,0c-3.7-0.1-5.5-2.4-5.6-6.1
		c-0.3-10,0.4-10.9,10.3-11.1C83.1,44,90.9,44.1,99,44.1z"/>
	<path class="st0" d="M88,135.9c0-3.8,0-7.4,0-11.3c15.1,0,30.1,0,45.4,0c0,3.6,0,7.3,0,11.3C118.4,135.9,103.4,135.9,88,135.9z"/>
	<path class="st0" d="M88,89.8c0-3.7,0-7.2,0-10.9c15.1,0,30,0,45.3,0c0,3.5,0,7.1,0,10.9C118.4,89.8,103.4,89.8,88,89.8z"/>
	<path class="st0" d="M133.4,101.6c0,3.9,0,7.5,0,11.3c-15.1,0-30,0-45.2,0c0-3.7,0-7.4,0-11.3C103.2,101.6,118.1,101.6,133.4,101.6
		z"/>
	<path class="st0" d="M65.1,124.4c3.7,0,7.2,0,10.9,0c0,3.8,0,7.5,0,11.4c-3.5,0-7.1,0-10.9,0C65.1,132.2,65.1,128.5,65.1,124.4z"/>
	<path class="st0" d="M76,89.9c-3.7,0-7.2,0-10.9,0c0-3.7,0-7.3,0-11.1c3.6,0,7.2,0,10.9,0C76,82.6,76,86.2,76,89.9z"/>
	<path class="st0" d="M76,101.6c0,3.7,0,7.3,0,11.2c-3.7,0-7.2,0-11,0c0-3.7,0-7.3,0-11.2C68.7,101.6,72.3,101.6,76,101.6z"/>
</g>
</svg>
