<?xml version="1.0" encoding="utf-8"?>
<!-- Generator: Adobe Illustrator 23.0.6, SVG Export Plug-In . SVG Version: 6.00 Build 0)  -->
<svg version="1.1" id="Layer_1" xmlns="http://www.w3.org/2000/svg" xmlns:xlink="http://www.w3.org/1999/xlink" x="0px" y="0px"
	 viewBox="0 0 180.1 177.9" style="enable-background:new 0 0 180.1 177.9;" xml:space="preserve">
<style type="text/css">
	.st0{fill:#FF9600;}
</style>
<path class="st0" d="M141.9,128c0,7.8-0.1,15.6,0,23.3c0.1,3.3-1,4.6-4.4,4.5c-9.4-0.2-18.9-0.2-28.3,0c-3.1,0.1-3.5-1-3.5-3.7
	c0.1-13.3,0-26.5,0.1-39.8c0-2.6-0.6-3.6-3.3-3.5c-6.5,0.2-13,0.2-19.5,0c-3-0.1-3.6,1-3.5,3.7c0.1,13.1,0,26.3,0.1,39.4
	c0,2.9-0.7,3.9-3.8,3.8c-10.5-0.2-20.9-0.2-31.4,0c-3.3,0-4.5-1.2-4.5-4.5c0.1-15.7,0.1-31.4,0-47.1c0-1.8,0.4-3.1,1.7-4.4
	C57.5,84.4,73.2,68.8,88.9,53c1.6-1.6,2.5-1.8,4.2-0.1c15.7,15.7,31.4,31.4,47.1,47c1.3,1.3,1.8,2.6,1.7,4.4
	C141.8,112.2,141.9,120.1,141.9,128z"/>
<path class="st0" d="M63,50.2c7-7.1,14-14.3,21.1-21.4c2.3-2.3,4.4-6.4,7.1-6.2c2.4,0.2,4.6,4,6.9,6.3c17.7,17.7,35.3,35.3,53,53
	c2.1,2.1,3.7,4.3,2.9,7.4c-0.6,2.6-2.3,4.2-4.8,5c-2.9,0.9-5.2-0.5-7.2-2.5c-8.7-8.7-17.3-17.3-26-26c-7.5-7.5-15-14.9-22.4-22.5
	c-2-2.1-3.1-2.3-5.3-0.1c-15.9,16.1-31.9,32-47.8,48c-2,2-4.2,3.9-7.3,3.2c-2.5-0.5-4.4-2.1-5.1-4.6c-0.9-2.9,0.2-5.2,2.2-7.3
	c6.4-6.4,12.8-12.9,19.2-19.2c1.4-1.4,2-2.7,2-4.7c-0.1-6.6-0.1-13.3,0-19.9c0-3.7,2.2-6.2,5.3-6.1c3,0,5.1,2.3,5.2,5.9
	c0.1,3.7,0,7.4,0,11.1C62.3,49.8,62.6,50,63,50.2z"/>
</svg>
