<?xml version="1.0" encoding="utf-8"?>
<!-- Generator: Adobe Illustrator 23.0.6, SVG Export Plug-In . SVG Version: 6.00 Build 0)  -->
<svg version="1.1" id="Layer_1" xmlns="http://www.w3.org/2000/svg" xmlns:xlink="http://www.w3.org/1999/xlink" x="0px" y="0px"
	 viewBox="0 0 180.1 177.9" style="enable-background:new 0 0 180.1 177.9;" xml:space="preserve">
<style type="text/css">
	.st0{fill:#FF9600;}
</style>
<path class="st0" d="M32.2,94.6c0-19.8,0-39.6,0-59.5c0-4.8,1.5-6.3,6.2-6.3c22.3,0,44.7,0,67,0c2.6,0,4.5,0.8,6.3,2.6
	c5.1,5.1,10.2,10.1,15.4,15.1c1.7,1.7,2.6,3.5,2.5,5.9c-0.1,3.1-0.1,6.1,0,9.2c0,1.2-0.3,1.6-1.6,1.2c-1.9-0.7-3.9-1.1-6-1
	c-1.2,0-1.7-0.4-1.7-1.7c-0.1-4.5-0.2-4.5-4.7-4.5c-2.9,0-5.9,0-8.8,0c-3.9,0-4.4-0.6-4.4-4.5c0-3.7,0-7.4,0-11.1c0-1.5-0.4-2.1-2-2
	c-19.1,0-38.1,0-57.2,0c-1.7,0-1.9,0.7-1.9,2.1c0,28.3,0,56.7,0,85c0,8,0,16.1,0,24.1c0,1.5,0.4,2,2,2c25-0.1,50-0.1,74.9,0
	c1.8,0,2.1-0.7,2-2.2c-0.1-2.8,0-2.9,2.8-2.8c2,0,4.6-0.9,5.9,0.4c1.4,1.3,0.5,4,0.5,6c0,7-0.8,7.8-7.8,7.8c-27.7,0-55.4,0-83.1,0
	c-5,0-6.4-1.4-6.4-6.5C32.2,134.1,32.2,114.3,32.2,94.6C32.2,94.6,32.2,94.6,32.2,94.6z"/>
<path class="st0" d="M121.3,139.8c-11.2,0-22.3,0-33.5,0c-2.7,0-2.8-0.3-3.1-3c-0.4-3.6,1-6,3.8-8.1c5.9-4.6,12.3-8.1,19.6-10.1
	c1.5-0.4,2.8-0.4,4.2,0.2c5.9,2.4,12,2.5,17.9,0c1.4-0.6,2.8-0.7,4.2-0.3c8.2,2.4,15.6,6.4,21.9,12.2c1.3,1.2,2.1,6.7,1.2,8.2
	c-0.6,1-1.7,0.8-2.6,0.8c-10.3,0-20.6,0-31,0C123.1,139.8,122.2,139.8,121.3,139.8z"/>
<path class="st0" d="M137.9,85.4c-0.1,1.1-0.2,2.2-0.4,3.3c-0.2,1.4-0.5,2.5,0.7,3.8c1.1,1.2,0.7,3.1-0.8,3.8
	c-1.6,0.7-1.8,1.9-2.1,3.2c-1,4.3-3.2,7.9-6.7,10.6c-4.4,3.4-9.9,3.4-14.4,0.1c-3.8-2.8-6.1-6.7-7-11.3c-0.2-1.1-0.5-1.9-1.6-2.4
	c-1.6-0.7-2.1-2.9-0.9-4.3c0.9-1,0.8-1.9,0.6-3c-2.2-11.2,5.5-21,16.3-21C130.4,68.2,137.8,76,137.9,85.4z"/>
<path class="st0" d="M72.4,114.3c-5.6,0-11.3,0-16.9,0c-1.2,0-2.3-0.2-2.4-1.7c-0.1-1.6,1.1-1.9,2.4-2c0.6,0,1.1,0,1.7,0
	c4.5,0,9.1,0,13.6,0c5.9,0,11.8,0,17.8,0c0.3,0,0.6,0,0.8,0c1.2,0,2.3,0.4,2.3,1.9c0,1.4-1,1.8-2.3,1.8c-4.2,0-8.4,0-12.5,0
	C75.4,114.3,73.9,114.3,72.4,114.3z"/>
<path class="st0" d="M72.5,97.9c-5.4,0-10.7,0-16.1,0c-0.6,0-1.3,0-1.9-0.1c-0.9-0.2-1.4-0.8-1.4-1.8c0.1-1,0.6-1.5,1.5-1.7
	c0.5-0.1,1.1-0.1,1.7-0.1c10.7,0,21.3,0,32,0c0.2,0,0.4,0,0.6,0c1.3,0,2.7,0.1,2.7,1.8c0,1.7-1.3,1.9-2.7,1.9c-4.6,0-9.2,0-13.8,0
	C74.3,97.9,73.4,97.9,72.5,97.9z"/>
<path class="st0" d="M72.5,77.7c5.2,0,10.4,0,15.7,0c0.7,0,1.4,0,2.1,0.1c0.8,0.1,1.4,0.7,1.5,1.5c0.1,1-0.4,1.6-1.3,1.9
	c-0.7,0.2-1.4,0.2-2.1,0.2c-10.5,0-21,0-31.5,0c-0.5,0-1,0-1.5,0c-1.2-0.1-2.2-0.5-2.2-2c0.1-1.4,1-1.7,2.2-1.7
	C61,77.7,66.8,77.7,72.5,77.7C72.5,77.7,72.5,77.7,72.5,77.7z"/>
</svg>
