<?xml version="1.0" encoding="utf-8"?>
<!-- Generator: Adobe Illustrator 23.0.6, SVG Export Plug-In . SVG Version: 6.00 Build 0)  -->
<svg version="1.1" id="Layer_1" xmlns="http://www.w3.org/2000/svg" xmlns:xlink="http://www.w3.org/1999/xlink" x="0px" y="0px"
	 viewBox="0 0 180.1 177.9" style="enable-background:new 0 0 180.1 177.9;" xml:space="preserve">
<style type="text/css">
	.st0{fill:#FF9600;}
</style>
<path class="st0" d="M103.1,11c0.8,0.2,1.5,0.4,2.3,0.7c4.6,1.7,7.6,5,8.6,9.8c0.2,1,0.5,1.3,1.5,1.4c6.1,0.7,10.8,5.5,11.6,11.7
	c0.1,1.1,0.5,1.2,1.4,1.2c5.2,0,10.5,0,15.7,0c8.1,0,13.6,5.4,13.6,13.5c0,34.7,0,69.4,0,104c0,8.2-5.6,13.6-13.8,13.6
	c-34,0-68,0-102,0c-8.2,0-13.8-5.5-13.8-13.7c0-34.6,0-69.1,0-103.7c0-8.2,5.5-13.7,13.6-13.7c5.2,0,10.5,0,15.7,0
	c0.9,0,1.3-0.2,1.4-1.2c0.7-6.4,5.4-11,11.9-11.7c0.6-0.1,1-0.2,1.1-0.9c1.2-6,4.9-9.5,10.8-10.8c0.1,0,0.2-0.1,0.2-0.2
	C89.7,11,96.4,11,103.1,11z M148.7,101.5c0-17.3,0-34.5,0-51.8c0-3.4-1.4-4.7-4.7-4.7c-5.1,0-10.3,0-15.4,0c-1.1,0-1.4,0.3-1.4,1.5
	c-0.1,7.7-5.8,13.3-13.5,13.3c-13.8,0-27.5,0-41.3,0c-7.7,0-13.4-5.6-13.5-13.3c0-1.3-0.5-1.5-1.6-1.5c-4.9,0-9.8,0-14.8,0
	c-4,0-5.2,1.2-5.2,5.2c0,34.2,0,68.3,0,102.5c0,4,1.2,5.2,5.2,5.2c33.7,0,67.3,0,101,0c3.9,0,5.2-1.2,5.2-5.2
	C148.7,135.6,148.7,118.5,148.7,101.5z M93,50.6c6.9,0,13.7,0,20.6,0c2.8,0,4.4-1.6,4.5-4.4c0-3.3,0-6.7,0-10c0-2.5-1.7-4.1-4.1-4.1
	c-1.4,0-2.7,0-4.1,0c-2.7-0.1-4.5-2-4.6-4.7c0-1.1,0-2.1,0-3.2c-0.2-2.3-1.8-3.9-4-3.9c-5.4-0.1-10.8-0.1-16.1,0
	c-2.3,0-4,1.7-4.1,4.1c-0.1,1,0,1.9,0,2.9c0,2.9-1.9,4.8-4.9,4.9c-1.1,0-2.1,0-3.2,0c-3.3,0-4.8,1.5-4.8,4.7c0,3,0,6.1,0,9.1
	c0,3.2,1.5,4.8,4.7,4.8C79.5,50.6,86.3,50.6,93,50.6z"/>
<path class="st0" d="M82.4,136.2c-1.7,0-3.2-0.6-4.4-1.8c-8.5-8.5-17.1-17.1-25.6-25.6c-2.5-2.5-2.5-6.3-0.1-8.7
	c2.4-2.4,6.2-2.4,8.7,0.1c6.8,6.7,13.5,13.5,20.2,20.3c0.9,0.9,1.4,1,2.3,0c13.6-13.7,27.3-27.4,41-41.1c1.8-1.8,3.8-2.7,6.3-2.1
	c4.4,1.1,6.1,6.4,3.2,9.9c-0.3,0.3-0.6,0.6-0.8,0.9c-15.3,15.3-30.6,30.6-45.9,45.9C86,135.2,84.5,136.2,82.4,136.2z"/>
</svg>
