<?xml version="1.0" encoding="utf-8"?>
<!-- Generator: Adobe Illustrator 23.0.6, SVG Export Plug-In . SVG Version: 6.00 Build 0)  -->
<svg version="1.1" id="Layer_1" xmlns="http://www.w3.org/2000/svg" xmlns:xlink="http://www.w3.org/1999/xlink" x="0px" y="0px"
	 viewBox="0 0 180.1 177.9" style="enable-background:new 0 0 180.1 177.9;" xml:space="preserve">
<style type="text/css">
	.st0{fill:#FF9600;}
</style>
<path class="st0" d="M147.9,51.3c-6.7,0-13.4,0-20.1,0c-27.2,0-54.4,0-81.6,0c-1.3,0-2.5,0.1-3.6,0.6c-3.5,1.4-5.4,4.4-5.4,8.5
	c0,23,0,46.1,0,69.1c0,6.2,3.4,9.6,9.6,9.6c16.7,0,33.5,0,50.2,0c16.9,0,33.8,0,50.6,0c5.7,0,9.3-3.5,9.3-9.2c0-23.2,0-46.3,0-69.5
	C157,55,153.3,51.4,147.9,51.3z M77.2,62.4c4.1,0,8.2,0,12.2,0c1.1,0,1.7,0.4,1.7,1.6c0,0.1,0,0.2,0,0.3c0,2.7,0,2.8-2.7,2.8
	c-1.9,0-3.8,0-5.6,0c-1.1,0-1.5,0.5-1.6,1.6c-0.2,3.7-0.2,3.7,3.5,3.6c1.5,0,2.9,0,4.4,0c1,0,1.4,0.4,1.5,1.4
	c0.2,3.4,0.1,3.5-3.2,3.5c-1.5,0-3,0-4.5,0c-1.1,0-1.6,0.4-1.6,1.6c0,1,0,1.9,0,2.9c0,1.2,0.5,1.6,1.7,1.6c2.3,0,4.7,0,7,0
	c1.3,0,1.9,0.5,1.8,1.8c0,0.3,0,0.6,0,0.8c0,1.9-0.2,2-2.1,2c-4.1,0-8.2,0-12.2,0c-1.7,0-1.9-0.2-1.9-1.9c0-3.7,0-7.3,0-11
	c0-3.6,0-7.2,0-10.9C75.4,62.9,75.9,62.3,77.2,62.4z M51.9,62.4c5.3,0.1,3.9-0.6,6.5,3.8c2.5,4.3,5,8.7,6.9,13.3
	c0.1,0.2,0.2,0.3,0.5,0.7c-0.1-1.6-0.1-2.8-0.2-4.1c-0.4-3.9-0.2-7.8-0.2-11.7c0-1.8,0.2-2,1.9-2c3.6-0.1,3.6-0.1,3.6,3.4
	c0,6.7,0,13.4,0,20.1c0,1.9-0.2,2.1-2,2.1c-4.9,0-3.8,0.6-6.1-3.5c-2.5-4.5-5.1-9-7.2-13.7c-0.1-0.3-0.2-0.7-0.7-0.9
	c-0.3,0.7-0.2,1.4-0.1,2.1c0.4,4.8,0.2,9.5,0.2,14.3c0,1.6-0.2,1.8-1.9,1.8c-3.3,0.1-3.3,0.1-3.3-3.2c0-6.7,0-13.4,0-20.1
	C49.6,62.5,49.7,62.3,51.9,62.4z M90.6,132.4c-0.6,0.1-1.3,0.1-1.9,0.1c-12,0-24,0-36.1,0c-0.6,0-1.2,0-1.8-0.1
	c-1.4-0.2-2.3-1.3-2.3-2.7c0-1.4,0.8-2.4,2.3-2.6c0.7-0.1,1.4-0.1,2.1-0.1c5.9,0,11.8,0,17.8,0c0,0,0,0,0,0c6.3,0,12.6,0,18.9,0
	c2.1,0,3.1,0.8,3.3,2.4C93,131,92.1,132.2,90.6,132.4z M48.5,119.1c0-1.4,0.9-2.4,2.3-2.6c0.5-0.1,1-0.1,1.5-0.1
	c12.2,0,24.4,0,36.6,0c0.6,0,1.3,0,1.9,0.2c1.3,0.3,2,1.3,1.9,2.6c0,1.3-0.7,2.2-2,2.5c-0.7,0.2-1.5,0.2-2.2,0.2c-6,0-12,0-18,0
	c-5.9,0-11.8,0-17.7,0c-0.7,0-1.4,0-2.1-0.1C49.4,121.5,48.5,120.4,48.5,119.1z M90.5,111c-0.9,0.1-1.7,0.1-2.6,0.1
	c-5.7,0-11.5,0-17.2,0c-6,0-12,0-18,0c-0.7,0-1.4,0-2-0.2c-1.3-0.3-2.1-1.3-2.1-2.6c0-1.3,0.8-2.3,2.1-2.6c0.5-0.1,1-0.2,1.5-0.2
	c12.4,0,24.9,0,37.3,0c2.1,0,3.2,0.7,3.4,2.3C93,109.5,92.1,110.8,90.5,111z M90.7,100.2c-0.6,0.1-1.3,0.1-1.9,0.1
	c-12.1,0-24.2,0-36.3,0c-0.6,0-1.2,0-1.8-0.1c-1.4-0.3-2.2-1.3-2.2-2.6c0-1.3,0.9-2.3,2.2-2.6c0.6-0.1,1.3-0.1,1.9-0.1
	c6,0,12,0,18,0c0,0,0,0,0,0c6.3,0,12.6,0,18.8,0c2,0,3.1,0.8,3.3,2.4C92.9,98.7,92.2,99.9,90.7,100.2z M94.5,64.1
	c-0.3-1.4-0.1-1.7,1.3-1.7c1,0,2,0,3,0c1.1,0,1.6,0.5,1.8,1.6c0.9,4.9,1.8,9.7,2.7,14.6c0.1,0.5,0.1,1,0.5,1.5
	c0.5-0.3,0.4-0.9,0.5-1.3c1-4.7,1.9-9.4,2.9-14.2c0.4-2.1,0.6-2.2,2.8-2.2c4.6,0,3.8-0.5,4.7,3.8c0.9,4.3,1.8,8.6,2.3,13
	c0,0.4,0.1,0.7,0.3,1c0.5-0.4,0.4-0.9,0.5-1.3c0.9-4.9,1.9-9.7,2.7-14.6c0.3-1.5,0.9-2.1,2.4-2c0.6,0.1,1.3,0,1.9,0
	c1.8,0,2,0.2,1.5,1.9c-1.3,5.1-2.6,10.1-3.9,15.2c-0.6,2.3-1.2,4.6-1.7,6.9c-0.3,1.1-0.9,1.6-2,1.6c-1-0.1-2-0.1-3,0
	c-1.2,0.1-1.8-0.5-2.1-1.7c-0.9-4.8-1.8-9.6-2.7-14.3c-0.1-0.3,0-0.7-0.3-1c-0.4,0.2-0.4,0.6-0.4,0.9c-0.8,4.8-2.1,9.6-3.1,14.4
	c-0.3,1.3-0.9,1.8-2.1,1.8c-0.5,0-1,0-1.5,0c-3.1,0-3.1,0-3.8-3C97.8,78,96.1,71.1,94.5,64.1z M140.7,94.8c2.6,0,3.8,0.9,3.8,2.7
	c0,1.8-1.3,2.8-3.8,2.8c-12.3,0-24.5,0-36.8,0c-0.5,0-1,0-1.5-0.1c-1.4-0.3-2.3-1.3-2.3-2.7c0-1.3,0.8-2.3,2.2-2.6
	c0.7-0.1,1.4-0.1,2.1-0.1c6,0,12,0,18,0C128.6,94.8,134.7,94.8,140.7,94.8z M142.5,132.4c-0.6,0.1-1.3,0.2-1.9,0.2
	c-12.1,0-24.1,0-36.2,0c-0.5,0-1.1,0-1.6-0.1c-1.6-0.2-2.5-1.2-2.5-2.7c0-1.4,0.9-2.4,2.5-2.6c0.5-0.1,1.1-0.1,1.6-0.1
	c6,0,12,0,18,0c6,0,11.9,0,17.9,0c0.7,0,1.5,0,2.2,0.2c1.3,0.3,2.1,1.3,2.1,2.6C144.6,131.1,143.8,132.1,142.5,132.4z M100.3,119
	c0.1-1.3,0.7-2.2,2-2.5c0.6-0.2,1.3-0.2,1.9-0.2c12.2,0,24.3,0,36.5,0c0.7,0,1.4,0,2,0.2c1.2,0.4,1.9,1.3,1.9,2.6
	c0,1.3-0.7,2.1-1.9,2.5c-0.7,0.2-1.5,0.2-2.2,0.2c-6.1,0-12.1,0-18.2,0c-6,0-12,0-18,0c-0.7,0-1.4,0-2-0.2
	C100.9,121.3,100.2,120.3,100.3,119z M140.8,111.1c-12.3,0-24.5,0-36.8,0c-0.5,0-0.9,0-1.4-0.1c-1.5-0.2-2.4-1.3-2.4-2.7
	c0-1.4,0.9-2.4,2.3-2.6c0.7-0.1,1.4-0.1,2.1-0.1c6,0,11.9,0,17.9,0c6.1,0,12.1,0,18.2,0c2.6,0,3.8,0.9,3.8,2.7
	C144.6,110.1,143.3,111.1,140.8,111.1z M142.7,86.4c-4.2,2.6-8.7,2.2-13.1,0.7c-0.7-0.2-1-0.8-0.8-1.5c0-0.1,0-0.2,0.1-0.3
	c0.6-3.1,0.6-3.1,3.6-2.3c1.6,0.4,3.1,0.7,4.8,0.4c1.4-0.2,2.5-0.7,2.8-2.2c0.3-1.2-0.4-2.3-1.8-3.1c-1.1-0.6-2.3-1-3.5-1.5
	c-1.1-0.5-2.2-1-3.1-1.8c-3.8-3-3.5-8.6,0.6-11.2c2-1.3,4.2-1.7,6.6-1.6c1.7-0.1,3.3,0.2,4.9,0.7c1,0.3,1.3,0.8,1.1,1.8
	c-0.7,3-0.7,3-3.6,2.4c-1.4-0.3-2.7-0.4-4.1-0.1c-1,0.2-1.9,0.7-2.1,1.9c-0.2,1.2,0.4,2,1.5,2.5c1.2,0.6,2.3,1,3.5,1.6
	c1.1,0.5,2.1,0.9,3,1.6C147,77.4,147.1,83.7,142.7,86.4z"/>
<path class="st0" d="M32.8,54.7c-1.7,0.4-3.4,0.8-5.1,1.1c-6.1,1-8.6,6.3-7.4,11.5c3.6,16,6.9,32.1,10.4,48.1
	c0.7,3.3,1.4,6.5,2.1,9.8c0.1,0,0.2,0,0.3,0c0-0.6,0-1.2,0-1.8c0-20.5,0-40.9,0-61.4c0-2.1,0-4.2,0.7-6.2
	C34.2,54.6,33.6,54.5,32.8,54.7z"/>
<path class="st0" d="M70.7,47.2c16.4,0,32.8,0,49.3,0c5.5,0,11,0,16.5,0c1.8,0,1.9-0.1,1.5-1.8c-0.2-1.2-0.5-2.3-0.7-3.5
	c-0.9-5.3-5.9-8.4-11.1-7.2c-17.1,3.8-34.3,7.4-51.5,11.1c-1.8,0.4-3.5,0.8-5.3,1.2c0,0.1,0,0.2,0,0.3
	C69.8,47.2,70.3,47.2,70.7,47.2z"/>
</svg>
