<?xml version="1.0" encoding="utf-8"?>
<!-- Generator: Adobe Illustrator 23.0.6, SVG Export Plug-In . SVG Version: 6.00 Build 0)  -->
<svg version="1.1" id="Layer_1" xmlns="http://www.w3.org/2000/svg" xmlns:xlink="http://www.w3.org/1999/xlink" x="0px" y="0px"
	 viewBox="0 0 180.1 177.9" style="enable-background:new 0 0 180.1 177.9;" xml:space="preserve">
<style type="text/css">
	.st0{fill:#FF9600;}
</style>
<path class="st0" d="M73.8,50.2c12.1,0,24.1,0,36.2,0c7,0,12.3,4.4,13.7,11.1c0.3,1.5,0.2,3,0.2,4.5c0,2.4,0,4.8,0,7.2
	c0,1.4,0,1.4,1.2,0.8c7.4-3.3,14.9-6.6,22.3-9.9c2.7-1.2,5.5-2.4,8.2-3.6c0.8-0.4,1.1-0.4,1.1,0.7c0,21.3,0,42.7,0,64
	c0,1.2,0,1.2-1.2,0.7c-10-4.4-20-8.8-30-13.2c-1.6-0.7-1.6-0.7-1.6,1c0,2.9,0,5.9,0,8.8c0,7.7-6,13.6-13.7,13.6c-24.3,0-48.7,0-73,0
	c-7.9,0-13.8-6-13.8-13.8c0-19.3,0-38.6,0-57.9c0-8.2,5.9-14,14-14C49.6,50.2,61.7,50.2,73.8,50.2C73.8,50.2,73.8,50.2,73.8,50.2z
	 M66,93.2c0,4.9,4.1,8.9,9,8.9c4.9,0,8.9-4,8.9-9c0-4.9-4-8.9-8.9-8.9C70,84.2,66,88.2,66,93.2z M53.5,70.4c-1,0-1.6,0.7-2.1,1.3
	c-9.9,10.5-11.5,26.3-3.9,38.7c1.3,2,2.7,3.9,4.4,5.5c0.9,0.8,2,0.8,2.7,0.1c0.8-0.7,0.8-1.9,0-2.7c-0.1-0.2-0.3-0.3-0.5-0.5
	c-8.7-9.1-10.2-23.2-3.6-33.8c1.1-1.9,2.5-3.6,4-5.1c0.6-0.6,0.9-1.4,0.5-2.3C54.9,70.8,54.2,70.5,53.5,70.4z M107.2,93.6
	c0-6.1-1.9-12.6-5.3-17.7c-1.2-1.7-2.5-3.4-4-4.9c-0.9-0.8-2-0.8-2.7-0.1c-0.7,0.7-0.7,1.9,0,2.8c0.1,0.1,0.2,0.3,0.4,0.4
	c6.8,7.2,9.1,15.7,7.2,25.4c-1,5.1-3.5,9.6-7.1,13.4c-0.6,0.6-1.1,1.2-0.9,2.1c0.2,0.7,0.6,1.2,1.3,1.4c0.9,0.3,1.6-0.2,2.2-0.8
	C104.1,109.4,107.1,102.1,107.2,93.6z M100.1,93.7c-0.1-1.7-0.1-3.2-0.4-4.7c-0.9-4.9-3.1-9.2-6.6-12.9c-1-1-1.8-1.2-2.7-0.7
	c-1.2,0.7-1.3,2.1-0.1,3.3c8,8.6,8,21,0.1,29.5c-1,1.1-1.1,2.2-0.2,3.1c0.9,0.8,2,0.6,3-0.4C97.6,106,99.9,100.2,100.1,93.7z
	 M49.9,92.9c0,4,0.7,7.3,2,10.4c1.2,2.8,2.9,5.4,5,7.6c0.9,1,2,1.1,2.9,0.3c0.8-0.8,0.8-1.9-0.1-2.9c-0.1-0.1-0.2-0.2-0.2-0.2
	c-5.6-6.2-7.1-13.4-4.7-21.3c1-3.1,2.7-5.8,5-8.2c0.7-0.7,1-1.4,0.5-2.4c-0.3-0.7-1-1.1-1.7-1.1c-0.8,0-1.3,0.5-1.7,1
	C52.3,81,50,86.8,49.9,92.9z M63.7,80.4c-0.6,0-1.2,0.3-1.9,1.1c-3.7,4.1-5.2,8.8-4.5,14.3c0.5,3.8,2.1,7.1,4.8,9.9
	c0.6,0.7,1.4,0.9,2.3,0.5c0.8-0.3,1.2-1,1.1-1.8c0-0.7-0.5-1.2-0.9-1.7c-3.3-3.8-4.3-8.1-3.1-13c0.6-2.3,1.9-4.3,3.5-6.1
	c0.6-0.6,0.8-1.4,0.4-2.2C65.1,80.8,64.5,80.5,63.7,80.4z M92.7,93c0-1.8-0.4-4-1.2-6.1c-0.9-2.2-2.2-4.3-4-5.9
	c-0.9-0.8-2-0.8-2.7,0c-0.7,0.7-0.7,1.8,0,2.7c0.1,0.1,0.2,0.3,0.4,0.4c5,5.6,5,13.2-0.1,18.9c-0.9,1.1-1,2.2-0.2,3
	c0.9,0.8,2.1,0.6,3.1-0.4C91.1,102.1,92.7,98.1,92.7,93z"/>
</svg>
