<?xml version="1.0" encoding="utf-8"?>
<!-- Generator: Adobe Illustrator 23.0.6, SVG Export Plug-In . SVG Version: 6.00 Build 0)  -->
<svg version="1.1" id="Layer_1" xmlns="http://www.w3.org/2000/svg" xmlns:xlink="http://www.w3.org/1999/xlink" x="0px" y="0px"
	 viewBox="0 0 180.1 177.9" style="enable-background:new 0 0 180.1 177.9;" xml:space="preserve">
<style type="text/css">
	.st0{fill:#FF9600;}
</style>
<path class="st0" d="M90,158.9c-15.6,0-31.2,0.1-46.7,0c-13.2-0.1-20.9-7.7-21-20.7c-0.1-26-0.1-51.9,0-77.9
	c0.1-12.7,7.9-20.5,20.4-20.8c3.7-0.1,5.5,0.7,5.2,4.8c-0.3,4.6-0.2,9.3,0,13.9c0.4,8.1,6.3,13.8,13.9,13.8
	c7.9,0,13.6-5.9,13.8-14.4c0.1-4.8,0.1-9.6,0-14.5c-0.1-2.6,0.9-3.6,3.5-3.6c7.8,0.1,15.6,0.1,23.4,0c2.8,0,3.4,1.3,3.3,3.8
	c-0.1,4.6-0.1,9.3,0,13.9c0.2,8.8,6.1,14.8,14,14.8c8.1-0.1,13.6-6.1,13.7-15c0.1-4.6,0.1-9.3,0-13.9c-0.1-2.7,1.1-3.4,3.6-3.5
	c11.9-0.5,20.5,8.1,20.6,21.2c0.1,23.4-0.6,46.8,0.2,70.1c0.7,20.8-6.9,29.4-28.2,28.3C116.4,158.3,103.2,158.9,90,158.9z
	 M90.1,74.5c-18.9,0-37.8,0.1-56.8-0.1c-4.1,0-5.4,1-5.4,5.3c0.2,19.3,0,38.6,0.1,57.9c0,10.5,4.9,15.4,15.3,15.5
	c31,0.1,62,0.1,92.9,0c10.5,0,15.5-4.9,15.5-15.3c0.1-19.5-0.1-39,0.1-58.4c0-4-1.3-4.9-5.1-4.9C127.9,74.6,109,74.5,90.1,74.5z"/>
<path class="st0" d="M53.3,44.1c0-4.4-0.1-8.9,0-13.3c0.2-5.5,3.6-9,8.4-9c4.9,0,8.2,3.5,8.3,9.1c0.1,8.9,0.1,17.7,0,26.6
	c-0.1,5.5-3.5,9.1-8.3,9.1c-4.8,0-8.2-3.6-8.4-9.1C53.2,53,53.3,48.5,53.3,44.1z"/>
<path class="st0" d="M128,44.3c0,4.6,0.1,9.2,0,13.9c-0.2,5.1-3.8,8.5-8.5,8.3c-4.5-0.1-8-3.4-8.1-8.2c-0.2-9.4-0.2-18.9,0-28.3
	c0.1-5.1,3.9-8.4,8.6-8.3c4.7,0.1,7.9,3.4,8.1,8.7C128.1,35.1,128,39.7,128,44.3z"/>
<path class="st0" d="M57.3,113.5c0.1-3.1,1.4-5,3.9-6c2.4-1.1,4.8-0.6,6.7,1.1c3.6,3.4,7.3,6.9,10.6,10.6c2.3,2.5,3.7,2.5,6.1,0
	c8.4-8.6,17.1-17,25.5-25.5c3.2-3.2,6.8-5.2,10.5-1.5c3.9,3.9,1.3,7.3-1.8,10.4c-10.5,10.4-20.9,20.9-31.4,31.4
	c-4.9,4.8-7.3,4.8-12.1,0.1C70.2,129.2,65.1,124,60,119C58.4,117.3,57.2,115.5,57.3,113.5z"/>
</svg>
