<?xml version="1.0" encoding="utf-8"?>
<!-- Generator: Adobe Illustrator 23.0.6, SVG Export Plug-In . SVG Version: 6.00 Build 0)  -->
<svg version="1.1" id="Layer_1" xmlns="http://www.w3.org/2000/svg" xmlns:xlink="http://www.w3.org/1999/xlink" x="0px" y="0px"
	 viewBox="0 0 180.1 177.9" style="enable-background:new 0 0 180.1 177.9;" xml:space="preserve">
<style type="text/css">
	.st0{fill:#FF9600;}
</style>
<g>
	<path class="st0" d="M143,156.8c-7.5,0-15,0-22.5,0c-4.4-1.6-9-2.3-13.5-3.6c-2.7-0.8-5.3-1.3-8.2-1c-6.6,0.9-13.3,1.5-19.9,2.5
		c-4.8,0.7-9.7,0.8-14.4,2.1c-7.9,0-15.8,0-23.6,0c-3-1.2-3.9-3.6-3.9-6.6c0.1-6.2,0.2-12.5,0-18.7c-0.5-12.7,0.3-25.3,4.4-37.4
		c0.6-1.7,0.3-3.4-0.2-5c-3.4-10.7-4.9-21.6-4.2-32.9c0.1-0.8,0.1-1.5,0-2.3c-0.3-2.5,0.7-4.4,2.1-6.4c4.3-5.6,8.5-11.2,12.6-16.8
		c1-1.4,2.1-2.7,3.5-3.6c24.4,0,48.8,0,73.2,0c1.1,0.9,2.2,1.8,3,2.9c4.4,5.9,8.8,11.8,13.3,17.7c1,1.3,1.9,2.7,1.9,4.4
		c-0.2,12.5,1.5,25.2-3,37.3c-3.3,8.9-3.2,17.4,0.9,26c1.2,2.5,2.1,5.1,2.1,8c0,9,0,18,0,27.1C146.9,153.4,145.9,155.7,143,156.8z
		 M135.9,120.1c-2.7,2-4.8,2.3-6.7,0.9c-2.3-1.6-2.6-3.7-1.9-6.4c1.6-5.8,2.9-11.7,4.5-17.5c3.4-12.3,6.4-24.7,5.2-37.7
		c-0.1-1.7-0.3-2.5-2.3-2.5C106.1,57,77.6,57,49.1,57c-1.6,0-2.1,0.5-2.2,2.1c-0.2,7.2,0,14.4,2.3,21.3c0.9,2.9,1.4,6,2.3,8.9
		c0.5,1.7,0.5,3.3,0,5.1c-1.6,6.2-3.9,12.4-4.3,18.7c-0.7,10.6-0.2,21.3-0.2,32c0,1.4,0.5,1.8,1.9,1.8c10.8,0.6,21.4-1.1,32.1-2.5
		c0.9-0.1,1.5-0.2,1.4-1.6c-0.5-4.7,2.4-6.9,7-5.4c2.4,0.8,4.7,1.7,7.1,2.4c12.4,3.6,24.6,8,37.9,7.1c2-0.1,2.9-0.4,2.8-2.7
		c-0.1-6.6-0.1-13.3,0-19.9C137,123,136.8,121.6,135.9,120.1z M131.9,47c-2.5-3.4-4.7-6.4-6.9-9.4c-0.5-0.7-1.3-0.7-2.1-0.7
		c-8,0-15.9,0-23.9,0c-0.9,0-1.7-0.1-2.2,0.9c-1.4,3-2.9,5.9-4.6,9.2C105.5,47,118.3,47,131.9,47z M91.5,37.4
		c-0.4-0.2-0.6-0.4-0.7-0.4c-10,0-19.9,0-29.9,0c-0.6,0-1.2-0.1-1.6,0.4c-2.3,3.1-4.6,6.2-7.4,9.8c11.7,0,22.6,0,33.5,0
		c0.7,0,1.3-0.1,1.7-0.8C88.5,43.3,90,40.4,91.5,37.4z"/>
	<path class="st0" d="M94.1,76.9c-4,0-8.1,0.1-12.1,0c-3.3-0.1-5.3-1.8-5.4-4.7c-0.1-3,1.9-5.1,5.3-5.1c8.2-0.1,16.5-0.1,24.7,0
		c3.3,0,5.2,2.1,5.3,4.9c0,3-2,4.9-5.5,4.9C102.3,76.9,98.2,76.9,94.1,76.9z"/>
</g>
</svg>
