<?xml version="1.0" encoding="utf-8"?>
<!-- Generator: Adobe Illustrator 23.0.6, SVG Export Plug-In . SVG Version: 6.00 Build 0)  -->
<svg version="1.1" id="Layer_1" xmlns="http://www.w3.org/2000/svg" xmlns:xlink="http://www.w3.org/1999/xlink" x="0px" y="0px"
	 viewBox="0 0 180.1 177.9" style="enable-background:new 0 0 180.1 177.9;" xml:space="preserve">
<style type="text/css">
	.st0{fill:#FF9600;}
</style>
<g>
	<path class="st0" d="M37.2,117.9c0.8,2.9,1.6,5.4,2.9,7.8c0.3,0.6-0.1,1.1-0.3,1.6c-1.7,4.4-0.3,9.1,3.4,11.8
		c3.7,2.7,8.7,2.6,12.3-0.4c5.4-4.4,4.7-13-1.4-16.4c-1-0.6-1.6-1.3-2.1-2.6c4.7,1.6,9.4,2.5,14.2,2.3c-0.7,2.5-0.3,4.9-0.4,7.3
		c-0.1,3.4,0,6.8,0,10.2c0,0.5,0,0.9,0,1.4c0.2,1.5,1,2.4,2.2,2.3c1.3,0,2.1-0.9,2.2-2.4c0.1-1.8,0-3.5,0-5.3c0-1.9,0.1-1.9,2-1.7
		c1.3,0.2,2.2,0.9,2.9,1.9c1.1,1.8,2.2,3.7,3.3,5.5c0.4,0.6,0.7,1.2,1.3,1.6c0.9,0.6,1.8,0.6,2.6,0c0.8-0.6,1-1.4,0.6-2.3
		c-1-2.7-2.6-5.1-4.9-7.3c3.9-1.2,5.6-3.9,4.5-7.7c-1.3-4.5-5.2-4.2-9-4.2c0.3-0.5,0.7-0.4,1-0.5c0.3-0.1,0.6-0.2,0.9-0.3
		c10.4-3.2,18-9.8,22.7-19.6c0.4-0.8,0.8-1.1,1.8-1.1c16.4,0,32.8,0,49.2,0c5.3,0,9.2,3.8,9.2,9.1c0,14.7,0,29.5,0,44.2
		c0,5.4-3.9,9.2-9.3,9.2c-29.9,0-59.8,0.1-89.7,0c-5.8,0-10.7-2.5-14.4-6.9c-4.3-5.1-8.4-10.5-12.6-15.8c-3.3-4.3-3.4-10.3-0.3-14.7
		C33.8,122.5,35.4,120.3,37.2,117.9z M113.5,129.2c0.5,0.3,0.6,0.8,0.9,1.2c2.4,3.7,4.7,7.5,7.1,11.2c0.9,1.4,2.2,1.9,3.4,1.5
		c1.5-0.5,1.6-1.8,1.6-3.1c0-5.4,0-10.9,0-16.3c0-1.8-0.7-2.8-2-2.8c-1.3,0-2,0.9-2.1,2.7c0,0.4,0,0.7,0,1.1c0,3.1,0,6.2,0,9.3
		c0,0.3,0.2,0.7-0.3,1c-1.7-2.6-3.4-5.2-5-7.9c-1.1-1.7-2.1-3.4-3.2-5.1c-0.6-1-1.6-1.5-2.8-1.2c-1.2,0.3-1.9,1.2-2,2.4
		c0,0.5-0.1,0.9-0.1,1.4c0,5,0,10,0,15.1c0,0.5,0,1,0.1,1.5c0.2,1.1,0.8,1.8,2,1.8c1.1,0,1.8-0.6,2-1.7c0.1-0.5,0.1-1,0.1-1.5
		c0-3.1,0-6.2,0-9.3C113.4,130.2,113.2,129.7,113.5,129.2z M88.2,132c0,2.7,0,5.4,0,8.1c0,1.9,0.7,2.6,2.6,2.7c3.8,0.1,7.5,0,11.3,0
		c1.4,0,2.1-0.7,2.2-1.8c0-1.2-0.7-1.9-2.2-1.9c-1.7,0-3.4,0-5.2,0c-1.4,0-3.1,0.6-4-0.3c-0.8-0.8-0.1-2.6-0.3-3.9
		c-0.2-1.3,0.4-1.5,1.6-1.5c2.3,0.1,4.6,0.1,7,0c1.3,0,2-0.8,1.9-1.9c-0.1-1.2-0.9-1.7-2-1.7c-1.6,0-3.3,0-4.9,0
		c-3.7,0-3.7,0-3.6-3.7c0-0.9,0.3-1.2,1.2-1.2c2.6,0,5.2,0,7.8,0c1.6,0,2.3-0.6,2.3-1.8c0-1.2-0.7-1.8-2.3-1.9c-3.5,0-7.1,0-10.6,0
		c-2.2,0-2.9,0.7-2.9,3C88.2,126.8,88.2,129.4,88.2,132z M141.7,133.4C141.7,133.4,141.7,133.4,141.7,133.4c0-2.4,0-4.7,0-7.1
		c0-0.9,0.3-1.2,1.2-1.2c1.2,0.1,2.4,0.1,3.6,0c1.3-0.1,2-0.9,1.8-2.1c-0.2-1.4-1.2-1.7-2.3-1.7c-2.2,0-4.5,0-6.7,0
		c-2.2,0-4.4,0-6.5,0c-1.5,0-2.2,0.8-2.2,2c0,1.2,0.7,1.8,2.1,1.8c1.1,0,2.1,0.1,3.2,0c1-0.1,1.3,0.3,1.3,1.3c0,4.4,0,8.7,0,13.1
		c0,0.7,0,1.5,0.2,2.2c0.3,1.2,1.6,1.8,2.7,1.4c1.1-0.4,1.5-1.3,1.5-2.4C141.7,138.2,141.7,135.8,141.7,133.4z"/>
	<path class="st0" d="M32.3,84.6c-0.2-18.7,14.9-33.9,33.5-33.4c5.3,0.1,10.3,1.5,14.9,4.1c1,0.6,1.7,0.6,2.6-0.1
		c16-11.3,32.1-22.5,48.2-33.8c2.1-1.5,4.2-2.2,6.7-2.1c4.7,0.1,9.4,0,14.1,0c2.5,0,3.1,0.8,2.5,3.2c-1.4,5.6-2.8,11.2-4.1,16.8
		c-0.4,1.6-1.3,2.7-2.6,3.8c-2,1.6-4,2-6.5,1.3c-2-0.6-4.1-0.9-6.1-1.4c-0.8-0.2-1.1,0-1.3,0.9c-0.4,2.5-0.9,5-1.4,7.5
		c-0.4,2.3-1.3,2.9-3.6,2.2c-2.5-0.7-4.9-1.3-7.4-2.1c-1.3-0.4-1.6-0.1-1.5,1.2c0.1,2.5,0,4.9-0.1,7.4c0,1.9-0.9,2.6-2.8,2.1
		c-2.6-0.6-5.1-1.3-7.7-2c-1.1-0.3-1.3,0.1-1.5,1c-0.5,3.4-1.1,6.9-1.6,10.3c-0.1,0.7-0.4,1.2-1,1.6c-2.6,1.8-5.1,3.6-7.7,5.3
		c-0.7,0.5-0.9,1-0.8,1.8c2.2,17.8-9.6,33.7-27.2,36.8c-6.5,1.2-12.9,0.1-18.9-2.6c-0.9-0.4-1.1-0.9-1-1.8c0.5-4.2,3-7.1,6-9.7
		c1.9-1.7,4-3.1,6.6-3.9c5.8-1.9,8.8-8.2,6.8-14c-1.9-5.7-8-8.9-13.7-7.2c-5.8,1.7-9.1,7.7-7.5,13.6c0.2,0.7,0.2,1.2-0.4,1.7
		c-3.5,2.9-6.5,6.3-8.6,10.3c-0.6,1.1-0.8,0.3-1.2-0.1C34.6,98.3,32.4,91.4,32.3,84.6z"/>
	<path class="st0" d="M65.8,88.7c-0.1,2.8-1.9,5.6-4.6,6.1c-2.2,0.5-3.9,1.6-5.6,2.9c-3.2,2.3-5.9,5.1-7.9,8.5
		c-2.5,4.5-2.6,9.2-0.5,13.9c0.5,1.1,1.1,2.2,1.6,3.2c0.6,1.1,1.4,2,2.7,2.6c3,1.3,4,5,2.3,7.8c-1.7,2.8-5.3,3.6-8,1.7
		c-2.7-1.9-3.2-5.6-1-8.1c0.7-0.8,0.7-1.3,0.2-2.1c-1.7-2.8-3-5.9-3.5-9.2c-0.8-5.5,1.1-10.1,4.3-14.4c2.1-2.8,4.7-5.2,7.6-7.1
		c1-0.7,1.2-1.1,0.4-2.2c-2.2-2.9-1.6-6.7,1.1-9c2.7-2.3,6.6-2.1,9.1,0.5C65.2,85.2,65.9,86.8,65.8,88.7z"/>
	<path class="st0" d="M73.3,124.7c1,0.1,2,0.1,3,0.3c1.3,0.2,2,1.1,2,2.5c0.1,1.3-0.6,2.2-1.9,2.6c-1.8,0.5-3.7,0.3-5.5,0.3
		c-0.6,0-0.6-0.4-0.6-0.9c0-1.2,0-2.3,0-3.5c0-0.9,0.2-1.3,1.2-1.2C72.1,124.9,72.7,124.8,73.3,124.7
		C73.3,124.8,73.3,124.8,73.3,124.7z"/>
</g>
</svg>
