<?xml version="1.0" encoding="utf-8"?>
<!-- Generator: Adobe Illustrator 23.0.6, SVG Export Plug-In . SVG Version: 6.00 Build 0)  -->
<svg version="1.1" id="Layer_1" xmlns="http://www.w3.org/2000/svg" xmlns:xlink="http://www.w3.org/1999/xlink" x="0px" y="0px"
	 viewBox="0 0 180.1 177.9" style="enable-background:new 0 0 180.1 177.9;" xml:space="preserve">
<style type="text/css">
	.st0{fill:#FF9600;}
</style>
<path class="st0" d="M49.4,96.9c-0.2-5.2-0.2-5.2,5.1-5.2c5.7,0,11.1,1.4,16,4.3c7.3,4.3,15.2,3,23,2.1c3.7-0.5,7.3-1.8,11-0.1
	c1.5,0.7,3.1,1.3,3.4,3.1c0.3,1.9-1.2,2.9-2.6,3.7c-2.8,1.7-5.8,2.7-9.2,2.8c-5.2,0.2-10.5,0.3-15.7,0.7c-2.7,0.2-6.3,0.3-6.2,3.9
	c0.1,3.4,3.7,3.3,6.2,3.3c12.3-0.3,23.8-3.9,35.1-8.4c8.8-3.6,17.4-7.4,26.2-11c5.6-2.3,9.1-1.5,10.5,1.8c1.3,2.9-0.6,6.4-5.6,9
	c-11.8,6.2-23.7,12.2-35.6,18.3c-5.6,2.8-11.1,5.7-16.8,8.3c-6.8,3.1-13.6,3.2-20.1-0.8c-6.1-3.8-12.8-4.9-19.8-4.2
	c-2.6,0.3-3.6-0.5-3.7-3.1C50.4,115.8,49.8,106.3,49.4,96.9z"/>
<path class="st0" d="M73.9,65c0-15.8,12.8-28.7,28.5-28.6c15.8,0,28.6,12.8,28.6,28.6c0,16-12.9,29-28.7,28.8
	C86.5,93.6,73.9,80.9,73.9,65z M94.2,71.5c-5.3,0-5.8,0.8-3.9,5.3c1.4,3.2,3.9,5.1,7.2,6c1.9,0.5,3.3,1.1,2.8,3.4
	c-0.2,1.3,0.4,2.1,1.8,2.1c1.3,0,2.3-0.4,2.1-1.8c-0.4-2.7,1.3-3.2,3.3-3.9c4.7-1.5,7.2-5.7,6.5-10.5c-0.5-3.5-2.5-5.9-5.5-7.6
	c-2.6-1.4-5.4-2.7-7.9-4.2c-1.7-1-1.8-2.9-1.3-4.7c0.3-1.2,1.1-2,2.3-2.1c1.5-0.2,3.1,0.3,3.3,1.8c0.7,5,4.5,2.9,7.2,3.3
	c1.7,0.2,2.1-0.7,1.9-2.3c-0.6-4-2.8-7.1-6.6-8.3c-2.3-0.7-3.1-1.7-2.8-3.9c0.2-1.6-0.5-2.2-2.1-2.2c-1.7,0-1.9,1-1.7,2.2
	c0.4,2.5-1,3-3.1,3.6c-5.8,1.6-8.6,6.9-6.9,12.5c1.1,3.6,3.9,5.3,7,6.8c2.1,1.1,4.5,1.6,6.3,3.3c1.4,1.4,1.6,3.1,1,4.8
	c-0.5,1.3-1.6,1.8-3,1.8c-1.8,0-3.5-0.7-3.8-2.4C98,71.5,96.2,71.1,94.2,71.5z"/>
<path class="st0" d="M35.6,86.5c9-0.1,9-1.3,9.4,9c0.4,10.7,1.2,21.4,1.8,32.1c0.3,5.8,0,6.3-5.7,6.6c-2.6,0.1-5.2,0.2-7.8,0.3
	c-2.8,0.2-4.1-0.9-4.3-3.8c-0.9-13.3-1.8-26.6-2.7-39.9c-0.2-3,1.2-4.4,4.2-4.4C32.1,86.5,33.9,86.5,35.6,86.5z"/>
</svg>
