<?xml version="1.0" standalone="no"?>
<!DOCTYPE svg PUBLIC "-//W3C//DTD SVG 20010904//EN"
 "http://www.w3.org/TR/2001/REC-SVG-20010904/DTD/svg10.dtd">
<svg version="1.0" xmlns="http://www.w3.org/2000/svg"
 width="4000.000000pt" height="2667.000000pt" viewBox="0 0 4000.000000 2667.000000"
 preserveAspectRatio="xMidYMid meet">

<g transform="translate(0.000000,2667.000000) scale(0.100000,-0.100000)"
fill="#000000" stroke="none">
<path d="M19035 22613 c-937 -940 -950 -953 -989 -953 -38 0 -39 0 -21 -20 13
-14 14 -20 5 -20 -9 0 -8 -6 5 -20 12 -13 14 -20 5 -20 -10 0 -10 -3 0 -15 6
-8 9 -19 6 -24 -4 -5 -2 -13 4 -16 6 -4 8 -15 5 -25 -3 -10 -1 -21 4 -24 6 -4
8 -13 5 -20 -3 -8 0 -17 5 -21 6 -3 9 -11 5 -16 -3 -5 0 -16 6 -24 10 -12 10
-15 0 -15 -9 0 -8 -6 4 -19 13 -15 14 -20 4 -24 -10 -3 -10 -7 -1 -17 6 -7 9
-18 7 -25 -3 -7 -1 -16 5 -19 6 -4 8 -13 5 -20 -3 -8 0 -17 5 -21 6 -3 9 -11
5 -16 -3 -5 -1 -16 6 -24 8 -10 8 -15 0 -20 -8 -5 -6 -13 6 -26 13 -14 14 -19
4 -19 -8 0 2 -17 22 -37 20 -21 45 -56 56 -78 12 -22 38 -61 59 -86 148 -180
251 -294 285 -316 51 -34 115 -36 180 -5 75 37 255 200 661 600 399 393 547
532 613 577 62 42 85 32 248 -107 146 -126 3774 -3744 3916 -3906 79 -91 170
-207 170 -218 0 -3 13 -23 30 -44 16 -20 27 -40 23 -44 -3 -3 2 -15 12 -26 11
-12 19 -33 20 -48 l0 -27 165 -5 c119 -4 159 -8 145 -15 -13 -6 -540 -12
-1490 -15 l-1470 -5 -52 -30 c-33 -19 -472 -434 -1220 -1150 -2610 -2503
-2655 -2545 -2675 -2545 -20 0 -25 30 -5 30 6 1 58 45 115 98 116 112 110 92
91 277 -7 65 -13 1065 -18 2850 -10 3449 -9 3424 -115 3880 -19 83 -44 194
-56 247 -20 88 -24 97 -41 88 -11 -6 -455 -10 -1205 -10 -1091 0 -1189 1
-1206 17 -17 16 -18 -186 -18 -6427 l0 -6443 43 -51 c57 -67 68 -90 112 -228
26 -80 36 -127 32 -148 l-6 -30 1189 0 1190 0 -4 33 c-3 22 9 72 31 138 l36
104 8 280 c24 815 38 1037 75 1235 47 249 122 421 271 620 72 96 1138 1162
1258 1258 123 98 233 153 309 154 64 1 84 -13 106 -73 14 -40 35 42 -191 -756
l-160 -563 45 -162 c58 -210 53 -199 147 -346 45 -70 88 -138 96 -150 8 -13
58 -106 110 -205 55 -105 125 -221 165 -274 38 -51 171 -197 295 -325 329
-340 429 -471 492 -644 36 -98 64 -234 59 -285 l-4 -39 1463 0 1463 0 -11 27
c-27 71 40 104 311 154 64 11 116 27 132 39 20 14 43 20 83 20 65 0 65 0 90
128 18 90 15 112 -12 112 -9 0 -213 194 -453 432 -239 238 -680 676 -980 973
-300 297 -808 801 -1130 1120 -527 522 -917 908 -1503 1484 -128 127 -197 202
-197 215 0 15 43 -23 158 -137 86 -86 160 -157 163 -157 3 0 7 23 8 50 2 66
44 197 92 290 84 162 134 215 1420 1500 799 798 1273 1279 1321 1340 71 91
158 215 158 227 0 3 32 60 71 127 187 317 477 656 800 936 166 145 202 195
205 286 2 35 5 68 9 74 3 5 1 10 -6 10 -8 0 -8 4 1 15 10 12 9 15 -6 15 -18 1
-18 1 -1 11 9 5 17 15 17 20 0 6 -6 7 -12 3 -7 -4 -4 2 6 14 14 16 15 22 6 22
-11 0 -11 3 -2 12 15 15 16 31 0 22 -7 -4 -8 -3 -4 5 5 8 19 2 46 -19 21 -16
42 -30 46 -30 25 0 301 -264 1000 -957 796 -788 984 -984 1047 -1091 54 -92
57 -114 53 -347 -3 -201 -8 -252 -26 -300 -9 -24 -206 -322 -500 -755 -114
-168 -213 -316 -220 -330 -12 -22 -85 -291 -116 -425 -8 -34 -21 -214 -30
-410 -14 -287 -18 -707 -24 -2345 -7 -1940 -10 -2107 -39 -2321 l-7 -56 95 -7
c90 -6 110 -10 100 -20 -3 -3 -2778 -6 -6168 -8 -4451 -2 -6165 0 -6168 8 -2
7 48 13 158 18 90 3 164 8 165 9 2 2 -4 68 -13 147 -13 125 -17 410 -23 2095
-5 1549 -10 2031 -23 2345 -19 440 -27 530 -56 617 -29 87 -80 173 -316 528
-257 387 -296 450 -368 585 -125 235 -154 345 -165 614 -10 262 0 300 119 451
150 190 996 1005 1044 1005 3 0 26 15 50 33 24 17 63 46 86 62 69 48 128 105
183 175 59 75 67 87 212 320 141 229 161 285 174 492 12 201 12 1835 0 2098
-5 113 -17 367 -25 565 -8 198 -20 398 -26 445 -11 93 -29 172 -39 180 -4 3
-12 23 -18 45 -13 50 -39 120 -57 162 -8 17 -15 38 -15 46 0 9 -4 18 -9 21 -5
3 -14 28 -21 56 -7 28 -16 52 -20 55 -5 3 -11 23 -15 46 -6 37 -8 39 -24 25
-15 -14 -60 -16 -329 -16 -196 0 -313 4 -317 10 -3 6 -10 10 -16 10 -5 0 -9
-602 -9 -1588 0 -949 -4 -1600 -9 -1620 -8 -25 -7 -32 5 -32 8 0 14 -8 14 -17
0 -10 -530 -548 -1207 -1226 -1176 -1176 -1209 -1208 -1240 -1203 -18 2 -33 2
-33 0 0 -3 69 -110 153 -237 84 -128 161 -251 170 -275 10 -24 37 -78 61 -121
106 -185 218 -425 300 -641 83 -215 192 -394 385 -630 139 -169 313 -446 387
-613 l34 -78 0 -2819 c0 -1551 4 -2820 8 -2820 5 0 18 -8 29 -18 11 -9 35 -28
53 -42 18 -14 42 -33 54 -43 11 -10 26 -22 31 -25 6 -4 26 -27 45 -52 50 -65
51 -66 147 -125 49 -30 94 -59 100 -65 7 -6 43 -27 80 -46 100 -53 153 -44
323 53 115 65 245 90 554 104 269 13 807 1 1061 -24 186 -17 2052 -17 2255 1
279 24 674 32 1750 31 1125 0 1544 -7 1982 -34 359 -22 2503 -16 2839 8 487
35 1250 31 1445 -8 75 -15 233 -70 244 -85 3 -4 39 -23 81 -43 100 -49 143
-49 238 0 39 20 71 40 71 45 0 4 4 8 9 8 13 0 135 75 183 113 28 21 50 54 83
125 25 53 50 105 55 114 6 11 10 906 10 2460 0 2368 1 2448 20 2613 41 356 84
523 184 725 64 128 224 377 325 506 31 40 86 109 122 155 143 183 203 294 320
589 65 165 130 302 296 620 27 52 52 104 56 115 3 11 14 36 25 55 10 19 45
114 76 210 32 96 60 181 63 188 3 8 -5 12 -24 12 -24 0 -120 92 -638 608 -335
334 -2204 2197 -4151 4140 -1948 1943 -3543 3531 -3545 3530 -2 -1 -431 -430
-954 -955z m-6381 -7604 c43 -63 261 -384 484 -714 223 -330 459 -678 524
-774 108 -160 131 -201 111 -201 -5 0 -62 80 -129 178 -66 97 -262 384 -434
637 -172 253 -389 572 -483 709 -93 136 -172 257 -175 268 -11 45 26 7 102
-103z"/>
</g>
</svg>
