<?xml version="1.0" encoding="utf-8"?>
<!-- Generator: Adobe Illustrator 23.0.6, SVG Export Plug-In . SVG Version: 6.00 Build 0)  -->
<svg version="1.1" id="Layer_1" xmlns="http://www.w3.org/2000/svg" xmlns:xlink="http://www.w3.org/1999/xlink" x="0px" y="0px"
	 viewBox="0 0 288 288" style="enable-background:new 0 0 288 288;" xml:space="preserve">
<style type="text/css">
	.st0{fill:url(#SVGID_1_);}
	.st1{fill:url(#SVGID_2_);}
	.st2{fill:url(#SVGID_3_);}
	.st3{fill:url(#SVGID_4_);}
	.st4{fill:#BA2026;}
	.st5{fill:#402110;}
</style>
<g>
	<g>
		<linearGradient id="SVGID_1_" gradientUnits="userSpaceOnUse" x1="27.4075" y1="-32.6811" x2="273.4221" y2="290.8077">
			<stop  offset="0" style="stop-color:#E25A27"/>
			<stop  offset="0.2193" style="stop-color:#D44627"/>
			<stop  offset="0.5615" style="stop-color:#BA2026"/>
			<stop  offset="0.7486" style="stop-color:#9D1F1F"/>
			<stop  offset="1" style="stop-color:#711D15"/>
		</linearGradient>
		<path class="st0" d="M82.15,121.11c10.16,0,19.85,0.02,29.54-0.01c2.63-0.01,5.16,0.79,7.09,2.27c4.09,3.12,8.25,6.19,12.17,9.5
			c3.42,2.89,7,5.6,10.5,8.33c6.41,5,12.86,9.96,19.34,14.88c2.07,1.57,3.67,4.11,6.45,4.4c12.48-9.58,24.66-19.33,37.58-28.99
			c0,22.7,0,44.76,0.01,66.81c0,0.13,0.07,0.27,0.14,0.38c0.08,0.12,0.21,0.21,0.31,0.3c3.58,0,7.16,0,10.73,0
			c0.43-0.43,0.85-0.85,1.21-1.21c0-30.29,0-60.53,0-90.92c-0.97,0.5-1.88,0.8-2.58,1.36c-3.9,3.12-8,6.04-11.79,9.26
			c-4.61,3.92-9.61,7.3-14.26,11.17c-5.14,4.28-10.56,8.29-15.91,12.34c-1.91,1.45-3.48,3.67-5.95,4.05
			c-3.55-2.57-7.27-4.77-10.39-7.64c-3.42-3.14-7.19-5.86-10.83-8.64c-5.99-4.58-11.9-9.27-17.92-13.82
			c-4.6-3.47-9.48-5.47-15.22-5.45c-7.31,0.03-14.62,0.01-21.93,0.01c-6.54,0-13.08,0-19.71,0c0,8.44,0,16.71,0,24.95
			c3.87,0,7.55,0,11.39,0C82.15,130.03,82.15,125.75,82.15,121.11z"/>
		<linearGradient id="SVGID_2_" gradientUnits="userSpaceOnUse" x1="-27.4231" y1="9.0178" x2="218.5914" y2="332.5066">
			<stop  offset="0" style="stop-color:#E25A27"/>
			<stop  offset="0.2193" style="stop-color:#D44627"/>
			<stop  offset="0.5615" style="stop-color:#BA2026"/>
			<stop  offset="0.7486" style="stop-color:#9D1F1F"/>
			<stop  offset="1" style="stop-color:#711D15"/>
		</linearGradient>
		<path class="st1" d="M72.37,199.87c14.73,0,29.17-0.01,43.61,0.01c1.77,0,3.19-0.97,4.77-1.46c5.23-1.61,8.92-5.49,12.03-9.57
			c2.09-2.74,3.82-6.17,4-9.91c0.13-2.83,0.36-5.72-0.09-8.48c-0.33-1.99-0.79-4.03-1.56-6.03c-1.69-4.38-4.75-7.56-8.09-10.48
			c-3.17-2.79-7.21-4.55-11.29-4.96c-5.71-0.58-11.53-0.15-17.43-0.15c0,3.42,0,6.54,0,9.65c0,0.57,0,1.14,0,1.99
			c3.86,0,7.55,0.09,11.24-0.04c1.91-0.06,3.67,0.3,5.45,0.92c7.4,2.59,9.43,6.72,10.06,12.65c0.73,6.91-5.62,14.04-13.46,14.18
			c-7.6,0.14-15.2,0.05-22.81,0.01c-1.29-0.01-2.63,0.33-4.01-0.38c0-6.08,0-12.15,0-18.18c-4.25,0-8.34,0-12.42,0
			C72.37,179.72,72.37,189.56,72.37,199.87z"/>
	</g>
	<g>
		<linearGradient id="SVGID_3_" gradientUnits="userSpaceOnUse" x1="44.2659" y1="-45.502" x2="290.2804" y2="277.9868">
			<stop  offset="0" style="stop-color:#E25A27"/>
			<stop  offset="0.2193" style="stop-color:#D44627"/>
			<stop  offset="0.5615" style="stop-color:#BA2026"/>
			<stop  offset="0.7486" style="stop-color:#9D1F1F"/>
			<stop  offset="1" style="stop-color:#711D15"/>
		</linearGradient>
		<polygon class="st2" points="259.41,42.12 28.59,42.12 28.59,129.16 41.37,129.16 41.37,56.17 246.15,56.17 246.15,129.16 
			259.41,129.16 		"/>
		<linearGradient id="SVGID_4_" gradientUnits="userSpaceOnUse" x1="-20.993" y1="4.1277" x2="225.0216" y2="327.6165">
			<stop  offset="0" style="stop-color:#E25A27"/>
			<stop  offset="0.2193" style="stop-color:#D44627"/>
			<stop  offset="0.5615" style="stop-color:#BA2026"/>
			<stop  offset="0.7486" style="stop-color:#9D1F1F"/>
			<stop  offset="1" style="stop-color:#711D15"/>
		</linearGradient>
		<polygon class="st3" points="28.59,264.6 259.41,264.6 259.41,177.56 246.63,177.56 246.63,250.55 41.85,250.55 41.85,177.56 
			28.59,177.56 		"/>
	</g>
</g>
</svg>
