<?xml version="1.0" encoding="utf-8"?>
<!-- Generator: Adobe Illustrator 23.0.6, SVG Export Plug-In . SVG Version: 6.00 Build 0)  -->
<svg version="1.1" id="Layer_1" xmlns="http://www.w3.org/2000/svg" xmlns:xlink="http://www.w3.org/1999/xlink" x="0px" y="0px"
	 viewBox="0 0 288 288" style="enable-background:new 0 0 288 288;" xml:space="preserve">
<style type="text/css">
	.st0{fill:#BA2026;}
	.st1{fill:#402110;}
	.st2{fill:url(#SVGID_1_);}
</style>
<linearGradient id="SVGID_1_" gradientUnits="userSpaceOnUse" x1="81.4761" y1="22.965" x2="220.715" y2="286.6299">
	<stop  offset="0" style="stop-color:#E25A27"/>
	<stop  offset="0.2193" style="stop-color:#D44627"/>
	<stop  offset="0.5615" style="stop-color:#BA2026"/>
	<stop  offset="0.7486" style="stop-color:#9D1F1F"/>
	<stop  offset="1" style="stop-color:#711D15"/>
</linearGradient>
<path class="st2" d="M113.42,55.96l0.02,29.69c29.7,0,59.2,0,88.75,0c0,39.25,0,78.32,0,117.3c-15.74,0-31.25,0-46.91,0
	c-9.49-12.23-17.56-25.44-26.86-37.77c-1.66-2.21-3-4.71-4.68-6.96l50.62-52.51h-1.02c-12.12,0-23.78,0-35.65,0
	c-4.73,4.89-9.81,9.79-14.32,15.29c-4.48,5.46-9.78,10.2-14.57,15.41c-6.49,7.06-13.06,14.08-19.72,21.01V56.21h-4.44h-6.66h-5.65
	c-4.39-0.13-8.78,0-13.08,0c0,58.99,0,117.52,0,176.26v0.04h29.83V194.6V193l14.64-14.54v0c2.19,3.1,4.32,6.07,6.37,9.06
	c2.42,3.53,4.72,7.15,7.17,10.66c4.56,6.52,9.26,12.94,13.8,19.47c3.52,5.06,6.78,10.32,10.85,14.83l89.9,0.04V55.96H113.42z"/>
</svg>
