<?xml version="1.0" encoding="utf-8"?>
<!-- Generator: Adobe Illustrator 23.0.6, SVG Export Plug-In . SVG Version: 6.00 Build 0)  -->
<svg version="1.1" id="Layer_1" xmlns="http://www.w3.org/2000/svg" xmlns:xlink="http://www.w3.org/1999/xlink" x="0px" y="0px"
	 viewBox="0 0 288 288" style="enable-background:new 0 0 288 288;" xml:space="preserve">
<style type="text/css">
	.st0{fill:url(#SVGID_1_);}
	.st1{fill:url(#SVGID_2_);}
	.st2{fill:#402110;}
	.st3{fill:none;}
	.st4{fill:#BA2026;}
</style>
<g>
	<linearGradient id="SVGID_1_" gradientUnits="userSpaceOnUse" x1="13.5271" y1="17.709" x2="228.9217" y2="340.4064">
		<stop  offset="0" style="stop-color:#E25A27"/>
		<stop  offset="0.2193" style="stop-color:#D44627"/>
		<stop  offset="0.5615" style="stop-color:#BA2026"/>
		<stop  offset="0.7486" style="stop-color:#9D1F1F"/>
		<stop  offset="1" style="stop-color:#711D15"/>
	</linearGradient>
	<polygon class="st0" points="210.07,205.91 165.4,150 202.77,109.5 203.3,108.93 170.68,108.93 157.71,122.85 151.8,129.2 
		139.2,142.74 139.2,60.29 139.2,30.38 110.7,30.38 110.7,60.29 110.7,208.21 123.31,194.75 129.22,188.43 139.1,177.89 
		140.35,176.55 146.53,169.96 149.87,174.2 150.6,175.13 155.31,180.93 189.26,222.77 190.68,224.51 191.11,225.05 171.49,225.05 
		72.92,225.05 72.92,60.29 96.97,60.29 96.97,30.38 43.01,30.38 43.01,254.96 201.4,254.96 215.23,254.96 221.13,254.96 
		249.46,254.96 225.44,225.05 	"/>
	<linearGradient id="SVGID_2_" gradientUnits="userSpaceOnUse" x1="129.8143" y1="-59.9105" x2="345.2088" y2="262.7869">
		<stop  offset="0" style="stop-color:#E25A27"/>
		<stop  offset="0.2193" style="stop-color:#D44627"/>
		<stop  offset="0.5615" style="stop-color:#BA2026"/>
		<stop  offset="0.7486" style="stop-color:#9D1F1F"/>
		<stop  offset="1" style="stop-color:#711D15"/>
	</linearGradient>
	<polygon class="st1" points="155.3,30.38 155.3,60.29 237.67,60.29 237.67,217.8 267.51,254.96 267.59,254.96 267.59,30.38 	"/>
</g>
</svg>
