<?xml version="1.0" encoding="utf-8"?>
<!-- Generator: Adobe Illustrator 23.0.6, SVG Export Plug-In . SVG Version: 6.00 Build 0)  -->
<svg version="1.1" id="Layer_1" xmlns="http://www.w3.org/2000/svg" xmlns:xlink="http://www.w3.org/1999/xlink" x="0px" y="0px"
	 viewBox="0 0 288 288" style="enable-background:new 0 0 288 288;" xml:space="preserve">
<style type="text/css">
	.st0{fill:#BA2026;}
	.st1{fill:#402110;}
	.st2{fill:url(#SVGID_1_);}
	.st3{fill:url(#SVGID_2_);}
	.st4{fill:url(#SVGID_3_);}
</style>
<g>
	<linearGradient id="SVGID_1_" gradientUnits="userSpaceOnUse" x1="50.0478" y1="-16.4802" x2="242.238" y2="273.4201">
		<stop  offset="0" style="stop-color:#E25A27"/>
		<stop  offset="0.2193" style="stop-color:#D44627"/>
		<stop  offset="0.5615" style="stop-color:#BA2026"/>
		<stop  offset="0.7486" style="stop-color:#9D1F1F"/>
		<stop  offset="1" style="stop-color:#711D15"/>
	</linearGradient>
	<path class="st2" d="M199.92,98.51C211,87.54,221.88,76.37,233.7,64.44c-17.44,0-33.93-0.13-50.41,0.15
		c-2.16,0.04-4.65,1.78-6.36,3.39c-11.62,10.96-23.07,22.1-34.57,33.19c-20.03,19.31-40.06,38.62-60.08,57.94
		c-2.19,2.11-4.23,4.06-4.2,7.67c0.18,17.59,0.16,35.19,0.03,52.79c-0.03,3.73,1.25,5.02,5,4.94c9.69-0.2,19.39-0.03,29.09-0.07
		c5.3-0.03,5.46-0.17,5.49-5.46c0.05-11.13,0.18-22.27-0.06-33.4c-0.09-4.32,1.35-7.4,4.4-10.38
		C148.06,149.72,174.02,124.15,199.92,98.51z"/>
	<linearGradient id="SVGID_2_" gradientUnits="userSpaceOnUse" x1="-4.4067" y1="19.6205" x2="187.7835" y2="309.5208">
		<stop  offset="0" style="stop-color:#E25A27"/>
		<stop  offset="0.2193" style="stop-color:#D44627"/>
		<stop  offset="0.5615" style="stop-color:#BA2026"/>
		<stop  offset="0.7486" style="stop-color:#9D1F1F"/>
		<stop  offset="1" style="stop-color:#711D15"/>
	</linearGradient>
	<path class="st3" d="M57.64,235.22V51.78H78.2v63.62c0,2.97,1.11,5.83,3.12,8.03l0.47,0.51c0.02,0.02,0.03,0.04,0.04,0.06
		l10.27,11.21l25.53-23.54V32.95l-78.82,0.33v222.28h149.71l-18.16-20.34H57.64z"/>
	<linearGradient id="SVGID_3_" gradientUnits="userSpaceOnUse" x1="96.0519" y1="-46.9788" x2="288.2421" y2="242.9216">
		<stop  offset="0" style="stop-color:#E25A27"/>
		<stop  offset="0.2193" style="stop-color:#D44627"/>
		<stop  offset="0.5615" style="stop-color:#BA2026"/>
		<stop  offset="0.7486" style="stop-color:#9D1F1F"/>
		<stop  offset="1" style="stop-color:#711D15"/>
	</linearGradient>
	<polygon class="st4" points="129.81,32.95 129.81,50.7 239.29,51.12 239.87,235.2 161.46,150.21 135.17,177.58 203.9,255.56 
		258.92,256.22 258.92,33.14 	"/>
</g>
</svg>
