<?xml version="1.0" encoding="utf-8"?>
<!-- Generator: Adobe Illustrator 23.0.6, SVG Export Plug-In . SVG Version: 6.00 Build 0)  -->
<svg version="1.1" id="Layer_1" xmlns="http://www.w3.org/2000/svg" xmlns:xlink="http://www.w3.org/1999/xlink" x="0px" y="0px"
	 viewBox="0 0 288 288" style="enable-background:new 0 0 288 288;" xml:space="preserve">
<style type="text/css">
	.st0{fill:url(#SVGID_1_);}
	.st1{fill:url(#SVGID_2_);}
	.st2{fill:url(#SVGID_3_);}
	.st3{fill:url(#SVGID_4_);}
	.st4{fill:#BA2026;}
	.st5{fill:#402110;}
</style>
<g>
	<linearGradient id="SVGID_1_" gradientUnits="userSpaceOnUse" x1="145.392" y1="-27.0833" x2="293.861" y2="217.8905">
		<stop  offset="0" style="stop-color:#E25A27"/>
		<stop  offset="0.2193" style="stop-color:#D44627"/>
		<stop  offset="0.5615" style="stop-color:#BA2026"/>
		<stop  offset="0.7486" style="stop-color:#9D1F1F"/>
		<stop  offset="1" style="stop-color:#711D15"/>
	</linearGradient>
	<path class="st0" d="M264.1,49.68c-4.96,0-8.98,4.02-8.98,8.98c0,1.69,0.47,3.33,1.36,4.75l-4.82,6.5l-4.81,7.22l-11.34,17
		c-0.48-0.08-0.97-0.12-1.46-0.12c-2.08,0-4.07,0.72-5.67,2.02L204.74,84.2l0.01-0.36c0-4.96-4.02-8.98-8.98-8.98
		c-4.96,0-8.98,4.02-8.98,8.98l0.01,0.36l-23.65,11.82c-1.59-1.3-3.59-2.02-5.67-2.02c-4.96,0-8.98,4.02-8.98,8.98
		c0,4.96,4.02,8.98,8.98,8.98c4.96,0,8.98-4.02,8.98-8.98l-0.01-0.36l23.65-11.82c1.59,1.3,3.59,2.01,5.67,2.01
		c2.08,0,4.08-0.72,5.67-2.01l23.65,11.82l-0.01,0.36c0,4.96,4.02,8.98,8.98,8.98c4.96,0,8.98-4.02,8.98-8.98
		c0-1.69-0.47-3.33-1.36-4.75l10.52-15.77l4.9-7.34l5.56-7.6c0.48,0.08,0.97,0.11,1.46,0.11c4.96,0,8.98-4.02,8.98-8.98
		C273.08,53.7,269.06,49.68,264.1,49.68z"/>
	<linearGradient id="SVGID_2_" gradientUnits="userSpaceOnUse" x1="5.023" y1="57.9888" x2="153.492" y2="302.9626">
		<stop  offset="0" style="stop-color:#E25A27"/>
		<stop  offset="0.2193" style="stop-color:#D44627"/>
		<stop  offset="0.5615" style="stop-color:#BA2026"/>
		<stop  offset="0.7486" style="stop-color:#9D1F1F"/>
		<stop  offset="1" style="stop-color:#711D15"/>
	</linearGradient>
	<path class="st1" d="M101.09,128.02c-14.19,15.43-28.53,30.69-42.91,45.92v-42.38H31.86v70.18v41.48h25.71h0.6v-33.3l10.94-12.18
		l33.79,45.49h30c-5.27-7.36-13.24-18.54-23.9-33.54c-10.66-15-17.97-25.24-21.92-30.74l45.82-50.93H101.09z"/>
	<linearGradient id="SVGID_3_" gradientUnits="userSpaceOnUse" x1="88.158" y1="7.6039" x2="236.627" y2="252.5777">
		<stop  offset="0" style="stop-color:#E25A27"/>
		<stop  offset="0.2193" style="stop-color:#D44627"/>
		<stop  offset="0.5615" style="stop-color:#BA2026"/>
		<stop  offset="0.7486" style="stop-color:#9D1F1F"/>
		<stop  offset="1" style="stop-color:#711D15"/>
	</linearGradient>
	<polygon class="st2" points="57.89,68.25 230.51,68.25 230.51,44.88 57.89,44.88 31.66,44.88 31.66,112 57.89,112 	"/>
	<linearGradient id="SVGID_4_" gradientUnits="userSpaceOnUse" x1="88.5975" y1="7.3376" x2="237.0665" y2="252.3114">
		<stop  offset="0" style="stop-color:#E25A27"/>
		<stop  offset="0.2193" style="stop-color:#D44627"/>
		<stop  offset="0.5615" style="stop-color:#BA2026"/>
		<stop  offset="0.7486" style="stop-color:#9D1F1F"/>
		<stop  offset="1" style="stop-color:#711D15"/>
	</linearGradient>
	<polygon class="st3" points="210.43,116.34 206.81,116.34 206.81,223.52 143.7,223.52 156.39,243.72 230.58,243.72 230.58,116.34 
		210.48,116.34 	"/>
</g>
</svg>
