<?xml version="1.0" encoding="utf-8"?>
<!-- Generator: Adobe Illustrator 23.0.6, SVG Export Plug-In . SVG Version: 6.00 Build 0)  -->
<svg version="1.1" id="Layer_1" xmlns="http://www.w3.org/2000/svg" xmlns:xlink="http://www.w3.org/1999/xlink" x="0px" y="0px"
	 viewBox="0 0 180.1 177.9" style="enable-background:new 0 0 180.1 177.9;" xml:space="preserve">
<style type="text/css">
	.st0{fill:#FF9600;}
</style>
<path class="st0" d="M137.1,105.7c0.6,0.4,1.3,0.8,1.9,1.1c1,0.6,2,1.2,3.1,1.8c0.3-0.8,0.5-1.5,0.8-2.2c2-6.4,2.9-13,2.6-19.8
	c-0.8-14.8-6.5-27.4-17-37.7c-8.1-7.9-17.8-12.9-29-15c-4.8-0.9-9.7-1.2-14.6-0.8C73,34,62.5,38.2,53.3,45.7
	C43.4,54,36.9,64.4,34,77.1c-1.2,5.3-1.6,10.8-1.2,16.2c1.1,14.7,7.1,27.2,17.8,37.3c7.9,7.4,17.3,12.1,27.9,14.2
	c5.1,1,10.2,1.2,15.3,0.8c2.9-0.2,5.7-0.7,8.5-1.4c2.2-0.5,4.2,0.7,4.7,2.8c0.5,2.1-0.7,4.2-2.9,4.7c-3.5,0.9-7.1,1.4-10.8,1.7
	c-3.1,0.2-6.2,0.2-9.3,0c-6.9-0.5-13.6-2.1-20-4.9c-15.7-6.8-27-18.1-34-33.7c-2.3-5.3-3.8-10.8-4.6-16.5c-0.6-4.5-0.8-9.1-0.5-13.6
	c1.1-14,6.2-26.4,15.3-37.1C49.5,36.9,61,30,74.7,26.8c5.3-1.2,10.7-1.8,16.2-1.6c14.5,0.5,27.4,5.2,38.6,14.3
	c9,7.3,15.5,16.4,19.7,27.2c1.7,4.6,2.9,9.3,3.6,14.1c0.5,3.7,0.7,7.4,0.5,11.1c-0.3,7-1.7,13.8-4.2,20.4c0,0.1-0.1,0.3-0.1,0.4
	c1.8,1.1,3.7,2.1,5.6,3.2c-4.7,1.2-9.2,2.5-13.8,3.7c-0.3-1.1-0.6-2.1-0.8-3.1c-0.9-3.4-1.8-6.9-2.7-10.3
	C137.1,106,137.1,105.9,137.1,105.7L137.1,105.7z"/>
<path class="st0" d="M65.4,104c0-0.2,0-0.4,0-0.5c0-7,0-14,0-21c0-0.9,0.5-1.6,1.6-1.6c2.7,0,5.4,0,8.1,0c1,0,1.5,0.5,1.5,1.5
	c0,7,0,14,0,21.1c0,0.2,0,0.3,0,0.5c2,0,4,0,6,0c0-0.2,0-0.4,0-0.5c0-9.9,0-19.9,0-29.8c0-1.2,0.5-1.6,1.6-1.6c2.7,0,5.3,0,8,0
	c1.1,0,1.6,0.5,1.6,1.6c0,9.9,0,19.9,0,29.8c0,0.2,0,0.4,0,0.6c2,0,4,0,6.1,0c0-0.2,0-0.4,0-0.5c0-13.3,0-26.6,0-39.9
	c0-0.3,0-0.5,0.1-0.8c0.1-0.6,0.6-1,1.2-1c2.9,0,5.8,0,8.8,0c0.6,0,1.2,0.5,1.2,1.2c0,0.2,0,0.4,0,0.5c0,13.4,0,26.7,0,40.1
	c0,0.1,0,0.3,0,0.5c0.2,0,0.3,0,0.5,0c1.6,0,3.2,0,4.8,0c0.6,0,1,0.3,1.3,0.9c0.3,0.6,0.3,1.2,0,1.8c-0.3,0.7-0.7,0.9-1.4,0.9
	c-18.4,0-36.8,0-55.2,0c-0.7,0-1.1-0.3-1.3-0.9c-0.3-0.6-0.3-1.3,0-1.9c0.2-0.5,0.6-0.8,1.2-0.8c1.3,0,2.5,0,3.8,0
	C65,104,65.2,104,65.4,104z"/>
<path class="st0" d="M132.5,120.9c-1.3,0.2-2.6,0.4-3.8,0.6c-0.4-2.5-1.6-4.4-4.3-4.9c0,0.2,0,0.4,0,0.5c0,3.3,0,6.6,0,9.9
	c0,0.4,0.1,0.5,0.5,0.6c1.3,0.4,2.6,0.7,3.8,1.2c3.7,1.7,4.9,5,4.6,8.3c-0.2,2.9-1.5,5.3-3.9,6.9c-1.4,1-3,1.4-4.6,1.5
	c-0.1,0-0.2,0-0.3,0c0,0.2,0,0.3,0,0.5c0,1,0,2,0,2.9c0,0.3-0.1,0.4-0.4,0.4c-0.6,0-1.2,0-1.8,0c0-0.4,0-0.8,0-1.2
	c0-0.7,0-1.4,0-2.2c0-0.3-0.1-0.4-0.4-0.4c-1.4-0.2-2.7-0.5-4-1.1c-2.3-1.2-3.7-3.2-4.4-5.7c-0.2-0.6-0.2-1.3-0.3-2
	c0-0.2,0-0.3,0.3-0.4c1.1-0.2,2.3-0.4,3.4-0.6c0.1,0.5,0.2,1,0.3,1.4c0.4,1.7,1.1,3.2,2.5,4.2c0.8,0.6,1.6,0.9,2.6,1
	c0-0.1,0-0.3,0-0.4c0-3.7,0-7.5,0-11.2c0-0.3-0.1-0.4-0.4-0.5c-1.7-0.4-3.2-1-4.7-1.9c-1.4-0.8-2.3-2-2.9-3.5
	c-0.8-2.3-0.8-4.5,0.2-6.7c1.2-2.7,3.4-4.1,6.3-4.6c0.4-0.1,0.8-0.1,1.1-0.2c0.1,0,0.3-0.2,0.3-0.3c0-0.4,0-0.8,0-1.2
	c0-0.2,0.1-0.3,0.3-0.3c0.5,0,1,0,1.5,0c0.3,0,0.3,0.1,0.3,0.3c0,0.4,0,0.7,0,1.1c0,0.3,0.1,0.4,0.4,0.4c1.6,0.2,3.1,0.6,4.4,1.6
	C131.1,116.5,132.2,118.5,132.5,120.9z M124.4,142.5c0.2,0,0.4-0.1,0.6-0.1c2.9-0.7,4.7-3.3,4.4-6.3c-0.2-1.6-0.7-3-2.2-3.8
	c-0.8-0.5-1.8-0.8-2.6-1.2c-0.1,0-0.1,0-0.2,0C124.4,134.9,124.4,138.7,124.4,142.5z M122.2,116.4c-0.7,0.2-1.3,0.4-1.9,0.7
	c-3.7,1.8-3.6,6.7-0.9,8.5c0.8,0.5,1.7,0.9,2.6,1.3c0.1,0,0.1,0,0.2,0C122.2,123.4,122.2,120,122.2,116.4z"/>
<polygon class="st0" points="137.1,105.7 137.1,105.7 137.1,105.7 "/>
</svg>
