<?xml version="1.0" encoding="utf-8"?>
<!-- Generator: Adobe Illustrator 23.0.6, SVG Export Plug-In . SVG Version: 6.00 Build 0)  -->
<svg version="1.1" id="Layer_1" xmlns="http://www.w3.org/2000/svg" xmlns:xlink="http://www.w3.org/1999/xlink" x="0px" y="0px"
	 viewBox="0 0 180.1 177.9" style="enable-background:new 0 0 180.1 177.9;" xml:space="preserve">
<style type="text/css">
	.st0{fill:#FF9600;}
</style>
<g>
	<path class="st0" d="M142.2,46.4c1.3,1.1,2.6,2.3,4,3.4c1.8,1.5,3.3,1,3.8-1.3c0.4-2.1,0.8-4.1,1.2-6.2c0.9-4.5,1.7-8.9,2.5-13.1
		c0.1-2.3-1.1-3.1-3.2-2.4c-6.1,2.1-12.1,4.2-18.2,6.3c-2.2,0.8-2.5,2.5-0.8,4c1.3,1.2,2.7,2.5,4.1,3.6c1.3,1,1.2,1.7,0.2,2.9
		c-6.2,7.1-12.5,13.9-19.3,20.4c-16.3,15.6-34.1,29.1-54.5,39c-10.6,5.2-21.5,9.4-33.2,11.4c-2,0.3-2.8,1.1-2.6,2.5
		c0.2,1.3,1.3,1.9,3.2,1.6c0.2,0,0.4-0.1,0.7-0.1c8.4-1.5,16.5-4.2,24.4-7.5c23.6-9.9,44-24.5,62.5-41.8
		c7.6-7.1,14.7-14.6,21.5-22.5C140.3,44.8,140.3,44.8,142.2,46.4z"/>
	<path class="st0" d="M33.8,88.4c4.4,1.4,7.3-0.3,8.4-4.7c0.2-0.7,0.3-1.4,0.9-2c0.3-0.2,0.6-0.4,0.9-0.1c0.3,0.2,0.2,0.5,0.2,0.8
		c-0.1,0.4-1,0.8-0.3,1.3c0.5,0.4,1.2-0.1,1.7-0.4c0.3-0.2,0.7-0.4,1.2-0.8c-0.1,1.3-0.9,1.6-1.6,2.1c-1.6,1-2.7,2.4-3.1,4.3
		c-0.1,0.3-0.2,0.7,0.2,0.9c0.4,0.2,0.6-0.2,0.8-0.4c0.8-1.2,1.9-2,3.3-2.2c4.2-0.6,6.3-3.5,7.8-7c1.4-3.5,0.8-6.7-1.6-9.5
		c-2.5-2.9-5.7-4-9.5-3.4c-3.9,0.6-6,3.4-7.9,6.4c-0.4,0.6,0.3,0.7,0.7,0.7c0.9,0,1.6-0.5,2.3-1c0.6-0.4,1.5-0.9,1.9-0.1
		c0.6,1-0.5,1.4-1.1,1.7c-1.1,0.4-2.3,0.7-3.4,1.1c-2.6,0.9-4.2,2.6-4.6,5.3c-0.1,0.4-0.2,0.9,0.3,1c0.4,0.1,0.6-0.3,0.8-0.5
		c0.4-0.5,0.7-1.2,1.4-1.3c1.1,3.7,0.9,4.3-2.5,5.7c-0.3,0.1-0.6,0.3-0.9,0.5c-0.7,0.5-1.6,0.8-1.5,2.2
		C30.4,87.3,32.1,87.9,33.8,88.4z"/>
	<path class="st0" d="M119.3,92.1c-0.5-0.9-1.4-1-2.4-1c-6.6,0-13.1,0-19.7,0c-0.5,0-1-0.1-1.5,0.3c-0.8,0.2-1.3,0.8-1.4,1.7
		c-0.1,0.6-0.2,1.2-0.2,1.8c0,7.8,0,15.5,0,23.3c-0.1,0.7-0.1,1.5,0,2.2c0,8.3,0,16.5,0,24.8c0,2-0.1,3.9,0,5.9c0,0,0,0,0,0.1
		c0,0.4,0,0.8,0.1,1.2c0,0,0,0,0,0v0c0,0,0,0,0,0c0.2,1.2,0.8,1.9,2.1,1.9c0.6,0,1.1,0,1.7,0c0,0,0,0,0,0c1.7,0,3.4,0,5.1,0
		c0.6,0,1.1,0,1.7,0c1.7,0,3.4,0,5.1,0c0.6,0,1.1,0,1.7,0c1.9,0,3.7,0.1,5.6,0c1.5,0,2.3-0.9,2.3-2.3c0-1.9,0-3.7-0.1-5.6
		c0-0.6,0-1.1,0-1.7c0.2-1.7,0.2-3.4,0-5.1c0-0.6,0-1.1,0-1.7c0.2-1.7,0.2-3.4,0-5.1v0c0-0.6,0-1.1,0-1.7c0.2-1.7,0.2-3.4,0-5.1
		c0-0.2,0-0.5,0-0.7c0-0.3,0-0.7,0-1c0.2-1.7,0.2-3.4,0-5.1l0,0c0-0.2,0-0.5,0-0.7c0-0.3,0-0.7,0-1c0.2-1.7,0.2-3.4,0-5.1l0,0
		c0-0.2,0-0.5,0-0.7c0-0.3,0-0.7,0-1c0.2-1.7,0.2-3.4,0-5.1l0,0c0-0.2,0-0.5,0-0.7c0-0.3,0-0.7,0-1c0,0,0,0,0,0c0,0,0,0,0,0
		c0.2-1.7,0.2-3.4,0-5.1c0-0.6,0-1.1,0-1.7C119.7,95.2,120.2,93.6,119.3,92.1z"/>
	<path class="st0" d="M34.7,61.3c0.3,0,0.5-0.1,0.8-0.1c0.2,0,0.4-0.1,0.5-0.1c1.4,0,2.7-0.2,4-0.4c0.7,0.1,1.4,0,2-0.3
		c2,0,3.9-0.3,5.8-0.7c1.1,0,2.3,0,3.4-0.1c-0.1,0-0.1-0.1-0.2-0.1c0.1,0,0.1,0,0.2,0.1c1,0.7,0,1.1-0.3,1.5
		c-0.5,0.7-1.2,1.4-0.5,2.3l0,0c0.1,0.4,0.4,0.8,0.7,1l0,0l0,0c0.6,1.1,1.3,2.1,2.1,3c0.3,0.5,0.7,0.9,1,1.4c0.6,1,1.2,2,2,2.8
		c0.1,0.4,0.3,0.7,0.7,1c0.5,1,1.1,1.8,1.8,2.6c0.2,0.5,0.5,1,1,1.3l0,0c0.7,0.8,1.4,0.2,2.2,0.1c0.5-0.1,1.2-0.8,1.5,0.2
		c0,0,0,0.1,0,0.1c-0.6,1.3-1.1,2.7-1.7,4c-1.7,3.1-3.3,6.2-4.8,9.5c-0.2,0.3-0.4,0.6-0.6,1c-0.2,0.5-0.7,1-0.2,1.5
		c0.5,0.6,1.1,0.4,1.7,0l0,0c1.8-0.3,3.6-0.8,5.4-1.4c0.2-0.1,0.4-0.2,0.5-0.2c-0.2,0.1-0.4,0.1-0.5,0.2c0.3,0,0.5,0,0.7-0.2
		c1.1-0.2,2.2-0.5,3.1-1c4-1.2,7.7-3,10.9-5.7c3.1-2.6,4.6-5.9,4.3-10c0.1-1.2,0.1-2.4-0.3-3.5c0,0,0,0,0,0c0-0.8-0.1-1.5-0.1-2.3
		l0,0c0.1-0.2,0.3-0.4,0.4-0.7c4.4-2,8.5-4.4,12.3-7.4c5.1-3.6,9.6-7.8,13-13.1c0.4-0.6,0.9-1.2,1.3-1.8c1.5-2.6,1.8-1.8-0.3-4.4
		l0,0c-0.2-0.3-0.5-0.7-0.7-1l0,0l0,0c-0.6-1.1-1.3-2.1-2.1-3c-0.3-0.5-0.7-0.9-1-1.4c-0.6-0.9-1.2-1.8-1.8-2.7
		c-0.3-0.4-0.6-0.8-0.9-1.2c-0.5-1-1.1-1.8-1.8-2.6l0,0l0,0c-0.3-0.5-0.7-0.9-1-1.4c-0.3-1-1-1.3-2.1-1c-0.9,0.3-1.9,0.3-2.7,0.7
		c-1.2,0.1-2.4,0.5-3.5,1c-2.6,0.7-5.1,1.7-7.4,3.1c-1.9,0.8-3.6,1.8-5.2,3c-4.3,2.5-8.1,5.8-11.8,9.1c-0.5,0.4-0.9,1.1-1.7,0.9
		c-0.7-0.3-1.4-0.6-2.1-1c-1.1-0.6-2.2-1.2-3.4-1.4c-0.6-0.4-1.3-0.6-2-0.6c-1.4-0.4-2.7-0.6-4.1-0.1c-1.2,0.1-2.4,0.4-3.4,1.1
		c-0.6,0.1-1.1,0.5-1.7,0.8c-5.4,3.5-9.2,8.5-12.7,13.7c-0.6,0.8-1.2,1.5-1.7,2.3C33.2,60.8,33.4,61.4,34.7,61.3z M89.6,39.5
		c0.4,0.4,0.7,0.5,1,0.3c0,0,0.1,0.1,0.1,0.1c1.2,0.4,2.1,1.4,3.4,1.2c0,0.1,0.1,0.1,0.1,0.1c0,0,0,0.1-0.1,0.1
		c0.1,1.5,0.7,2.7,1.7,3.7c-0.5,0.5-0.6,0.9-0.3,1.3c0,0-0.1,0.1-0.1,0.1c-0.7,2.8-2.4,4.6-5.3,5.3c-0.1,0-0.2,0.1-0.3,0.1
		c-0.4-0.2-0.9-0.2-1.3,0.2c0,0,0-0.1-0.1-0.1c-1-0.5-2-1.1-3.1-1.3c-0.1-0.4-0.2-0.6-0.6-0.6c0,0,0,0,0,0c-0.6-1.1-0.7-2.4-1.8-3.3
		c0.3-0.3,0.3-0.6,0.2-0.8c0,0,0.1,0,0.1-0.1c0.7-2.6,1.8-4.8,4.5-5.7C88.4,40,89,39.8,89.6,39.5z"/>
	<path class="st0" d="M103.4,31c0.3,0.5,0.6,0.9,1,1.4c0.6,0.8,1.1,1.6,1.7,2.4c0.2,0.5,0.5,1,1,1.4h0c0.6,0.9,1.2,1.8,1.8,2.7
		c0.6,1,1.2,2.1,2.2,3c1.1-2.5,2.2-4.9,2.9-7.4c0.8-2.2,1.9-4.4,1.9-6.8c-0.8-1.4-2.2-0.9-3.3-1c0.1,0,0.3,0.1,0.4,0.1
		c-0.1,0-0.3,0-0.4-0.1c-1,0-2.1,0-3.1,0c-0.6,0-1.1,0-1.7,0c-2-0.2-4.1,0-6.1,0c-1,0-1.2,0.4-0.6,1.2C101.9,28.9,102.6,30,103.4,31
		z"/>
	<path class="st0" d="M85.8,114.4c0-0.2-0.1-0.4-0.1-0.6c0-0.4-0.1-0.7-0.4-0.9c-0.6-1-1.7-1-2.7-1c-6.4,0-12.8,0-19.1,0
		c-0.6,0-1.1-0.1-1.6,0.3c-1.3,0.5-1.6,1.5-1.4,2.7c0,0.6,0,1.1,0,1.7c-0.2,1.7-0.2,3.4,0,5.1c0,0.6,0,1.1,0,1.7
		c-0.2,1.7-0.2,3.4,0,5.1c0,0.6,0,1.1,0,1.7c-0.2,1.7-0.2,3.4,0,5.1c0,0.6,0,1.1,0,1.7c-0.2,1.7-0.2,3.4,0,5.1c0,0,0,0,0,0h0
		c0,0.6,0,1.1,0,1.7l0,0l0,0c-0.2,1.7-0.2,3.4,0,5.1l0,0c0,0.6,0,1.1,0,1.7c-0.2,2.4,0.2,3,2.1,3.4l0,0c0.3,0,0.7,0,1,0l0,0
		c0.2,0,0.5,0,0.7,0l0,0l0,0c1.7,0,3.4,0,5.1,0c0.6,0,1.1,0,1.7,0c1.7,0,3.4,0,5.1,0c0.3,0,0.7,0,1,0c0.2,0,0.5,0,0.7,0
		c1.7,0,3.4,0,5.1,0c2.2,0,2.9-0.7,2.9-3.1c0-0.1,0-0.3,0-0.4c0-0.4,0.1-0.8,0-1.3c0-3.5,0-7,0-10.5c0-0.1,0-0.2,0-0.3
		c0-4.4,0-8.8,0-13.2c0-0.1,0-0.3,0-0.4c0-2.1,0-4.1,0-6.2c0,0,0-0.1,0-0.1c0-0.2,0-0.3,0-0.5C85.8,116.7,85.9,115.6,85.8,114.4z"/>
	<path class="st0" d="M153.8,146.2c0-0.6,0-1.1,0-1.7c0,0,0,0,0,0s0,0,0,0c0-1.7,0-3.4,0-5.1c0,0,0,0,0,0c0-0.6,0-1.1,0-1.7
		c0,0,0,0,0,0s0,0,0,0c0-1.7,0-3.4,0-5.1c0,0,0,0,0,0c0-0.6,0-1.1,0-1.7c0,0,0,0,0,0s0,0,0,0c0-1.7,0-3.4,0-5.1c0,0,0,0,0,0
		c0-0.2,0-0.5,0-0.7c0-0.3,0-0.7,0-1c0-1.7,0-3.4,0-5.1l0,0l0,0c0-0.2,0-0.5,0-0.7c0-0.3,0-0.7,0-1c0,0,0,0,0,0c0-1.7,0-3.4,0-5.1
		c0,0,0,0,0,0c0-0.2,0-0.5,0-0.7v0c0-0.3,0-0.7,0-1c0,0,0,0,0,0c0-1.7,0-3.4,0-5.1c0,0,0,0,0,0c0-0.2,0-0.5,0-0.7c0-0.3,0-0.7,0-1
		c0-1.7,0-3.4,0-5.1c0,0,0,0,0,0c0-0.2,0-0.5,0-0.7l0,0c0-0.3,0-0.7,0-1c0,0,0,0,0,0c0-1.7,0-3.4,0-5.1c0-0.6,0-1.1,0-1.7
		c0-1.7,0-3.4,0-5.1l0,0c0,0,0,0,0,0c0-0.2,0-0.5,0-0.7l0,0c0-0.3,0-0.7,0-1c0,0,0,0,0,0c0-1.7,0-3.4,0-5.1c0,0,0,0,0,0
		c0-0.2,0-0.5,0-0.7c0-0.3,0-0.7,0-1c0,0,0,0,0,0c0-1.7,0-3.4,0-5.1c0,0,0,0,0,0c0-0.2,0-0.5,0-0.7v0c0-0.3,0-0.7,0-1c0,0,0,0,0,0
		c0-1.7,0-3.4,0-5.1l0,0c0.1-0.6,0.2-1.2-0.3-1.8l0,0c-0.2-0.5-0.5-0.8-1.1-1c-0.4-0.4-1-0.3-1.5-0.3c-6.5,0-13.1,0-19.6,0
		c-0.5,0-1-0.1-1.5,0.3c-0.8,0.2-1.3,0.8-1.4,1.6c-0.3,0.6-0.2,1.3-0.2,2c0,8.7,0,17.4,0,26.1c0,0.4,0,0.9,0,1.3
		c0,19.4,0,38.7,0,58.1c0,0.6-0.1,1.1,0.2,1.7c0,0,0,0,0,0c0.3,1.1,0.9,1.7,2.1,1.6c0,0,0,0,0,0c0.6,0,1.1,0,1.7,0h0
		c1.7,0,3.4,0,5.1,0c0.6,0,1.1,0,1.7,0c1.7,0,3.4,0,5.1,0c0.6,0,1.1,0,1.7,0c1.7,0,3.4,0,5.1,0c2.1,0,2.7-0.6,2.7-2.7
		C153.8,149.6,153.8,147.9,153.8,146.2C153.8,146.2,153.8,146.2,153.8,146.2z"/>
	<path class="st0" d="M51.6,124C51.6,124,51.6,124,51.6,124c-0.4-2.1-1.9-2.1-3.5-1.9c-0.6,0-1.1,0-1.7,0c-1.7,0-3.4,0-5.1,0
		c-0.6,0-1.1,0-1.7,0c-1.7,0-3.4,0-5.1,0c-0.6,0-1.1,0-1.7,0c-1.4,0-2.7-0.1-4.1,0c-1.5,0-2.4,0.8-2.5,2.4c0,1.3,0,2.7,0.1,4.1
		c0,0.6,0,1.1,0,1.7c0,1.7,0,3.4,0,5.1c0,0.6,0,1.1,0,1.7c0,1.7,0,3.4,0,5.1c0,0.6,0,1.1,0,1.7c0,1.7,0,3.4,0,5.1c0,0.6,0,1.1,0,1.7
		c-0.2,2.4,0.2,3,2,3.4c0.6,0,1.1,0,1.7,0c0,0,0,0,0,0c1.7,0,3.4,0,5.1,0c0.6,0,1.1,0,1.7,0c1.7,0,3.4,0,5.1,0c0.6,0,1.1,0,1.7,0
		l0,0c1.7,0,3.4,0,5.1,0c2.2,0,3-0.7,3-3.1c0-8.5,0-17,0-25.5C51.8,125,51.9,124.5,51.6,124z"/>
</g>
</svg>
