<?xml version="1.0" encoding="utf-8"?>
<!-- Generator: Adobe Illustrator 23.0.6, SVG Export Plug-In . SVG Version: 6.00 Build 0)  -->
<svg version="1.1" id="Layer_1" xmlns="http://www.w3.org/2000/svg" xmlns:xlink="http://www.w3.org/1999/xlink" x="0px" y="0px"
	 viewBox="0 0 180.1 177.9" style="enable-background:new 0 0 180.1 177.9;" xml:space="preserve">
<style type="text/css">
	.st0{fill:#FF9600;}
</style>
<path class="st0" d="M88.7,134.5c-22.2,0.1-40.5-18.1-40.6-40.4c-0.1-22.4,18-40.7,40.4-40.8c22.4-0.1,40.7,18,40.8,40.2
	C129.4,116.2,111.4,134.4,88.7,134.5z M53.6,93.9c0,19.4,15.7,35.2,35,35.2c19.5,0,35.2-15.6,35.2-35.1c0-19.5-15.6-35.2-35.2-35.2
	C69.4,58.7,53.6,74.5,53.6,93.9z"/>
<path class="st0" d="M135.5,88c5.3-0.7,9.9-3,14.3-5.9c0.8-0.5,1.5-1.3,2.4-1.7c0.6-0.3,1.6-0.6,2.1-0.3c0.4,0.3,0.7,1.5,0.5,2
	c-1.3,2.9-2.5,5.9-4.3,8.4c-4.5,6.4-10.9,10.5-18.3,14.2c2.7-12.5,0.9-24-5.7-34.8c0.7-0.4,1.4-0.7,2-1c5.2-2.4,10.3-5.2,14.4-9.3
	c1.5-1.5,2.7-3.5,4.1-5.1c0.5-0.5,1.2-1.3,1.8-1.2c0.5,0.1,1.3,1,1.4,1.6c2.7,12.9-0.3,25.5-13.8,32.5C136,87.6,135.8,87.8,135.5,88
	c0,0.1-0.1,0.2-0.2,0.2C135.4,88.1,135.4,88.1,135.5,88z"/>
<path class="st0" d="M45.4,104.7c-9.6-5-17.7-10.7-22-20.5c-0.2-0.6-0.6-1.1-0.6-1.7c0-0.8,0.2-1.6,0.4-2.5c0.8,0.2,1.6,0.2,2.3,0.5
	c3.2,1.8,6.4,3.9,9.7,5.5c2.1,1.1,4.6,1.6,7,2c-0.3-0.2-0.5-0.4-0.8-0.5c-10.9-5.7-16.2-15.8-14.7-28.1c0.2-1.6,0.4-3.3,0.8-4.9
	c0.1-0.5,0.8-1.2,1.3-1.3c0.5-0.1,1.3,0.4,1.6,0.8c3.9,7,10.5,10.7,17.3,14.1c1.1,0.5,2.2,1,3.4,1.6C44.5,80.6,42.7,92,45.4,104.7z"
	/>
<path class="st0" d="M47.7,117.5c-4.3-3.3-8.4-6.3-12.4-9.4c-0.5-0.4-1-0.8-1.3-1.3c-0.3-0.5-0.5-1.3-0.2-1.6
	c0.3-0.4,1.1-0.9,1.6-0.8c3.1,0.3,6.3,0.7,9.4,1.2c0.4,0.1,1,0.7,1.1,1.1c1.6,5,3.9,9.6,7,13.8c0.3,0.4,0.1,1.5-0.3,1.7
	c-0.8,0.5-1.7,1-2.6,1c-3.7,0-7.1-1.1-10-3.5c-0.8-0.6-2-1.4-1.1-2.5c0.4-0.6,1.7-0.7,2.5-0.7C43.6,116.9,45.6,117.2,47.7,117.5z"/>
<path class="st0" d="M129.9,117.5c2-0.3,4.1-0.6,6.1-0.7c0.8,0,1.7,0.5,2.5,0.7c-0.4,0.8-0.5,1.7-1.1,2.3c-2.9,2.6-6.5,3.7-10.3,3.6
	c-1.2,0-2.3-0.9-3.1-1.3c2.4-4.7,4.6-9,6.6-13.4c1.3-2.9,1.2-2.9,4.4-3.2c2.1-0.2,4.2-0.8,6.3-1c0.7-0.1,1.5,0.4,2.2,0.6
	c-0.2,0.7-0.2,1.8-0.7,2.2c-3.7,2.9-7.6,5.8-11.4,8.6c-0.6,0.4-1.2,0.7-1.8,1.1C129.8,117.2,129.8,117.4,129.9,117.5z"/>
<path class="st0" d="M135.5,88c-0.1,0.1-0.1,0.2-0.2,0.2C135.4,88.1,135.5,88.1,135.5,88C135.5,88,135.5,88,135.5,88z"/>
<path class="st0" d="M91.7,119.8c0,0.6-0.1,1.2-0.1,1.7c-0.2,1.6-1.3,2.6-2.8,2.6c-1.5,0-2.8-1-2.8-2.6c0.1-1.8-0.8-2.1-2.2-2.4
	c-5.9-1.2-10-4.6-11.8-10.5c-0.8-2.6,0.4-4.8,2.7-5.7c2.5-0.9,4.6,0.1,5.8,2.7c0.6,1.3,1.1,2.6,1.9,3.7c2,2.9,5,3.9,8.4,3.3
	c2.9-0.5,5.2-2.1,6-5.2c0.7-2.8-0.1-5.2-2.5-6.7c-1.5-0.9-3.3-1.5-5-2.2c-2.8-1.1-5.7-1.9-8.3-3.3c-6.1-3.2-8.5-7.9-7.7-14.6
	C74,74.4,78,70.7,83.8,68.7c1.4-0.5,2.2-0.8,2.2-2.5c-0.1-1.5,1.3-2.6,2.8-2.6c1.5,0,2.8,1,2.8,2.6c0,1.7,0.7,2.1,2.1,2.5
	c5.4,1.7,9.3,5,10.8,10.7c0.7,2.6-0.7,4.9-3.2,5.6c-2.5,0.7-4.5-0.6-5.5-3.3c-0.6-1.6-1.2-3.4-2.2-4.7c-1.8-2.1-4.2-2.6-6.9-1.6
	c-2.6,1-4.3,2.8-4.7,5.6c-0.4,3,0.9,5.4,3.4,7c0.9,0.6,2.1,1,3.2,1.4c2.4,0.8,4.9,1.5,7.3,2.3c6.3,2.1,9.7,6.6,9.8,12.9
	c0.1,6.5-3.3,11.6-9.4,13.9C94.9,119,93.3,119.3,91.7,119.8z"/>
</svg>
