<?xml version="1.0" encoding="utf-8"?>
<!-- Generator: Adobe Illustrator 23.0.6, SVG Export Plug-In . SVG Version: 6.00 Build 0)  -->
<svg version="1.1" id="Layer_1" xmlns="http://www.w3.org/2000/svg" xmlns:xlink="http://www.w3.org/1999/xlink" x="0px" y="0px"
	 viewBox="0 0 180.1 177.9" style="enable-background:new 0 0 180.1 177.9;" xml:space="preserve">
<style type="text/css">
	.st0{fill:#FF9600;}
</style>
<path class="st0" d="M85.4,158.4c-9.4-1.7-17-7.4-25.5-11.1c-1.2-0.5-1.4-1.3-1.4-2.5c0-10,0.1-20,0-30c0-1.8,0.6-2.2,2.3-2.3
	c11.3-1,21.8,1.2,31.2,8c1.1,0.8,2.3,0.9,3.6,0.9c3,0,6-0.1,9,0c3.4,0.1,5.9,1.7,6.4,4.1c0.6,3.2-1.7,4.8-4,6.1
	c-3.6,1.9-7.6,2.1-11.7,1.7c-1-0.1-2-0.3-2.9-0.1c-1.3,0.2-2.4,1-2.3,2.6c0.1,1.5,1,2.4,2.4,2.4c5.1,0.1,10.3,0.2,15.2-1.9
	c3.2-1.3,5.6-3.6,6.8-6.8c0.7-1.9,1.9-3,3.7-3.8c4.9-2.3,9.7-4.9,14.6-7.2c3-1.4,6.1-1.2,8.8,0.8c2.3,1.7,3.2,4.1,2.8,6.9
	c-0.3,2.5-1.7,4.2-3.7,5.6c-11.1,8-22.9,14.9-35.2,21c-5,2.4-9.8,5-15.4,5.9C88.5,158.4,87,158.4,85.4,158.4z"/>
<path class="st0" d="M111.1,24.2c3.7,1.1,7.5,1.9,10.8,4.1c8.8,5.8,13.4,16.5,11.2,26.6c-2.3,10.6-10.3,18.4-20.9,20.1
	c-1.9,0.3-2.4,1-2.3,2.8c0.1,3.3,0,6.7,0,10.1c1-0.1,1.2-0.7,1.5-1.2c6.6-9.5,16.2-13.2,27.2-14c5.5-0.4,11.1-0.6,16.6-1
	c2.1-0.1,3.2,0.7,2.2,2.7c-3.5,7.2-6.8,14.4-11.8,20.7c-5.2,6.4-12.1,9.5-20.2,10.2c-4.6,0.4-9.1,0.1-13.7,0c-0.8,0-1.8-0.4-1.9,1
	c-0.1,1.3,0.7,1.4,1.6,1.5c4.1,0.5,8.3,0.9,12.3,2.1c2.3,0.7,4.7,1.3,6.8,3.3c-5,2.5-9.8,4.9-14.6,7.3c-0.9,0.5-1.4,0-1.9-0.6
	c-2.7-3-6.2-4.2-10.2-4.1c-0.6,0-1.2-0.1-1.7,0c-7,1.4-12-3-18.3-6c6-1.8,11.4-2.2,16.9-2.3c1.1,0,2.8,0.6,3.1-0.7
	c0.4-1.8,0.2-3.9,0-5.8c-0.1-0.7-1.2-0.4-1.8-0.4c-3.5,0.1-7-0.2-10.4-1.1c-4.8-1.3-8.6-4-11.1-8.4c-1.9-3.4-3.5-6.9-5.2-10.4
	c-1-2.2-0.2-3.5,2.2-3.4c6,0.3,12,0.7,18,1.3c3,0.3,5.7,1.8,8.5,4.4c0-2.7-0.1-4.7,0-6.6c0.1-1.7-1.3-1.4-2.2-1.6
	c-9.8-2.7-16.3-8.7-18.9-18.6c-3.8-14.5,5.6-28.9,20.4-31.5c0.5-0.1,0.9-0.3,1.3-0.5C106.8,24.2,109,24.2,111.1,24.2z M129.5,50.1
	c0.2-11.6-9.3-21.6-20.9-21.8C96.4,28,86.5,37.4,86.2,49.5c-0.3,11.6,9.4,21.6,21.2,21.9C119.3,71.7,129.2,62.1,129.5,50.1z
	 M109.7,95.2c0.2,0.2,0.4,0.3,0.6,0.5c0.7-0.7,1.3-1.4,2-2.1c4.9-4.9,11-7,17.6-8.2c1-0.2,2-0.2,2.3,1.1c0.3,1.2-0.5,1.8-1.6,2
	c-0.7,0.1-1.3,0.3-2,0.5c-3.7,0.8-7.3,2-10.5,4.1c-3.2,2.1-5.9,4.8-7.5,8.5c24.9,3.1,33.3-4.4,42.3-26.5c-3.8,0.2-7.6,0.2-11.4,0.6
	c-5,0.4-10,1-14.8,2.8C118.6,81.5,114.1,88.3,109.7,95.2z M104.1,91.2c-1.7-3.9-3.6-7.2-7.7-8.3c-5.2-1.4-10.5-0.8-15.9-1.5
	c3.9,11.9,12.2,17.1,23.2,14.6c-1.5-2.3-3.7-3-6-3.6c-1.2-0.3-2.4-0.7-2.1-2.2c0.3-1.4,1.5-1.5,2.8-1
	C100.1,89.9,101.9,90.5,104.1,91.2z"/>
<path class="st0" d="M53.9,129.7c0,5.3,0,10.7,0,16c0,3.3-0.8,4.1-4.1,4.1c-5,0-9.9,0-14.9,0c-2.7,0-3.9-1.1-3.8-3.8
	c0.1-11,0.1-22,0-32.9c0-2.7,1.1-3.9,3.8-3.9c5.1,0.1,10.1,0.1,15.2,0c2.7,0,3.9,1.2,3.9,3.9C53.9,118.6,53.9,124.2,53.9,129.7z"/>
<path class="st0" d="M104.1,55.4c1.4,0,2.7,0.1,4.1,0c1-0.1,2.3-0.3,2.3-1.7c0-1.4-1.2-1.5-2.4-1.5c-0.4,0-0.8,0-1.2,0
	c-4.4-0.1-6.8-1.7-7.6-5.3c-1-4.8,0.4-7.9,4.5-9.8c0.5-0.2,1.3-0.2,1.3-0.9c0-1.5,0.3-2.3,2.1-2.2c1.5,0.1,2.8-0.2,2.8,2.1
	c0,1.2,1.6,0.7,2.5,0.9c2.5,0.4,3.8,2.7,2.7,5c-0.4,1-1.1,0.5-1.7,0.5c-2,0-4.1-0.2-6.1-0.1c-1.1,0.1-2.2,0.5-2.1,1.9
	c0.1,1.4,1.2,1.6,2.3,1.7c0.3,0,0.6,0,0.9,0c6.7-0.5,8.9,3.7,7.9,10c-0.3,1.8-1.2,3.3-2.9,4.1c-1.5,0.8-4,0.3-3.8,3.3
	c0,0.8-1.9,0.4-2.9,0.4c-0.7,0-1.5,0.1-1.5-0.9c0.1-2.1-1.4-1.9-2.7-2.1c-2.8-0.3-4.1-2.6-3-5c0.3-0.8,0.8-0.7,1.4-0.6
	c1.1,0.1,2.1,0.2,3.2,0.3C104.1,55.5,104.1,55.5,104.1,55.4z"/>
</svg>
