<?xml version="1.0" encoding="utf-8"?>
<!-- Generator: Adobe Illustrator 23.0.6, SVG Export Plug-In . SVG Version: 6.00 Build 0)  -->
<svg version="1.1" id="Layer_1" xmlns="http://www.w3.org/2000/svg" xmlns:xlink="http://www.w3.org/1999/xlink" x="0px" y="0px"
	 viewBox="0 0 180.1 177.9" style="enable-background:new 0 0 180.1 177.9;" xml:space="preserve">
<style type="text/css">
	.st0{fill:#FF9600;}
</style>
<path class="st0" d="M99.9,46.4c24.6-0.4,40.9,25.3,30.4,47.4c-4,8.4-8.2,16.7-12.3,25c-1.3,2.5-3.3,3.4-5.3,2.4
	c-2-1-2.5-3.1-1.3-5.7c4.1-8.4,8.5-16.8,12.4-25.3c7.1-15.8-2.7-33.9-19.6-36.2c-10.3-1.4-18.8,2.3-24.8,10.7
	c-5.8,8.2-6.3,17.2-2,26.3c3.8,8.1,7.9,16.1,11.9,24.1c1.4,2.8,1,4.9-1.1,6c-2.1,1.1-4.1,0.1-5.5-2.6c-4.1-8.2-8.2-16.4-12.1-24.6
	c-9.7-20.5,2.9-43.9,25.3-47.2C97.4,46.5,98.9,46.5,99.9,46.4z"/>
<path class="st0" d="M109.1,141.2c1-0.2,2-0.5,3-0.6c1.5-0.1,2.6,0.6,3,2.1c0.4,1.5,0,2.9-1.5,3.5c-8.7,3.7-17.5,3.7-26.2,0.1
	c-1.4-0.6-2.1-1.9-1.7-3.4c0.4-1.6,1.4-2.3,3-2.3c1.3,0,2.6,0,3.9-0.1c0.4,0,0.7-0.2,1.1-0.3c-0.3-0.2-0.6-0.4-0.9-0.5
	c-1.6-0.5-3.2-0.9-4.8-1.5c-1.7-0.6-2.6-1.8-2.3-3.7c0.4-1.8,1.7-2.4,3.4-2.5c1.9-0.1,3.9,0.2,5.7-0.6c-1.7-0.5-3.5-1-5.2-1.5
	c-0.6-0.2-1.3-0.4-1.9-0.7c-1.7-0.8-2.6-2.1-1.9-4c0.7-1.9,2.2-2.3,4-1.8c2.3,0.6,4.5,1.3,6.8,1.8c4.5,0.9,8.9,0.1,13.1-1.4
	c1.9-0.7,4-1.3,5.2,1c1.1,2.2-0.3,3.7-2,4.9c-1.3,0.9-2.6,1.8-3.9,2.7c-0.2,0.1-0.4,0.4-0.6,0.6c0.3,0,0.6,0,0.8-0.1
	c2-0.7,4.3-1.9,5.7,0.8c1.4,2.9-1,4.1-2.9,5.4C111,139.8,110.1,140.5,109.1,141.2C109.1,141.2,109.1,141.2,109.1,141.2z"/>
<path class="st0" d="M92.3,90.8c1.8-0.4,2.9,0.3,3.7,2.5c0.8,2.5,3.3,2.7,5.6,2.5c1.9-0.1,3.5-0.9,3.8-3.1c0.4-2.4-0.9-3.9-3-4.8
	c-2.6-1.1-5.2-2-7.7-3.2c-3.7-1.7-5.4-4.7-5-8.8c0.4-3.8,2.8-6,6.3-7c1.9-0.6,2.8-1.4,2.7-3.5c-0.2-2.3,1.6-1.9,3-2
	c1.4-0.1,2.6,0.2,2.4,2c-0.2,2.1,0.6,3,2.6,3.7c3.2,1.1,5.2,3.4,5.7,6.9c0.2,1.3-0.4,2-1.7,2c-2.4,0-4.9,0.5-5.9-2.9
	c-0.6-2-2.7-2.3-4.8-2c-1.6,0.3-2.7,1.2-3,2.8c-0.4,2.1,0.4,3.7,2.2,4.5c2.4,1.1,5,2,7.4,3.1c3.5,1.5,5.8,3.9,6,7.9
	c0.3,4.1-2.1,7.4-6.5,8.7c-1.5,0.5-2.3,1.1-2.1,2.8c0.2,2-0.8,2.6-2.6,2.6c-1.8,0-3.1-0.4-2.8-2.5c0.2-1.6-0.6-2.3-2.1-2.6
	c-3.1-0.6-5.7-2-7.2-5C87.5,92,88.2,90.8,92.3,90.8z"/>
<path class="st0" d="M100.5,157.2c-3.3,0-6.6-2.1-7.8-5c-0.5-1.1-0.2-1.7,1.1-1.4c4.5,0.9,9,0.9,13.6,0c1.3-0.3,1.4,0.4,1,1.4
	C107,155.1,103.7,157.3,100.5,157.2z"/>
<path class="st0" d="M104.2,30.7c-0.7,2.8-1.9,5.8-3.2,8.8c-0.4,0.9-1.1,0.4-1.3-0.3c-1.1-2.8-2.2-5.6-3-8.5
	c-0.6-2.2,1.3-4.4,3.5-4.5C102.5,26,104.3,27.8,104.2,30.7z"/>
<path class="st0" d="M57,51.7c1.1,0,2.1,0.3,2.8,1.2c1.9,2.1,3.7,4.3,5.5,6.4c0.3,0.3,0.6,0.8,0.2,1.1c-0.2,0.2-0.7,0.3-1,0.3
	c-2.8-0.5-5.6-0.9-8.3-1.5C54,58.8,53,57.1,53.2,55C53.5,52.9,54.9,51.8,57,51.7z"/>
<path class="st0" d="M51.1,84.5c-2.1,0-3.4-0.7-4-2.1c-0.6-1.4-0.5-2.8,0.4-4.1c1-1.3,2.3-1.8,3.8-1.4c2.8,0.9,5.5,1.9,8.2,3
	c0.7,0.3,1.3,1,0.3,1.4C56.8,82.6,53.8,83.9,51.1,84.5z"/>
<path class="st0" d="M75.4,33.1c1.9,0.2,3.3,1.2,3.7,3.2c0.5,2.6,1,5.3,1.4,7.9c0.1,0.5,0.2,1-0.3,1.3c-0.5,0.4-0.9-0.1-1.3-0.3
	c-2.1-1.7-4.2-3.4-6.1-5.2c-1.3-1.2-1.8-2.7-1.1-4.4C72.4,34,73.7,33.2,75.4,33.1z"/>
<path class="st0" d="M154.9,80.1c0,2.6-2.3,4.4-4.9,3.6c-2.6-0.8-5.1-1.8-7.7-2.8c-0.4-0.2-1-0.4-0.9-0.9c0.1-0.3,0.5-0.7,0.8-0.9
	c2.6-1,5.2-2,7.8-2.8C152.7,75.6,154.9,77.4,154.9,80.1z"/>
<path class="st0" d="M129.5,36.5c-0.1,1.4-0.5,2.4-1.4,3.2c-2,1.7-3.9,3.3-5.9,5c-0.4,0.3-0.8,0.8-1.4,0.4c-0.5-0.3-0.4-0.8-0.3-1.3
	c0.5-2.6,0.8-5.3,1.4-7.9c0.5-2.1,2.1-3.4,4.4-3C128.3,33.2,129.4,34.6,129.5,36.5z"/>
<path class="st0" d="M148,54.9c0,2.1-1,3.4-3,3.8c-2.7,0.6-5.4,1-8.2,1.5c-0.4,0.1-0.9,0.1-1.2-0.3c-0.3-0.5,0-0.8,0.3-1.2
	c1.8-2.1,3.5-4.3,5.4-6.3c1.2-1.3,2.9-1.6,4.5-0.9C147.2,52.1,148,53.3,148,54.9z"/>
<path class="st0" d="M109.1,141.2C109.1,141.2,109.1,141.2,109.1,141.2C109.1,141.2,109.1,141.2,109.1,141.2z"/>
</svg>
