<?xml version="1.0" encoding="utf-8"?>
<!-- Generator: Adobe Illustrator 23.0.6, SVG Export Plug-In . SVG Version: 6.00 Build 0)  -->
<svg version="1.1" id="Layer_1" xmlns="http://www.w3.org/2000/svg" xmlns:xlink="http://www.w3.org/1999/xlink" x="0px" y="0px"
	 viewBox="0 0 180.1 177.9" style="enable-background:new 0 0 180.1 177.9;" xml:space="preserve">
<style type="text/css">
	.st0{fill:#FF9600;}
</style>
<path class="st0" d="M33.1,125.3c0-19.4,0-38.4,0-57.6c6.8,0,13.5,0,20.4,0c0,9.9,0,19.8,0,29.7c0.1,0,0.2,0.1,0.3,0.1
	c1.6-1.6,3.2-3.1,4.7-4.7c0.3-0.3,0.2-1,0.2-1.5c0-14.1,0-28.1,0-42.2c0-0.5,0-1,0-1.6c6.9,0,13.6,0,20.5,0c0,0.5,0,1,0,1.5
	c0,14.1,0,28.1,0,42.2c0,1,0.3,1.7,1,2.3c1.3,1.2,2.6,2.6,4.1,4.1c0-10.6,0-20.7,0-31c6.9,0,13.6,0,20.5,0c0,10.4,0,20.8,0,31.2
	c0.1,0,0.2,0.1,0.3,0.1c1.5-1.5,3.1-3.1,4.6-4.7c0.3-0.3,0.2-1,0.2-1.6c0-11.6,0-23.1,0-34.7c0-0.6,0-1.2,0-1.8c6.8,0,13.6,0,20.4,0
	c0,4.1,0,8.3,0,12.6c1.7-0.7,3.2-1.2,4.6-1.9c0.3-0.1,0.5-0.8,0.5-1.3c0-7.4,0-14.8,0-22.2c0-0.7,0-1.4,0-2.2c6.8,0,13.6,0,20.4,0
	c0,32.1,0,64.2,0,96.4c-6.7,0-13.5,0-20.4,0c0-0.5,0-1,0-1.4c0-12.4,0-24.7,0-37.1c0-0.6-0.3-1.3-0.5-2.2c-1.6,1.6-3,2.9-4.2,4.3
	c-0.3,0.3-0.3,0.9-0.3,1.4c0,11.1,0,22.2,0,33.3c0,0.5,0,1.1,0,1.8c-6.8,0-13.5,0-20.5,0c0-5.1,0-10.3,0-15.7
	c-1.8,1.8-3.4,3.3-4.9,4.9c-0.2,0.2-0.2,0.8-0.2,1.2c0,2.8,0,5.5,0,8.3c0,0.5,0,0.9,0,1.4c-6.9,0-13.6,0-20.5,0c0-0.4,0-0.9,0-1.3
	c0-3,0-6,0-9c0-0.6-0.3-1.3-0.7-1.7c-1.3-1.4-2.7-2.8-4.3-4.4c0,5.7,0,11.1,0,16.5c-6.9,0-13.7,0-20.5,0c0-5.4,0-10.6,0-16.3
	c-1.8,1.8-3.4,3.4-4.9,5c-0.2,0.2-0.2,0.8-0.2,1.2c0,3.3,0,6.7,0,10.1c-6,0-12,0-17.7,0c11-11,22.1-22.1,33.3-33.2
	c8.3,8.4,16.9,17,25.5,25.6c13.4-13.4,26.6-26.6,40-40c1.9,2,3.8,3.9,5.7,6c4.1-10.3,8.1-20.3,12.2-30.7
	c-10.3,4.1-20.4,8.1-30.6,12.2c2,2,3.9,3.8,5.8,5.5c-11.1,11-22,22-33,32.9c-8.4-8.4-17-17-25.6-25.7
	C57,101.3,45.2,113.2,33.1,125.3z"/>
<path class="st0" d="M24.3,144.8c0-34.9,0-69.7,0-104.5c1.2,0,2.3,0,3.6,0c0,0.7,0,1.4,0,2c0,32.4,0,64.7,0,97.1
	c0,2.1-0.2,1.8,1.8,1.8c41.4,0,82.7,0,124.1,0c0.7,0,1.3,0,2.1,0c0,1.2,0,2.3,0,3.5C112,144.8,68.2,144.8,24.3,144.8z"/>
</svg>
