<?xml version="1.0" encoding="utf-8"?>
<!-- Generator: Adobe Illustrator 23.0.6, SVG Export Plug-In . SVG Version: 6.00 Build 0)  -->
<svg version="1.1" id="Layer_1" xmlns="http://www.w3.org/2000/svg" xmlns:xlink="http://www.w3.org/1999/xlink" x="0px" y="0px"
	 viewBox="0 0 180.1 177.9" style="enable-background:new 0 0 180.1 177.9;" xml:space="preserve">
<style type="text/css">
	.st0{fill:#FF9600;}
</style>
<g>
	<path class="st0" d="M29.1,45.1c5.8,0,11.2,0,16.9,0c0.1,1.6,0.3,3,0.3,4.4c0,10.9,0,21.7,0.1,32.6c0,5,0.3,10.1,0.5,15.1
		c0,1.6-0.1,3.2-0.1,4.8c0,1,0.2,2,0.3,3.1c2.8-1.2,3.1-3.2,3.1-5.5c0-11.6,0-23.3,0-34.9c0-5.4,0-10.8,0-16.1
		c0-1.2,0.2-2.3,0.2-3.5c5.9,0,11.5,0,17.7,0c0.3,6.7,0.1,13.1,0.1,19.5c0,6.3,0,12.6,0,19.2c2.8-1.2,3.2-3,3.2-5.2
		c0-9.9,0-19.8,0-29.7c0-1.3,0.2-2.5,0.2-3.8c5.9,0,11.6,0,17.7,0c0.1,5.9,0.2,11.5,0.3,17.8c1.3-1.2,2.1-1.9,2.9-2.6
		c3.1-3,6.1-6.1,9.1-9.1c7.7-7.8,20.2-8.8,29.6-2.3c3.9,2.7,6.4,6.6,9.4,10.2c7.9,9.4,15.6,18.9,23.4,28.4c1,1.2,1.9,2.5,2.9,3.7
		c-0.2,0.2-0.3,0.4-0.5,0.5c-3.5-2.1-7.1-4.3-10.6-6.4c-9.6-5.7-19.3-11.4-28.9-17.1c-5.6-3.3-10.9-2.7-16,0.9
		c-8.4,6.1-16.8,12.3-25.2,18.5c-22.8,16.8-45.6,33.6-68.4,50.3c-1.3,0.9-2.5,1.9-4.2,2.5c0.3-0.4,0.5-1,0.8-1.3
		c4.5-4.6,9.1-9.1,13.5-13.8c0.9-1,1.2-2.9,1.2-4.4c0.1-13.2,0.1-26.5,0.1-39.7c0-10.8,0-21.5,0-32.3C28.8,47.6,29,46.4,29.1,45.1z"
		/>
	<path class="st0" d="M144.8,139.1c-0.4,0.1-0.7,0.1-1,0.1c-4.3,0-8.5,0-12.8,0c-0.6,0-0.9-0.2-1.2-0.7c-2-3.1-4.1-6.1-6.2-9.2
		c-1.4-2.1-2.9-4.3-4.3-6.4c-0.1-0.2-0.2-0.3-0.4-0.5c-1.1,1.1-2.1,2.1-3.1,3.2c-0.2,0.2-0.2,0.7-0.2,1.1c0,3.7,0,7.3,0,11
		c0,1.4,0,1.4-1.4,1.4c-3.4,0-6.7,0-10.1,0c-0.3,0-0.5,0-0.8,0c-0.3,0-0.5-0.2-0.5-0.5c0-0.2,0-0.4,0-0.7c0-4.4,0-8.8,0-13.2
		c0-0.7,0.2-1.2,0.7-1.7c2.3-2.5,4.6-5,6.9-7.5c1.1-1.2,2.3-2.5,3.4-3.7c2.8-3,5.6-6.1,8.4-9.1c1-1.1,2-2.2,3.1-3.3
		c1.7-1.9,3.4-3.7,5.1-5.6c0.3-0.4,0.6-0.6,1.1-0.6c3.8,0,7.6,0,11.4,0c0.1,0,0.3,0.1,0.6,0.1c-1,1.5-2.2,2.8-3.3,4.2
		c-1.1,1.4-2.2,2.7-3.3,4.1c-1.1,1.3-2.1,2.7-3.2,4c-1.1,1.4-2.2,2.7-3.3,4.1c-1.1,1.4-2.2,2.7-3.3,4.1
		C133,122.3,138.8,130.6,144.8,139.1z"/>
	<path class="st0" d="M102.9,113.4c0-0.3,0-0.6,0-0.9c0-6,0-12,0-17.9c0-0.2,0-0.3,0-0.5c0-0.5,0.2-0.7,0.7-0.7c0.2,0,0.4,0,0.7,0
		c3.4,0,6.7,0,10.1,0c0.3,0,0.5,0,0.8,0c0.4,0,0.6,0.2,0.6,0.6c0,0.2,0,0.4,0,0.7c0,1.3-0.1,2.6,0,3.9c0.1,1-0.3,1.8-1,2.5
		c-1.8,1.9-3.6,3.8-5.3,5.7c-1.8,2-3.6,4-5.4,6c-0.2,0.2-0.5,0.5-0.7,0.7C103.1,113.4,103,113.4,102.9,113.4z"/>
</g>
</svg>
