<?xml version="1.0" encoding="utf-8"?>
<!-- Generator: Adobe Illustrator 23.0.6, SVG Export Plug-In . SVG Version: 6.00 Build 0)  -->
<svg version="1.1" id="Layer_1" xmlns="http://www.w3.org/2000/svg" xmlns:xlink="http://www.w3.org/1999/xlink" x="0px" y="0px"
	 viewBox="0 0 180.1 177.9" style="enable-background:new 0 0 180.1 177.9;" xml:space="preserve">
<style type="text/css">
	.st0{fill:#FF9600;}
</style>
<path class="st0" d="M99.4,63.4c-4.1,2.2-7.9,5-11.4,8C81.5,77,77.9,84.2,76.2,92.5c-1,5.1-1.1,10.2-1.1,15.4
	c0,10.5,0.1,20.9,0.1,31.4c0,2.7,0,2.7-2.7,2.7c-6.8,0-13.6,0-20.3,0c-4.8,0-8.5-2.1-10.9-6.4c-0.3-0.6-0.5-1.3-0.5-2
	c0-14.1,0-28.3,0-42.4c0-0.8,0.2-1.3,0.8-1.7C54.7,78.9,67.8,68.3,81,57.6c0.8-0.6,1.4-1.4,2.2-2c1-0.8,2-1.5,3.2-2.1
	c1.4-0.7,2.9-0.5,4.1,0.6c0.6,0.6,1.3,1,1.9,1.6C94.7,58.3,97,60.9,99.4,63.4z"/>
<path class="st0" d="M155.9,106.4c0,21-17.1,38-38.1,38c-21,0-38-17.1-38-38.1c0-21,17.1-38,38.2-37.9
	C139,68.3,155.9,85.4,155.9,106.4z M117.9,75.5c-17,0-30.8,13.7-30.8,30.7c0,17,13.8,30.8,30.8,30.8c17,0,30.8-13.8,30.8-30.7
	C148.7,89.3,134.9,75.5,117.9,75.5z"/>
<path class="st0" d="M121.3,57.5c-2.9,2.1-5.8,3.7-9.3,2.8c-1-0.2-2-0.8-2.8-1.4C103,54,96.8,49.1,90.6,44.1c-1.9-1.5-3.7-1.5-5.6,0
	C67.5,58,49.9,71.9,32.3,85.7c-1.5,1.1-5.2,1.3-6.7,0.3c-0.9-0.6-1.4-1.5-1.4-2.5c0-1.3,0.2-2.6,0.4-3.9c0-0.3,0.4-0.5,0.6-0.7
	c15.4-11.8,30.9-23.6,46.4-35.4c3.5-2.7,7.1-5.4,10.6-8.1c4-3.1,8.4-3.1,12.3,0.1c8.7,7.1,17.4,14.2,26.2,21.4
	C120.8,57.1,121,57.2,121.3,57.5z"/>
<path class="st0" d="M42.6,59.9c0-0.5,0-0.7,0-1c0-4.7,0-9.5,0-14.2c0-1.6,0.7-2.8,2.1-3.3c1-0.4,2-0.6,3-0.6
	c5.7,0.3,11.3,0.8,17,1.2c0,0,0.1,0,0.3,0.1C57.5,48.1,50.2,53.9,42.6,59.9z"/>
<path class="st0" d="M123.4,126.8c0,2.9,0,5.9,0,8.9c-1,0-1.9,0-2.9,0c0-2.9,0-5.7,0-8.6c-1.8-0.2-3.5-0.3-5.1-0.6
	c-2.2-0.5-4.4-1.3-6.6-1.9c-0.5-0.1-0.7-0.4-0.7-1c0-1.5,0-2.9,0-4.5c0.4,0.2,0.6,0.3,0.8,0.5c3.2,1.9,6.7,3.1,10.5,3.3
	c0.8,0,1.1-0.1,1-1c0-3.8,0-7.7,0-11.5c0-0.7-0.2-0.9-0.9-1.1c-2.1-0.6-4.3-1.1-6.3-2c-4-1.8-5.5-5.2-5.2-9.5c0.3-4.1,2.4-7,6.3-8.4
	c1.8-0.6,3.8-0.8,5.9-1.3c0-2.1,0-4.4,0-6.7c1,0,1.9,0,2.9,0c0,2.2,0,4.4,0,6.7c1.6,0.2,3.1,0.2,4.6,0.5c1.7,0.3,3.3,0.8,5,1.2
	c0.5,0.1,0.7,0.3,0.7,0.9c0,1.4,0,2.9,0,4.4c-3.3-1.6-6.6-2.6-10.2-2.6c0,0.3,0,0.6,0,0.9c0,3.6,0,7.1,0,10.7c0,0.7,0.3,0.9,0.9,1
	c1.9,0.5,3.8,0.9,5.6,1.6c5.1,2.1,7.3,6.4,6.1,11.8c-1,4.5-4.1,6.8-8.4,7.8C126.3,126.6,124.9,126.7,123.4,126.8z M123.4,122.7
	c2.4-0.4,4.7-0.9,6.3-2.9c1.6-2,1.6-5.2-0.1-7c-1.6-1.8-3.9-2.3-6.2-2.8C123.4,114.3,123.4,118.5,123.4,122.7z M120.4,92.5
	c-1.9,0-4.3,0.9-5.5,2.2c-1.8,1.9-1.9,5.4-0.2,7.3c1.5,1.6,3.5,2,5.6,2.4C120.4,100.4,120.4,96.5,120.4,92.5z"/>
</svg>
